<svg width="25" height="25" viewBox="0 0 25 25" fill="none" xmlns="http://www.w3.org/2000/svg">
<path d="M11.5928 13.1836C15.2276 13.1836 18.1846 10.2266 18.1846 6.5918C18.1846 2.95696 15.2276 0 11.5928 0C7.95794 0 5.00098 2.95696 5.00098 6.5918C5.00098 10.2266 7.95794 13.1836 11.5928 13.1836Z" fill="white"/>
<path d="M4.56238 10.5152L0 15.0776L3.10707 18.1847L7.66945 13.6223C6.36883 12.8935 5.29118 11.8158 4.56238 10.5152Z" fill="white"/>
<path d="M23.4863 8.78906H19.043V23.5352H17.5781V16.1133H13.1836V23.5352H11.7188V19.043H7.32422V23.5352H5.85938V25H25V23.5352H23.4863V8.78906Z" fill="white"/>
</svg>
