<svg width="75" height="75" viewBox="0 0 75 75" fill="none" xmlns="http://www.w3.org/2000/svg">
<g clip-path="url(#clip0)">
<path d="M2.46104 5H72.3358C73.7654 5 74.9238 6.15831 74.9238 7.58799V23.1159C74.9238 24.5456 73.7654 25.7034 72.3358 25.7034H2.46104C1.03135 25.7034 -0.126953 24.5456 -0.126953 23.1159V7.58799C-0.126953 6.15831 1.03135 5 2.46104 5Z" fill="#4398D1"/>
<path d="M72.3358 5H46.4564L25.7524 25.7034H72.3358C73.7654 25.7034 74.9237 24.5456 74.9237 23.1159V7.58799C74.9237 6.15831 73.7654 5 72.3358 5Z" fill="#3E8CC7"/>
<path d="M69.7478 15.352C69.7478 16.7812 68.589 17.94 67.1598 17.94C65.7306 17.94 64.5718 16.7812 64.5718 15.352C64.5718 13.9228 65.7306 12.764 67.1598 12.764C68.589 12.764 69.7478 13.9228 69.7478 15.352Z" fill="#88B337"/>
<path d="M59.3957 15.352C59.3957 16.7812 58.2374 17.94 56.8077 17.94C55.3785 17.94 54.2202 16.7812 54.2202 15.352C54.2202 13.9228 55.3785 12.764 56.8077 12.764C58.2374 12.764 59.3957 13.9228 59.3957 15.352Z" fill="#88B337"/>
<path d="M49.0441 15.352C49.0441 16.7812 47.8853 17.94 46.4562 17.94C45.027 17.94 43.8682 16.7812 43.8682 15.352C43.8682 13.9228 45.027 12.764 46.4562 12.764C47.8853 12.764 49.0441 13.9228 49.0441 15.352Z" fill="#88B337"/>
<path d="M3.75488 16.646H6.34287V21.8219H3.75488V16.646Z" fill="#126099"/>
<path d="M8.93115 16.646H11.5191V21.8219H8.93115V16.646Z" fill="#126099"/>
<path d="M14.1069 16.646H16.6949V21.8219H14.1069V16.646Z" fill="#126099"/>
<path d="M19.2827 16.646H21.8707V21.8219H19.2827V16.646Z" fill="#126099"/>
<path d="M24.4585 16.646H27.0465V21.8219H24.4585V16.646Z" fill="#126099"/>
<path d="M29.6343 16.646H32.2223V21.8219H29.6343V16.646Z" fill="#126099"/>
<path d="M3.75488 8.88199H6.34287V14.058H3.75488V8.88199Z" fill="#126099"/>
<path d="M8.93115 8.88199H11.5191V14.058H8.93115V8.88199Z" fill="#126099"/>
<path d="M14.1069 8.88199H16.6949V14.058H14.1069V8.88199Z" fill="#126099"/>
<path d="M19.2827 8.88199H21.8707V14.058H19.2827V8.88199Z" fill="#126099"/>
<path d="M24.4585 8.88199H27.0465V14.058H24.4585V8.88199Z" fill="#126099"/>
<path d="M29.6343 8.88199H32.2223V14.058H29.6343V8.88199Z" fill="#126099"/>
<path d="M56.8081 25.7526L45.1626 37.3986H51.6326V49.0445H61.984V37.3986H68.454L56.8081 25.7526Z" fill="#87CED9"/>
<path d="M17.9892 49.0445L29.6347 37.3986H23.1647V25.7526H12.8132V37.3986H6.34326L17.9892 49.0445Z" fill="#87CED9"/>
<path d="M2.46104 49H72.3358C73.7654 49 74.9238 50.1578 74.9238 51.5875V67.1154C74.9238 68.5451 73.7654 69.7034 72.3358 69.7034H2.46104C1.03135 69.7034 -0.126953 68.5451 -0.126953 67.1154V51.5875C-0.126953 50.1578 1.03135 49 2.46104 49Z" fill="#4398D1"/>
<path d="M72.3358 49H46.4564L25.7524 69.7034H72.3358C73.7654 69.7034 74.9237 68.5451 74.9237 67.1154V51.5875C74.9237 50.1578 73.7654 49 72.3358 49Z" fill="#3E8CC7"/>
<path d="M69.7478 59.3514C69.7478 60.7806 68.589 61.9394 67.1598 61.9394C65.7306 61.9394 64.5718 60.7806 64.5718 59.3514C64.5718 57.9223 65.7306 56.7635 67.1598 56.7635C68.589 56.7635 69.7478 57.9223 69.7478 59.3514Z" fill="#88B337"/>
<path d="M59.3957 59.3514C59.3957 60.7806 58.2374 61.9394 56.8077 61.9394C55.3785 61.9394 54.2202 60.7806 54.2202 59.3514C54.2202 57.9223 55.3785 56.7635 56.8077 56.7635C58.2374 56.7635 59.3957 57.9223 59.3957 59.3514Z" fill="#88B337"/>
<path d="M49.0441 59.3514C49.0441 60.7806 47.8853 61.9394 46.4562 61.9394C45.027 61.9394 43.8682 60.7806 43.8682 59.3514C43.8682 57.9223 45.027 56.7635 46.4562 56.7635C47.8853 56.7635 49.0441 57.9223 49.0441 59.3514Z" fill="#88B337"/>
<path d="M3.75488 60.6454H6.34287V65.8214H3.75488V60.6454Z" fill="#126099"/>
<path d="M8.93115 60.6454H11.5191V65.8214H8.93115V60.6454Z" fill="#126099"/>
<path d="M14.1069 60.6454H16.6949V65.8214H14.1069V60.6454Z" fill="#126099"/>
<path d="M19.2827 60.6454H21.8707V65.8214H19.2827V60.6454Z" fill="#126099"/>
<path d="M24.4585 60.6454H27.0465V65.8214H24.4585V60.6454Z" fill="#126099"/>
<path d="M29.6343 60.6454H32.2223V65.8214H29.6343V60.6454Z" fill="#126099"/>
<path d="M3.75488 52.8815H6.34287V58.0575H3.75488V52.8815Z" fill="#126099"/>
<path d="M8.93115 52.8815H11.5191V58.0575H8.93115V52.8815Z" fill="#126099"/>
<path d="M14.1069 52.8815H16.6949V58.0575H14.1069V52.8815Z" fill="#126099"/>
<path d="M19.2827 52.8815H21.8707V58.0575H19.2827V52.8815Z" fill="#126099"/>
<path d="M24.4585 52.8815H27.0465V58.0575H24.4585V52.8815Z" fill="#126099"/>
<path d="M29.6343 52.8815H32.2223V58.0575H29.6343V52.8815Z" fill="#126099"/>
<path d="M23.1642 32.2226L12.1655 43.2213L17.9888 49.0445L29.6342 37.3986H23.1642V32.2226Z" fill="#71C4D1"/>
<path d="M51.6323 43.8685V49.0445H61.9838V37.3986H68.4538L63.2778 32.2226L51.6323 43.8685Z" fill="#71C4D1"/>
</g>
<defs>
<clipPath id="clip0">
<rect width="75" height="75" fill="white"/>
</clipPath>
</defs>
</svg>
