<svg width="350" height="309" viewBox="0 0 350 309" fill="none" xmlns="http://www.w3.org/2000/svg">
<path d="M216.001 8.49998C191.984 8.49997 178.463 6.88194 154.501 8.49992C118.533 10.9285 91.7287 1.5778 63.5008 24C39.8374 42.7964 34.9777 63.2193 27.5007 92.5C14.8398 142.081 20.781 178.357 47.5008 222C83.9324 281.505 140.528 323.702 207 302.5C249.753 288.863 281.598 269.23 309.501 228.5C331.975 195.694 339.317 171.675 342.001 132C345.366 82.2418 352.325 34.0593 309.501 8.49994C278.147 -10.2135 252.515 8.49999 216.001 8.49998Z" fill="#87B9F9" fill-opacity="0.2"/>
<g clip-path="url(#clip0)">
<path d="M294.735 0.632704L2.08496 80.528L41.5145 224.955L334.164 145.06L294.735 0.632704Z" fill="#F5F5F5"/>
<path d="M296.341 -6.1322e-05L0.00292969 80.9021L40.3976 228.865L336.736 147.962L296.341 -6.1322e-05Z" fill="url(#paint0_linear)"/>
<path d="M298.712 15.2057L6.0625 95.101L41.4874 224.859L334.137 144.964L298.712 15.2057Z" fill="white"/>
<path d="M11.1847 88.9654C13.2118 88.4164 14.41 86.3281 13.861 84.3011C13.312 82.274 11.2237 81.0758 9.19667 81.6248C7.16962 82.1738 5.97142 84.2621 6.52041 86.2891C7.0694 88.3162 9.1577 89.5144 11.1847 88.9654Z" fill="#FF5252"/>
<path d="M23.04 86.3136C25.0769 85.7574 26.2774 83.6553 25.7213 81.6184C25.1652 79.5814 23.0631 78.381 21.0261 78.9371C18.9892 79.4932 17.7887 81.5952 18.3448 83.6322C18.9009 85.6692 21.003 86.8697 23.04 86.3136Z" fill="#FFFF00"/>
<path d="M34.1083 83.2909C36.1453 82.7348 37.3458 80.6326 36.7897 78.5957C36.2336 76.5587 34.1315 75.3582 32.0945 75.9143C30.0575 76.4705 28.8571 78.5725 29.4132 80.6095C29.9693 82.6465 32.0714 83.847 34.1083 83.2909Z" fill="#69F0AE"/>
<path d="M83.0691 73.8913L6.01367 94.9279L41.4855 224.859L118.541 203.822L83.0691 73.8913Z" fill="#2B7BE1"/>
<path d="M76.1317 119.389C73.1969 108.637 61.6399 102.426 50.3249 105.508C39.0099 108.589 32.2241 119.829 35.143 130.585C37.4473 139.024 45.0581 144.664 53.7 145.207L52.3317 140.19C51.3402 136.565 53.6564 132.746 57.4875 131.703C61.3028 130.66 65.2371 132.774 66.2127 136.403L67.581 141.42C74.7436 136.554 78.436 127.808 76.1317 119.389Z" fill="url(#paint1_linear)"/>
<path d="M56.7828 128.642L56.5073 128.717C55.903 128.882 55.5468 129.506 55.7118 130.11L57.3684 136.178C57.5334 136.782 58.1571 137.138 58.7614 136.973L59.0369 136.898C59.6412 136.733 59.9973 136.11 59.8324 135.505L58.1758 129.437C58.0108 128.833 57.3871 128.477 56.7828 128.642Z" fill="url(#paint2_linear)"/>
<path d="M56.959 129.786C61.3097 128.598 63.922 124.285 62.7936 120.151C61.6652 116.018 57.2236 113.631 52.8728 114.819C48.5221 116.006 45.9098 120.32 47.0382 124.453C48.1666 128.586 52.6082 130.974 56.959 129.786Z" fill="url(#paint3_linear)"/>
<path d="M57.4713 131.699C53.656 132.742 51.3439 136.561 52.3155 140.186L53.6838 145.203C58.6016 145.503 63.4809 144.172 67.5648 141.416L66.1966 136.399C65.2209 132.774 61.2866 130.66 57.4713 131.699Z" fill="url(#paint4_linear)"/>
<path d="M46.8618 124.057C45.9186 123.078 45.2711 121.853 44.9939 120.523C44.8634 119.853 44.8681 119.164 45.0078 118.496C45.1474 117.827 45.4191 117.194 45.8069 116.632C46.6992 115.391 48.1865 114.649 49.638 114.114C51.0896 113.578 52.6522 113.241 54.0562 112.563C56.3681 111.445 58.1485 109.464 59.0137 107.046C59.4598 108.1 59.751 109.213 59.8783 110.35C59.9359 110.929 59.8722 111.514 59.6912 112.067C59.5103 112.62 59.216 113.13 58.8273 113.563C59.8783 112.71 60.0885 113.959 60.0171 114.788C60.8103 115.308 62.2658 115.026 62.5791 115.887C62.934 116.733 63.0704 117.655 62.9757 118.568C62.8369 119.476 63.6142 120.805 62.706 121.118" fill="url(#paint5_linear)"/>
<path d="M74.307 116.803C73.3326 113.239 71.3986 110.01 68.7156 107.47C66.0327 104.929 62.7038 103.174 59.0918 102.395C55.4798 101.616 51.7234 101.844 48.232 103.054C44.7406 104.263 41.6482 106.408 39.2918 109.254C36.9355 112.1 35.4057 115.538 34.8692 119.194C34.3327 122.85 34.81 126.583 36.2492 129.986C37.6884 133.389 40.0342 136.332 43.0308 138.494C46.0275 140.655 49.5601 141.953 53.2435 142.245L51.8752 137.228C51.4033 135.48 51.6422 133.616 52.5399 132.044C53.4376 130.471 54.921 129.318 56.6662 128.836C58.4142 128.364 60.2779 128.603 61.8503 129.5C63.4227 130.398 64.576 131.882 65.0582 133.627L66.4265 138.644C69.8283 136.257 72.4107 132.879 73.8211 128.97C75.2315 125.061 75.4012 120.812 74.307 116.803Z" fill="#2B7BE1"/>
<path d="M55.924 125.797L55.771 125.838C55.1667 126.003 54.8105 126.627 54.9755 127.231L56.6321 133.299C56.7971 133.904 57.4207 134.26 58.0251 134.095L58.1781 134.053C58.7824 133.888 59.1386 133.265 58.9736 132.66L57.317 126.592C57.152 125.988 56.5284 125.632 55.924 125.797Z" fill="white" stroke="white" stroke-miterlimit="10"/>
<path d="M56.1616 126.924C60.2947 125.796 62.7305 121.53 61.6021 117.397C60.4738 113.264 56.2085 110.828 52.0754 111.957C47.9423 113.085 45.5065 117.35 46.6349 121.483C47.7632 125.617 52.0285 128.052 56.1616 126.924Z" fill="white" stroke="white" stroke-miterlimit="10"/>
<path d="M56.6705 128.836C54.9253 129.318 53.4418 130.471 52.5442 132.044C51.6465 133.616 51.4076 135.48 51.8795 137.228L53.2438 142.245C57.9226 142.608 62.5822 141.335 66.4268 138.644L65.0585 133.627C64.5762 131.882 63.4236 130.4 61.8521 129.502C60.2806 128.604 58.4179 128.365 56.6705 128.836Z" fill="white" stroke="white" stroke-miterlimit="10"/>
<path d="M46.4577 121.066C45.5422 120.07 44.9121 118.845 44.6333 117.521C44.3616 116.186 44.622 114.799 45.3591 113.654C46.1959 112.428 47.584 111.695 48.9801 111.191C50.3761 110.687 51.8435 110.362 53.1721 109.7C54.2697 109.147 55.2465 108.382 56.0458 107.448C56.8451 106.515 57.451 105.432 57.8282 104.262C58.2679 105.319 58.5602 106.43 58.6968 107.566C58.7594 108.133 58.7063 108.706 58.5406 109.251C58.375 109.797 58.1002 110.303 57.7331 110.739C58.7246 109.902 58.9229 111.167 58.8951 111.976C59.6447 112.504 61.0447 112.242 61.354 113.103C61.7072 113.948 61.8527 114.866 61.7784 115.78C61.6554 116.684 62.4169 118.016 61.5523 118.318" fill="white"/>
<path d="M46.4577 121.066C45.5422 120.07 44.9121 118.845 44.6333 117.521C44.3616 116.186 44.622 114.799 45.3591 113.654C46.1959 112.428 47.584 111.695 48.9801 111.191C50.3761 110.687 51.8435 110.362 53.1721 109.7C54.2697 109.147 55.2465 108.382 56.0458 107.448C56.8451 106.515 57.451 105.432 57.8282 104.262C58.2679 105.319 58.5602 106.43 58.6968 107.566C58.7594 108.133 58.7063 108.706 58.5406 109.251C58.375 109.797 58.1002 110.303 57.7331 110.739C58.7246 109.902 58.9229 111.167 58.8951 111.976C59.6447 112.504 61.0447 112.242 61.354 113.103C61.7072 113.948 61.8527 114.866 61.7784 115.78C61.6554 116.684 62.4169 118.016 61.5523 118.318" stroke="white" stroke-miterlimit="10"/>
<path d="M58.0977 110.481C58.0977 110.481 63.4438 109.509 61.8416 118.274L58.0977 110.481Z" fill="white"/>
<path opacity="0.1" d="M100.603 138.91L23.5479 159.947L41.2274 224.705L118.283 203.669L100.603 138.91Z" fill="black"/>
<path d="M79.8164 159.564L42.1074 169.859L43.1143 173.547L80.8233 163.253L79.8164 159.564Z" fill="white"/>
<path d="M91.1838 165.709L44.457 178.466L45.4639 182.154L92.1908 169.398L91.1838 165.709Z" fill="white"/>
<path d="M154.117 63.05L98.376 78.2676L105.874 105.731L161.614 90.5129L154.117 63.05Z" fill="#F5F5F5"/>
<path d="M161.391 89.689L105.65 104.907L113.148 132.37L168.889 117.152L161.391 89.689Z" fill="#E0E0E0"/>
<path d="M286.507 26.9087L230.767 42.1263L238.264 69.5893L294.005 54.3717L286.507 26.9087Z" fill="#F5F5F5"/>
<path d="M293.778 53.5478L238.037 68.7654L245.535 96.2283L301.276 81.0107L293.778 53.5478Z" fill="#E0E0E0"/>
<path d="M220.107 45.0333L164.366 60.2509L171.864 87.7138L227.605 72.4962L220.107 45.0333Z" fill="#F5F5F5"/>
<path d="M227.38 71.6772L171.639 86.8948L179.136 114.358L234.877 99.1401L227.38 71.6772Z" fill="#E0E0E0"/>
<path d="M169.415 125.332L113.945 140.355L121.347 167.684L176.817 152.661L169.415 125.332Z" fill="#E0E0E0"/>
<path d="M178.397 151.991L122.656 167.209L130.154 194.672L185.895 179.454L178.397 151.991Z" fill="#BDBDBD"/>
<path d="M303.511 89.2072L247.771 104.425L255.268 131.888L311.009 116.67L303.511 89.2072Z" fill="#F5F5F5"/>
<path d="M310.788 115.85L255.047 131.068L262.544 158.531L318.285 143.313L310.788 115.85Z" fill="#BDBDBD"/>
<path d="M237.113 107.336L181.372 122.553L188.87 150.016L244.61 134.799L237.113 107.336Z" fill="#F5F5F5"/>
<path d="M244.387 133.975L188.646 149.192L196.144 176.655L251.885 161.437L244.387 133.975Z" fill="#BDBDBD"/>
<path d="M115.524 108.819C118.92 107.892 120.971 104.571 120.106 101.402C119.24 98.2323 115.786 96.4144 112.391 97.3414C108.995 98.2684 106.944 101.589 107.809 104.759C108.674 107.928 112.128 109.746 115.524 108.819Z" fill="url(#paint6_linear)"/>
<path d="M113.964 107.89C116.893 107.097 118.624 104.079 117.831 101.15C117.038 98.221 114.02 96.4896 111.091 97.2829C108.162 98.0762 106.43 101.094 107.224 104.023C108.017 106.952 111.034 108.684 113.964 107.89Z" fill="#2B7BE1"/>
<path d="M180.695 91.0267C184.091 90.0997 186.142 86.7788 185.277 83.6092C184.411 80.4396 180.957 78.6217 177.561 79.5488C174.166 80.4758 172.115 83.7967 172.98 86.9663C173.845 90.1358 177.299 91.9538 180.695 91.0267Z" fill="url(#paint7_linear)"/>
<path d="M180.472 90.2088C183.416 89.4053 185.15 86.3677 184.347 83.4242C183.543 80.4808 180.505 78.746 177.562 79.5496C174.619 80.3532 172.884 83.3908 173.687 86.3343C174.491 89.2777 177.529 91.0124 180.472 90.2088Z" fill="#2B7BE1"/>
<path d="M247.915 72.6741C251.31 71.7471 253.362 68.4262 252.496 65.2566C251.631 62.087 248.177 60.2691 244.781 61.1962C241.386 62.1232 239.334 65.4441 240.2 68.6137C241.065 71.7832 244.519 73.6012 247.915 72.6741Z" fill="url(#paint8_linear)"/>
<path d="M247.692 71.8563C250.635 71.0527 252.37 68.0151 251.566 65.0717C250.763 62.1282 247.725 60.3935 244.782 61.1971C241.838 62.0007 240.104 65.0382 240.907 67.9817C241.711 70.9252 244.748 72.6599 247.692 71.8563Z" fill="#2B7BE1"/>
<path d="M132.645 171.529C136.041 170.602 138.092 167.281 137.227 164.112C136.361 160.942 132.907 159.124 129.512 160.051C126.116 160.978 124.065 164.299 124.93 167.469C125.795 170.638 129.25 172.456 132.645 171.529Z" fill="url(#paint9_linear)"/>
<path d="M132.421 170.712C135.365 169.909 137.099 166.871 136.296 163.928C135.492 160.984 132.455 159.249 129.511 160.053C126.568 160.857 124.833 163.894 125.637 166.838C126.44 169.781 129.478 171.516 132.421 170.712Z" fill="#2196F3"/>
<path d="M197.816 153.736C201.212 152.809 203.263 149.488 202.398 146.319C201.532 143.149 198.078 141.331 194.683 142.258C191.287 143.185 189.236 146.506 190.101 149.676C190.966 152.845 194.42 154.663 197.816 153.736Z" fill="url(#paint10_linear)"/>
<path d="M197.589 152.92C200.533 152.116 202.267 149.079 201.464 146.135C200.66 143.192 197.623 141.457 194.679 142.26C191.736 143.064 190.001 146.102 190.805 149.045C191.608 151.989 194.646 153.723 197.589 152.92Z" fill="#2196F3"/>
<path d="M265.032 135.385C268.428 134.458 270.479 131.137 269.613 127.967C268.748 124.798 265.294 122.98 261.898 123.907C258.503 124.834 256.451 128.155 257.317 131.324C258.182 134.494 261.636 136.312 265.032 135.385Z" fill="url(#paint11_linear)"/>
<path d="M264.809 134.567C267.752 133.763 269.487 130.726 268.684 127.782C267.88 124.839 264.842 123.104 261.899 123.908C258.956 124.711 257.221 127.749 258.024 130.692C258.828 133.636 261.866 135.371 264.809 134.567Z" fill="#2196F3"/>
<path d="M348.287 119.079H44.9268V268.792H348.287V119.079Z" fill="#F5F5F5"/>
<path d="M350 118.893H42.8174V272.27H350V118.893Z" fill="url(#paint12_linear)"/>
<path d="M348.287 134.19H44.9268V268.697H348.287V134.19Z" fill="white"/>
<path d="M52.1494 130.184C54.2609 130.184 55.9726 128.472 55.9726 126.361C55.9726 124.249 54.2609 122.538 52.1494 122.538C50.0379 122.538 48.3262 124.249 48.3262 126.361C48.3262 128.472 50.0379 130.184 52.1494 130.184Z" fill="#FF5252"/>
<path d="M63.6191 130.184C65.7306 130.184 67.4424 128.472 67.4424 126.361C67.4424 124.249 65.7306 122.538 63.6191 122.538C61.5076 122.538 59.7959 124.249 59.7959 126.361C59.7959 128.472 61.5076 130.184 63.6191 130.184Z" fill="#FFFF00"/>
<path d="M75.0918 130.184C77.2033 130.184 78.915 128.472 78.915 126.361C78.915 124.249 77.2033 122.538 75.0918 122.538C72.9803 122.538 71.2686 124.249 71.2686 126.361C71.2686 128.472 72.9803 130.184 75.0918 130.184Z" fill="#69F0AE"/>
<path d="M124.802 134.011H44.9268V268.697H124.802V134.011Z" fill="#2B7BE1"/>
<path d="M106.123 176.075C106.123 164.93 96.6042 155.892 84.8806 155.892C73.1571 155.892 63.6348 164.926 63.6348 176.075C63.6348 184.824 69.4926 192.268 77.6863 195.068V189.869C77.6863 186.109 80.9226 183.035 84.8806 183.035C88.8467 183.035 92.075 186.109 92.075 189.869V195.068C100.265 192.268 106.123 184.82 106.123 176.075Z" fill="url(#paint13_linear)"/>
<path d="M85.0194 179.906H84.7339C84.1074 179.906 83.5996 180.414 83.5996 181.04V187.33C83.5996 187.957 84.1074 188.465 84.7339 188.465H85.0194C85.6459 188.465 86.1537 187.957 86.1537 187.33V181.04C86.1537 180.414 85.6459 179.906 85.0194 179.906Z" fill="url(#paint14_linear)"/>
<path d="M84.8926 181.056C89.4025 181.056 93.0586 177.583 93.0586 173.299C93.0586 169.014 89.4025 165.541 84.8926 165.541C80.3826 165.541 76.7266 169.014 76.7266 173.299C76.7266 177.583 80.3826 181.056 84.8926 181.056Z" fill="url(#paint15_linear)"/>
<path d="M84.8809 183.035C80.9148 183.035 77.6865 186.109 77.6865 189.869V195.068C82.3508 196.651 87.407 196.651 92.0712 195.068V189.869C92.0712 186.109 88.835 183.035 84.8809 183.035Z" fill="url(#paint16_linear)"/>
<path d="M76.6428 172.866C75.9898 171.674 75.6873 170.321 75.7703 168.964C75.821 168.283 76.0071 167.62 76.3177 167.012C76.6282 166.405 77.057 165.866 77.5788 165.426C78.7686 164.462 80.3827 164.121 81.9414 164.002C83.5 163.883 85.0785 163.955 86.6133 163.669C89.1379 163.199 91.3769 161.756 92.8479 159.652C93.0008 160.786 92.9888 161.936 92.8122 163.066C92.7149 163.64 92.4993 164.187 92.1791 164.672C91.8588 165.158 91.441 165.571 90.9521 165.886C92.1935 165.343 92.0586 166.62 91.789 167.385C92.4037 168.091 93.8989 168.206 93.9742 169.118C94.098 170.029 93.9902 170.957 93.6609 171.815C93.2841 172.656 93.6887 174.139 92.7289 174.195" fill="url(#paint17_linear)"/>
<path d="M105.044 173.1C105.043 169.405 104.028 165.781 102.11 162.623C100.191 159.464 97.4419 156.894 94.1623 155.191C90.8828 153.488 87.1987 152.718 83.5117 152.965C79.8246 153.212 76.2761 154.466 73.2531 156.591C70.23 158.717 67.8485 161.631 66.3681 165.017C64.8877 168.403 64.3653 172.13 64.8578 175.792C65.3503 179.455 66.8388 182.912 69.1611 185.786C71.4834 188.661 74.5502 190.842 78.0273 192.093V186.902C78.0326 185.091 78.7542 183.356 80.0346 182.076C81.3149 180.795 83.05 180.074 84.8608 180.069C86.6749 180.069 88.4151 180.788 89.6997 182.069C90.9844 183.35 91.7088 185.088 91.714 186.902V192.101C95.6208 190.69 98.9972 188.109 101.383 184.708C103.768 181.308 105.047 177.254 105.044 173.1Z" fill="#2B7BE1"/>
<path d="M84.9443 176.931H84.7856C84.1592 176.931 83.6514 177.439 83.6514 178.066V184.356C83.6514 184.982 84.1592 185.49 84.7856 185.49H84.9443C85.5707 185.49 86.0786 184.982 86.0786 184.356V178.066C86.0786 177.439 85.5707 176.931 84.9443 176.931Z" fill="white" stroke="white" stroke-miterlimit="10"/>
<path d="M84.8766 178.082C89.161 178.082 92.6342 174.608 92.6342 170.324C92.6342 166.04 89.161 162.567 84.8766 162.567C80.5923 162.567 77.1191 166.04 77.1191 170.324C77.1191 174.608 80.5923 178.082 84.8766 178.082Z" fill="white" stroke="white" stroke-miterlimit="10"/>
<path d="M84.8647 180.061C83.0526 180.066 81.3163 180.789 80.0357 182.071C78.7551 183.353 78.0344 185.09 78.0312 186.902V192.101C82.4493 193.684 87.28 193.684 91.6981 192.101V186.902C91.695 185.09 90.9743 183.353 89.6936 182.071C88.413 180.789 86.6768 180.066 84.8647 180.061Z" fill="white" stroke="white" stroke-miterlimit="10"/>
<path d="M77.0401 169.896C76.4182 168.693 76.1319 167.345 76.2112 165.993C76.3015 164.635 76.9192 163.365 77.9324 162.456C79.0627 161.492 80.5936 161.151 82.0729 161.032C83.5523 160.913 85.0514 160.984 86.5109 160.699C87.7154 160.455 88.8595 159.974 89.8767 159.284C90.8938 158.595 91.7638 157.71 92.4361 156.681C92.5821 157.815 92.5715 158.964 92.4044 160.096C92.3168 160.661 92.1148 161.203 91.8106 161.688C91.5065 162.173 91.1067 162.591 90.6355 162.916C91.8253 162.372 91.6865 163.649 91.4287 164.415C92.0118 165.121 93.4118 165.236 93.503 166.148C93.6208 167.058 93.5188 167.982 93.2055 168.845C92.8486 169.686 93.2293 171.169 92.3211 171.224" fill="white"/>
<path d="M77.0401 169.896C76.4182 168.693 76.1319 167.345 76.2112 165.993C76.3015 164.635 76.9192 163.365 77.9324 162.456C79.0627 161.492 80.5936 161.151 82.0729 161.032C83.5523 160.913 85.0514 160.984 86.5109 160.699C87.7154 160.455 88.8595 159.974 89.8767 159.284C90.8938 158.595 91.7638 157.71 92.4361 156.681C92.5821 157.815 92.5715 158.964 92.4044 160.096C92.3168 160.661 92.1148 161.203 91.8106 161.688C91.5065 162.173 91.1067 162.591 90.6355 162.916C91.8253 162.372 91.6865 163.649 91.4287 164.415C92.0118 165.121 93.4118 165.236 93.503 166.148C93.6208 167.058 93.5188 167.982 93.2055 168.845C92.8486 169.686 93.2293 171.169 92.3211 171.224" stroke="white" stroke-miterlimit="10"/>
<path d="M91.0752 162.709C91.0752 162.709 96.4888 163.181 92.6338 171.216L91.0752 162.709Z" fill="white"/>
<path opacity="0.1" d="M124.588 201.354H44.7129V268.483H124.588V201.354Z" fill="black"/>
<path d="M99.0987 215.798H60.0098V219.622H99.0987V215.798Z" fill="white"/>
<path d="M193.843 156.741H154.754V160.564H193.843V156.741Z" fill="#BDBDBD"/>
<path d="M294.536 179.684H154.754V183.507H294.536V179.684Z" fill="#E0E0E0"/>
<path d="M294.536 202.627H154.754V206.45H294.536V202.627Z" fill="#E0E0E0"/>
<path d="M193.843 225.571H154.754V229.394H193.843V225.571Z" fill="#64FFDA"/>
<path d="M243.977 225.571H204.888V229.394H243.977V225.571Z" fill="#F5F5F5"/>
<path d="M294.539 225.571H255.45V229.394H294.539V225.571Z" fill="#64FFDA"/>
<path d="M108.447 224.722H60.0098V228.545H108.447V224.722Z" fill="white"/>
</g>
<defs>
<linearGradient id="paint0_linear" x1="188.563" y1="188.414" x2="148.168" y2="40.4521" gradientUnits="userSpaceOnUse">
<stop stop-color="#808080" stop-opacity="0.25"/>
<stop offset="0.54" stop-color="#808080" stop-opacity="0.12"/>
<stop offset="1" stop-color="#808080" stop-opacity="0.1"/>
</linearGradient>
<linearGradient id="paint1_linear" x1="60.6385" y1="143.308" x2="50.3217" y2="105.519" gradientUnits="userSpaceOnUse">
<stop stop-opacity="0.12"/>
<stop offset="0.55" stop-opacity="0.09"/>
<stop offset="1" stop-opacity="0.02"/>
</linearGradient>
<linearGradient id="paint2_linear" x1="-74.7823" y1="2489.34" x2="-123.425" y2="2311.16" gradientUnits="userSpaceOnUse">
<stop stop-opacity="0.12"/>
<stop offset="0.55" stop-opacity="0.09"/>
<stop offset="1" stop-opacity="0.02"/>
</linearGradient>
<linearGradient id="paint3_linear" x1="-5047.59" y1="5354.88" x2="-5207.44" y2="4769.36" gradientUnits="userSpaceOnUse">
<stop stop-opacity="0.12"/>
<stop offset="0.55" stop-opacity="0.09"/>
<stop offset="1" stop-opacity="0.02"/>
</linearGradient>
<linearGradient id="paint4_linear" x1="-6171.92" y1="3893.95" x2="-6171.92" y2="3433.51" gradientUnits="userSpaceOnUse">
<stop stop-opacity="0.12"/>
<stop offset="0.55" stop-opacity="0.09"/>
<stop offset="1" stop-opacity="0.02"/>
</linearGradient>
<linearGradient id="paint5_linear" x1="-7298.18" y1="3795.71" x2="-7298.18" y2="3171.44" gradientUnits="userSpaceOnUse">
<stop stop-opacity="0.12"/>
<stop offset="0.55" stop-opacity="0.09"/>
<stop offset="1" stop-opacity="0.02"/>
</linearGradient>
<linearGradient id="paint6_linear" x1="107.809" y1="104.759" x2="120.106" y2="101.402" gradientUnits="userSpaceOnUse">
<stop stop-opacity="0.09"/>
<stop offset="0.55" stop-opacity="0.07"/>
<stop offset="1" stop-opacity="0.02"/>
</linearGradient>
<linearGradient id="paint7_linear" x1="-32.2474" y1="2737.04" x2="362.97" y2="2629.15" gradientUnits="userSpaceOnUse">
<stop stop-opacity="0.09"/>
<stop offset="0.55" stop-opacity="0.07"/>
<stop offset="1" stop-opacity="0.02"/>
</linearGradient>
<linearGradient id="paint8_linear" x1="2188.17" y1="2111.83" x2="2583.39" y2="2003.94" gradientUnits="userSpaceOnUse">
<stop stop-opacity="0.09"/>
<stop offset="0.55" stop-opacity="0.07"/>
<stop offset="1" stop-opacity="0.02"/>
</linearGradient>
<linearGradient id="paint9_linear" x1="-1638.28" y1="5280.52" x2="-1243.06" y2="5172.63" gradientUnits="userSpaceOnUse">
<stop stop-opacity="0.09"/>
<stop offset="0.55" stop-opacity="0.07"/>
<stop offset="1" stop-opacity="0.02"/>
</linearGradient>
<linearGradient id="paint10_linear" x1="514.401" y1="4674.38" x2="909.618" y2="4566.49" gradientUnits="userSpaceOnUse">
<stop stop-opacity="0.09"/>
<stop offset="0.55" stop-opacity="0.07"/>
<stop offset="1" stop-opacity="0.02"/>
</linearGradient>
<linearGradient id="paint11_linear" x1="2734.82" y1="4049.16" x2="3130.04" y2="3941.27" gradientUnits="userSpaceOnUse">
<stop stop-opacity="0.09"/>
<stop offset="0.55" stop-opacity="0.07"/>
<stop offset="1" stop-opacity="0.02"/>
</linearGradient>
<linearGradient id="paint12_linear" x1="152169" y1="105414" x2="152169" y2="46098.4" gradientUnits="userSpaceOnUse">
<stop stop-color="#808080" stop-opacity="0.25"/>
<stop offset="0.54" stop-color="#808080" stop-opacity="0.12"/>
<stop offset="1" stop-color="#808080" stop-opacity="0.1"/>
</linearGradient>
<linearGradient id="paint13_linear" x1="15901.8" y1="23606.4" x2="15901.8" y2="19736.6" gradientUnits="userSpaceOnUse">
<stop stop-opacity="0.12"/>
<stop offset="0.55" stop-opacity="0.09"/>
<stop offset="1" stop-opacity="0.02"/>
</linearGradient>
<linearGradient id="paint14_linear" x1="630.23" y1="4246.89" x2="630.23" y2="4062.28" gradientUnits="userSpaceOnUse">
<stop stop-opacity="0.12"/>
<stop offset="0.55" stop-opacity="0.09"/>
<stop offset="1" stop-opacity="0.02"/>
</linearGradient>
<linearGradient id="paint15_linear" x1="3572.59" y1="7248.29" x2="3572.59" y2="6641.5" gradientUnits="userSpaceOnUse">
<stop stop-opacity="0.12"/>
<stop offset="0.55" stop-opacity="0.09"/>
<stop offset="1" stop-opacity="0.02"/>
</linearGradient>
<linearGradient id="paint16_linear" x1="5439.87" y1="8135.96" x2="5439.87" y2="7695.34" gradientUnits="userSpaceOnUse">
<stop stop-opacity="0.12"/>
<stop offset="0.55" stop-opacity="0.09"/>
<stop offset="1" stop-opacity="0.02"/>
</linearGradient>
<linearGradient id="paint17_linear" x1="6885.95" y1="8100.18" x2="6885.95" y2="7566.43" gradientUnits="userSpaceOnUse">
<stop stop-opacity="0.12"/>
<stop offset="0.55" stop-opacity="0.09"/>
<stop offset="1" stop-opacity="0.02"/>
</linearGradient>
<clipPath id="clip0">
<rect width="350" height="272.27" fill="white"/>
</clipPath>
</defs>
</svg>
