<svg width="35" height="35" viewBox="0 0 35 35" fill="none" xmlns="http://www.w3.org/2000/svg">
<path d="M25.541 2.71852C21.2603 0.278527 18.1978 -0.648321 13.5514 0.470356C10.0228 1.31992 7.96983 2.50867 5.3086 5.41632C2.2085 8.80349 0.339829 10.281 0.0295354 15.2985C-0.382833 21.9665 3.59096 26.0674 7.68935 30.597C11.1082 34.3755 13.7673 34.8078 18.4131 34.968C24.0569 35.1626 27.4614 34.6034 31.1794 29.5042C34.5847 24.8341 35.5085 20.345 34.7541 14.2057C33.9391 7.57268 30.5876 5.59513 25.541 2.71852Z" fill="#BBBBBB" fill-opacity="0.2"/>
<g clip-path="url(#clip0)">
<path d="M25.3147 21.294C24.792 20.7116 24.1615 20.4003 23.4932 20.4003C22.8304 20.4003 22.1945 20.7059 21.6503 21.2882L19.9474 23.1045C19.8073 23.0237 19.6671 22.9488 19.5324 22.8738C19.3384 22.77 19.1552 22.672 18.9989 22.5682C17.4038 21.4843 15.9542 20.0716 14.5639 18.2439C13.8903 17.3329 13.4376 16.566 13.1089 15.7876C13.5508 15.3552 13.9603 14.9055 14.3591 14.473C14.51 14.3116 14.6609 14.1444 14.8118 13.9829C15.9434 12.7721 15.9434 11.2038 14.8118 9.993L13.3406 8.41894C13.1736 8.2402 13.0011 8.05569 12.8394 7.87119C12.5161 7.51371 12.1766 7.14469 11.8263 6.79875C11.3036 6.24523 10.6785 5.95117 10.0211 5.95117C9.36362 5.95117 8.72774 6.24523 8.18885 6.79875C8.18346 6.80451 8.18346 6.80451 8.17807 6.81028L6.34586 8.78795C5.65608 9.52597 5.26269 10.4254 5.17647 11.4691C5.04714 13.1527 5.51058 14.721 5.86625 15.7473C6.73924 18.2669 8.04335 20.6021 9.98873 23.1045C12.3491 26.12 15.189 28.5012 18.4331 30.1791C19.6725 30.8076 21.3269 31.5514 23.1753 31.6782C23.2885 31.684 23.407 31.6897 23.5148 31.6897C24.7596 31.6897 25.8051 31.2112 26.6242 30.2598C26.6296 30.2483 26.6403 30.2425 26.6457 30.231C26.926 29.8677 27.2493 29.5391 27.5888 29.1874C27.8205 28.951 28.0576 28.7031 28.2893 28.4436C28.8228 27.8497 29.1031 27.1578 29.1031 26.4486C29.1031 25.7337 28.8175 25.0475 28.2732 24.4709L25.3147 21.294ZM27.2439 27.3654C27.2385 27.3654 27.2385 27.3712 27.2439 27.3654C27.0337 27.6075 26.8182 27.8267 26.5865 28.0688C26.2362 28.4263 25.8805 28.8011 25.5464 29.222C25.0021 29.8447 24.3609 30.1387 23.5202 30.1387C23.4394 30.1387 23.3531 30.1387 23.2723 30.133C21.6718 30.0234 20.1845 29.3546 19.069 28.7838C16.0189 27.2039 13.3406 24.961 11.115 22.1185C9.2774 19.7488 8.04874 17.5577 7.23502 15.2053C6.73386 13.7696 6.55063 12.651 6.63147 11.5959C6.68536 10.9213 6.92785 10.362 7.37513 9.88345L9.21274 7.91731C9.47679 7.65209 9.75701 7.50794 10.0318 7.50794C10.3713 7.50794 10.6462 7.72704 10.8186 7.91155C10.824 7.91731 10.8294 7.92308 10.8348 7.92884C11.1635 8.2575 11.4761 8.59768 11.8048 8.96092C11.9718 9.14543 12.1443 9.32994 12.3167 9.52021L13.7879 11.0943C14.3591 11.7054 14.3591 12.2705 13.7879 12.8817C13.6316 13.0489 13.4807 13.2161 13.3244 13.3775C12.8718 13.8734 12.4407 14.3347 11.9718 14.7844C11.9611 14.7959 11.9503 14.8017 11.9449 14.8132C11.4815 15.3091 11.5677 15.7934 11.6647 16.1221C11.6701 16.1394 11.6755 16.1567 11.6808 16.174C12.0634 17.1657 12.6023 18.0997 13.4214 19.2125L13.4268 19.2183C14.9142 21.1787 16.4823 22.7066 18.2122 23.8771C18.4331 24.027 18.6594 24.1481 18.875 24.2634C19.069 24.3672 19.2522 24.4652 19.4085 24.569C19.43 24.5805 19.4516 24.5978 19.4731 24.6093C19.6564 24.7073 19.8288 24.7535 20.0066 24.7535C20.4539 24.7535 20.7341 24.4537 20.8258 24.3556L22.6687 22.3837C22.852 22.1877 23.143 21.9513 23.4825 21.9513C23.8166 21.9513 24.0914 22.1762 24.2585 22.3722C24.2639 22.378 24.2639 22.378 24.2692 22.3837L27.2385 25.5607C27.7936 26.1488 27.7936 26.7542 27.2439 27.3654Z" fill="#424C58"/>
<path d="M18.9345 10.8696C20.3464 11.1233 21.6289 11.8382 22.6528 12.9337C23.6767 14.0292 24.3395 15.4015 24.582 16.9121C24.6413 17.2927 24.9485 17.5579 25.2988 17.5579C25.3419 17.5579 25.3796 17.5521 25.4227 17.5464C25.8215 17.4772 26.0855 17.0736 26.0209 16.6469C25.7299 14.8191 24.9215 13.1528 23.6875 11.8325C22.4534 10.5121 20.8961 9.64721 19.1878 9.33586C18.789 9.26667 18.4172 9.5492 18.3471 9.9701C18.2771 10.391 18.5357 10.8004 18.9345 10.8696Z" fill="#424C58"/>
<path d="M30.6392 16.422C30.1596 13.4122 28.8339 10.6735 26.7969 8.49398C24.76 6.31451 22.2002 4.89612 19.3872 4.38296C18.9939 4.30801 18.622 4.5963 18.552 5.0172C18.4873 5.44387 18.7514 5.84171 19.1501 5.91667C21.6613 6.37216 23.9516 7.64641 25.7731 9.58948C27.5945 11.5383 28.78 13.9888 29.2058 16.6757C29.265 17.0562 29.5722 17.3214 29.9225 17.3214C29.9656 17.3214 30.0033 17.3157 30.0464 17.3099C30.4398 17.2465 30.7093 16.8429 30.6392 16.422Z" fill="#424C58"/>
</g>
<defs>
<clipPath id="clip0">
<rect width="25.5328" height="27.3187" fill="white" transform="translate(5.13599 4.37109)"/>
</clipPath>
</defs>
</svg>
