<svg width="50" height="50" viewBox="0 0 50 50" fill="none" xmlns="http://www.w3.org/2000/svg">
<path d="M25 48.9258C38.2138 48.9258 48.9258 38.2138 48.9258 25C48.9258 11.7862 38.2138 1.07422 25 1.07422C11.7862 1.07422 1.07422 11.7862 1.07422 25C1.07422 38.2138 11.7862 48.9258 25 48.9258Z" fill="#8EA0B7"/>
<path d="M29.3721 37.4737H20.6289V41.8125H29.3721V37.4737Z" fill="#445EA0"/>
<path d="M22.5666 37.4737H20.6289V41.8125H22.5666V37.4737Z" fill="#2E4C89"/>
<path d="M33.7009 44.3159C33.7009 44.5537 33.5062 44.7485 33.2684 44.7485H16.7314C16.4936 44.7485 16.2988 44.5537 16.2988 44.3159V42.1476C16.2988 41.9099 16.4936 41.715 16.7314 41.715H33.2683C33.5062 41.715 33.7008 41.9099 33.7008 42.1476V44.3159H33.7009Z" fill="#0B4DA1"/>
<path d="M18.237 44.3159V42.1476C18.237 41.9099 18.4317 41.715 18.6696 41.715H16.7319C16.494 41.715 16.2993 41.9099 16.2993 42.1476V44.3159C16.2993 44.5537 16.494 44.7485 16.7319 44.7485H18.6696C18.4316 44.7485 18.237 44.5536 18.237 44.3159Z" fill="#1A2B63"/>
<path d="M49.4334 4.18622H0.566699C0.25498 4.18622 0 4.4413 0 4.75311V37.0045C0 37.3161 0.25498 37.5712 0.566699 37.5712H34.2059V35.8773C34.2059 35.7048 34.3461 35.5645 34.5187 35.5645H35.8356C36.1046 35.5645 36.3845 35.3654 36.4729 35.1113L36.7216 34.5138C36.8386 34.2777 36.7822 33.9396 36.5907 33.75L35.6612 32.8278C35.6024 32.7693 35.57 32.6913 35.57 32.608C35.57 32.5247 35.6024 32.4467 35.6613 32.3882L37.347 30.7157C37.4061 30.657 37.4851 30.6247 37.5695 30.6247C37.6539 30.6247 37.733 30.657 37.7921 30.7157L38.7215 31.6379C38.8405 31.756 39.0244 31.8267 39.2132 31.8267C39.3147 31.8267 39.4116 31.8057 39.4934 31.7659L40.0989 31.5178C40.3483 31.4327 40.548 31.1535 40.548 30.8843V29.5836C40.548 29.411 40.6882 29.2708 40.8606 29.2708H43.2473C43.4197 29.2708 43.56 29.4111 43.56 29.5836V30.8843C43.56 31.1536 43.7596 31.4327 44.0144 31.5199L44.6205 31.7685C44.6964 31.8057 44.7934 31.8267 44.8948 31.8267C45.0837 31.8267 45.2675 31.7561 45.3866 31.638L46.3161 30.7158C46.3752 30.6571 46.4542 30.6248 46.5386 30.6248C46.6229 30.6248 46.702 30.6571 46.761 30.7158L48.4464 32.3884C48.5053 32.4469 48.5377 32.5249 48.5377 32.6082C48.5377 32.6914 48.5052 32.7695 48.4464 32.8279L47.5172 33.7502C47.3257 33.9397 47.2693 34.2778 47.3889 34.5197L47.6371 35.1168C47.7232 35.3655 48.003 35.5646 48.2722 35.5646H49.5893C49.7618 35.5646 49.9021 35.7049 49.9021 35.8774V37.3216C49.9637 37.2309 49.9997 37.1218 49.9997 37.0046V4.75311C50 4.4413 49.745 4.18622 49.4334 4.18622Z" fill="#0B4DA1"/>
<path d="M2.4873 31.9044C2.4873 32.0915 2.64033 32.2444 2.82734 32.2444H35.806L37.3468 30.7156C37.4059 30.6569 37.4849 30.6246 37.5693 30.6246C37.6537 30.6246 37.7328 30.6569 37.7919 30.7156L38.7213 31.6378C38.8403 31.756 39.0242 31.8267 39.213 31.8267C39.3146 31.8267 39.4114 31.8056 39.4932 31.7658L40.0987 31.5177C40.3481 31.4326 40.5478 31.1534 40.5478 30.8842V29.5835C40.5478 29.4109 40.688 29.2707 40.8605 29.2707H43.2471C43.4195 29.2707 43.5598 29.411 43.5598 29.5835V30.8842C43.5598 31.1535 43.7594 31.4326 44.0142 31.5198L44.6203 31.7685C44.6962 31.8057 44.7932 31.8267 44.8946 31.8267C45.0835 31.8267 45.2673 31.7561 45.3864 31.6379L46.3159 30.7157C46.375 30.657 46.454 30.6247 46.5384 30.6247C46.6228 30.6247 46.7018 30.657 46.7608 30.7157L47.512 31.4612V9.75714H2.4873V31.9044Z" fill="white"/>
<path d="M4.425 31.9044V9.75714H2.4873V31.9044C2.4873 32.0915 2.64033 32.2444 2.82734 32.2444H4.76504C4.57803 32.2445 4.425 32.0915 4.425 31.9044Z" fill="#D9EAFC"/>
<path d="M24.3763 24.759C23.4849 23.8676 22.1808 23.6354 21.0733 24.0607L17.3371 20.3245L16.586 21.0756C16.5652 21.0964 16.5549 21.1255 16.5579 21.1548C16.5807 21.375 16.5204 21.5923 16.3882 21.7666C16.3636 21.799 16.3616 21.8433 16.3833 21.8777C16.5914 22.2082 16.5691 22.6102 16.333 22.8674L19.2998 25.8342C18.8743 26.9415 19.1065 28.2458 19.998 29.1373C20.7697 29.909 21.8617 30.2152 22.919 29.9565C22.9474 29.9496 22.9728 29.935 22.9926 29.915C23.0112 29.8964 23.0254 29.8728 23.0326 29.8465C23.048 29.7919 23.0326 29.7334 22.9926 29.6935L21.0867 27.7874L23.0263 25.8478L24.9322 27.7539C24.9723 27.7938 25.0308 27.8093 25.0853 27.7939C25.1117 27.7865 25.1353 27.7726 25.1539 27.7539C25.1738 27.7339 25.1884 27.7086 25.1953 27.6801C25.4543 26.6227 25.1481 25.5308 24.3763 24.759Z" fill="#FF9518"/>
<path d="M14.5438 20.3768C14.7111 20.3768 14.8773 20.4258 15.0247 20.5185C15.0406 20.5286 15.0587 20.5335 15.0767 20.5335C15.0975 20.5335 15.1183 20.5268 15.1358 20.5137C15.286 20.3996 15.4663 20.3394 15.6571 20.3394C15.6873 20.3394 15.7176 20.341 15.7476 20.3441C15.751 20.3444 15.7544 20.3446 15.7577 20.3446C15.7835 20.3446 15.8084 20.3344 15.8267 20.316L16.5779 19.5648L12.8417 15.8287C13.2671 14.7213 13.0348 13.4171 12.1434 12.5258C11.3717 11.754 10.2798 11.4477 9.22244 11.7064C9.19402 11.7135 9.16883 11.728 9.14891 11.7479C9.13016 11.7665 9.11609 11.79 9.10867 11.8166C9.09344 11.8712 9.10877 11.9296 9.14891 11.9696L11.0548 13.8755L9.11512 15.8152L7.20916 13.9092C7.16922 13.8691 7.11062 13.8539 7.05613 13.8691C7.02976 13.8764 7.00623 13.8904 6.98758 13.9092C6.96756 13.9291 6.95301 13.9544 6.94607 13.9828C6.68728 15.04 6.99363 16.1321 7.76521 16.9037C8.65672 17.7952 9.96082 18.0274 11.0683 17.602L14.0352 20.5689C14.17 20.4452 14.3491 20.3768 14.5438 20.3768Z" fill="#FF9518"/>
<path d="M25.0002 36.4275C25.8452 36.4275 26.5302 35.7425 26.5302 34.8975C26.5302 34.0525 25.8452 33.3675 25.0002 33.3675C24.1552 33.3675 23.4702 34.0525 23.4702 34.8975C23.4702 35.7425 24.1552 36.4275 25.0002 36.4275Z" fill="#445EA0"/>
<path d="M47.1723 7.07626H2.82734C2.64033 7.07626 2.4873 7.22919 2.4873 7.4163V9.85478H47.5121V7.4163C47.5121 7.22919 47.3592 7.07626 47.1723 7.07626Z" fill="#87B9F9"/>
<path d="M4.76504 7.07626H2.82734C2.64033 7.07626 2.4873 7.22919 2.4873 7.4163V9.85478H4.425V7.4163C4.425 7.22919 4.57803 7.07626 4.76504 7.07626Z" fill="#519EFF"/>
<path d="M40.4502 44.5334C40.4502 44.7591 40.6349 44.9438 40.8605 44.9438H43.2472C43.4728 44.9438 43.6575 44.759 43.6575 44.5334V43.2328C43.6575 43.0072 43.8322 42.7626 44.0459 42.6895L44.6576 42.4389C44.8606 42.34 45.1577 42.3893 45.3179 42.5484L46.2473 43.4707C46.4075 43.6295 46.6696 43.6295 46.8299 43.4707L48.5152 41.798C48.6756 41.6389 48.6756 41.3787 48.5152 41.2198L47.586 40.2975C47.4256 40.1385 47.3764 39.8428 47.4765 39.6404L47.7273 39.0374C47.8013 38.8243 48.0467 38.6497 48.2722 38.6497H49.5893C49.8152 38.6497 49.9998 38.4652 49.9998 38.2395V35.8773C49.9998 35.6516 49.8151 35.4668 49.5893 35.4668H48.2722C48.0466 35.4668 47.8013 35.2924 47.7273 35.0791L47.4765 34.4762C47.3765 34.2739 47.4256 33.9782 47.586 33.8193L48.5152 32.897C48.6756 32.738 48.6756 32.4779 48.5152 32.3188L46.8299 30.6462C46.6696 30.4871 46.4075 30.4871 46.2473 30.6462L45.3179 31.5684C45.1576 31.7273 44.8604 31.7767 44.6575 31.6779L44.0459 31.4273C43.8322 31.3542 43.6575 31.1097 43.6575 30.884V29.5833C43.6575 29.3576 43.4727 29.1729 43.2472 29.1729H40.8605C40.6348 29.1729 40.4502 29.3576 40.4502 29.5833V30.884C40.4502 31.1097 40.2755 31.3541 40.0618 31.4273L39.4504 31.6779C39.2476 31.7767 38.9503 31.7275 38.79 31.5684L37.8606 30.6462C37.7003 30.4871 37.4382 30.4871 37.2779 30.6462L35.5922 32.3188C35.432 32.4779 35.432 32.7378 35.5922 32.897L36.5217 33.8193C36.682 33.9782 36.7311 34.2738 36.6311 34.4762L36.3804 35.0791C36.3061 35.2924 36.061 35.4668 35.8353 35.4668H34.5184C34.2925 35.4668 34.1079 35.6516 34.1079 35.8773V38.2395C34.1079 38.4653 34.2926 38.6497 34.5184 38.6497H35.8353C36.0611 38.6497 36.3061 38.8243 36.3804 39.0374L36.6312 39.6406C36.7312 39.8427 36.6822 40.1385 36.522 40.2975L35.5922 41.2198C35.432 41.3787 35.432 41.6389 35.5922 41.798L37.2779 43.4707C37.4382 43.6295 37.7003 43.6295 37.8606 43.4705L38.7898 42.5484C38.9501 42.3893 39.2473 42.34 39.4502 42.4388L40.0618 42.6895C40.2755 42.7625 40.4502 43.0071 40.4502 43.2328V44.5334Z" fill="#FF9518"/>
<path d="M42.0542 40.8536C39.9421 40.8536 38.23 39.1547 38.23 37.0586C38.2301 34.9623 39.9421 33.2635 42.0542 33.2635C44.1663 33.2635 45.8784 34.9624 45.8784 37.0584C45.8784 39.1546 44.1663 40.8536 42.0542 40.8536Z" fill="#FFAF10"/>
<path d="M39.3935 37.0585C39.3935 35.1585 40.7998 33.5849 42.6358 33.3068C42.4463 33.2781 42.252 33.2634 42.0542 33.2634C39.9421 33.2634 38.2301 34.9623 38.23 37.0585C38.23 39.1546 39.9421 40.8535 42.0542 40.8535C42.252 40.8535 42.4463 40.8387 42.6358 40.81C40.7998 40.5318 39.3935 38.9583 39.3935 37.0585Z" fill="#FF9518"/>
<path d="M42.0541 41.4694C39.606 41.4694 37.6143 39.4905 37.6143 37.0586C37.6144 34.6265 39.6062 32.6478 42.0541 32.6478C44.5022 32.6478 46.494 34.6265 46.494 37.0584C46.494 39.4905 44.5022 41.4694 42.0541 41.4694ZM42.0541 33.8789C40.2851 33.8789 38.8457 35.3052 38.8456 37.0586C38.8456 38.8117 40.285 40.2383 42.0541 40.2383C43.8233 40.2383 45.2626 38.8118 45.2628 37.0584C45.2628 35.3052 43.8233 33.8789 42.0541 33.8789Z" fill="#DB722C"/>
<path d="M42.0541 38.6629C41.1612 38.6629 40.4375 37.9444 40.4375 37.0585C40.4375 36.1722 41.1612 35.4539 42.0541 35.4539C42.9473 35.4539 43.6707 36.1721 43.6707 37.0583C43.6707 37.9444 42.9472 38.6629 42.0541 38.6629Z" fill="#FFAF10"/>
<path d="M41.6008 37.0585C41.6008 36.3762 42.0306 35.7948 42.6357 35.5629C42.4551 35.4937 42.2594 35.454 42.0541 35.454C41.1612 35.454 40.4375 36.1722 40.4375 37.0586C40.4375 37.9444 41.1612 38.663 42.0541 38.663C42.2595 38.663 42.4551 38.6233 42.6357 38.5541C42.0307 38.3221 41.6008 37.7408 41.6008 37.0585Z" fill="#FF9518"/>
<path d="M42.054 39.2784C40.8232 39.2784 39.8218 38.2826 39.8218 37.0586C39.8218 35.8343 40.8232 34.8387 42.054 34.8387C43.285 34.8387 44.2862 35.8343 44.2862 37.0584C44.2859 38.2826 43.2848 39.2784 42.054 39.2784ZM42.054 36.0696C41.5021 36.0696 41.0531 36.5133 41.0531 37.0585C41.0531 37.6034 41.5021 38.0472 42.054 38.0472C42.606 38.0472 43.0549 37.6034 43.0549 37.0583C43.0549 36.5134 42.606 36.0696 42.054 36.0696Z" fill="#DB722C"/>
<path d="M13.7151 22.1296L14.7727 23.1872C14.8604 23.275 14.9255 23.3771 14.9683 23.486L15.4265 23.0278C15.3187 22.9809 15.2181 22.9133 15.1323 22.8275L14.0748 21.7701C13.987 21.6822 13.9201 21.582 13.874 21.4763L13.416 21.9343C13.527 21.9778 13.6287 22.0433 13.7151 22.1296Z" fill="#445EA0"/>
<path d="M24.6809 12.7696L24.1323 12.2211C24.0713 12.1601 23.958 12.1412 23.8806 12.1789L22.6583 12.7754C22.5808 12.8132 22.4864 12.9075 22.4487 12.9849L21.9053 14.0989L15.7572 20.2469C15.4861 20.2188 15.2071 20.3045 14.9976 20.5024C15.0678 20.5434 15.1339 20.593 15.1926 20.6517L16.2501 21.7092C16.3099 21.7689 16.3595 21.8346 16.4 21.9037C16.5977 21.6941 16.6831 21.4154 16.6551 21.1446L22.8028 14.9968L23.9171 14.4533C23.9946 14.4155 24.089 14.3212 24.1267 14.2437L24.723 13.0214C24.7608 12.9439 24.7417 12.8306 24.6809 12.7696Z" fill="#445EA0"/>
<path d="M16.3816 22.959C16.0361 23.3045 15.4427 23.2764 15.0629 22.8965L14.0054 21.8391C13.6256 21.4592 13.5975 20.8659 13.943 20.5204C14.2885 20.1749 14.8819 20.2029 15.2617 20.5828L16.3192 21.6402C16.699 22.02 16.7271 22.6133 16.3816 22.959Z" fill="#293D7C"/>
<path d="M42.0344 14.4515H29.1562C28.7518 14.4515 28.4238 14.1236 28.4238 13.7191C28.4238 13.3145 28.7518 12.9866 29.1562 12.9866H42.0343C42.4389 12.9866 42.7667 13.3145 42.7667 13.7191C42.7668 14.1236 42.4389 14.4515 42.0344 14.4515Z" fill="#87B9F9"/>
<path d="M42.0344 16.8429H29.1562C28.7518 16.8429 28.4238 16.515 28.4238 16.1104C28.4238 15.7059 28.7518 15.378 29.1562 15.378H42.0343C42.4389 15.378 42.7667 15.7059 42.7667 16.1104C42.7668 16.5149 42.4389 16.8429 42.0344 16.8429Z" fill="#87B9F9"/>
<path d="M42.0344 19.2342H29.1562C28.7518 19.2342 28.4238 18.9064 28.4238 18.5018C28.4238 18.0972 28.7518 17.7693 29.1562 17.7693H42.0343C42.4389 17.7693 42.7667 18.0972 42.7667 18.5018C42.7668 18.9064 42.4389 19.2342 42.0344 19.2342Z" fill="#87B9F9"/>
<path d="M42.0344 23.2401H29.1562C28.7518 23.2401 28.4238 22.9123 28.4238 22.5077C28.4238 22.1031 28.7518 21.7753 29.1562 21.7753H42.0343C42.4389 21.7753 42.7667 22.1031 42.7667 22.5077C42.7667 22.9123 42.4389 23.2401 42.0344 23.2401Z" fill="#0B4DA1"/>
<path d="M42.0344 25.6314H29.1562C28.7518 25.6314 28.4238 25.3036 28.4238 24.899C28.4238 24.4944 28.7518 24.1666 29.1562 24.1666H42.0343C42.4389 24.1666 42.7667 24.4944 42.7667 24.899C42.7668 25.3035 42.4389 25.6314 42.0344 25.6314Z" fill="#0B4DA1"/>
<path d="M35.5552 28.0228H29.1562C28.7518 28.0228 28.4238 27.6949 28.4238 27.2903C28.4238 26.8858 28.7518 26.5579 29.1562 26.5579H35.5552C35.9598 26.5579 36.2876 26.8858 36.2876 27.2903C36.2876 27.6949 35.9598 28.0228 35.5552 28.0228Z" fill="#0B4DA1"/>
<path d="M10.3109 29.0299C9.93113 29.4097 9.30964 29.4097 8.92976 29.0299L7.87224 27.9724C7.49246 27.5926 7.49246 26.9712 7.87224 26.5913L12.4029 22.0607C12.7827 21.6808 13.4042 21.6808 13.784 22.0607L14.8415 23.1182C15.2213 23.498 15.2213 24.1195 14.8415 24.4994L10.3109 29.0299Z" fill="#293D7C"/>
<path d="M9.51707 27.9725C9.13728 27.5926 9.13728 26.9712 9.51707 26.5913L13.9158 22.1926L13.784 22.0606C13.4042 21.6808 12.7827 21.6808 12.4029 22.0606L7.87224 26.5912C7.49246 26.9711 7.49246 27.5925 7.87224 27.9724L8.92976 29.0298C9.30955 29.4097 9.93103 29.4097 10.3109 29.0298L10.4427 28.898L9.51707 27.9725Z" fill="#1A2B63"/>
<path d="M14.5782 21.1551C14.9237 20.8096 15.5171 20.8377 15.8969 21.2176L15.2621 20.5828C14.8823 20.2029 14.2889 20.1749 13.9435 20.5204C13.5981 20.8659 13.6261 21.4592 14.0059 21.8391L14.6403 22.4735C14.2608 22.0937 14.2329 21.5006 14.5782 21.1551Z" fill="#1A2B63"/>
</svg>
