<svg width="25" height="25" viewBox="0 0 25 25" fill="none" xmlns="http://www.w3.org/2000/svg">
<path d="M12.5 0C10.0767 0 8.10547 2.02007 8.10547 4.44336C8.10547 6.86665 10.0767 8.83789 12.5 8.83789C14.9233 8.83789 16.8945 6.86665 16.8945 4.44336C16.8945 2.02007 14.9233 0 12.5 0Z" fill="white"/>
<path d="M13.9648 8.83789H12.5H11.0352C10.0021 8.83789 9.00376 9.10493 8.09619 9.55923C9.63765 9.97515 11.089 10.5742 12.5 11.384C13.911 10.5742 15.3624 9.97515 16.9038 9.55923C15.9962 9.10493 14.998 8.83789 13.9648 8.83789Z" fill="white"/>
<path d="M23.5352 13.2324C22.7261 13.2324 22.0703 13.8882 22.0703 14.6973V17.627C22.0703 18.4359 22.7261 19.0918 23.5352 19.0918C24.3442 19.0918 25 18.4359 25 17.627V14.6973C25 13.8882 24.3442 13.2324 23.5352 13.2324Z" fill="white"/>
<path d="M1.46484 13.2324C0.655811 13.2324 0 13.8882 0 14.6973V17.627C0 18.4359 0.655811 19.0918 1.46484 19.0918C2.27388 19.0918 2.92969 18.4359 2.92969 17.627V14.6973C2.92969 13.8882 2.27388 13.2324 1.46484 13.2324Z" fill="white"/>
<path d="M2.19727 10.3027C1.79243 10.3027 1.46484 10.6303 1.46484 11.0352V11.7676C3.08062 11.7676 4.39453 13.0815 4.39453 14.6973V17.627C4.39453 19.2427 3.08062 20.5566 1.46484 20.5566V21.2891C1.46484 21.6939 1.79243 22.0215 2.19727 22.0215C5.9522 22.0215 8.95459 23.2073 11.7676 25V12.6755C8.94189 11.0554 5.90347 10.3027 2.19727 10.3027Z" fill="white"/>
<path d="M23.5352 11.7676V11.0352C23.5352 10.6303 23.2076 10.3027 22.8027 10.3027C19.0965 10.3027 16.0581 11.0554 13.2324 12.6755V25C16.0454 23.2073 19.0478 22.0215 22.8027 22.0215C23.2076 22.0215 23.5352 21.6939 23.5352 21.2891V20.5566C21.9194 20.5566 20.6055 19.2427 20.6055 17.627V14.6973C20.6055 13.0815 21.9194 11.7676 23.5352 11.7676Z" fill="white"/>
</svg>
