<svg width="75" height="75" viewBox="0 0 75 75" fill="none" xmlns="http://www.w3.org/2000/svg">
<path d="M75 7.25039H0V58.0966H75V7.25039Z" fill="#87B9F9"/>
<path d="M75 7.25039H37.4326V58.0966H75V7.25039Z" fill="#769FD4"/>
<path d="M0 7.2501L37.5 36.9044L75 7.2501H0Z" fill="#2B7BE1"/>
<path d="M29.3145 49.5812V35.3358C29.3145 30.8222 32.9865 27.1501 37.5002 27.1501V22.7556C30.5635 22.7556 24.9199 28.3991 24.9199 35.3358V49.5813H29.3145V49.5812Z" fill="white"/>
<path d="M44.6084 31.2836C45.2928 32.4794 45.6862 33.8621 45.6862 35.3358V49.5813H50.0808V35.3358C50.0808 32.8333 49.3434 30.5011 48.0785 28.5396L44.6084 31.2836Z" fill="#DADADA"/>
<path d="M55.7241 46.0116H19.2773V67.7499H55.7241V46.0116Z" fill="#00C2DC"/>
<path d="M55.7222 46.0116H37.4951V67.7499H55.7222V46.0116Z" fill="#00A0B6"/>
<path d="M39.6973 52.9565H35.3027V60.8022H39.6973V52.9565Z" fill="#333333"/>
<path d="M37.5 7.2501V36.9044L75 7.2501H37.5Z" fill="#0B4DA1"/>
</svg>
