<svg width="50" height="50" viewBox="0 0 50 50" fill="none" xmlns="http://www.w3.org/2000/svg">
<path d="M50 15.4297V49.2382L40.5861 41.7969H11.8164V15.4297H50Z" fill="#25D9F8"/>
<path d="M50 15.4297V49.2382L40.5861 41.7969H30.8594V15.4297H50Z" fill="#00C0F1"/>
<path d="M23.5352 30.0781H26.4648V33.0078H23.5352V30.0781Z" fill="#3E5959"/>
<path d="M35.2539 30.0781H38.1836V33.0078H35.2539V30.0781Z" fill="#293939"/>
<path d="M29.3945 30.0781H32.3242V33.0078H29.3945V30.0781Z" fill="#3E5959"/>
<path d="M30.8594 30.0781H32.3242V33.0078H30.8594V30.0781Z" fill="#293939"/>
<path d="M0 0.78125V34.5898L9.41391 27.1484H38.1836V0.78125H0Z" fill="#7FE881"/>
<path d="M19.1406 0.78125H38.1836V27.1484H19.1406V0.78125Z" fill="#5BC980"/>
<path d="M26.4648 13.9648C26.4648 18.0077 23.1834 21.2891 19.1406 21.2891C15.0978 21.2891 11.8164 18.0077 11.8164 13.9648H14.7461C14.7461 16.3963 16.7088 18.3594 19.1406 18.3594C21.5725 18.3594 23.5352 16.3963 23.5352 13.9648H26.4648Z" fill="#3E5959"/>
<path d="M11.8164 6.64062H14.7461V9.57031H11.8164V6.64062Z" fill="#3E5959"/>
<path d="M23.5352 6.64062H26.4648V9.57031H23.5352V6.64062Z" fill="#293939"/>
<path d="M26.4648 13.9648C26.4648 18.0077 23.1834 21.2891 19.1406 21.2891V18.3594C21.5725 18.3594 23.5352 16.3963 23.5352 13.9648H26.4648Z" fill="#293939"/>
</svg>
