<svg width="532" height="325" viewBox="0 0 532 325" fill="none" xmlns="http://www.w3.org/2000/svg">
<g clip-path="url(#clip0)">
<path d="M80.302 173.31C80.302 173.31 46.2238 195.115 109.066 228.699C109.066 228.699 122.912 201.451 107.605 179.233C104.634 174.904 100.269 171.88 95.3354 170.734C90.4022 169.588 85.2438 170.4 80.8373 173.015L80.302 173.31Z" fill="#2B7BE1"/>
<path d="M80.709 172.855C80.709 172.855 109.885 196.498 109.071 228.681" stroke="#535461" stroke-miterlimit="10"/>
<path d="M511.451 155.147C518.354 181.904 488.905 258.133 488.905 258.133C488.905 258.133 426.938 208.408 420.029 181.65C418.222 175.235 417.643 168.501 418.325 161.845C419.008 155.189 420.939 148.745 424.005 142.891C427.071 137.037 431.21 131.892 436.179 127.758C441.148 123.624 446.846 120.584 452.939 118.817C459.032 117.05 465.397 116.592 471.659 117.469C477.922 118.347 483.956 120.542 489.406 123.926C494.857 127.31 499.614 131.815 503.399 137.175C507.184 142.536 509.919 148.644 511.445 155.141L511.451 155.147Z" fill="#2B7BE1"/>
<path opacity="0.1" d="M511.451 155.147C518.354 181.904 488.905 258.133 488.905 258.133C488.905 258.133 426.938 208.408 420.029 181.65C418.222 175.235 417.643 168.501 418.325 161.845C419.008 155.189 420.939 148.745 424.005 142.891C427.071 137.037 431.21 131.892 436.179 127.758C441.148 123.624 446.846 120.584 452.939 118.817C459.032 117.05 465.397 116.592 471.659 117.469C477.922 118.347 483.956 120.542 489.406 123.926C494.857 127.31 499.614 131.815 503.399 137.175C507.184 142.536 509.919 148.644 511.445 155.141L511.451 155.147Z" fill="black"/>
<path d="M453.488 120.103C453.488 120.103 492.061 181.822 489.178 258.281" stroke="#535461" stroke-miterlimit="10"/>
<path d="M521.293 204.052C521.293 204.052 486.317 183.885 490.745 258.329C490.745 258.329 519.921 257.223 530.277 231.997C532.302 227.091 532.558 221.567 530.996 216.474C529.435 211.381 526.165 207.073 521.806 204.365L521.293 204.052Z" fill="#2B7BE1"/>
<path d="M521.867 204.182C521.867 204.182 517.35 242.825 490.745 258.329" stroke="#535461" stroke-miterlimit="10"/>
<path d="M9.23509 195.753C9.23509 195.753 -24.8598 217.551 37.9876 251.118C37.9876 251.118 51.8341 223.87 36.5266 201.652C33.556 197.323 29.1907 194.299 24.2574 193.153C19.3242 192.007 14.1658 192.819 9.75928 195.434L9.23509 195.753Z" fill="#2B7BE1"/>
<path d="M9.625 195.298C9.625 195.298 38.8014 218.94 37.9872 251.124" stroke="#535461" stroke-miterlimit="10"/>
<path d="M434.651 224.13H398.822C399.646 222.372 400.074 220.436 400.071 218.473V45.553C400.071 42.1811 398.807 38.9473 396.558 36.563C394.308 34.1788 391.257 32.8393 388.076 32.8393H110.739C107.557 32.8393 104.506 34.1788 102.257 36.563C100.007 38.9473 98.7436 42.1811 98.7436 45.553V218.479C98.7407 220.442 99.1683 222.378 99.9927 224.136H62.8977C62.4796 224.136 62.0656 224.223 61.6795 224.393C61.2935 224.564 60.9429 224.813 60.6481 225.127C60.3532 225.441 60.1198 225.814 59.9614 226.224C59.8029 226.634 59.7224 227.073 59.7247 227.517V230.23C59.7247 235.218 61.5942 240.001 64.9219 243.528C68.2496 247.056 72.763 249.037 77.4691 249.037H420.079C424.785 249.037 429.299 247.056 432.627 243.528C435.954 240.001 437.824 235.218 437.824 230.23V227.517C437.827 227.073 437.747 226.633 437.589 226.222C437.431 225.812 437.197 225.438 436.902 225.123C436.607 224.808 436.257 224.559 435.87 224.388C435.484 224.218 435.069 224.13 434.651 224.13ZM213.882 234.887L210.793 231.193H287.068L283.667 234.893L213.882 234.887Z" fill="url(#paint0_linear)"/>
<path d="M383.676 35.2863H115.111C107.947 35.2863 102.14 41.4415 102.14 49.0343V215.4C102.14 222.993 107.947 229.148 115.111 229.148H383.676C390.84 229.148 396.647 222.993 396.647 215.4V49.0343C396.647 41.4415 390.84 35.2863 383.676 35.2863Z" fill="#535461"/>
<path d="M389.827 63.5448H108.341V221.919H389.827V63.5448Z" fill="white"/>
<path d="M249.087 52.3738C250.457 52.3738 251.568 51.1962 251.568 49.7436C251.568 48.2909 250.457 47.1133 249.087 47.1133C247.716 47.1133 246.605 48.2909 246.605 49.7436C246.605 51.1962 247.716 52.3738 249.087 52.3738Z" fill="white"/>
<path d="M292.544 222.244L282.875 232.759H214.696L205.958 222.244H67.1079C66.2856 222.244 65.4969 222.59 64.9155 223.207C64.334 223.823 64.0073 224.659 64.0073 225.531V228.179C64.0073 233.054 65.8345 237.729 69.087 241.177C72.3394 244.624 76.7507 246.56 81.3503 246.56H416.198C418.476 246.56 420.731 246.085 422.835 245.161C424.939 244.237 426.851 242.883 428.461 241.177C430.072 239.47 431.349 237.443 432.221 235.213C433.092 232.983 433.541 230.592 433.541 228.179V225.531C433.541 224.659 433.214 223.823 432.633 223.207C432.051 222.59 431.263 222.244 430.44 222.244H292.544Z" fill="#535461"/>
<path d="M144.303 73.4037V208.118H354.483" stroke="#535461" stroke-width="2" stroke-miterlimit="10"/>
<path opacity="0.5" d="M184.599 167.376H162.901V202.863H184.599V167.376Z" fill="#2B7BE1"/>
<path opacity="0.7" d="M221.801 135.831H200.102V202.863H221.801V135.831Z" fill="#2B7BE1"/>
<path opacity="0.5" d="M259.001 154.887H237.303V202.858H259.001V154.887Z" fill="#2B7BE1"/>
<path opacity="0.8" d="M296.202 125.316H274.504V202.863H296.202V125.316Z" fill="#2B7BE1"/>
<path d="M333.403 97.714H311.705V202.858H333.403V97.714Z" fill="#2B7BE1"/>
<path d="M173.441 145.69L211.261 109.547L248.462 143.716L285.044 102.318L322.245 85.8868" stroke="#535461" stroke-width="2" stroke-miterlimit="10"/>
<path d="M173.441 150.289C175.837 150.289 177.779 148.23 177.779 145.69C177.779 143.151 175.837 141.092 173.441 141.092C171.045 141.092 169.102 143.151 169.102 145.69C169.102 148.23 171.045 150.289 173.441 150.289Z" fill="#2B7BE1"/>
<path d="M247.843 147.659C250.239 147.659 252.181 145.6 252.181 143.06C252.181 140.52 250.239 138.462 247.843 138.462C245.447 138.462 243.504 140.52 243.504 143.06C243.504 145.6 245.447 147.659 247.843 147.659Z" fill="#2B7BE1"/>
<path d="M285.663 106.917C288.059 106.917 290.001 104.858 290.001 102.318C290.001 99.7786 288.059 97.7198 285.663 97.7198C283.267 97.7198 281.324 99.7786 281.324 102.318C281.324 104.858 283.267 106.917 285.663 106.917Z" fill="#2B7BE1"/>
<path d="M211.261 113.483C213.657 113.483 215.599 111.425 215.599 108.885C215.599 106.345 213.657 104.287 211.261 104.287C208.865 104.287 206.922 106.345 206.922 108.885C206.922 111.425 208.865 113.483 211.261 113.483Z" fill="#2B7BE1"/>
<path d="M322.245 90.4853C324.641 90.4853 326.583 88.4265 326.583 85.8868C326.583 83.3472 324.641 81.2884 322.245 81.2884C319.849 81.2884 317.906 83.3472 317.906 85.8868C317.906 88.4265 319.849 90.4853 322.245 90.4853Z" fill="#2B7BE1"/>
<path d="M483.657 228.001C481.37 227.203 477.98 226.281 475.292 226.606C472.732 225.619 466.715 223.06 462.605 219.206C462.724 215.417 462.633 211.624 462.332 207.846C460.23 182.507 464.959 165.804 464.959 165.804C464.959 165.804 468.673 153.061 468.266 142.487C468.505 142.965 468.639 143.249 468.639 143.249C468.963 134.129 471.896 124.69 474.093 118.809C474.177 118.784 474.259 118.752 474.338 118.714L476.792 112.544C476.988 112.184 477.143 111.801 477.255 111.403L477.651 110.428L477.534 110.374C477.573 110.215 477.612 110.043 477.651 109.872C479.218 102.844 480.439 86.1765 480.439 86.1765C484.644 68.6338 474.662 57.8056 474.662 57.8056L457.72 42.3553C457.805 42.5564 457.861 42.7695 457.888 42.9878L457.748 42.8577C457.508 42.1307 457.246 41.2619 456.99 40.2689C457.587 39.8141 458.147 39.3059 458.663 38.7499C460.589 36.8218 461.914 34.3163 462.46 31.5685C462.789 29.4197 462.873 27.2369 462.711 25.0668L462.433 17.6136C462.42 16.1549 462.28 14.7006 462.014 13.2693C460.737 7.35869 455.021 3.22127 449.283 2.94938C447.457 2.93811 445.633 3.04074 443.818 3.25673C442.334 3.38593 440.845 3.41949 439.357 3.35721C439.188 3.36672 439.02 3.31914 438.877 3.22127C438.748 3.08475 438.674 2.90034 438.671 2.70704C438.642 2.36112 438.679 2.01249 438.781 1.68229C438.882 1.3521 439.046 1.0472 439.262 0.786101C439.487 0.577437 439.748 0.418658 440.032 0.319167L439.625 0.419647C439.825 0.251899 440.052 0.121949 440.294 0.0354614C438.806 0.312655 437.376 0.862702 436.067 1.66088C435.706 1.91205 435.375 2.20767 435.08 2.54155C434.3 3.26674 433.793 4.26566 433.652 5.355C432.954 4.72977 432.432 3.91132 432.146 2.99076C432.058 2.61433 432.058 2.22053 432.146 1.8441C432.046 1.97414 431.949 2.1081 431.856 2.24602C431.856 2.20464 431.856 2.16328 431.856 2.1219C430.779 3.52592 430.016 5.17105 429.626 6.93313C429.476 6.74231 429.363 6.52177 429.294 6.28433C429.225 6.04688 429.201 5.79729 429.224 5.55005C429.141 5.82785 429.063 6.10564 428.99 6.38344C428.965 6.19921 428.965 6.01206 428.99 5.82784C428.334 7.95871 428.037 10.1958 428.115 12.4359C428.115 14.6701 429.052 18.1514 431.31 18.9375C431.427 18.9789 431.544 19.0085 431.667 19.038C430.397 21.1293 429.636 23.5219 429.453 26.0015C429.27 28.481 429.67 30.9699 430.618 33.2451C431.566 35.5203 433.032 37.5106 434.884 39.0377C436.736 40.5648 438.917 41.5808 441.231 41.9948C441.268 42.2667 441.303 42.5523 441.337 42.8518H441.426C441.487 43.4429 441.537 44.093 441.571 44.755C441.001 45.3469 440.377 45.8775 439.708 46.3391C437.812 47.527 435.697 48.2688 433.507 48.5142C430.892 48.7317 428.35 49.5377 426.051 50.8784C423.347 52.4802 420.363 54.8148 419.426 57.6519C417.865 62.3804 409.266 69.7391 403.5 70.6553L401.448 70.5311L401.297 70.4839V70.5252L400.795 70.4957H400.767H400.634V70.5252L400.115 70.4957C400.115 70.4957 400.065 70.7498 399.992 71.199C397.093 70.141 390.93 67.2094 382.911 59.4961C373.989 50.908 361.916 52.5984 357.259 53.68C357.101 53.7171 356.957 53.8044 356.847 53.9305C356.736 54.0565 356.665 54.2152 356.642 54.3854C356.619 54.5556 356.645 54.7292 356.718 54.883C356.79 55.0369 356.905 55.1636 357.048 55.2463C358.927 56.3398 361.838 57.9297 363.182 58.1071C363.182 58.1071 360.393 61.1983 363.36 62.8355C363.716 63.0179 364.113 63.0929 364.506 63.0522C364.899 63.0116 365.275 62.8568 365.591 62.605C367.03 61.4879 371.028 64.0176 376.822 65.3357C376.822 65.3357 393.172 83.2685 401.292 86.0228C401.479 86.4144 401.685 86.7952 401.911 87.1636L402.412 87.1222V87.1636H402.624L402.686 87.7546C402.686 87.7546 415.311 87.0513 419.415 82.1927C419.706 81.917 419.973 81.6143 420.213 81.2884L415.824 139.803H415.863L415.824 140.359H419.053C419.329 147.556 419.036 154.764 418.177 161.909V200.056C418.177 200.056 418.01 203.413 424.59 208.331C431.49 213.422 438.138 218.884 444.51 224.697L445.307 225.43C444.097 237.104 441.565 258.86 439.452 259.67L440.757 259.913C438.526 262.909 432.191 271.143 430.262 271.361C427.897 271.639 426.319 275.54 430.262 276.374C438.134 277.818 446.228 276.972 453.683 273.927C454.426 273.616 455.05 273.05 455.455 272.319C455.859 271.588 456.02 270.735 455.914 269.896L455.15 263.749C455.294 263.834 455.411 263.964 455.484 264.121C456.008 265.794 455.484 261.893 455.484 261.893C457.645 254.533 459.342 247.03 460.564 239.432L468.372 246.584C468.372 246.584 468.528 246.377 468.801 245.993C470.714 250.592 474.126 260.001 473.363 266.893C472.314 276.35 482.285 268.004 481.242 262.436C480.395 257.932 484.187 238.841 485.664 231.701C485.824 230.93 485.706 230.124 485.335 229.44C484.964 228.756 484.365 228.243 483.657 228.001Z" fill="url(#paint1_linear)"/>
<path d="M402.067 73.5396C402.067 73.5396 394.628 72.1802 383.598 61.5766C374.87 53.1895 363.098 54.8385 358.559 55.8965C358.404 55.932 358.263 56.0167 358.156 56.1394C358.048 56.2621 357.978 56.4169 357.955 56.5829C357.933 56.7489 357.959 56.9183 358.03 57.0682C358.101 57.2181 358.214 57.3414 358.353 57.4215C360.187 58.4854 363.031 60.0399 364.364 60.2172C364.364 60.2172 361.615 63.2316 364.537 64.8452C364.887 65.0273 365.278 65.1027 365.666 65.0631C366.054 65.0234 366.424 64.8702 366.734 64.6206C368.139 63.533 372.043 66.0036 377.703 67.2862C377.703 67.2862 399.764 91.4842 404.894 87.3823L402.067 73.5396Z" fill="#FEC3BE"/>
<path d="M440.049 40.6412C440.049 40.6412 442.101 49.8854 440.049 56.4107L449.284 57.7701L457.492 53.4199V47.7103C457.492 47.7103 453.644 39.0099 454.67 28.9501L440.049 40.6412Z" fill="#FEC3BE"/>
<path d="M466.197 241.011C466.197 241.011 472.889 254.877 471.84 264.121C470.792 273.365 480.562 265.208 479.536 259.771C478.705 255.373 482.408 236.719 483.852 229.78C484.009 229.031 483.897 228.246 483.538 227.578C483.18 226.911 482.6 226.409 481.912 226.169C478.828 225.093 473.664 223.775 471.071 225.791C467.24 228.776 466.197 241.011 466.197 241.011Z" fill="#8B416F"/>
<path d="M440.818 256.236C440.818 256.236 432.097 268.199 429.788 268.471C427.479 268.743 425.94 272.549 429.788 273.365C437.471 274.782 445.372 273.965 452.652 271.001C453.38 270.7 453.992 270.148 454.39 269.434C454.787 268.72 454.947 267.886 454.843 267.064L453.371 255.421L440.818 256.236Z" fill="#8B416F"/>
<path d="M426.453 129.271L418.089 130.453C419.237 140.808 419.203 151.272 417.988 161.619V198.856C417.988 198.856 417.826 202.136 424.251 206.906C430.987 211.87 437.479 217.197 443.701 222.865L466.978 244.238C466.978 244.238 476.213 232.275 474.93 225.206C474.93 225.206 459.539 220.04 457.487 211.611C456.31 206.788 450.343 202.745 445.458 200.204C442.387 198.623 439.919 195.976 438.463 192.704C437.008 189.431 436.652 185.728 437.456 182.212C437.741 180.99 438.182 179.815 438.766 178.719C442.871 171.106 448.771 153.977 448.771 153.977L437.484 131.174L426.453 129.271Z" fill="#4D4981"/>
<path opacity="0.05" d="M426.453 129.271L418.089 130.453C419.237 140.808 419.203 151.272 417.988 161.619V198.856C417.988 198.856 417.826 202.136 424.251 206.906C430.987 211.87 437.479 217.197 443.701 222.865L466.978 244.238C466.978 244.238 476.213 232.275 474.93 225.206C474.93 225.206 459.539 220.04 457.487 211.611C456.31 206.788 450.343 202.745 445.458 200.204C442.387 198.623 439.919 195.976 438.463 192.704C437.008 189.431 436.652 185.728 437.456 182.212C437.741 180.99 438.182 179.815 438.766 178.719C442.871 171.106 448.771 153.977 448.771 153.977L437.484 131.174L426.453 129.271Z" fill="black"/>
<path d="M438.766 257.07C438.766 257.07 453.901 259.788 454.414 261.42C454.927 263.051 454.414 259.245 454.414 259.245C454.414 259.245 463.136 231.24 461.106 206.504C459.076 181.769 463.671 165.449 463.671 165.449C463.671 165.449 469.058 146.961 465.98 136.357C462.901 125.754 430.58 130.376 430.58 130.376C430.58 130.376 441.867 158.38 441.61 171.703C441.61 171.703 442.893 211.942 445.201 216.564C445.179 216.541 441.588 255.964 438.766 257.07Z" fill="#4D4981"/>
<path d="M440.545 47.7103C440.545 47.7103 442.084 57.7584 457.475 53.42L447.237 136.068C447.237 136.068 417.48 137.155 417.737 133.349L423.871 83.3276L440.545 47.7103Z" fill="white"/>
<path opacity="0.1" d="M440.947 47.1666C438.942 49.2579 436.331 50.5719 433.535 50.8961C430.982 51.1036 428.499 51.8854 426.252 53.1895C423.615 54.7558 420.676 57.0314 419.784 59.8034C417.988 65.2412 406.701 74.2135 401.571 72.3102L403.366 88.6235C403.366 88.6235 417.988 87.8078 420.553 81.8263L416.198 140.04H420.046C420.046 140.04 422.098 124.27 423.637 121.008C425.176 117.745 428.254 99.8004 428.511 95.4502C428.767 91.1 432.615 66.0864 435.95 61.7598L440.969 48.8452L440.947 47.1666Z" fill="black"/>
<path opacity="0.1" d="M440.946 47.9822C438.654 49.8829 435.913 51.079 433.022 51.4399C430.47 51.6519 427.989 52.4377 425.745 53.7451C423.107 55.3114 420.168 57.587 419.276 60.359C417.48 65.7968 406.194 74.7691 401.063 72.8658L402.859 89.1791C402.859 89.1791 417.48 88.3634 420.046 82.3819L415.685 140.56H419.533C419.533 140.56 421.585 124.79 423.124 121.528C424.663 118.265 427.741 100.321 427.998 95.9704C428.254 91.6202 432.102 66.6065 435.437 62.28L440.946 49.6077V47.9822Z" fill="black"/>
<path d="M440.947 47.4385C438.654 49.3391 435.913 50.5352 433.022 50.8962C430.469 51.1036 427.986 51.8854 425.74 53.1895C423.102 54.7558 420.163 57.0314 419.271 59.8034C417.475 65.2412 406.188 74.2135 401.058 72.3103L402.853 88.6235C402.853 88.6235 417.475 87.8078 420.04 81.8263L415.685 140.04H419.533C419.533 140.04 421.585 124.27 423.124 121.008C424.663 117.745 427.741 99.8004 427.998 95.4502C428.255 91.1 432.102 66.0864 435.437 61.7598L440.952 49.1171L440.947 47.4385Z" fill="#3F3D56"/>
<path opacity="0.1" d="M454.029 36.9708C453.695 34.3937 454.364 32.7861 454.67 29.7657L440.049 41.4569C440.049 41.4569 440.4 43.035 440.668 45.3461C441.405 45.4724 442.151 45.5356 442.898 45.5352C447.973 45.5352 451.626 41.3328 454.029 36.9708Z" fill="black"/>
<path d="M442.871 44.7255C450.521 44.7255 456.723 38.1521 456.723 30.0436C456.723 21.935 450.521 15.3616 442.871 15.3616C435.22 15.3616 429.019 21.935 429.019 30.0436C429.019 38.1521 435.22 44.7255 442.871 44.7255Z" fill="#FEC3BE"/>
<path opacity="0.1" d="M427.753 15.6513C427.664 13.1753 428.043 10.7055 428.868 8.38713C428.639 8.75188 428.542 9.19223 428.595 9.62681C428.648 10.0614 428.848 10.4608 429.158 10.7514C429.604 8.22464 430.828 5.92588 432.638 4.21425C431.651 4.38565 431.143 5.68007 431.389 6.70852C431.722 7.71305 432.315 8.5979 433.101 9.2619C433.017 7.70741 433.987 6.25341 435.214 5.40228C436.492 4.62407 437.889 4.08802 439.341 3.81824C438.843 4.00555 438.417 4.36226 438.131 4.83271C437.844 5.30317 437.713 5.8609 437.757 6.4189C437.761 6.60848 437.835 6.78876 437.963 6.9213C438.103 7.01579 438.267 7.0613 438.432 7.05133C439.877 7.11036 441.324 7.0768 442.765 6.95085C444.536 6.7395 446.318 6.63884 448.101 6.64942C453.678 6.89766 459.282 10.9346 460.531 16.6974C460.79 18.0957 460.927 19.5164 460.939 20.9412L461.212 28.2172C461.37 30.3399 461.288 32.4751 460.966 34.577C460.58 36.5174 459.795 38.3435 458.666 39.9251C457.537 41.5067 456.093 42.8047 454.436 43.7266C452.423 40.6353 452.245 36.6634 451.548 32.9811C451.438 32.1313 451.14 31.3212 450.678 30.6169C450.439 30.2686 450.105 30.0076 449.72 29.8699C449.335 29.7322 448.92 29.7248 448.531 29.8485C447.778 30.1677 447.455 31.3853 448.079 31.929C447.521 32.6265 446.479 32.1063 445.848 31.4857C444.089 29.7163 442.877 27.4223 442.374 24.9072C442.123 23.6424 441.872 22.082 440.701 21.6505C440.298 21.5332 439.877 21.503 439.463 21.5618C437.021 21.7392 433.201 22.809 430.836 21.9874C428.667 21.2368 427.753 17.8323 427.753 15.6513Z" fill="black"/>
<path d="M428.009 15.3794C427.92 12.9034 428.3 10.4336 429.125 8.11527C428.895 8.48003 428.798 8.92037 428.852 9.35495C428.905 9.78953 429.105 10.189 429.415 10.4795C429.861 7.95279 431.085 5.65403 432.894 3.9424C431.907 4.1138 431.4 5.40822 431.645 6.43667C431.978 7.4412 432.572 8.32604 433.357 8.99004C433.273 7.43555 434.244 5.98155 435.471 5.13042C436.749 4.35221 438.145 3.81617 439.597 3.54639C439.099 3.7337 438.674 4.09041 438.388 4.56086C438.101 5.03132 437.97 5.58905 438.014 6.14705C438.018 6.33663 438.092 6.51691 438.22 6.64945C438.359 6.74394 438.523 6.78944 438.688 6.77947C440.133 6.8385 441.58 6.80494 443.021 6.679C444.793 6.46764 446.575 6.36698 448.358 6.37756C453.934 6.6258 459.539 10.6627 460.788 16.4256C461.047 17.8238 461.183 19.2445 461.195 20.6694L461.468 27.9453C461.627 30.068 461.545 32.2032 461.223 34.3051C460.837 36.2455 460.051 38.0717 458.922 39.6532C457.794 41.2348 456.349 42.5328 454.693 43.4547C452.68 40.3635 452.501 36.3916 451.804 32.7093C451.694 31.8595 451.396 31.0494 450.934 30.345C450.696 29.9968 450.361 29.7357 449.976 29.598C449.592 29.4604 449.176 29.4529 448.787 29.5766C448.035 29.8958 447.711 31.1134 448.336 31.6572C447.778 32.3546 446.735 31.8345 446.105 31.2139C444.345 29.4445 443.134 27.1505 442.631 24.6354C442.38 23.3705 442.129 21.8101 440.958 21.3787C440.555 21.2613 440.134 21.2312 439.72 21.29C437.277 21.4673 433.457 22.5371 431.093 21.7156C428.924 20.959 428.009 17.5604 428.009 15.3794Z" fill="#784F69"/>
<path opacity="0.1" d="M400.394 72.3162C400.394 72.3162 398.342 82.3641 402.19 88.6294L404.37 88.4402L403.182 72.4817L400.394 72.3162Z" fill="black"/>
<path d="M400.952 72.3162C400.952 72.3162 398.9 82.3641 402.748 88.6294L404.928 88.4402L403.74 72.4817L400.952 72.3162Z" fill="#8EA0B7"/>
<path opacity="0.1" d="M456.081 44.8792L472.627 59.9689C472.627 59.9689 482.375 70.5725 478.27 87.7014C478.27 87.7014 476.475 112.715 474.422 113.803C474.422 113.803 467.24 129.028 466.727 143.438C466.727 143.438 457.107 122.911 452.747 135.418C448.386 147.924 438.248 149.692 438.248 149.692L443.891 75.7147C443.891 75.7147 458.133 49.4776 456.081 44.8792Z" fill="black"/>
<path d="M456.594 44.8792L473.14 59.9689C473.14 59.9689 482.888 70.5725 478.783 87.7014C478.783 87.7014 476.988 112.715 474.936 113.803C474.936 113.803 467.753 129.028 467.24 143.438C467.24 143.438 457.107 121.823 452.741 134.33C448.375 146.837 438.761 149.698 438.761 149.698L444.404 75.7502C444.404 75.7502 458.647 49.4776 456.594 44.8792Z" fill="#3F3D56"/>
<path d="M464.162 108.613C464.162 108.613 468.266 105.622 474.936 113.779L458.518 145.318L453.003 136.493C453.003 136.493 464.675 112.148 464.162 108.613Z" fill="#FEC3BE"/>
<path opacity="0.1" d="M460.186 110.38C460.186 110.38 469.264 121.185 472.805 119.453L476.084 111.362L463.777 105.758L460.186 110.38Z" fill="black"/>
<path d="M460.186 109.837C460.186 109.837 469.264 120.641 472.805 118.909L476.084 110.818L463.777 105.214L460.186 109.837Z" fill="#8EA0B7"/>
<path opacity="0.1" d="M453.561 134.431C453.561 134.431 457.882 143.817 460.186 144.36L456.84 148.439L451.966 138.651L453.561 134.431Z" fill="black"/>
<path d="M453.304 134.72C453.304 134.72 457.626 144.106 459.929 144.65L456.583 148.728L451.698 138.923L453.304 134.72Z" fill="#4D4981"/>
<path opacity="0.1" d="M461.468 76.6663C461.468 76.6663 461.981 96.2422 459.929 103.583L461.468 76.6663Z" fill="black"/>
<path opacity="0.1" d="M419.912 80.4728C419.912 80.4728 422.99 79.3852 422.99 76.6663L419.912 80.4728Z" fill="black"/>
<path d="M46.1121 83.7472C46.1121 83.7472 31.4905 115.806 41.0932 153.746C50.696 191.686 47.6457 237.086 38.0708 248.316" stroke="#535461" stroke-width="2" stroke-miterlimit="10"/>
<path d="M46.1124 88.0265C48.3391 88.0265 50.1442 86.1133 50.1442 83.7532C50.1442 81.393 48.3391 79.4798 46.1124 79.4798C43.8857 79.4798 42.0806 81.393 42.0806 83.7532C42.0806 86.1133 43.8857 88.0265 46.1124 88.0265Z" fill="#2B7BE1"/>
<path d="M40.0337 104.369C40.0337 104.369 55.1907 107.265 59.2225 101.414" stroke="#535461" stroke-width="2" stroke-miterlimit="10"/>
<path d="M38.5952 113.678C38.5952 113.678 29.4776 102.986 29.9795 96.5732" stroke="#535461" stroke-width="2" stroke-miterlimit="10"/>
<path d="M37.8198 133.266C37.8198 133.266 46.1121 135.583 53.6794 118.49" stroke="#535461" stroke-width="2" stroke-miterlimit="10"/>
<path d="M40.0338 147.511C40.0338 147.511 19.4007 133.438 21.9157 124.359" stroke="#535461" stroke-width="2" stroke-miterlimit="10"/>
<path d="M43.2571 163.617C43.2571 163.617 57.7114 150.023 56.2002 136.647" stroke="#535461" stroke-width="2" stroke-miterlimit="10"/>
<path d="M44.8297 173.086C44.8297 173.086 26.4272 167.636 26.9848 159.09" stroke="#535461" stroke-width="2" stroke-miterlimit="10"/>
<path d="M46.1123 184.369C46.1123 184.369 57.7059 172.985 59.2171 166.046" stroke="#535461" stroke-width="2" stroke-miterlimit="10"/>
<path d="M46.921 203.726C46.921 203.726 35.0263 189.009 34.5188 181.532" stroke="#535461" stroke-width="2" stroke-miterlimit="10"/>
<path d="M46.9209 215.908C46.9209 215.908 60.232 200.233 61.2358 192.756" stroke="#535461" stroke-width="2" stroke-miterlimit="10"/>
<path d="M29.9793 101.916C32.206 101.916 34.0112 100.003 34.0112 97.643C34.0112 95.2829 32.206 93.3697 29.9793 93.3697C27.7526 93.3697 25.9475 95.2829 25.9475 97.643C25.9475 100.003 27.7526 101.916 29.9793 101.916Z" fill="#2B7BE1"/>
<path d="M25.4456 163.363C27.6724 163.363 29.4775 161.45 29.4775 159.09C29.4775 156.729 27.6724 154.816 25.4456 154.816C23.2189 154.816 21.4138 156.729 21.4138 159.09C21.4138 161.45 23.2189 163.363 25.4456 163.363Z" fill="#2B7BE1"/>
<path d="M21.9156 128.632C24.1423 128.632 25.9474 126.719 25.9474 124.359C25.9474 121.999 24.1423 120.086 21.9156 120.086C19.6889 120.086 17.8838 121.999 17.8838 124.359C17.8838 126.719 19.6889 128.632 21.9156 128.632Z" fill="#2B7BE1"/>
<path d="M59.2227 105.658C61.4494 105.658 63.2546 103.745 63.2546 101.384C63.2546 99.0244 61.4494 97.1111 59.2227 97.1111C56.996 97.1111 55.1909 99.0244 55.1909 101.384C55.1909 103.745 56.996 105.658 59.2227 105.658Z" fill="#2B7BE1"/>
<path d="M59.2227 171.378C61.4494 171.378 63.2546 169.464 63.2546 167.104C63.2546 164.744 61.4494 162.831 59.2227 162.831C56.996 162.831 55.1909 164.744 55.1909 167.104C55.1909 169.464 56.996 171.378 59.2227 171.378Z" fill="#2B7BE1"/>
<path d="M52.6702 122.757C54.897 122.757 56.7021 120.844 56.7021 118.484C56.7021 116.124 54.897 114.21 52.6702 114.21C50.4435 114.21 48.6384 116.124 48.6384 118.484C48.6384 120.844 50.4435 122.757 52.6702 122.757Z" fill="#2B7BE1"/>
<path d="M60.734 199.701C62.9607 199.701 64.7658 197.788 64.7658 195.428C64.7658 193.068 62.9607 191.155 60.734 191.155C58.5073 191.155 56.7021 193.068 56.7021 195.428C56.7021 197.788 58.5073 199.701 60.734 199.701Z" fill="#2B7BE1"/>
<path d="M33.5094 188.477C35.7361 188.477 37.5412 186.564 37.5412 184.204C37.5412 181.844 35.7361 179.93 33.5094 179.93C31.2826 179.93 29.4775 181.844 29.4775 184.204C29.4775 186.564 31.2826 188.477 33.5094 188.477Z" fill="#2B7BE1"/>
<path d="M56.7022 140.92C58.9289 140.92 60.7341 139.007 60.7341 136.647C60.7341 134.287 58.9289 132.374 56.7022 132.374C54.4755 132.374 52.6704 134.287 52.6704 136.647C52.6704 139.007 54.4755 140.92 56.7022 140.92Z" fill="#2B7BE1"/>
</g>
<defs>
<linearGradient id="paint0_linear" x1="248.774" y1="249.013" x2="248.774" y2="32.8334" gradientUnits="userSpaceOnUse">
<stop stop-color="#808080" stop-opacity="0.25"/>
<stop offset="0.54" stop-color="#808080" stop-opacity="0.12"/>
<stop offset="1" stop-color="#808080" stop-opacity="0.1"/>
</linearGradient>
<linearGradient id="paint1_linear" x1="113749" y1="178340" x2="113749" y2="48498.7" gradientUnits="userSpaceOnUse">
<stop stop-color="#808080" stop-opacity="0.25"/>
<stop offset="0.54" stop-color="#808080" stop-opacity="0.12"/>
<stop offset="1" stop-color="#808080" stop-opacity="0.1"/>
</linearGradient>
<clipPath id="clip0">
<rect width="532" height="325" fill="white"/>
</clipPath>
</defs>
</svg>
