<svg width="441" height="353" viewBox="0 0 441 353" fill="none" xmlns="http://www.w3.org/2000/svg">
<g clip-path="url(#clip0)">
<g opacity="0.1">
<path opacity="0.1" d="M293.457 265.97C293.457 265.97 294.919 244.933 306.449 233.463C311.317 228.684 314.544 222.412 315.643 215.589C316.14 212.346 316.347 209.063 316.263 205.781" fill="#2B7BE1"/>
<path opacity="0.1" d="M322.544 198.588C321.751 200.82 315.626 205.781 315.626 205.781C315.626 205.781 314.081 197.802 314.881 195.569C315.26 194.498 316.028 193.63 317.015 193.156C318.002 192.681 319.127 192.64 320.144 193.04C321.16 193.44 321.984 194.25 322.434 195.29C322.884 196.331 322.923 197.517 322.544 198.588Z" fill="#2B7BE1"/>
<path opacity="0.1" d="M325.15 214.114C323.146 215.646 314.65 216.355 314.65 216.355C314.65 216.355 317.763 208.163 319.768 206.626C320.731 205.928 321.921 205.647 323.082 205.841C324.244 206.035 325.287 206.689 325.988 207.664C326.689 208.639 326.994 209.858 326.838 211.062C326.681 212.266 326.076 213.36 325.15 214.11V214.114Z" fill="#2B7BE1"/>
<path opacity="0.1" d="M316.828 235.861C314.504 236.133 307.314 232.461 307.314 232.461C307.314 232.461 313.582 227.199 315.902 226.935C316.979 226.872 318.04 227.252 318.863 227.995C319.687 228.738 320.212 229.789 320.331 230.932C320.449 232.075 320.153 233.222 319.501 234.139C318.849 235.056 317.892 235.672 316.828 235.861Z" fill="#2B7BE1"/>
<path opacity="0.1" d="M307.409 250.391C305.175 251.072 297.532 248.745 297.532 248.745C297.532 248.745 302.853 242.461 305.087 241.78C305.624 241.598 306.189 241.533 306.75 241.588C307.311 241.643 307.855 241.817 308.352 242.1C308.848 242.383 309.286 242.769 309.64 243.235C309.994 243.701 310.256 244.239 310.412 244.814C310.567 245.39 310.612 245.994 310.545 246.588C310.477 247.183 310.298 247.758 310.018 248.278C309.738 248.797 309.363 249.253 308.915 249.616C308.467 249.978 307.955 250.242 307.409 250.391Z" fill="#2B7BE1"/>
<path opacity="0.1" d="M306.843 212.844C307.805 215.067 314.275 219.608 314.275 219.608C314.275 219.608 315.167 211.253 314.201 209.027C313.72 207.993 312.89 207.206 311.885 206.833C310.882 206.459 309.785 206.527 308.827 207.024C307.869 207.521 307.127 208.407 306.756 209.494C306.386 210.581 306.417 211.783 306.843 212.844Z" fill="#2B7BE1"/>
<path opacity="0.1" d="M295.407 231.077C297.035 232.865 304.868 235.062 304.868 235.062C304.868 235.062 303.351 226.874 301.735 225.081C300.957 224.227 299.881 223.721 298.742 223.678C297.602 223.634 296.493 224.056 295.655 224.849C294.817 225.642 294.322 226.743 294.275 227.91C294.228 229.077 294.636 230.216 295.407 231.077Z" fill="#2B7BE1"/>
<path opacity="0.1" d="M286.784 249.867C288.146 251.896 295.902 255.396 295.902 255.396C295.902 255.396 295.748 247.113 294.382 245.088C293.712 244.149 292.688 243.5 291.53 243.279C290.373 243.058 289.172 243.282 288.182 243.904C287.193 244.527 286.493 245.498 286.232 246.611C285.972 247.725 286.169 248.893 286.784 249.867Z" fill="#2B7BE1"/>
<path opacity="0.1" d="M322.544 198.588C321.751 200.82 315.626 205.781 315.626 205.781C315.626 205.781 314.081 197.802 314.881 195.569C315.26 194.498 316.028 193.63 317.015 193.156C318.002 192.681 319.127 192.64 320.144 193.04C321.16 193.44 321.984 194.25 322.434 195.29C322.884 196.331 322.923 197.517 322.544 198.588Z" fill="#2B7BE1"/>
<path opacity="0.1" d="M325.15 214.114C323.146 215.646 314.65 216.355 314.65 216.355C314.65 216.355 317.763 208.163 319.768 206.626C320.731 205.928 321.921 205.647 323.082 205.841C324.244 206.035 325.287 206.689 325.988 207.664C326.689 208.639 326.994 209.858 326.838 211.062C326.681 212.266 326.076 213.36 325.15 214.11V214.114Z" fill="#2B7BE1"/>
<path opacity="0.1" d="M316.828 235.861C314.504 236.133 307.314 232.461 307.314 232.461C307.314 232.461 313.582 227.199 315.902 226.935C316.979 226.872 318.04 227.252 318.863 227.995C319.687 228.738 320.212 229.789 320.331 230.932C320.449 232.075 320.153 233.222 319.501 234.139C318.849 235.056 317.892 235.672 316.828 235.861Z" fill="#2B7BE1"/>
<path opacity="0.1" d="M307.409 250.391C305.175 251.072 297.532 248.745 297.532 248.745C297.532 248.745 302.853 242.461 305.087 241.78C305.624 241.598 306.189 241.533 306.75 241.588C307.311 241.643 307.855 241.817 308.352 242.1C308.848 242.383 309.286 242.769 309.64 243.235C309.994 243.701 310.256 244.239 310.412 244.814C310.567 245.39 310.612 245.994 310.545 246.588C310.477 247.183 310.298 247.758 310.018 248.278C309.738 248.797 309.363 249.253 308.915 249.616C308.467 249.978 307.955 250.242 307.409 250.391Z" fill="#2B7BE1"/>
<path opacity="0.1" d="M306.843 212.844C307.805 215.067 314.275 219.608 314.275 219.608C314.275 219.608 315.167 211.253 314.201 209.027C313.72 207.993 312.89 207.206 311.885 206.833C310.882 206.459 309.785 206.527 308.827 207.024C307.869 207.521 307.127 208.407 306.756 209.494C306.386 210.581 306.417 211.783 306.843 212.844Z" fill="#2B7BE1"/>
<path opacity="0.1" d="M295.407 231.077C297.035 232.865 304.868 235.062 304.868 235.062C304.868 235.062 303.351 226.874 301.735 225.081C300.957 224.227 299.881 223.721 298.742 223.678C297.602 223.634 296.493 224.056 295.655 224.849C294.817 225.642 294.322 226.743 294.275 227.91C294.228 229.077 294.636 230.216 295.407 231.077Z" fill="#2B7BE1"/>
<path opacity="0.1" d="M286.784 249.867C288.146 251.896 295.902 255.396 295.902 255.396C295.902 255.396 295.748 247.113 294.382 245.088C293.712 244.149 292.688 243.5 291.53 243.279C290.373 243.058 289.172 243.282 288.182 243.904C287.193 244.527 286.493 245.498 286.232 246.611C285.972 247.725 286.169 248.893 286.784 249.867Z" fill="#2B7BE1"/>
</g>
<g opacity="0.1">
<path opacity="0.1" d="M297.532 186.26C297.532 186.26 298.942 165.507 310.06 154.193C314.752 149.477 317.863 143.29 318.925 136.561C319.408 133.362 319.608 130.123 319.523 126.885" fill="#2B7BE1"/>
<path opacity="0.1" d="M326.619 119.244C325.846 121.612 319.704 126.885 319.704 126.885C319.704 126.885 318.158 118.404 318.955 116.036C319.334 114.897 320.102 113.975 321.089 113.471C322.077 112.967 323.202 112.922 324.219 113.347C325.235 113.773 326.059 114.633 326.509 115.739C326.959 116.845 326.999 118.105 326.619 119.244Z" fill="#2B7BE1"/>
<path opacity="0.1" d="M329.061 134.605C327.093 136.004 318.727 136.645 318.727 136.645C318.727 136.645 321.791 129.19 323.763 127.791C324.231 127.44 324.767 127.183 325.339 127.034C325.912 126.885 326.511 126.847 327.1 126.922C327.688 126.998 328.255 127.185 328.767 127.473C329.278 127.761 329.724 128.144 330.078 128.599C330.432 129.055 330.687 129.573 330.828 130.124C330.968 130.675 330.991 131.248 330.897 131.807C330.802 132.367 330.591 132.903 330.276 133.384C329.96 133.864 329.547 134.279 329.061 134.605Z" fill="#2B7BE1"/>
<path opacity="0.1" d="M320.678 156.145C318.413 156.416 311.39 152.759 311.39 152.759C311.39 152.759 317.512 147.522 319.777 147.255C320.321 147.18 320.874 147.222 321.403 147.381C321.932 147.539 322.427 147.811 322.858 148.179C323.288 148.548 323.648 149.006 323.914 149.526C324.18 150.047 324.348 150.62 324.408 151.213C324.468 151.805 324.419 152.404 324.262 152.975C324.107 153.546 323.847 154.078 323.5 154.539C323.153 155 322.725 155.382 322.24 155.661C321.756 155.941 321.224 156.112 320.678 156.166V156.145Z" fill="#2B7BE1"/>
<path opacity="0.1" d="M310.99 171.495C308.867 172.179 301.608 169.839 301.608 169.839C301.608 169.839 306.666 163.52 308.784 162.831C309.799 162.52 310.882 162.671 311.799 163.253C312.716 163.834 313.391 164.799 313.681 165.938C313.971 167.077 313.85 168.3 313.346 169.339C312.841 170.379 311.994 171.154 310.986 171.495H310.99Z" fill="#2B7BE1"/>
<path opacity="0.1" d="M310.224 134.045C311.271 136.238 318.319 140.712 318.319 140.712C318.319 140.712 319.286 132.477 318.24 130.288C317.998 129.755 317.651 129.276 317.22 128.878C316.789 128.48 316.282 128.171 315.728 127.969C315.175 127.767 314.586 127.676 313.997 127.702C313.408 127.728 312.83 127.871 312.297 128.12C311.764 128.37 311.287 128.723 310.894 129.157C310.5 129.592 310.198 130.1 310.004 130.651C309.811 131.203 309.731 131.787 309.769 132.37C309.806 132.952 309.961 133.522 310.224 134.045Z" fill="#2B7BE1"/>
<path opacity="0.1" d="M299.424 151.341C301.062 153.145 308.944 155.353 308.944 155.353C308.944 155.353 307.413 147.111 305.789 145.311C305.001 144.48 303.927 143.998 302.797 143.967C301.667 143.936 300.57 144.359 299.74 145.146C298.91 145.932 298.413 147.02 298.353 148.177C298.294 149.334 298.678 150.47 299.424 151.341Z" fill="#2B7BE1"/>
<path opacity="0.1" d="M290.922 170.702C292.156 172.829 299.163 176.5 299.163 176.5C299.163 176.5 299.023 167.812 297.789 165.689C297.504 165.164 297.127 164.709 296.683 164.35C296.238 163.991 295.733 163.736 295.199 163.6C294.665 163.464 294.112 163.45 293.572 163.558C293.034 163.666 292.519 163.894 292.059 164.23C291.6 164.565 291.206 165 290.899 165.51C290.592 166.019 290.379 166.592 290.273 167.196C290.167 167.799 290.17 168.42 290.282 169.022C290.393 169.625 290.611 170.196 290.922 170.702Z" fill="#2B7BE1"/>
<path opacity="0.1" d="M326.619 119.244C325.846 121.612 319.704 126.885 319.704 126.885C319.704 126.885 318.158 118.404 318.955 116.036C319.334 114.897 320.102 113.975 321.089 113.471C322.077 112.967 323.202 112.922 324.219 113.347C325.235 113.773 326.059 114.633 326.509 115.739C326.959 116.845 326.999 118.105 326.619 119.244Z" fill="#2B7BE1"/>
<path opacity="0.1" d="M329.061 134.605C327.093 136.004 318.727 136.645 318.727 136.645C318.727 136.645 321.791 129.19 323.763 127.791C324.231 127.44 324.767 127.183 325.339 127.034C325.912 126.885 326.511 126.847 327.1 126.922C327.688 126.998 328.255 127.185 328.767 127.473C329.278 127.761 329.724 128.144 330.078 128.599C330.432 129.055 330.687 129.573 330.828 130.124C330.968 130.675 330.991 131.248 330.897 131.807C330.802 132.367 330.591 132.903 330.276 133.384C329.96 133.864 329.547 134.279 329.061 134.605Z" fill="#2B7BE1"/>
<path opacity="0.1" d="M320.678 156.145C318.413 156.416 311.39 152.759 311.39 152.759C311.39 152.759 317.512 147.522 319.777 147.255C320.321 147.18 320.874 147.222 321.403 147.381C321.932 147.539 322.427 147.811 322.858 148.179C323.288 148.548 323.648 149.006 323.914 149.526C324.18 150.047 324.348 150.62 324.408 151.213C324.468 151.805 324.419 152.404 324.262 152.975C324.107 153.546 323.847 154.078 323.5 154.539C323.153 155 322.725 155.382 322.24 155.661C321.756 155.941 321.224 156.112 320.678 156.166V156.145Z" fill="#2B7BE1"/>
<path opacity="0.1" d="M310.99 171.495C308.867 172.179 301.608 169.839 301.608 169.839C301.608 169.839 306.666 163.52 308.784 162.831C309.799 162.52 310.882 162.671 311.799 163.253C312.716 163.834 313.391 164.799 313.681 165.938C313.971 167.077 313.85 168.3 313.346 169.339C312.841 170.379 311.994 171.154 310.986 171.495H310.99Z" fill="#2B7BE1"/>
<path opacity="0.1" d="M310.224 134.045C311.271 136.238 318.319 140.712 318.319 140.712C318.319 140.712 319.286 132.477 318.24 130.288C317.998 129.755 317.651 129.276 317.22 128.878C316.789 128.48 316.282 128.171 315.728 127.969C315.175 127.767 314.586 127.676 313.997 127.702C313.408 127.728 312.83 127.871 312.297 128.12C311.764 128.37 311.287 128.723 310.894 129.157C310.5 129.592 310.198 130.1 310.004 130.651C309.811 131.203 309.731 131.787 309.769 132.37C309.806 132.952 309.961 133.522 310.224 134.045Z" fill="#2B7BE1"/>
<path opacity="0.1" d="M299.424 151.341C301.062 153.145 308.944 155.353 308.944 155.353C308.944 155.353 307.413 147.111 305.789 145.311C305.001 144.48 303.927 143.998 302.797 143.967C301.667 143.936 300.57 144.359 299.74 145.146C298.91 145.932 298.413 147.02 298.353 148.177C298.294 149.334 298.678 150.47 299.424 151.341Z" fill="#2B7BE1"/>
<path opacity="0.1" d="M290.922 170.702C292.156 172.829 299.163 176.5 299.163 176.5C299.163 176.5 299.023 167.812 297.789 165.689C297.504 165.164 297.127 164.709 296.683 164.35C296.238 163.991 295.733 163.736 295.199 163.6C294.665 163.464 294.112 163.45 293.572 163.558C293.034 163.666 292.519 163.894 292.059 164.23C291.6 164.565 291.206 165 290.899 165.51C290.592 166.019 290.379 166.592 290.273 167.196C290.167 167.799 290.17 168.42 290.282 169.022C290.393 169.625 290.611 170.196 290.922 170.702Z" fill="#2B7BE1"/>
</g>
<g opacity="0.1">
<path opacity="0.1" d="M84.7762 213.915C84.7762 213.915 67.7065 203.113 63.0583 187.381C61.1546 180.764 57.2779 174.983 52.0116 170.907C49.497 168.989 46.8212 167.322 44.0183 165.926" fill="#2B7BE1"/>
<path opacity="0.1" d="M40.854 155.971C42.4915 157.902 44.0184 166.74 44.0184 166.74C44.0184 166.74 36.1219 164.377 34.4967 162.447C33.7524 161.513 33.3687 160.298 33.4272 159.058C33.4857 157.819 33.9818 156.653 34.81 155.809C35.6383 154.965 36.7332 154.511 37.8619 154.541C38.9907 154.571 40.0641 155.084 40.854 155.971Z" fill="#2B7BE1"/>
<path opacity="0.1" d="M54.5802 161.542C54.9655 163.933 52.068 171.62 52.068 171.62C52.068 171.62 46.9282 165.44 46.5429 163.049C46.4363 162.474 46.4376 161.881 46.5467 161.307C46.6558 160.733 46.8705 160.187 47.1782 159.704C47.4859 159.22 47.8803 158.808 48.3383 158.49C48.7961 158.173 49.3084 157.959 49.8447 157.858C50.381 157.757 50.9305 157.773 51.4609 157.905C51.9914 158.037 52.492 158.281 52.9332 158.625C53.3746 158.968 53.7476 159.403 54.0304 159.904C54.3133 160.405 54.5002 160.962 54.5802 161.542Z" fill="#2B7BE1"/>
<path opacity="0.1" d="M69.8059 178.681C69.0368 181.031 62.9265 186.26 62.9265 186.26C62.9265 186.26 61.3884 177.857 62.1767 175.511C62.3523 174.936 62.6295 174.406 62.9917 173.953C63.3541 173.499 63.7942 173.132 64.286 172.872C64.778 172.611 65.3116 172.463 65.8555 172.437C66.3994 172.411 66.9425 172.507 67.4527 172.719C67.9629 172.931 68.4297 173.255 68.8257 173.672C69.2217 174.088 69.5388 174.589 69.7582 175.145C69.9775 175.701 70.0948 176.3 70.103 176.907C70.1112 177.515 70.0101 178.118 69.8059 178.681Z" fill="#2B7BE1"/>
<path opacity="0.1" d="M78.1838 194.753C77.7664 197.163 72.5268 203.341 72.5268 203.341C72.5268 203.341 69.7252 195.533 70.1464 193.127C70.2461 192.554 70.4488 192.008 70.7429 191.521C71.037 191.033 71.4167 190.613 71.8604 190.286C72.3041 189.957 72.803 189.727 73.3287 189.607C73.8545 189.489 74.3966 189.483 74.9244 189.591C75.4521 189.699 75.9551 189.919 76.4045 190.238C76.8539 190.557 77.241 190.969 77.5436 191.45C77.8463 191.931 78.0586 192.473 78.1685 193.043C78.2783 193.613 78.2835 194.201 78.1838 194.774V194.753Z" fill="#2B7BE1"/>
<path opacity="0.1" d="M46.3704 178.114C48.6659 178.173 55.4305 173.887 55.4305 173.887C55.4305 173.887 48.8663 169.239 46.5669 169.18C45.4772 169.175 44.4291 169.63 43.6479 170.447C42.8669 171.264 42.4149 172.378 42.3891 173.55C42.3634 174.721 42.7659 175.857 43.5103 176.712C44.2547 177.568 45.2816 178.076 46.3704 178.127V178.114Z" fill="#2B7BE1"/>
<path opacity="0.1" d="M55.9019 196.687C58.1737 195.996 63.5821 189.663 63.5821 189.663C63.5821 189.663 55.813 187.324 53.5413 188.015C52.4744 188.367 51.5806 189.145 51.0508 190.182C50.521 191.22 50.3973 192.435 50.7062 193.568C51.015 194.701 51.7319 195.661 52.7035 196.244C53.6753 196.827 54.8246 196.985 55.906 196.687H55.9019Z" fill="#2B7BE1"/>
<path opacity="0.1" d="M68.3321 213.04C70.5758 212.77 76.6248 207.549 76.6248 207.549C76.6248 207.549 69.6852 203.891 67.4376 204.17C66.8839 204.203 66.3421 204.359 65.8455 204.63C65.3489 204.9 64.9078 205.279 64.5493 205.743C64.1907 206.207 63.9223 206.745 63.7602 207.327C63.5981 207.907 63.5461 208.519 63.6069 209.123C63.6678 209.727 63.8405 210.311 64.1144 210.839C64.3883 211.368 64.7576 211.829 65.1999 212.196C65.6422 212.563 66.148 212.826 66.6865 212.972C67.2251 213.117 67.785 213.14 68.3321 213.04Z" fill="#2B7BE1"/>
<path opacity="0.1" d="M40.854 155.971C42.4915 157.902 44.0184 166.74 44.0184 166.74C44.0184 166.74 36.1219 164.377 34.4967 162.447C33.7524 161.513 33.3687 160.298 33.4272 159.058C33.4857 157.819 33.9818 156.653 34.81 155.809C35.6383 154.965 36.7332 154.511 37.8619 154.541C38.9907 154.571 40.0641 155.084 40.854 155.971Z" fill="#2B7BE1"/>
<path opacity="0.1" d="M54.5802 161.542C54.9655 163.933 52.068 171.62 52.068 171.62C52.068 171.62 46.9282 165.44 46.5429 163.049C46.4363 162.474 46.4376 161.881 46.5467 161.307C46.6558 160.733 46.8705 160.187 47.1782 159.704C47.4859 159.22 47.8803 158.808 48.3383 158.49C48.7961 158.173 49.3084 157.959 49.8447 157.858C50.381 157.757 50.9305 157.773 51.4609 157.905C51.9914 158.037 52.492 158.281 52.9332 158.625C53.3746 158.968 53.7476 159.403 54.0304 159.904C54.3133 160.405 54.5002 160.962 54.5802 161.542Z" fill="#2B7BE1"/>
<path opacity="0.1" d="M69.8059 178.681C69.0368 181.031 62.9265 186.26 62.9265 186.26C62.9265 186.26 61.3884 177.857 62.1767 175.511C62.3523 174.936 62.6295 174.406 62.9917 173.953C63.3541 173.499 63.7942 173.132 64.286 172.872C64.778 172.611 65.3116 172.463 65.8555 172.437C66.3994 172.411 66.9425 172.507 67.4527 172.719C67.9629 172.931 68.4297 173.255 68.8257 173.672C69.2217 174.088 69.5388 174.589 69.7582 175.145C69.9775 175.701 70.0948 176.3 70.103 176.907C70.1112 177.515 70.0101 178.118 69.8059 178.681Z" fill="#2B7BE1"/>
<path opacity="0.1" d="M78.1838 194.753C77.7664 197.163 72.5268 203.341 72.5268 203.341C72.5268 203.341 69.7252 195.533 70.1464 193.127C70.2461 192.554 70.4488 192.008 70.7429 191.521C71.037 191.033 71.4167 190.613 71.8604 190.286C72.3041 189.957 72.803 189.727 73.3287 189.607C73.8545 189.489 74.3966 189.483 74.9244 189.591C75.4521 189.699 75.9551 189.919 76.4045 190.238C76.8539 190.557 77.241 190.969 77.5436 191.45C77.8463 191.931 78.0586 192.473 78.1685 193.043C78.2783 193.613 78.2835 194.201 78.1838 194.774V194.753Z" fill="#2B7BE1"/>
<path opacity="0.1" d="M46.3704 178.114C48.6659 178.173 55.4305 173.887 55.4305 173.887C55.4305 173.887 48.8663 169.239 46.5669 169.18C45.4772 169.175 44.4291 169.63 43.6479 170.447C42.8669 171.264 42.4149 172.378 42.3891 173.55C42.3634 174.721 42.7659 175.857 43.5103 176.712C44.2547 177.568 45.2816 178.076 46.3704 178.127V178.114Z" fill="#2B7BE1"/>
<path opacity="0.1" d="M55.9019 196.687C58.1737 195.996 63.5821 189.663 63.5821 189.663C63.5821 189.663 55.813 187.324 53.5413 188.015C52.4744 188.367 51.5806 189.145 51.0508 190.182C50.521 191.22 50.3973 192.435 50.7062 193.568C51.015 194.701 51.7319 195.661 52.7035 196.244C53.6753 196.827 54.8246 196.985 55.906 196.687H55.9019Z" fill="#2B7BE1"/>
<path opacity="0.1" d="M68.3321 213.04C70.5758 212.77 76.6248 207.549 76.6248 207.549C76.6248 207.549 69.6852 203.891 67.4376 204.17C66.8839 204.203 66.3421 204.359 65.8455 204.63C65.3489 204.9 64.9078 205.279 64.5493 205.743C64.1907 206.207 63.9223 206.745 63.7602 207.327C63.5981 207.907 63.5461 208.519 63.6069 209.123C63.6678 209.727 63.8405 210.311 64.1144 210.839C64.3883 211.368 64.7576 211.829 65.1999 212.196C65.6422 212.563 66.148 212.826 66.6865 212.972C67.2251 213.117 67.785 213.14 68.3321 213.04Z" fill="#2B7BE1"/>
</g>
<path opacity="0.1" d="M295.087 340.045C306.542 345.371 320.52 342.13 333.519 342.505C335.295 342.556 337.182 342.714 338.607 343.636C340.031 344.556 340.737 346.045 341.716 347.324C345.358 352.075 352.824 353.602 359.347 352.796C365.871 351.99 371.853 349.32 378.009 347.29C388.651 343.776 400.813 342.172 411.31 346.011C412.272 346.361 413.305 346.766 414.319 346.625C416.621 346.313 417.308 343.763 418.916 342.309C421.82 339.678 428.133 340.394 429.409 336.927C430.156 334.898 428.436 332.816 426.56 331.43C419.378 326.126 409.124 325.251 399.735 326.07C390.346 326.889 381.118 329.145 371.681 329.153C359.922 329.153 348.562 325.69 336.919 324.27C328.855 323.289 320.053 323.418 312.491 326.305C304.296 329.426 302.493 336.459 295.087 340.045Z" fill="#2B7BE1"/>
<path opacity="0.1" d="M77.4399 323.96C97.0168 329.876 120.907 326.275 143.121 326.694C146.162 326.753 149.382 326.925 151.822 327.952C154.264 328.979 155.462 330.635 157.136 332.053C163.361 337.331 176.117 339.029 187.264 338.132C198.411 337.235 208.639 334.271 219.162 332.014C237.348 328.111 258.139 326.334 276.077 330.589C277.723 330.979 279.457 331.428 281.224 331.273C285.154 330.924 286.325 328.095 289.078 326.476C294.043 323.542 304.827 324.351 307.009 320.502C308.287 318.246 305.346 315.932 302.142 314.393C289.885 308.502 272.346 307.53 256.297 308.44C240.248 309.349 224.476 311.853 208.355 311.865C188.259 311.865 168.842 308.02 148.942 306.44C135.159 305.35 120.117 305.484 107.192 308.703C93.1814 312.18 90.0928 319.99 77.4399 323.96Z" fill="#2B7BE1"/>
<path opacity="0.1" d="M23.6396 338.68C29.2762 342.225 36.1207 340.069 42.5061 340.318C43.3798 340.351 44.3058 340.457 45.0064 341.067C45.7069 341.678 46.0532 342.676 46.5324 343.527C48.3199 346.689 51.9837 347.708 55.1845 347.17C58.3853 346.631 61.3244 344.857 64.348 343.502C69.582 341.164 75.5447 340.099 80.6942 342.659C81.1354 342.954 81.6527 343.101 82.1761 343.08C83.3034 342.87 83.6409 341.173 84.4308 340.204C85.8557 338.452 88.9557 338.941 89.5801 336.62C89.9461 335.269 89.1008 333.883 88.183 332.961C84.6639 329.428 79.6232 328.846 75.0133 329.39C70.4033 329.933 65.8739 331.407 61.2398 331.407C55.4704 331.407 49.8941 329.103 44.177 328.156C40.2153 327.499 35.8952 327.583 32.1831 329.512C28.161 331.617 27.2752 336.3 23.6396 338.68Z" fill="#2B7BE1"/>
<path d="M286.179 15.4539H100.206C97.9688 15.4501 95.7524 15.9095 93.6852 16.806C91.6171 17.7025 89.7374 19.0186 88.1527 20.679C86.5688 22.3394 85.3111 24.3116 84.4519 26.483C83.5927 28.6545 83.1493 30.9826 83.146 33.3343V304.224C83.1558 308.972 84.9581 313.521 88.1568 316.871C91.3563 320.222 95.6896 322.1 100.206 322.092H286.179C288.416 322.096 290.632 321.637 292.699 320.74C294.767 319.843 296.647 318.527 298.232 316.867C299.816 315.207 301.073 313.235 301.933 311.063C302.792 308.891 303.235 306.563 303.238 304.212V33.3343C303.235 30.9826 302.792 28.6545 301.933 26.483C301.073 24.3116 299.816 22.3394 298.232 20.679C296.647 19.0186 294.767 17.7025 292.699 16.806C290.632 15.9095 288.416 15.4501 286.179 15.4539Z" fill="url(#paint0_linear)"/>
<path d="M292.743 18.7074H92.826C88.3802 18.7074 84.7764 22.4845 84.7764 27.1438V311.216C84.7764 315.875 88.3802 319.652 92.826 319.652H292.743C297.189 319.652 300.793 315.875 300.793 311.216V27.1438C300.793 22.4845 297.189 18.7074 292.743 18.7074Z" fill="#535461"/>
<path d="M290.196 47.1751H96.1885V291.184H290.196V47.1751Z" fill="#F6F7F9"/>
<path d="M192.377 34.9747C193.728 34.9747 194.823 33.8822 194.823 32.5346C194.823 31.1869 193.728 30.0945 192.377 30.0945C191.026 30.0945 189.932 31.1869 189.932 32.5346C189.932 33.8822 191.026 34.9747 192.377 34.9747Z" fill="#F6F7F9"/>
<path d="M192.377 313.145C196.879 313.145 200.529 309.504 200.529 305.012C200.529 300.519 196.879 296.878 192.377 296.878C187.875 296.878 184.226 300.519 184.226 305.012C184.226 309.504 187.875 313.145 192.377 313.145Z" fill="#F6F7F9"/>
<g opacity="0.2">
<path opacity="0.2" d="M290.196 47.1751H96.1885V59.3756H290.196V47.1751Z" fill="#2B7BE1"/>
</g>
<path d="M102.71 56.1221C104.061 56.1221 105.155 54.8476 105.155 53.2753C105.155 51.7031 104.061 50.4286 102.71 50.4286C101.359 50.4286 100.264 51.7031 100.264 53.2753C100.264 54.8476 101.359 56.1221 102.71 56.1221Z" fill="#F6F7F9"/>
<path d="M109.231 56.1221C110.582 56.1221 111.677 54.8476 111.677 53.2753C111.677 51.7031 110.582 50.4286 109.231 50.4286C107.88 50.4286 106.786 51.7031 106.786 53.2753C106.786 54.8476 107.88 56.1221 109.231 56.1221Z" fill="#F6F7F9"/>
<path d="M114.937 56.1221C116.288 56.1221 117.383 54.8476 117.383 53.2753C117.383 51.7031 116.288 50.4286 114.937 50.4286C113.586 50.4286 112.492 51.7031 112.492 53.2753C112.492 54.8476 113.586 56.1221 114.937 56.1221Z" fill="#F6F7F9"/>
<path d="M282.044 118.751H101.895V119.565H282.044V118.751Z" fill="#DCE0ED"/>
<path d="M282.044 133.392H101.895V134.205H282.044V133.392Z" fill="#DCE0ED"/>
<path d="M282.044 148.032H101.895V148.846H282.044V148.032Z" fill="#DCE0ED"/>
<path d="M282.044 162.673H101.895V163.486H282.044V162.673Z" fill="#DCE0ED"/>
<g opacity="0.2">
<path opacity="0.2" d="M282.044 178.127H101.895V149.239L118.416 157.809L135.516 160.251L150.519 155.489L168.619 140.717L177.724 135.184L184.379 133.834L190.747 134.193L201.218 139.637L215.456 149.18L226.628 150.69L235.484 147.477L254.262 131.296L263.848 127.698L273.877 129.331L282.044 134.294V178.127Z" fill="#2B7BE1"/>
</g>
<path d="M133.4 160.231C117.122 160.231 102.084 149.827 101.895 149.693L102.344 148.995C102.578 149.159 125.725 165.164 145.395 157.147C152.567 154.206 157.672 149.676 162.613 145.277C167.771 140.684 172.639 136.347 179.28 134.465C186.893 132.309 195.215 134.259 201.539 139.692C206.945 144.336 217.711 151.789 229.083 149.562C234.881 148.423 239.765 143.999 244.938 139.314C254.856 130.33 265.115 121.04 282.859 134.369L282.389 135.049C265.159 122.107 255.15 131.179 245.465 139.948C240.207 144.71 235.242 149.193 229.233 150.386C217.534 152.681 206.544 145.075 201.028 140.339C194.906 135.083 186.858 133.196 179.489 135.276C173.024 137.108 168.233 141.385 163.132 145.915C158.143 150.361 152.985 154.954 145.689 157.928C141.766 159.491 137.598 160.272 133.4 160.231Z" fill="#2B7BE1"/>
<path d="M188.709 139.085C191.185 139.085 193.192 136.901 193.192 134.205C193.192 131.51 191.185 129.325 188.709 129.325C186.233 129.325 184.226 131.51 184.226 134.205C184.226 136.901 186.233 139.085 188.709 139.085Z" fill="#2B7BE1"/>
<g opacity="0.2">
<path opacity="0.2" d="M246.897 71.576H190.842C190.601 71.576 190.369 71.6781 190.198 71.8599C190.028 72.0416 189.932 72.2881 189.932 72.5452V112.903C189.932 113.097 189.987 113.287 190.09 113.447C190.192 113.607 190.338 113.731 190.507 113.803C190.677 113.874 190.862 113.89 191.04 113.847C191.218 113.806 191.379 113.707 191.505 113.566L201.218 102.536C201.303 102.44 201.406 102.363 201.52 102.31C201.634 102.257 201.757 102.23 201.881 102.23H246.897C247.139 102.23 247.371 102.128 247.541 101.946C247.712 101.765 247.808 101.518 247.808 101.261V72.5366C247.805 72.2811 247.709 72.0368 247.538 71.8569C247.368 71.677 247.138 71.576 246.897 71.576Z" fill="#2B7BE1"/>
</g>
<path d="M235.58 78.8963H202.974V83.7765H235.58V78.8963Z" fill="#F6F7F9"/>
<path d="M211.126 88.6567H202.974V92.7235H211.126V88.6567Z" fill="#F6F7F9"/>
<g opacity="0.2">
<path opacity="0.2" d="M126.349 208.221H117.383V213.101H126.349V208.221Z" fill="#2B7BE1"/>
</g>
<g opacity="0.2">
<path opacity="0.2" d="M126.349 216.355H117.383V221.235H126.349V216.355Z" fill="#2B7BE1"/>
</g>
<g opacity="0.2">
<path opacity="0.2" d="M126.349 224.488H117.383V229.369H126.349V224.488Z" fill="#2B7BE1"/>
</g>
<g opacity="0.2">
<path opacity="0.2" d="M126.349 232.622H117.383V237.502H126.349V232.622Z" fill="#2B7BE1"/>
</g>
<g opacity="0.2">
<path opacity="0.2" d="M126.349 241.569H117.383V245.636H126.349V241.569Z" fill="#2B7BE1"/>
</g>
<g opacity="0.2">
<path opacity="0.2" d="M126.349 249.703H117.383V253.77H126.349V249.703Z" fill="#2B7BE1"/>
</g>
<g opacity="0.2">
<path opacity="0.2" d="M126.349 257.836H117.383V261.903H126.349V257.836Z" fill="#2B7BE1"/>
</g>
<g opacity="0.2">
<path opacity="0.2" d="M126.349 265.97H117.383V270.037H126.349V265.97Z" fill="#2B7BE1"/>
</g>
<g opacity="0.2">
<path opacity="0.2" d="M142.653 270.037H133.686V274.104H142.653V270.037Z" fill="#2B7BE1"/>
</g>
<g opacity="0.2">
<path opacity="0.2" d="M158.141 270.037H149.174V274.104H158.141V270.037Z" fill="#2B7BE1"/>
</g>
<g opacity="0.2">
<path opacity="0.2" d="M173.628 270.037H164.662V274.104H173.628V270.037Z" fill="#2B7BE1"/>
</g>
<g opacity="0.2">
<path opacity="0.2" d="M189.117 270.037H180.15V274.104H189.117V270.037Z" fill="#2B7BE1"/>
</g>
<g opacity="0.2">
<path opacity="0.2" d="M204.604 270.037H195.638V274.104H204.604V270.037Z" fill="#2B7BE1"/>
</g>
<g opacity="0.2">
<path opacity="0.2" d="M220.092 270.037H211.941V274.104H220.092V270.037Z" fill="#2B7BE1"/>
</g>
<g opacity="0.2">
<path opacity="0.2" d="M235.58 270.037H227.429V274.104H235.58V270.037Z" fill="#2B7BE1"/>
</g>
<g opacity="0.2">
<path opacity="0.2" d="M251.069 270.037H242.917V274.104H251.069V270.037Z" fill="#2B7BE1"/>
</g>
<g opacity="0.2">
<path opacity="0.2" d="M266.556 270.037H258.405V274.104H266.556V270.037Z" fill="#2B7BE1"/>
</g>
<path d="M235.58 88.6567H221.723V92.7235H235.58V88.6567Z" fill="#F6F7F9"/>
<path d="M143.468 239.129H133.686V265.97H143.468V239.129Z" fill="#2B7BE1"/>
<path d="M158.141 226.929H149.174V265.97H158.141V226.929Z" fill="#2B7BE1"/>
<path d="M174.444 216.355H165.477V265.97H174.444V216.355Z" fill="#2B7BE1"/>
<path d="M189.117 222.048H180.15V265.97H189.117V222.048Z" fill="#2B7BE1"/>
<path d="M205.419 213.101H196.453V265.97H205.419V213.101Z" fill="#2B7BE1"/>
<g opacity="0.2">
<path opacity="0.2" d="M220.092 232.622H211.941V265.97H220.092V232.622Z" fill="#2B7BE1"/>
</g>
<g opacity="0.2">
<path opacity="0.2" d="M235.58 232.622H227.429V265.97H235.58V232.622Z" fill="#2B7BE1"/>
</g>
<g opacity="0.2">
<path opacity="0.2" d="M251.069 232.622H242.917V265.97H251.069V232.622Z" fill="#2B7BE1"/>
</g>
<g opacity="0.2">
<path opacity="0.2" d="M266.556 232.622H258.405V265.97H266.556V232.622Z" fill="#2B7BE1"/>
</g>
<path d="M404.448 115.051C394.883 109.288 391.27 107.859 391.249 107.851L391.057 107.703C390.014 106.864 389.184 105.768 388.642 104.512C388.642 104.281 388.642 104.053 388.642 103.825V103.893C388.795 100.84 390.868 98.0624 392.835 95.6378L397.861 89.4408C398.434 88.8291 398.876 88.0963 399.156 87.2911C399.26 86.86 399.306 86.4159 399.293 85.9718C399.293 85.7904 399.293 85.609 399.293 85.4317C399.269 83.8928 399.225 82.3499 399.173 80.7945C399.125 79.4497 398.794 77.7549 397.511 77.4767C396.843 77.3334 395.962 77.5863 395.607 76.9835C395.489 76.7372 395.459 76.4543 395.523 76.1867C395.521 76.2078 395.521 76.2289 395.523 76.25V76.1741C395.773 75.1359 395.933 74.0762 396.002 73.0081C396.027 72.4651 395.956 71.9219 395.793 71.4061C395.048 69.1717 392.489 68.2569 390.224 67.8353C387.959 67.4137 385.423 67.0512 384.003 65.1963C383.564 64.6229 383.266 63.9316 382.768 63.413C382.112 62.8047 381.313 62.3913 380.453 62.2158C377.644 61.4882 374.684 61.7581 372.036 62.983C370.941 63.4931 369.842 64.1845 368.643 64.1086C367.444 64.0328 366.33 63.1263 365.099 62.9071C363.111 62.553 361.208 64.0833 360.23 65.8919C359.649 66.9676 359.339 68.1804 359.329 69.4162C359.329 69.4837 359.329 69.5553 359.329 69.6228C359.299 70.9514 359.762 72.2402 360.621 73.2188C361.477 74.1505 362.757 74.7913 363.111 76.0181C363.256 76.5155 363.219 77.0551 363.348 77.561C363.348 77.6242 363.385 77.6875 363.404 77.7466L363.34 77.835C361.288 80.59 360.178 83.9864 360.185 87.4806C360.206 90.8707 361.256 94.1656 363.183 96.8888C365.109 99.6127 367.812 101.624 370.901 102.632C370.901 102.788 370.901 102.948 370.901 103.104C370.901 105.018 370.382 106.97 368.821 108.408L355.276 114.116C355.276 114.116 347.112 113.1 344.167 125.604C343.693 127.679 343.522 129.819 343.66 131.948C343.768 133.833 343.519 137.154 341.426 141.451C338.075 148.322 338.839 164.097 345.688 165.661C352.154 167.137 354.685 166.505 354.942 166.45V166.723C354.838 169.675 353.812 195.218 350.081 198.308C349.052 199.151 349.245 199.741 350.081 200.129C350.081 200.129 350.081 200.293 350.058 200.589C349.945 202.456 349.37 209.568 346.875 213.615C343.982 218.299 344.283 245.326 344.283 245.326L342.34 261.274C342.34 261.274 343.547 271.114 342.34 272.834C341.253 274.364 339.805 310.775 339.524 318.663H339.395C338.798 318.7 338.22 318.89 337.71 319.216C337.2 319.541 336.774 319.993 336.469 320.53C334.859 323.254 329.266 328.283 329.266 328.283C328.059 330.092 323.556 331.82 321.178 332.638C320.86 332.746 320.552 332.887 320.261 333.06C319.373 333.568 318.659 334.355 318.221 335.311C318.066 335.593 317.967 335.905 317.928 336.228C317.891 336.55 317.915 336.878 317.999 337.191C318.611 338.751 331.246 339.843 334.441 338.283C336.956 337.052 346.915 335.437 351.047 334.805C351.798 334.705 352.495 334.347 353.031 333.787C353.566 333.227 353.909 332.497 354.005 331.711C354.041 331.437 354.024 331.159 353.955 330.892C353.887 330.625 353.766 330.376 353.603 330.159C352.798 329.131 352.396 326.327 352.222 324.497C352.559 324.356 352.872 324.161 353.152 323.92C352.813 318.245 353.589 312.557 355.434 307.209C358.479 298.777 359.393 283.15 358.653 272.998C358.653 272.998 367.94 231.136 375.247 227.228C375.359 227.375 378.905 232.148 379.355 246.907C379.814 261.902 384.989 271.742 384.989 271.742C384.989 271.742 382.703 297.205 384.989 306.733L381.999 321.766C381.781 321.568 381.641 321.416 381.641 321.416C381.641 321.416 381.729 321.838 381.854 322.504L381.789 322.82L381.918 322.853C382.257 324.734 382.759 328.009 382.554 329.931C382.433 331.024 382.152 332.524 381.943 333.996C381.629 336.31 381.54 338.553 382.703 339.055C384.607 339.855 395.796 340.952 397.7 338.376C398.127 337.85 398.405 337.21 398.503 336.528C398.601 335.845 398.516 335.148 398.256 334.514C398.116 334.16 397.93 333.829 397.7 333.532C397.7 333.532 394.73 328.444 395.567 324.856C395.646 324.505 395.656 324.141 395.595 323.786C395.535 323.432 395.404 323.094 395.213 322.794C395.342 321.032 396.018 312.883 397.776 305.961C399.68 298.444 403.699 281.965 400.742 271.127C400.629 270.705 400.501 270.283 400.364 269.862C398.657 263.946 398.088 257.734 398.69 251.587C397.592 246.337 397.592 240.901 398.69 235.651C400.517 226.903 401.793 218.312 401.793 218.312C401.793 218.312 402.803 206.756 401.921 199.669L401.86 199.215L402.344 199.101C402.344 199.101 399.756 187.073 398.843 179.422C398.626 177.613 398.344 175.324 398.038 172.879C398.882 172.737 399.712 172.522 400.521 172.234C408.713 169.253 411.288 142.391 411.288 142.391V133.875C411.288 133.875 414.041 120.831 404.448 115.051ZM343.205 322.495C342.951 322.361 342.803 322.272 342.803 322.272L343.205 322.495Z" fill="url(#paint1_linear)"/>
<path d="M399.186 270.284C402.742 281.076 398.592 298.59 396.666 306.409C394.739 314.228 394.146 323.617 394.146 323.617C386.588 324.867 381.105 323.3 381.105 323.3L384.216 307.205C381.992 297.667 384.216 272.173 384.216 272.173C384.216 272.173 379.179 262.321 378.734 247.306C378.296 232.524 374.845 227.751 374.72 227.602C367.609 231.512 358.566 273.431 358.566 273.431C359.309 283.596 358.418 299.233 355.456 307.679C353.66 313.044 352.903 318.735 353.233 324.414C352.197 325.338 350.756 325.494 349.199 325.231C344.981 324.49 339.92 320.644 339.92 320.644C339.92 320.644 341.525 274.981 342.729 273.257C343.933 271.533 342.729 261.681 342.729 261.681L344.652 245.73C344.652 245.73 344.359 218.67 347.173 213.964C349.604 209.911 350.163 202.79 350.271 200.923C350.271 200.626 350.295 200.461 350.295 200.461L354.581 195.04C354.581 195.04 396.08 191.757 399.19 195.04C399.957 195.848 400.426 197.678 400.707 199.987C401.562 207.081 400.583 218.653 400.583 218.653C400.583 218.653 399.339 227.255 397.56 236.018C396.49 241.275 396.49 246.712 397.56 251.97C396.97 258.128 397.523 264.348 399.186 270.284Z" fill="#65617D"/>
<path d="M396.211 338.358C394.466 340.961 384.214 339.854 382.469 339.046C381.403 338.546 381.486 336.28 381.773 333.941C381.954 332.454 382.222 330.949 382.332 329.833C382.612 326.989 381.494 321.227 381.494 321.227C381.494 321.227 383.798 323.988 384.353 321.227C384.599 320.021 385.456 319.401 386.344 319.089C387.54 318.683 388.825 318.774 389.966 319.345C391.776 320.234 394.802 322.133 394.258 324.698C393.503 328.323 396.211 333.467 396.211 333.467C396.421 333.768 396.591 334.102 396.717 334.459C396.956 335.099 397.035 335.801 396.946 336.489C396.857 337.176 396.603 337.823 396.211 338.358Z" fill="#A27772"/>
<path opacity="0.1" d="M396.205 338.452C394.45 340.905 384.136 339.862 382.381 339.101C381.309 338.629 381.393 336.495 381.682 334.293C382.787 334.84 384.673 335.3 387.811 334.99C388.545 334.916 389.282 334.893 390.018 334.916C392.251 335.025 394.488 334.978 396.714 334.776C396.955 335.379 397.035 336.041 396.946 336.69C396.856 337.338 396.6 337.948 396.205 338.452Z" fill="black"/>
<path opacity="0.1" d="M358.977 273.376C359.712 283.552 358.83 299.206 355.897 307.661C354.119 313.03 353.37 318.728 353.696 324.413C352.671 325.337 351.244 325.494 349.702 325.231C350.588 318.617 354.359 290.175 356.796 267.698C359.53 242.102 372.405 224.488 372.405 224.488L374.972 227.503C367.923 231.413 358.977 273.376 358.977 273.376Z" fill="black"/>
<path d="M392.906 109.551L391.098 118.767L382.247 134.205L371.332 129.366C371.332 129.366 356.501 113.237 365.82 110.933C366.937 110.685 367.991 110.198 368.915 109.502C370.747 108.071 371.32 105.986 371.32 103.948C371.32 100.582 369.805 97.3369 369.805 97.3369L388.897 91.0968C388.108 93.7004 387.648 96.3991 387.526 99.1263C387.382 104.534 389.314 107.18 390.897 108.449C391.49 108.951 392.173 109.325 392.906 109.551Z" fill="#FBBEBE"/>
<path opacity="0.1" d="M388.83 91.0968C388.022 93.7451 387.549 96.4894 387.425 99.263C387.069 99.6997 386.689 100.115 386.287 100.507C384.268 102.495 381.764 103.884 379.041 104.524C376.317 105.165 373.476 105.034 370.819 104.146C370.819 100.722 369.266 97.4223 369.266 97.4223L388.83 91.0968Z" fill="black"/>
<path d="M390.46 88.2541C390.46 91.392 389.574 94.4584 387.915 97.0669C386.257 99.6745 383.901 101.707 381.145 102.906C378.388 104.106 375.355 104.418 372.43 103.804C369.504 103.19 366.818 101.678 364.71 99.4573C362.602 97.2377 361.167 94.4104 360.587 91.3327C360.008 88.2549 360.309 85.0657 361.452 82.1677C362.597 79.2702 364.532 76.7946 367.014 75.054C369.496 73.3134 372.413 72.3862 375.396 72.3895C377.378 72.3828 379.341 72.7888 381.173 73.5839C383.005 74.3791 384.669 75.5478 386.069 77.0226C387.47 78.4974 388.579 80.2491 389.332 82.1766C390.086 84.1043 390.469 86.1702 390.46 88.2541Z" fill="#FBBEBE"/>
<path opacity="0.1" d="M392.906 109.271L391.098 118.591L382.247 134.205L371.332 129.312C371.332 129.312 356.501 112.999 365.82 110.668C366.937 110.418 367.991 109.925 368.915 109.221C367.231 114.081 374.182 124.187 374.182 124.187C374.984 125.449 376.848 124.65 376.848 124.65C381.321 123.943 389.567 110.424 390.909 108.177C391.5 108.676 392.178 109.048 392.906 109.271Z" fill="black"/>
<path opacity="0.1" d="M400.242 200.009C397.651 200.642 383.295 204.059 377.851 203.204C371.864 202.261 360.215 201.636 360.215 201.636C360.215 201.636 352.801 202.062 350.518 200.948C350.518 200.65 350.541 200.484 350.541 200.484L354.767 195.045C354.767 195.045 395.68 191.751 398.746 195.045C399.502 195.847 399.965 197.684 400.242 200.009Z" fill="black"/>
<path d="M373.314 124.665C373.314 124.665 365.513 113.18 368.452 108.718L355.273 114.456C355.273 114.456 347.339 113.435 344.459 126.01C344 128.099 343.833 130.25 343.967 132.39C344.071 134.288 343.831 137.627 341.796 141.945C338.541 148.857 339.282 164.72 345.937 166.294C352.593 167.868 354.956 167.076 354.956 167.076C354.956 167.076 354.071 195.825 350.227 199.121C346.382 202.418 360.026 201.635 360.026 201.635C360.026 201.635 371.816 202.265 377.879 203.205C383.942 204.145 400.947 199.908 400.947 199.908C400.947 199.908 398.432 187.81 397.547 180.115C396.661 172.419 394.587 156.029 394.587 156.029L409.673 134.334C409.673 134.334 412.332 121.22 403.017 115.409C393.702 109.598 390.202 108.177 390.202 108.177C390.202 108.177 380.855 124.342 375.977 125.138C375.977 125.138 374.123 125.929 373.314 124.665Z" fill="#424C58"/>
<path opacity="0.1" d="M356.274 129.325C356.274 129.325 356.127 134.447 357.006 136.469C357.883 138.49 361.115 149.659 361.115 149.659H353.778C353.778 149.659 357.752 145.159 357.447 142.986C357.141 140.814 356.274 129.325 356.274 129.325Z" fill="black"/>
<path d="M377.918 168.366C377.918 168.366 361.761 164.124 360.255 160.53C358.75 156.936 354.593 148.866 354.593 148.866L356.297 146.406L364.157 153.012C364.157 153.012 373.52 161.001 377.91 161.785C382.3 162.57 377.918 168.366 377.918 168.366Z" fill="#FBBEBE"/>
<path opacity="0.05" d="M377.918 168.366C377.918 168.366 361.761 164.124 360.255 160.53C358.75 156.936 354.593 148.866 354.593 148.866L356.297 146.406L364.157 153.012C364.157 153.012 373.52 161.001 377.91 161.785C382.3 162.57 377.918 168.366 377.918 168.366Z" fill="black"/>
<path d="M392.906 148.113V157.557H391.448C384.255 157.558 377.182 159.468 370.893 163.106L368.166 164.686L367.433 165.113L362.745 154.107L367.13 150.009H367.355C368.428 150.115 373.066 150.52 375.031 149.829C376.898 149.168 379.215 147.071 384.714 148.549C387.424 149.27 389.737 152.437 392.366 151.448L392.906 148.113Z" fill="#FBBEBE"/>
<path opacity="0.1" d="M406.259 131.048L409.209 134.572V143.12C409.209 143.12 406.701 170.09 398.74 173.071C390.78 176.052 376.571 171.342 376.571 171.342C376.571 171.342 372.897 160.994 374.614 160.369C376.331 159.746 389.785 155.962 389.785 155.962C389.785 155.962 389.598 140.139 392.544 135.434C392.544 135.434 390.628 120.698 397.263 120.384C403.899 120.07 406.259 131.048 406.259 131.048Z" fill="black"/>
<path d="M407.075 131.048L410.024 134.572V143.12C410.024 143.12 407.526 170.09 399.545 173.071C391.563 176.052 377.381 171.342 377.381 171.342C377.381 171.342 373.714 160.994 375.43 160.369C377.146 159.746 390.594 155.962 390.594 155.962C390.594 155.962 390.403 140.139 393.352 135.434C393.352 135.434 391.436 120.698 398.068 120.384C404.701 120.07 407.075 131.048 407.075 131.048Z" fill="#424C58"/>
<path opacity="0.1" d="M386.327 95.2441C386.388 94.2087 386.407 93.1147 385.994 92.1818C385.581 91.2489 384.611 90.5038 383.665 90.7422C382.409 91.0569 381.868 92.8081 380.637 93.2294C379.6 93.5832 378.467 92.8032 377.974 91.7556C377.481 90.708 377.466 89.4985 377.462 88.3484C377.462 87.0365 377.462 85.7204 377.462 84.4093C377.462 82.9778 377.418 81.4275 376.595 80.3119C375.574 78.9107 373.169 78.3017 371.564 78.3571C370.495 78.3703 369.469 78.8143 368.691 79.6006C367.832 80.3801 366.839 80.9593 365.666 80.7505C365.179 80.6715 364.723 80.4464 364.351 80.1012C363.977 79.756 363.704 79.3049 363.56 78.7999V78.7489C364.808 76.9822 366.384 75.5118 368.188 74.4302C369.992 73.3487 371.986 72.6795 374.044 72.4648C376.101 72.2502 378.178 72.4948 380.144 73.1832C382.109 73.8715 383.919 74.9888 385.462 76.4644C387.004 77.9401 388.244 79.7421 389.104 81.7569C389.964 83.7716 390.425 85.9555 390.459 88.1711C390.491 90.3867 390.096 92.5852 389.297 94.6284C388.498 96.6724 387.312 98.5155 385.815 100.044C386.07 98.4553 386.241 96.853 386.327 95.2441Z" fill="black"/>
<path d="M365.421 80.1076C364.936 80.0286 364.483 79.8051 364.112 79.463C363.741 79.1209 363.469 78.674 363.326 78.174C363.204 77.6727 363.236 77.1377 363.097 76.6364C362.757 75.4148 361.517 74.7786 360.726 73.8519C359.083 71.9899 359.188 68.9316 360.355 66.6905C361.295 64.8875 363.121 63.3667 365.022 63.7164C366.208 63.9354 367.223 64.8327 368.42 64.9128C369.618 64.9928 370.622 64.3019 371.673 63.7922C374.203 62.5709 377.047 62.302 379.739 63.0298C380.566 63.2069 381.334 63.6188 381.96 64.2219C382.384 64.7909 382.779 65.3828 383.145 65.9954C384.509 67.8447 386.943 68.207 389.113 68.6241C391.282 69.0411 393.732 69.9552 394.448 72.1795C394.918 73.6539 394.448 75.2547 394.191 76.7881C394.099 77.1005 394.12 77.4379 394.246 77.7359C394.586 78.3341 395.432 78.0855 396.072 78.2288C397.305 78.5026 397.622 80.1918 397.652 81.5316C397.705 83.0648 397.745 84.598 397.772 86.132C397.845 86.8429 397.758 87.5619 397.52 88.2305C397.282 88.899 396.898 89.4977 396.4 89.9776L391.583 96.1494C389.445 98.8872 387.176 102.076 387.607 105.606C386.596 106.091 385.394 105.156 385.062 104.027C384.73 102.898 384.999 101.684 385.221 100.526C385.61 98.5236 385.865 96.4934 385.983 94.4519C386.042 93.4238 386.062 92.3453 385.651 91.4229C385.24 90.4997 384.276 89.7376 383.335 89.9946C382.086 90.3062 381.549 92.0378 380.324 92.4551C379.296 92.804 378.166 92.0337 377.676 90.9975C377.186 89.9605 377.17 88.7648 377.166 87.6269V83.7261C377.166 82.3149 377.123 80.7774 376.304 79.6737C375.289 78.2877 372.898 77.6854 371.302 77.7401C370.238 77.7541 369.218 78.1931 368.445 78.9702C367.575 79.7411 366.587 80.3098 365.421 80.1076Z" fill="#7C5C5C"/>
<path opacity="0.1" d="M368.451 129.325L373.314 148.846C373.314 148.846 377.151 148.825 368.451 129.325Z" fill="black"/>
<path opacity="0.1" d="M384.754 126.071C384.754 126.071 378.932 136.428 381.205 147.131L382.289 147.219C382.289 147.219 380.351 142.262 384.754 126.071Z" fill="black"/>
<path opacity="0.1" d="M388.83 185.201C388.83 185.201 395.67 182.551 396.167 188.7C396.167 188.7 394.875 184.486 388.83 185.201Z" fill="black"/>
<path opacity="0.1" d="M366.51 150.472C366.51 150.472 365.125 161.303 367.636 165.635C367.636 165.635 362.561 167.956 355.438 167.491L354.593 150.472H366.51Z" fill="black"/>
<path opacity="0.1" d="M367.636 164.676L366.975 165.113L362.745 153.852L366.701 149.659H366.905C366.842 150.201 365.741 159.898 367.636 164.676Z" fill="black"/>
<path d="M366.451 149.659C366.451 149.659 364.995 160.488 367.636 164.822C367.636 164.822 362.297 167.143 354.803 166.678L349.702 149.659H366.451Z" fill="#424C58"/>
<path d="M354.569 331.864C354.482 332.641 354.155 333.365 353.635 333.924C353.115 334.483 352.435 334.843 351.699 334.948C347.699 335.581 338.024 337.193 335.584 338.416C332.483 339.973 320.22 338.885 319.628 337.328C319.462 336.699 319.537 336.025 319.84 335.455C320.267 334.502 320.966 333.716 321.84 333.205C322.123 333.034 322.421 332.893 322.729 332.784C325.037 331.97 329.398 330.252 330.579 328.437C330.579 328.437 336.016 323.42 337.565 320.708C337.856 320.175 338.268 319.726 338.764 319.401C339.259 319.075 339.823 318.884 340.405 318.843C341.701 318.779 343.142 319.467 343.73 322.459C343.73 322.459 350.82 326.724 352.736 322.982C352.736 322.982 353.032 328.728 354.208 330.298C354.364 330.521 354.476 330.774 354.538 331.043C354.6 331.312 354.609 331.591 354.569 331.864Z" fill="#A27772"/>
<path opacity="0.1" d="M354.57 331.797C354.484 332.581 354.155 333.313 353.636 333.876C353.116 334.44 352.435 334.803 351.701 334.91C347.699 335.548 338.025 337.175 335.585 338.41C332.484 339.98 320.22 338.882 319.628 337.311C319.462 336.676 319.537 335.996 319.84 335.421C320.267 334.459 320.967 333.666 321.841 333.151C323.841 334.564 328.278 335.945 338.041 334.322C347.351 332.777 351.961 331.26 354.209 330.226C354.364 330.449 354.475 330.703 354.537 330.973C354.599 331.243 354.609 331.523 354.57 331.797Z" fill="black"/>
<g opacity="0.1">
<path opacity="0.1" d="M394.603 77.2696V77.1842C394.943 75.8697 395.45 74.5125 395.334 73.2028C395.183 74.2777 394.938 75.3444 394.603 76.3964C394.514 76.6837 394.514 76.9823 394.603 77.2696Z" fill="black"/>
<path opacity="0.1" d="M386.002 91.7401C386.235 92.3071 386.359 92.9179 386.367 93.5369C386.435 92.6828 386.31 91.8247 386.002 91.0325C385.601 90.0914 384.612 89.3505 383.658 89.5896C382.392 89.9044 381.847 91.6547 380.604 92.0761C379.559 92.4299 378.417 91.6507 377.916 90.6031C377.415 89.5554 377.407 88.346 377.403 87.1959C377.403 85.8799 377.403 84.5687 377.403 83.2527C377.403 81.826 377.359 80.2718 376.529 79.1561C375.5 77.7551 373.071 77.1461 371.457 77.2014C370.379 77.2148 369.345 77.6586 368.56 78.4449C367.691 79.2285 366.693 79.8034 365.511 79.599C365.019 79.519 364.56 79.2931 364.184 78.9473C363.808 78.6015 363.532 78.1497 363.387 77.6443C363.264 77.1376 363.295 76.5968 363.155 76.09C362.806 74.855 361.553 74.212 360.751 73.2752C359.972 72.3625 359.529 71.1813 359.505 69.9493C359.443 70.6763 359.522 71.409 359.736 72.1024C359.951 72.7959 360.296 73.4355 360.751 73.982C361.584 74.9189 362.823 75.5662 363.155 76.8012C363.295 77.3037 363.264 77.8445 363.387 78.3512C363.532 78.8566 363.808 79.3084 364.184 79.6542C364.56 80 365.019 80.2259 365.511 80.3059C366.713 80.5103 367.691 79.9354 368.56 79.1518C369.345 78.3655 370.379 77.9217 371.457 77.9083C373.06 77.853 375.5 78.4662 376.529 79.863C377.359 80.9872 377.399 82.5329 377.403 83.9595C377.403 85.2755 377.403 86.5867 377.403 87.9027C377.403 89.0699 377.403 90.2834 377.916 91.3099C378.429 92.3363 379.559 93.1367 380.604 92.7829C381.847 92.3575 382.392 90.6112 383.658 90.2964C384.623 90.0622 385.589 90.7991 386.002 91.7401Z" fill="black"/>
<path opacity="0.1" d="M398.469 87.2284C398.192 88.0491 397.754 88.7982 397.182 89.4261C395.519 91.5401 393.855 93.6524 392.189 95.763C390.088 98.4317 387.859 101.52 388.023 104.924C388.175 101.801 390.235 98.9596 392.189 96.4804L397.182 90.1484C397.753 89.518 398.191 88.7681 398.469 87.9466C398.592 87.3797 398.637 86.7973 398.6 86.2166C398.596 86.5582 398.552 86.8982 398.469 87.2284Z" fill="black"/>
<path opacity="0.1" d="M385.711 103.33C385.64 103.055 385.597 102.771 385.582 102.484C385.545 103.002 385.588 103.524 385.711 104.024C386.011 105.157 387.1 106.092 388.015 105.606C387.99 105.377 387.976 105.148 387.968 104.92C387.047 105.369 385.989 104.447 385.711 103.33Z" fill="black"/>
</g>
<path opacity="0.1" d="M335.845 322.092C335.845 322.092 337.432 325.467 343.181 322.495L335.845 322.092Z" fill="black"/>
<path opacity="0.1" d="M383.939 322.906C383.939 322.906 388.627 328.715 394.536 324.808L383.939 322.906Z" fill="black"/>
<path opacity="0.1" d="M397.797 252.143C397.797 252.143 394.641 254.466 394.54 255.796C394.441 257.125 396.169 254.828 396.169 254.828L397.797 252.143Z" fill="black"/>
<path opacity="0.1" d="M398.612 269.223C397.507 270.165 396.132 270.714 394.696 270.788C392.321 270.895 392.518 274.065 394.07 273.111C395.621 272.157 398.612 269.223 398.612 269.223Z" fill="black"/>
<path opacity="0.1" d="M399.427 271.664C399.427 271.664 397.627 279.487 396.167 277.977L399.427 271.664Z" fill="black"/>
<path d="M61.7174 310.705C61.7174 310.705 63.998 313.706 60.6622 318.228C57.3264 322.75 54.5764 326.587 55.6772 329.412C55.6772 329.412 60.7079 320.995 64.8164 320.878C68.9248 320.761 66.2246 315.767 61.7174 310.705Z" fill="#2B7BE1"/>
<path opacity="0.1" d="M62.0204 310.705C62.2082 310.994 62.3554 311.31 62.4574 311.645C66.2109 316.364 68.2124 320.771 64.6033 320.884C61.244 320.984 57.19 327.421 56.2458 329.045C56.2777 329.169 56.3155 329.292 56.359 329.412C56.359 329.412 61.084 321.001 64.9428 320.884C68.8016 320.766 66.2538 315.763 62.0204 310.705Z" fill="black"/>
<path d="M67.8937 315.994C66.9397 316.281 66.106 316.454 66.0329 316.382C65.9599 316.312 66.6776 316.018 67.6315 315.732C68.5856 315.445 68.2075 315.654 68.2805 315.732C68.3535 315.81 68.8478 315.708 67.8937 315.994Z" fill="#FFD037"/>
<path d="M50.4078 310.705C50.4078 310.705 48.2899 313.706 51.3876 318.228C54.4855 322.75 57.0393 326.587 56.017 329.412C56.017 329.412 51.3452 320.995 47.5299 320.878C43.7145 320.761 46.226 315.767 50.4078 310.705Z" fill="#2B7BE1"/>
<path opacity="0.1" d="M50.4707 310.705C50.2846 310.995 50.1375 311.311 50.0337 311.645C46.2799 316.364 44.2781 320.771 47.8875 320.884C51.2511 320.984 55.3015 327.421 56.2457 329.045C56.2157 329.17 56.1778 329.293 56.1326 329.412C56.1326 329.412 51.4072 321.001 47.548 320.884C43.6889 320.766 46.2408 315.763 50.4707 310.705Z" fill="black"/>
<path d="M46.4639 314.595C46.4639 315.591 46.6436 316.399 46.8683 316.399C47.0928 316.399 47.279 315.591 47.279 314.595C47.279 313.598 47.0479 314.071 46.8233 314.071C46.5987 314.071 46.4639 313.606 46.4639 314.595Z" fill="#FFD037"/>
<path d="M45.4159 315.994C46.3708 316.281 47.201 316.454 47.2741 316.382C47.3472 316.312 46.6289 316.018 45.6739 315.732C44.719 315.445 45.0975 315.654 45.0244 315.732C44.9513 315.81 44.4609 315.708 45.4159 315.994Z" fill="#FFD037"/>
<path d="M47.2791 329.648C47.2791 329.648 53.4127 329.45 55.2656 328.063C57.1184 326.675 64.6976 325.024 65.1568 327.247C65.616 329.471 74.3732 338.298 67.4489 338.357C60.5246 338.416 51.3601 337.222 49.5153 336.037C47.6704 334.851 47.2791 329.648 47.2791 329.648Z" fill="#A8A8A8"/>
<path opacity="0.2" d="M67.5735 337.571C60.6476 337.632 51.4809 336.406 49.6356 335.189C48.2297 334.265 47.6705 330.945 47.4828 329.412H47.2791C47.2791 329.412 47.6785 334.761 49.5118 335.975C51.3451 337.187 60.5238 338.418 67.4497 338.357C69.4468 338.357 70.1418 337.571 70.1018 336.432C69.8262 337.127 69.0633 337.558 67.5735 337.571Z" fill="black"/>
</g>
<defs>
<linearGradient id="paint0_linear" x1="193.184" y1="322.105" x2="193.184" y2="15.4539" gradientUnits="userSpaceOnUse">
<stop stop-color="#808080" stop-opacity="0.25"/>
<stop offset="0.54" stop-color="#808080" stop-opacity="0.12"/>
<stop offset="1" stop-color="#808080" stop-opacity="0.1"/>
</linearGradient>
<linearGradient id="paint1_linear" x1="89410.5" y1="233069" x2="89410.5" y2="49551.1" gradientUnits="userSpaceOnUse">
<stop stop-color="#808080" stop-opacity="0.25"/>
<stop offset="0.54" stop-color="#808080" stop-opacity="0.12"/>
<stop offset="1" stop-color="#808080" stop-opacity="0.1"/>
</linearGradient>
<clipPath id="clip0">
<rect width="441" height="353" fill="white"/>
</clipPath>
</defs>
</svg>
