<svg width="541" height="434" viewBox="0 0 541 434" fill="none" xmlns="http://www.w3.org/2000/svg">
<g opacity="0.1">
<path opacity="0.1" d="M360 327C360 327 361.794 301.136 375.939 287.034C381.911 281.158 385.869 273.447 387.218 265.059C387.827 261.071 388.081 257.035 387.978 253" fill="#2B7BE1"/>
<path opacity="0.1" d="M395.683 244.156C394.711 246.9 387.197 253 387.197 253C387.197 253 385.301 243.19 386.282 240.445C386.748 239.128 387.69 238.061 388.901 237.478C390.111 236.894 391.492 236.843 392.739 237.335C393.985 237.827 394.996 238.823 395.548 240.102C396.1 241.381 396.148 242.839 395.683 244.156Z" fill="#2B7BE1"/>
<path opacity="0.1" d="M398.881 263.245C396.422 265.129 386 266 386 266C386 266 389.819 255.928 392.278 254.039C393.46 253.181 394.919 252.835 396.344 253.074C397.769 253.312 399.048 254.116 399.908 255.315C400.769 256.514 401.143 258.013 400.951 259.493C400.759 260.973 400.016 262.318 398.881 263.24V263.245Z" fill="#2B7BE1"/>
<path opacity="0.1" d="M388.671 289.982C385.82 290.317 377 285.802 377 285.802C377 285.802 384.689 279.332 387.535 279.008C388.857 278.931 390.158 279.397 391.168 280.311C392.179 281.225 392.823 282.517 392.969 283.922C393.114 285.327 392.75 286.738 391.95 287.865C391.151 288.992 389.977 289.75 388.671 289.982Z" fill="#2B7BE1"/>
<path opacity="0.1" d="M377.117 307.846C374.376 308.684 365 305.823 365 305.823C365 305.823 371.527 298.097 374.268 297.259C374.927 297.036 375.62 296.956 376.308 297.023C376.996 297.091 377.664 297.305 378.273 297.653C378.882 298 379.419 298.475 379.853 299.048C380.287 299.621 380.609 300.282 380.8 300.99C380.99 301.698 381.046 302.44 380.963 303.171C380.88 303.902 380.66 304.609 380.317 305.248C379.973 305.887 379.513 306.447 378.964 306.893C378.414 307.339 377.786 307.663 377.117 307.846Z" fill="#2B7BE1"/>
<path opacity="0.1" d="M376.422 261.684C377.602 264.417 385.539 270 385.539 270C385.539 270 386.634 259.728 385.449 256.991C384.859 255.72 383.84 254.752 382.608 254.293C381.377 253.833 380.031 253.917 378.856 254.528C377.681 255.139 376.77 256.229 376.315 257.565C375.861 258.901 375.899 260.379 376.422 261.684Z" fill="#2B7BE1"/>
<path opacity="0.1" d="M362.393 284.1C364.39 286.299 374 289 374 289C374 289 372.138 278.933 370.156 276.729C369.202 275.678 367.882 275.057 366.484 275.004C365.086 274.95 363.725 275.468 362.697 276.443C361.67 277.418 361.062 278.772 361.004 280.207C360.947 281.642 361.447 283.042 362.393 284.1Z" fill="#2B7BE1"/>
<path opacity="0.1" d="M351.815 307.202C353.485 309.697 363 314 363 314C363 314 362.811 303.816 361.136 301.326C360.313 300.172 359.058 299.374 357.637 299.102C356.217 298.83 354.744 299.106 353.53 299.871C352.316 300.637 351.458 301.83 351.138 303.199C350.818 304.568 351.06 306.004 351.815 307.202Z" fill="#2B7BE1"/>
<path opacity="0.1" d="M395.683 244.156C394.711 246.9 387.197 253 387.197 253C387.197 253 385.301 243.19 386.282 240.445C386.748 239.128 387.69 238.061 388.901 237.478C390.111 236.894 391.492 236.843 392.739 237.335C393.985 237.827 394.996 238.823 395.548 240.102C396.1 241.381 396.148 242.839 395.683 244.156Z" fill="#2B7BE1"/>
<path opacity="0.1" d="M398.881 263.245C396.422 265.129 386 266 386 266C386 266 389.819 255.928 392.278 254.039C393.46 253.181 394.919 252.835 396.344 253.074C397.769 253.312 399.048 254.116 399.908 255.315C400.769 256.514 401.143 258.013 400.951 259.493C400.759 260.973 400.016 262.318 398.881 263.24V263.245Z" fill="#2B7BE1"/>
<path opacity="0.1" d="M388.671 289.982C385.82 290.317 377 285.802 377 285.802C377 285.802 384.689 279.332 387.535 279.008C388.857 278.931 390.158 279.397 391.168 280.311C392.179 281.225 392.823 282.517 392.969 283.922C393.114 285.327 392.75 286.738 391.95 287.865C391.151 288.992 389.977 289.75 388.671 289.982Z" fill="#2B7BE1"/>
<path opacity="0.1" d="M377.117 307.846C374.376 308.684 365 305.823 365 305.823C365 305.823 371.527 298.097 374.268 297.259C374.927 297.036 375.62 296.956 376.308 297.023C376.996 297.091 377.664 297.305 378.273 297.653C378.882 298 379.419 298.475 379.853 299.048C380.287 299.621 380.609 300.282 380.8 300.99C380.99 301.698 381.046 302.44 380.963 303.171C380.88 303.902 380.66 304.609 380.317 305.248C379.973 305.887 379.513 306.447 378.964 306.893C378.414 307.339 377.786 307.663 377.117 307.846Z" fill="#2B7BE1"/>
<path opacity="0.1" d="M376.422 261.684C377.602 264.417 385.539 270 385.539 270C385.539 270 386.634 259.728 385.449 256.991C384.859 255.72 383.84 254.752 382.608 254.293C381.377 253.833 380.031 253.917 378.856 254.528C377.681 255.139 376.77 256.229 376.315 257.565C375.861 258.901 375.899 260.379 376.422 261.684Z" fill="#2B7BE1"/>
<path opacity="0.1" d="M362.393 284.1C364.39 286.299 374 289 374 289C374 289 372.138 278.933 370.156 276.729C369.202 275.678 367.882 275.057 366.484 275.004C365.086 274.95 363.725 275.468 362.697 276.443C361.67 277.418 361.062 278.772 361.004 280.207C360.947 281.642 361.447 283.042 362.393 284.1Z" fill="#2B7BE1"/>
<path opacity="0.1" d="M351.815 307.202C353.485 309.697 363 314 363 314C363 314 362.811 303.816 361.136 301.326C360.313 300.172 359.058 299.374 357.637 299.102C356.217 298.83 354.744 299.106 353.53 299.871C352.316 300.637 351.458 301.83 351.138 303.199C350.818 304.568 351.06 306.004 351.815 307.202Z" fill="#2B7BE1"/>
</g>
<g opacity="0.1">
<path opacity="0.1" d="M365 229C365 229 366.729 203.485 380.369 189.574C386.125 183.776 389.941 176.17 391.244 167.896C391.836 163.963 392.081 159.981 391.977 156" fill="#2B7BE1"/>
<path opacity="0.1" d="M400.682 146.606C399.734 149.517 392.199 156 392.199 156C392.199 156 390.303 145.573 391.28 142.662C391.745 141.262 392.688 140.128 393.899 139.508C395.11 138.888 396.491 138.833 397.738 139.356C398.985 139.879 399.995 140.937 400.548 142.297C401.1 143.656 401.148 145.206 400.682 146.606Z" fill="#2B7BE1"/>
<path opacity="0.1" d="M403.678 165.492C401.263 167.212 391 168 391 168C391 168 394.759 158.834 397.179 157.114C397.752 156.683 398.41 156.367 399.112 156.184C399.815 156 400.549 155.954 401.272 156.046C401.994 156.139 402.689 156.369 403.317 156.723C403.944 157.077 404.491 157.548 404.925 158.108C405.36 158.668 405.672 159.305 405.845 159.983C406.017 160.66 406.046 161.364 405.93 162.052C405.814 162.74 405.555 163.399 405.168 163.99C404.781 164.581 404.274 165.091 403.678 165.492Z" fill="#2B7BE1"/>
<path opacity="0.1" d="M393.394 191.974C390.615 192.307 382 187.811 382 187.811C382 187.811 389.51 181.373 392.289 181.045C392.956 180.952 393.634 181.004 394.283 181.199C394.932 181.394 395.539 181.728 396.068 182.181C396.596 182.634 397.037 183.197 397.364 183.837C397.69 184.477 397.896 185.182 397.97 185.91C398.043 186.638 397.983 187.375 397.791 188.077C397.6 188.779 397.282 189.433 396.856 190C396.43 190.567 395.905 191.036 395.31 191.379C394.716 191.723 394.064 191.934 393.394 192V191.974Z" fill="#2B7BE1"/>
<path opacity="0.1" d="M381.509 210.846C378.905 211.688 370 208.811 370 208.811C370 208.811 376.204 201.042 378.803 200.195C380.048 199.812 381.377 199.998 382.501 200.713C383.626 201.428 384.455 202.614 384.81 204.015C385.166 205.415 385.018 206.918 384.399 208.196C383.78 209.475 382.74 210.427 381.504 210.846H381.509Z" fill="#2B7BE1"/>
<path opacity="0.1" d="M380.569 164.803C381.854 167.499 390.5 173 390.5 173C390.5 173 391.687 162.876 390.403 160.184C390.106 159.529 389.681 158.94 389.152 158.451C388.623 157.961 388.001 157.581 387.322 157.333C386.643 157.085 385.921 156.973 385.198 157.005C384.476 157.037 383.767 157.212 383.113 157.519C382.459 157.826 381.874 158.26 381.391 158.794C380.908 159.328 380.537 159.953 380.3 160.631C380.063 161.309 379.965 162.027 380.011 162.744C380.057 163.46 380.247 164.16 380.569 164.803Z" fill="#2B7BE1"/>
<path opacity="0.1" d="M367.321 186.068C369.33 188.286 379 191 379 191C379 191 377.122 180.867 375.129 178.654C374.162 177.633 372.845 177.04 371.459 177.002C370.073 176.964 368.727 177.484 367.708 178.451C366.69 179.418 366.08 180.756 366.007 182.178C365.935 183.601 366.406 184.997 367.321 186.068Z" fill="#2B7BE1"/>
<path opacity="0.1" d="M356.891 209.871C358.405 212.487 367 217 367 217C367 217 366.829 206.319 365.315 203.708C364.965 203.063 364.503 202.503 363.958 202.062C363.412 201.621 362.793 201.307 362.138 201.14C361.482 200.973 360.804 200.955 360.142 201.088C359.481 201.221 358.85 201.502 358.286 201.914C357.723 202.326 357.239 202.861 356.862 203.488C356.486 204.114 356.225 204.819 356.095 205.561C355.965 206.303 355.968 207.066 356.105 207.806C356.242 208.547 356.509 209.249 356.891 209.871Z" fill="#2B7BE1"/>
<path opacity="0.1" d="M400.682 146.606C399.734 149.517 392.199 156 392.199 156C392.199 156 390.303 145.573 391.28 142.662C391.745 141.262 392.688 140.128 393.899 139.508C395.11 138.888 396.491 138.833 397.738 139.356C398.985 139.879 399.995 140.937 400.548 142.297C401.1 143.656 401.148 145.206 400.682 146.606Z" fill="#2B7BE1"/>
<path opacity="0.1" d="M403.678 165.492C401.263 167.212 391 168 391 168C391 168 394.759 158.834 397.179 157.114C397.752 156.683 398.41 156.367 399.112 156.184C399.815 156 400.549 155.954 401.272 156.046C401.994 156.139 402.689 156.369 403.317 156.723C403.944 157.077 404.491 157.548 404.925 158.108C405.36 158.668 405.672 159.305 405.845 159.983C406.017 160.66 406.046 161.364 405.93 162.052C405.814 162.74 405.555 163.399 405.168 163.99C404.781 164.581 404.274 165.091 403.678 165.492Z" fill="#2B7BE1"/>
<path opacity="0.1" d="M393.394 191.974C390.615 192.307 382 187.811 382 187.811C382 187.811 389.51 181.373 392.289 181.045C392.956 180.952 393.634 181.004 394.283 181.199C394.932 181.394 395.539 181.728 396.068 182.181C396.596 182.634 397.037 183.197 397.364 183.837C397.69 184.477 397.896 185.182 397.97 185.91C398.043 186.638 397.983 187.375 397.791 188.077C397.6 188.779 397.282 189.433 396.856 190C396.43 190.567 395.905 191.036 395.31 191.379C394.716 191.723 394.064 191.934 393.394 192V191.974Z" fill="#2B7BE1"/>
<path opacity="0.1" d="M381.509 210.846C378.905 211.688 370 208.811 370 208.811C370 208.811 376.204 201.042 378.803 200.195C380.048 199.812 381.377 199.998 382.501 200.713C383.626 201.428 384.455 202.614 384.81 204.015C385.166 205.415 385.018 206.918 384.399 208.196C383.78 209.475 382.74 210.427 381.504 210.846H381.509Z" fill="#2B7BE1"/>
<path opacity="0.1" d="M380.569 164.803C381.854 167.499 390.5 173 390.5 173C390.5 173 391.687 162.876 390.403 160.184C390.106 159.529 389.681 158.94 389.152 158.451C388.623 157.961 388.001 157.581 387.322 157.333C386.643 157.085 385.921 156.973 385.198 157.005C384.476 157.037 383.767 157.212 383.113 157.519C382.459 157.826 381.874 158.26 381.391 158.794C380.908 159.328 380.537 159.953 380.3 160.631C380.063 161.309 379.965 162.027 380.011 162.744C380.057 163.46 380.247 164.16 380.569 164.803Z" fill="#2B7BE1"/>
<path opacity="0.1" d="M367.321 186.068C369.33 188.286 379 191 379 191C379 191 377.122 180.867 375.129 178.654C374.162 177.633 372.845 177.04 371.459 177.002C370.073 176.964 368.727 177.484 367.708 178.451C366.69 179.418 366.08 180.756 366.007 182.178C365.935 183.601 366.406 184.997 367.321 186.068Z" fill="#2B7BE1"/>
<path opacity="0.1" d="M356.891 209.871C358.405 212.487 367 217 367 217C367 217 366.829 206.319 365.315 203.708C364.965 203.063 364.503 202.503 363.958 202.062C363.412 201.621 362.793 201.307 362.138 201.14C361.482 200.973 360.804 200.955 360.142 201.088C359.481 201.221 358.85 201.502 358.286 201.914C357.723 202.326 357.239 202.861 356.862 203.488C356.486 204.114 356.225 204.819 356.095 205.561C355.965 206.303 355.968 207.066 356.105 207.806C356.242 208.547 356.509 209.249 356.891 209.871Z" fill="#2B7BE1"/>
</g>
<g opacity="0.1">
<path opacity="0.1" d="M104 263C104 263 83.0596 249.72 77.3575 230.378C75.0221 222.243 70.2663 215.135 63.8058 210.124C60.721 207.766 57.4385 205.716 54 204" fill="#2B7BE1"/>
<path opacity="0.1" d="M50.1181 191.76C52.1269 194.134 54 205 54 205C54 205 44.3129 202.095 42.3192 199.722C41.4061 198.574 40.9354 197.08 41.0072 195.556C41.0789 194.032 41.6875 192.599 42.7035 191.561C43.7196 190.524 45.0628 189.965 46.4475 190.002C47.8322 190.039 49.1491 190.67 50.1181 191.76Z" fill="#2B7BE1"/>
<path opacity="0.1" d="M66.9567 198.61C67.4294 201.549 63.8749 211 63.8749 211C63.8749 211 57.5696 203.402 57.0969 200.462C56.9661 199.755 56.9677 199.027 57.1016 198.321C57.2354 197.615 57.4988 196.944 57.8763 196.35C58.2537 195.755 58.7376 195.248 59.2994 194.858C59.8611 194.468 60.4895 194.204 61.1474 194.08C61.8053 193.956 62.4794 193.976 63.1301 194.138C63.7809 194.3 64.395 194.601 64.9363 195.023C65.4777 195.445 65.9353 195.98 66.2823 196.596C66.6293 197.212 66.8586 197.897 66.9567 198.61Z" fill="#2B7BE1"/>
<path opacity="0.1" d="M85.6349 219.681C84.6914 222.571 77.1956 229 77.1956 229C77.1956 229 75.3087 218.668 76.2758 215.784C76.4912 215.077 76.8312 214.426 77.2756 213.868C77.7201 213.311 78.26 212.859 78.8634 212.539C79.4669 212.219 80.1215 212.037 80.7888 212.005C81.456 211.973 82.1222 212.091 82.7481 212.351C83.374 212.612 83.9467 213.01 84.4325 213.523C84.9183 214.035 85.3073 214.651 85.5764 215.334C85.8455 216.018 85.9894 216.754 85.9994 217.501C86.0095 218.248 85.8855 218.989 85.6349 219.681Z" fill="#2B7BE1"/>
<path opacity="0.1" d="M95.9128 239.441C95.4008 242.404 88.973 250 88.973 250C88.973 250 85.5362 240.4 86.0529 237.442C86.1752 236.738 86.4239 236.067 86.7847 235.468C87.1454 234.868 87.6112 234.352 88.1555 233.949C88.6998 233.545 89.3119 233.262 89.9568 233.115C90.6018 232.969 91.2669 232.962 91.9143 233.095C92.5617 233.228 93.1787 233.498 93.73 233.89C94.2813 234.282 94.7562 234.789 95.1275 235.381C95.4988 235.972 95.7592 236.638 95.894 237.339C96.0287 238.04 96.0351 238.763 95.9128 239.467V239.441Z" fill="#2B7BE1"/>
<path opacity="0.1" d="M56.8855 218.984C59.7015 219.057 68 213.788 68 213.788C68 213.788 59.9474 208.073 57.1266 208C55.7897 207.994 54.504 208.554 53.5457 209.558C52.5875 210.563 52.033 211.932 52.0014 213.373C51.9699 214.813 52.4637 216.209 53.3769 217.261C54.2901 218.313 55.5498 218.938 56.8855 219V218.984Z" fill="#2B7BE1"/>
<path opacity="0.1" d="M68.5783 241.819C71.3652 240.97 78 233.184 78 233.184C78 233.184 68.4692 230.308 65.6824 231.157C64.3736 231.59 63.2771 232.546 62.6272 233.822C61.9773 235.098 61.8255 236.592 62.2044 237.985C62.5833 239.377 63.4627 240.558 64.6547 241.274C65.8468 241.991 67.2567 242.186 68.5833 241.819H68.5783Z" fill="#2B7BE1"/>
<path opacity="0.1" d="M83.8269 261.925C86.5794 261.593 94 255.174 94 255.174C94 255.174 85.4869 250.676 82.7296 251.019C82.0503 251.06 81.3857 251.252 80.7764 251.585C80.1672 251.917 79.6261 252.383 79.1863 252.953C78.7464 253.523 78.4171 254.185 78.2183 254.9C78.0195 255.614 77.9556 256.366 78.0303 257.109C78.105 257.851 78.3168 258.569 78.6528 259.219C78.9888 259.869 79.4419 260.436 79.9845 260.887C80.527 261.338 81.1476 261.662 81.8082 261.841C82.4689 262.019 83.1558 262.048 83.8269 261.925Z" fill="#2B7BE1"/>
<path opacity="0.1" d="M50.1181 191.76C52.1269 194.134 54 205 54 205C54 205 44.3129 202.095 42.3192 199.722C41.4061 198.574 40.9354 197.08 41.0072 195.556C41.0789 194.032 41.6875 192.599 42.7035 191.561C43.7196 190.524 45.0628 189.965 46.4475 190.002C47.8322 190.039 49.1491 190.67 50.1181 191.76Z" fill="#2B7BE1"/>
<path opacity="0.1" d="M66.9567 198.61C67.4294 201.549 63.8749 211 63.8749 211C63.8749 211 57.5696 203.402 57.0969 200.462C56.9661 199.755 56.9677 199.027 57.1016 198.321C57.2354 197.615 57.4988 196.944 57.8763 196.35C58.2537 195.755 58.7376 195.248 59.2994 194.858C59.8611 194.468 60.4895 194.204 61.1474 194.08C61.8053 193.956 62.4794 193.976 63.1301 194.138C63.7809 194.3 64.395 194.601 64.9363 195.023C65.4777 195.445 65.9353 195.98 66.2823 196.596C66.6293 197.212 66.8586 197.897 66.9567 198.61Z" fill="#2B7BE1"/>
<path opacity="0.1" d="M85.6349 219.681C84.6914 222.571 77.1956 229 77.1956 229C77.1956 229 75.3087 218.668 76.2758 215.784C76.4912 215.077 76.8312 214.426 77.2756 213.868C77.7201 213.311 78.26 212.859 78.8634 212.539C79.4669 212.219 80.1215 212.037 80.7888 212.005C81.456 211.973 82.1222 212.091 82.7481 212.351C83.374 212.612 83.9467 213.01 84.4325 213.523C84.9183 214.035 85.3073 214.651 85.5764 215.334C85.8455 216.018 85.9894 216.754 85.9994 217.501C86.0095 218.248 85.8855 218.989 85.6349 219.681Z" fill="#2B7BE1"/>
<path opacity="0.1" d="M95.9128 239.441C95.4008 242.404 88.973 250 88.973 250C88.973 250 85.5362 240.4 86.0529 237.442C86.1752 236.738 86.4239 236.067 86.7847 235.468C87.1454 234.868 87.6112 234.352 88.1555 233.949C88.6998 233.545 89.3119 233.262 89.9568 233.115C90.6018 232.969 91.2669 232.962 91.9143 233.095C92.5617 233.228 93.1787 233.498 93.73 233.89C94.2813 234.282 94.7562 234.789 95.1275 235.381C95.4988 235.972 95.7592 236.638 95.894 237.339C96.0287 238.04 96.0351 238.763 95.9128 239.467V239.441Z" fill="#2B7BE1"/>
<path opacity="0.1" d="M56.8855 218.984C59.7015 219.057 68 213.788 68 213.788C68 213.788 59.9474 208.073 57.1266 208C55.7897 207.994 54.504 208.554 53.5457 209.558C52.5875 210.563 52.033 211.932 52.0014 213.373C51.9699 214.813 52.4637 216.209 53.3769 217.261C54.2901 218.313 55.5498 218.938 56.8855 219V218.984Z" fill="#2B7BE1"/>
<path opacity="0.1" d="M68.5783 241.819C71.3652 240.97 78 233.184 78 233.184C78 233.184 68.4692 230.308 65.6824 231.157C64.3736 231.59 63.2771 232.546 62.6272 233.822C61.9773 235.098 61.8255 236.592 62.2044 237.985C62.5833 239.377 63.4627 240.558 64.6547 241.274C65.8468 241.991 67.2567 242.186 68.5833 241.819H68.5783Z" fill="#2B7BE1"/>
<path opacity="0.1" d="M83.8269 261.925C86.5794 261.593 94 255.174 94 255.174C94 255.174 85.4869 250.676 82.7296 251.019C82.0503 251.06 81.3857 251.252 80.7764 251.585C80.1672 251.917 79.6261 252.383 79.1863 252.953C78.7464 253.523 78.4171 254.185 78.2183 254.9C78.0195 255.614 77.9556 256.366 78.0303 257.109C78.105 257.851 78.3168 258.569 78.6528 259.219C78.9888 259.869 79.4419 260.436 79.9845 260.887C80.527 261.338 81.1476 261.662 81.8082 261.841C82.4689 262.019 83.1558 262.048 83.8269 261.925Z" fill="#2B7BE1"/>
</g>
<path opacity="0.1" d="M362 418.072C376.053 424.621 393.2 420.636 409.147 421.097C411.326 421.16 413.641 421.354 415.388 422.487C417.136 423.619 418.002 425.449 419.202 427.022C423.671 432.863 432.829 434.74 440.832 433.749C448.835 432.758 456.173 429.476 463.725 426.98C476.78 422.66 491.7 420.688 504.578 425.407C505.758 425.837 507.025 426.335 508.269 426.162C511.093 425.779 511.935 422.644 513.908 420.856C517.471 417.621 525.215 418.502 526.781 414.239C527.697 411.744 525.587 409.185 523.286 407.481C514.475 400.959 501.896 399.884 490.378 400.891C478.86 401.897 467.539 404.671 455.962 404.681C441.537 404.681 427.601 400.424 413.318 398.678C403.425 397.472 392.627 397.63 383.351 401.179C373.297 405.017 371.085 413.663 362 418.072Z" fill="#2B7BE1"/>
<path opacity="0.1" d="M95 398.297C119.016 405.57 148.324 401.143 175.575 401.658C179.305 401.73 183.255 401.942 186.249 403.204C189.244 404.467 190.714 406.503 192.768 408.246C200.404 414.735 216.053 416.823 229.728 415.72C243.402 414.617 255.949 410.973 268.858 408.199C291.168 403.4 316.674 401.215 338.68 406.447C340.699 406.926 342.826 407.478 344.993 407.287C349.815 406.859 351.251 403.38 354.628 401.39C360.72 397.782 373.949 398.777 376.625 394.045C378.193 391.271 374.586 388.426 370.655 386.534C355.618 379.292 334.102 378.096 314.414 379.215C294.726 380.333 275.377 383.411 255.601 383.426C230.948 383.426 207.128 378.699 182.716 376.756C165.807 375.416 147.354 375.581 131.499 379.539C114.311 383.813 110.522 393.416 95 398.297Z" fill="#2B7BE1"/>
<path opacity="0.1" d="M29 416.394C35.9147 420.753 44.3112 418.102 52.1446 418.408C53.2164 418.449 54.3524 418.579 55.2118 419.329C56.0712 420.08 56.496 421.307 57.0838 422.353C59.2767 426.241 63.7713 427.494 67.6979 426.832C71.6245 426.169 75.23 423.989 78.9393 422.322C85.3601 419.448 92.6749 418.139 98.9921 421.286C99.5334 421.649 100.168 421.83 100.81 421.804C102.193 421.545 102.607 419.459 103.576 418.268C105.324 416.114 109.127 416.715 109.893 413.862C110.342 412.2 109.305 410.496 108.179 409.363C103.862 405.019 97.6783 404.304 92.023 404.972C86.3677 405.64 80.8112 407.452 75.1263 407.452C68.0486 407.452 61.2079 404.62 54.1944 403.455C49.3343 402.647 44.0346 402.751 39.4808 405.122C34.5466 407.711 33.46 413.468 29 416.394Z" fill="#2B7BE1"/>
<path d="M351.072 19H122.928C120.184 18.9953 117.465 19.5601 114.929 20.6624C112.392 21.7646 110.086 23.3827 108.142 25.4241C106.199 27.4655 104.656 29.8902 103.602 32.5599C102.548 35.2296 102.004 38.0919 102 40.9832V374.032C102.012 379.869 104.223 385.462 108.147 389.581C112.072 393.701 117.388 396.01 122.928 396H351.072C353.816 396.005 356.535 395.44 359.071 394.338C361.608 393.235 363.914 391.617 365.858 389.576C367.801 387.535 369.344 385.11 370.398 382.44C371.452 379.77 371.996 376.908 372 374.017V40.9832C371.996 38.0919 371.452 35.2296 370.398 32.5599C369.344 29.8902 367.801 27.4655 365.858 25.4241C363.914 23.3827 361.608 21.7646 359.071 20.6624C356.535 19.5601 353.816 18.9953 351.072 19Z" fill="url(#paint0_linear)"/>
<path d="M359.125 23H113.875C108.421 23 104 27.6438 104 33.3723V382.628C104 388.356 108.421 393 113.875 393H359.125C364.579 393 369 388.356 369 382.628V33.3723C369 27.6438 364.579 23 359.125 23Z" fill="#535461"/>
<path d="M356 58H118V358H356V58Z" fill="#F6F7F9"/>
<path d="M236 43C237.657 43 239 41.6569 239 40C239 38.3431 237.657 37 236 37C234.343 37 233 38.3431 233 40C233 41.6569 234.343 43 236 43Z" fill="#F6F7F9"/>
<path d="M236 385C241.523 385 246 380.523 246 375C246 369.477 241.523 365 236 365C230.477 365 226 369.477 226 375C226 380.523 230.477 385 236 385Z" fill="#F6F7F9"/>
<g opacity="0.2">
<path opacity="0.2" d="M356 58H118V73H356V58Z" fill="#2B7BE1"/>
</g>
<path d="M126 69C127.657 69 129 67.433 129 65.5C129 63.567 127.657 62 126 62C124.343 62 123 63.567 123 65.5C123 67.433 124.343 69 126 69Z" fill="#F6F7F9"/>
<path d="M134 69C135.657 69 137 67.433 137 65.5C137 63.567 135.657 62 134 62C132.343 62 131 63.567 131 65.5C131 67.433 132.343 69 134 69Z" fill="#F6F7F9"/>
<path d="M141 69C142.657 69 144 67.433 144 65.5C144 63.567 142.657 62 141 62C139.343 62 138 63.567 138 65.5C138 67.433 139.343 69 141 69Z" fill="#F6F7F9"/>
<path d="M346 146H125V147H346V146Z" fill="#DCE0ED"/>
<path d="M346 164H125V165H346V164Z" fill="#DCE0ED"/>
<path d="M346 182H125V183H346V182Z" fill="#DCE0ED"/>
<path d="M346 200H125V201H346V200Z" fill="#DCE0ED"/>
<g opacity="0.2">
<path opacity="0.2" d="M346 219H125V183.484L145.268 194.02L166.245 197.022L184.65 191.168L206.855 173.006L218.024 166.203L226.189 164.544L234.001 164.985L246.846 171.678L264.312 183.411L278.018 185.268L288.882 181.317L311.918 161.423L323.677 157L335.981 159.007L346 165.109V219Z" fill="#2B7BE1"/>
</g>
<path d="M163.649 196.998C143.681 196.998 125.232 184.207 125 184.042L125.552 183.184C125.838 183.385 154.234 203.063 178.365 193.206C187.163 189.59 193.426 184.021 199.487 178.612C205.814 172.965 211.786 167.634 219.933 165.32C229.273 162.669 239.482 165.066 247.239 171.746C253.872 177.455 267.079 186.619 281.03 183.881C288.142 182.481 294.133 177.041 300.48 171.281C312.647 160.236 325.232 148.814 347 165.201L346.423 166.038C325.286 150.126 313.007 161.28 301.126 172.061C294.676 177.915 288.585 183.427 281.213 184.894C266.862 187.715 253.379 178.364 246.613 172.542C239.102 166.079 229.229 163.759 220.189 166.317C212.259 168.569 206.381 173.828 200.123 179.397C194.003 184.863 187.675 190.51 178.725 194.167C173.912 196.088 168.799 197.048 163.649 196.998Z" fill="#2B7BE1"/>
<path d="M231.5 171C234.538 171 237 168.314 237 165C237 161.686 234.538 159 231.5 159C228.462 159 226 161.686 226 165C226 168.314 228.462 171 231.5 171Z" fill="#2B7BE1"/>
<g opacity="0.2">
<path opacity="0.2" d="M302.883 88H234.117C233.821 88 233.537 88.1255 233.327 88.349C233.118 88.5724 233 88.8755 233 89.1915V138.81C233 139.049 233.068 139.282 233.194 139.479C233.319 139.676 233.498 139.828 233.706 139.916C233.914 140.004 234.141 140.023 234.36 139.971C234.578 139.92 234.776 139.799 234.93 139.625L246.846 126.064C246.95 125.946 247.076 125.851 247.216 125.786C247.356 125.721 247.507 125.688 247.659 125.688H302.883C303.179 125.688 303.464 125.563 303.673 125.339C303.882 125.116 304 124.813 304 124.497V89.181C303.997 88.8668 303.879 88.5665 303.669 88.3453C303.46 88.1241 303.178 88 302.883 88Z" fill="#2B7BE1"/>
</g>
<path d="M289 97H249V103H289V97Z" fill="#F6F7F9"/>
<path d="M259 109H249V114H259V109Z" fill="#F6F7F9"/>
<g opacity="0.2">
<path opacity="0.2" d="M155 256H144V262H155V256Z" fill="#2B7BE1"/>
</g>
<g opacity="0.2">
<path opacity="0.2" d="M155 266H144V272H155V266Z" fill="#2B7BE1"/>
</g>
<g opacity="0.2">
<path opacity="0.2" d="M155 276H144V282H155V276Z" fill="#2B7BE1"/>
</g>
<g opacity="0.2">
<path opacity="0.2" d="M155 286H144V292H155V286Z" fill="#2B7BE1"/>
</g>
<g opacity="0.2">
<path opacity="0.2" d="M155 297H144V302H155V297Z" fill="#2B7BE1"/>
</g>
<g opacity="0.2">
<path opacity="0.2" d="M155 307H144V312H155V307Z" fill="#2B7BE1"/>
</g>
<g opacity="0.2">
<path opacity="0.2" d="M155 317H144V322H155V317Z" fill="#2B7BE1"/>
</g>
<g opacity="0.2">
<path opacity="0.2" d="M155 327H144V332H155V327Z" fill="#2B7BE1"/>
</g>
<g opacity="0.2">
<path opacity="0.2" d="M175 332H164V337H175V332Z" fill="#2B7BE1"/>
</g>
<g opacity="0.2">
<path opacity="0.2" d="M194 332H183V337H194V332Z" fill="#2B7BE1"/>
</g>
<g opacity="0.2">
<path opacity="0.2" d="M213 332H202V337H213V332Z" fill="#2B7BE1"/>
</g>
<g opacity="0.2">
<path opacity="0.2" d="M232 332H221V337H232V332Z" fill="#2B7BE1"/>
</g>
<g opacity="0.2">
<path opacity="0.2" d="M251 332H240V337H251V332Z" fill="#2B7BE1"/>
</g>
<g opacity="0.2">
<path opacity="0.2" d="M270 332H260V337H270V332Z" fill="#2B7BE1"/>
</g>
<g opacity="0.2">
<path opacity="0.2" d="M289 332H279V337H289V332Z" fill="#2B7BE1"/>
</g>
<g opacity="0.2">
<path opacity="0.2" d="M308 332H298V337H308V332Z" fill="#2B7BE1"/>
</g>
<g opacity="0.2">
<path opacity="0.2" d="M327 332H317V337H327V332Z" fill="#2B7BE1"/>
</g>
<path d="M289 109H272V114H289V109Z" fill="#F6F7F9"/>
<path d="M176 294H164V327H176V294Z" fill="#2B7BE1"/>
<path d="M194 279H183V327H194V279Z" fill="#2B7BE1"/>
<path d="M214 266H203V327H214V266Z" fill="#2B7BE1"/>
<path d="M232 273H221V327H232V273Z" fill="#2B7BE1"/>
<path d="M252 262H241V327H252V262Z" fill="#2B7BE1"/>
<g opacity="0.2">
<path opacity="0.2" d="M270 286H260V327H270V286Z" fill="#2B7BE1"/>
</g>
<g opacity="0.2">
<path opacity="0.2" d="M289 286H279V327H289V286Z" fill="#2B7BE1"/>
</g>
<g opacity="0.2">
<path opacity="0.2" d="M308 286H298V327H308V286Z" fill="#2B7BE1"/>
</g>
<g opacity="0.2">
<path opacity="0.2" d="M327 286H317V327H327V286Z" fill="#2B7BE1"/>
</g>
<path d="M496.159 141.451C484.426 134.366 479.993 132.609 479.968 132.599L479.732 132.417C478.452 131.385 477.434 130.038 476.77 128.494C476.77 128.209 476.77 127.929 476.77 127.649V127.732C476.957 123.979 479.5 120.564 481.913 117.583L488.079 109.964C488.782 109.212 489.324 108.311 489.668 107.321C489.795 106.791 489.852 106.245 489.836 105.699C489.836 105.476 489.836 105.253 489.836 105.035C489.806 103.143 489.752 101.246 489.688 99.3337C489.629 97.6803 489.224 95.5967 487.649 95.2546C486.83 95.0784 485.749 95.3894 485.314 94.6482C485.169 94.3454 485.132 93.9976 485.211 93.6686C485.208 93.6945 485.208 93.7205 485.211 93.7464V93.6531C485.517 92.3767 485.714 91.0739 485.798 89.7606C485.829 89.093 485.742 88.4252 485.542 87.791C484.628 85.044 481.489 83.9192 478.71 83.4009C475.931 82.8826 472.821 82.4369 471.078 80.1563C470.54 79.4514 470.175 78.6014 469.563 77.9639C468.759 77.216 467.779 76.7077 466.724 76.4919C463.278 75.5974 459.646 75.9292 456.398 77.4352C455.055 78.0623 453.707 78.9124 452.236 78.8191C450.765 78.7258 449.398 77.6114 447.888 77.3419C445.449 76.9065 443.114 78.788 441.915 81.0115C441.202 82.3341 440.822 83.8252 440.809 85.3446C440.809 85.4275 440.809 85.5156 440.809 85.5986C440.773 87.232 441.341 88.8166 442.394 90.0197C443.445 91.1652 445.015 91.953 445.449 93.4613C445.627 94.0729 445.582 94.7363 445.74 95.3583C445.74 95.436 445.785 95.5138 445.809 95.5864L445.73 95.6952C443.213 99.0823 441.851 103.258 441.86 107.554C441.886 111.722 443.174 115.773 445.537 119.121C447.9 122.47 451.216 124.943 455.006 126.182C455.006 126.374 455.006 126.571 455.006 126.763C455.006 129.116 454.369 131.515 452.454 133.283L435.838 140.301C435.838 140.301 425.822 139.052 422.209 154.425C421.628 156.977 421.418 159.607 421.587 162.225C421.72 164.542 421.414 168.626 418.847 173.908C414.736 182.356 415.673 201.751 424.075 203.674C432.008 205.488 435.112 204.711 435.428 204.644V204.98C435.3 208.609 434.041 240.013 429.465 243.812C428.202 244.849 428.439 245.574 429.465 246.051C429.465 246.051 429.465 246.253 429.436 246.616C429.298 248.912 428.592 257.656 425.531 262.632C421.982 268.39 422.352 301.619 422.352 301.619L419.968 321.227C419.968 321.227 421.449 333.324 419.968 335.439C418.635 337.32 416.858 382.086 416.513 391.784H416.355C415.623 391.83 414.914 392.063 414.288 392.464C413.663 392.864 413.14 393.419 412.766 394.08C410.791 397.428 403.93 403.612 403.93 403.612C402.449 405.835 396.925 407.96 394.008 408.966C393.617 409.098 393.24 409.272 392.883 409.484C391.793 410.109 390.917 411.077 390.38 412.252C390.19 412.599 390.068 412.982 390.021 413.379C389.975 413.776 390.004 414.179 390.108 414.564C390.859 416.481 406.359 417.824 410.278 415.906C413.363 414.393 425.581 412.407 430.65 411.63C431.571 411.507 432.426 411.067 433.083 410.378C433.74 409.69 434.16 408.792 434.278 407.826C434.323 407.489 434.302 407.147 434.217 406.819C434.133 406.491 433.985 406.185 433.785 405.918C432.797 404.654 432.304 401.207 432.091 398.957C432.504 398.783 432.888 398.543 433.232 398.247C432.816 391.27 433.768 384.277 436.031 377.702C439.767 367.335 440.888 348.122 439.98 335.641C439.98 335.641 451.373 284.173 460.337 279.368C460.475 279.549 464.824 285.417 465.377 303.563C465.94 321.999 472.288 334.096 472.288 334.096C472.288 334.096 469.484 365.402 472.288 377.116L468.62 395.599C468.353 395.355 468.181 395.169 468.181 395.169C468.181 395.169 468.289 395.687 468.442 396.506L468.363 396.895L468.521 396.936C468.936 399.248 469.553 403.275 469.301 405.638C469.153 406.981 468.808 408.826 468.551 410.635C468.166 413.48 468.057 416.238 469.484 416.855C471.819 417.839 485.546 419.187 487.881 416.02C488.405 415.374 488.746 414.587 488.867 413.748C488.987 412.909 488.882 412.052 488.563 411.272C488.392 410.837 488.163 410.43 487.881 410.065C487.881 410.065 484.238 403.809 485.265 399.398C485.362 398.967 485.374 398.519 485.299 398.083C485.225 397.647 485.065 397.232 484.831 396.863C484.989 394.697 485.818 384.678 487.975 376.167C490.31 366.926 495.241 346.665 491.613 333.34C491.475 332.821 491.317 332.303 491.149 331.785C489.056 324.511 488.358 316.874 489.096 309.316C487.749 302.862 487.749 296.178 489.096 289.724C491.337 278.969 492.902 268.406 492.902 268.406C492.902 268.406 494.141 254.199 493.059 245.486L492.985 244.927L493.578 244.787C493.578 244.787 490.404 229.999 489.283 220.592C489.017 218.368 488.671 215.554 488.296 212.548C489.331 212.374 490.35 212.109 491.342 211.755C501.392 208.09 504.551 175.064 504.551 175.064V164.594C504.551 164.594 507.928 148.557 496.159 141.451ZM421.029 396.495C420.718 396.33 420.536 396.221 420.536 396.221L421.029 396.495Z" fill="url(#paint1_linear)"/>
<path d="M489.704 332.304C494.067 345.572 488.976 367.105 486.613 376.718C484.249 386.331 483.521 397.875 483.521 397.875C474.25 399.412 467.524 397.485 467.524 397.485L471.34 377.697C468.612 365.97 471.34 334.626 471.34 334.626C471.34 334.626 465.161 322.514 464.615 304.053C464.078 285.879 459.844 280.011 459.691 279.828C450.967 284.635 439.874 336.173 439.874 336.173C440.785 348.67 439.692 367.896 436.059 378.28C433.855 384.875 432.927 391.872 433.331 398.854C432.061 399.99 430.293 400.182 428.383 399.859C423.208 398.948 417 394.22 417 394.22C417 394.22 418.969 338.079 420.446 335.959C421.923 333.84 420.446 321.727 420.446 321.727L422.805 302.116C422.805 302.116 422.445 268.846 425.897 263.06C428.88 258.077 429.565 249.323 429.698 247.027C429.698 246.662 429.727 246.459 429.727 246.459L434.985 239.794C434.985 239.794 485.894 235.758 489.709 239.794C490.65 240.788 491.226 243.038 491.57 245.876C492.619 254.598 491.418 268.825 491.418 268.825C491.418 268.825 489.892 279.401 487.71 290.175C486.397 296.639 486.397 303.323 487.71 309.787C486.986 317.358 487.664 325.006 489.704 332.304Z" fill="#65617D"/>
<path d="M486.054 415.998C483.914 419.199 471.337 417.838 469.196 416.844C467.889 416.229 467.991 413.444 468.343 410.568C468.565 408.739 468.894 406.889 469.029 405.517C469.372 402.021 468 394.936 468 394.936C468 394.936 470.827 398.331 471.508 394.936C471.809 393.454 472.861 392.691 473.95 392.308C475.417 391.808 476.994 391.92 478.394 392.623C480.614 393.716 484.326 396.05 483.659 399.204C482.732 403.661 486.054 409.985 486.054 409.985C486.312 410.355 486.521 410.766 486.675 411.204C486.969 411.991 487.066 412.854 486.956 413.7C486.847 414.545 486.535 415.34 486.054 415.998Z" fill="#A27772"/>
<path opacity="0.1" d="M486.048 416.114C483.894 419.13 471.242 417.847 469.089 416.912C467.774 416.332 467.877 413.708 468.231 411C469.587 411.673 471.9 412.238 475.75 411.857C476.65 411.767 477.555 411.738 478.458 411.767C481.197 411.901 483.941 411.843 486.672 411.594C486.968 412.336 487.066 413.15 486.956 413.947C486.846 414.744 486.532 415.494 486.048 416.114Z" fill="black"/>
<path opacity="0.1" d="M440.378 336.105C441.28 348.616 440.198 367.862 436.6 378.257C434.418 384.859 433.5 391.864 433.899 398.853C432.642 399.99 430.891 400.182 429 399.859C430.087 391.727 434.713 356.759 437.702 329.125C441.056 297.655 456.851 276 456.851 276L460 279.706C451.352 284.513 440.378 336.105 440.378 336.105Z" fill="black"/>
<path d="M482 134.689L479.782 146.019L468.925 165L455.535 159.051C455.535 159.051 437.34 139.221 448.773 136.388C450.143 136.083 451.436 135.484 452.569 134.628C454.817 132.869 455.52 130.306 455.52 127.8C455.52 123.662 453.661 119.672 453.661 119.672L477.083 112C476.115 115.201 475.55 118.519 475.401 121.872C475.224 128.521 477.594 131.774 479.536 133.334C480.263 133.951 481.101 134.411 482 134.689Z" fill="#FBBEBE"/>
<path opacity="0.1" d="M477 112C476.009 115.256 475.429 118.63 475.277 122.04C474.84 122.577 474.374 123.088 473.881 123.569C471.404 126.014 468.332 127.721 464.991 128.508C461.65 129.296 458.164 129.135 454.905 128.043C454.905 123.834 453 119.777 453 119.777L477 112Z" fill="black"/>
<path d="M479 108.505C478.999 112.363 477.913 116.133 475.878 119.34C473.844 122.546 470.953 125.045 467.572 126.519C464.19 127.994 460.469 128.378 456.881 127.623C453.292 126.868 449.996 125.009 447.41 122.279C444.824 119.55 443.064 116.074 442.353 112.29C441.642 108.506 442.011 104.585 443.414 101.022C444.818 97.4597 447.192 94.416 450.237 92.276C453.282 90.136 456.86 88.996 460.52 89.0001C462.951 88.9919 465.359 89.491 467.607 90.4686C469.854 91.4462 471.895 92.8831 473.613 94.6963C475.331 96.5095 476.692 98.6632 477.616 101.033C478.541 103.403 479.011 105.943 479 108.505Z" fill="#FBBEBE"/>
<path opacity="0.1" d="M482 134.345L479.782 145.803L468.925 165L455.535 158.984C455.535 158.984 437.34 138.928 448.773 136.062C450.143 135.755 451.436 135.148 452.569 134.283C450.504 140.258 459.031 152.683 459.031 152.683C460.014 154.235 462.301 153.252 462.301 153.252C467.789 152.383 477.904 135.762 479.551 133C480.276 133.613 481.108 134.07 482 134.345Z" fill="black"/>
<path opacity="0.1" d="M491 245.903C487.821 246.682 470.21 250.883 463.531 249.832C456.187 248.672 441.897 247.904 441.897 247.904C441.897 247.904 432.801 248.427 430 247.058C430 246.692 430.029 246.488 430.029 246.488L435.213 239.8C435.213 239.8 485.403 235.75 489.165 239.8C490.092 240.787 490.66 243.045 491 245.903Z" fill="black"/>
<path d="M457.965 153.271C457.965 153.271 448.395 139.15 452.001 133.664L435.833 140.719C435.833 140.719 426.1 139.464 422.568 154.924C422.004 157.493 421.8 160.137 421.964 162.769C422.091 165.102 421.797 169.207 419.301 174.516C415.307 183.014 416.216 202.517 424.381 204.452C432.546 206.387 435.445 205.414 435.445 205.414C435.445 205.414 434.359 240.759 429.643 244.812C424.926 248.865 441.664 247.903 441.664 247.903C441.664 247.903 456.128 248.677 463.566 249.833C471.004 250.988 491.864 245.779 491.864 245.779C491.864 245.779 488.779 230.905 487.693 221.444C486.607 211.983 484.062 191.832 484.062 191.832L502.569 165.159C502.569 165.159 505.831 149.035 494.404 141.891C482.977 134.747 478.683 133 478.683 133C478.683 133 467.216 152.874 461.232 153.852C461.232 153.852 458.958 154.825 457.965 153.271Z" fill="#424C58"/>
<path opacity="0.1" d="M437.062 159C437.062 159 436.881 165.298 437.959 167.783C439.036 170.268 443 184 443 184H434C434 184 438.875 178.467 438.5 175.796C438.125 173.125 437.062 159 437.062 159Z" fill="black"/>
<path d="M463.614 207C463.614 207 443.793 201.784 441.946 197.365C440.099 192.947 435 183.025 435 183.025L437.09 180L446.733 188.122C446.733 188.122 458.219 197.944 463.604 198.909C468.989 199.874 463.614 207 463.614 207Z" fill="#FBBEBE"/>
<path opacity="0.05" d="M463.614 207C463.614 207 443.793 201.784 441.946 197.365C440.099 192.947 435 183.025 435 183.025L437.09 180L446.733 188.122C446.733 188.122 458.219 197.944 463.604 198.909C468.989 199.874 463.614 207 463.614 207Z" fill="black"/>
<path d="M482 182.099V193.71H480.212C471.388 193.711 462.71 196.06 454.995 200.533L451.65 202.475L450.751 203L445 189.469L450.379 184.43H450.655C451.971 184.561 457.661 185.059 460.072 184.209C462.362 183.396 465.205 180.818 471.95 182.635C475.275 183.522 478.113 187.416 481.337 186.199L482 182.099Z" fill="#FBBEBE"/>
<path opacity="0.1" d="M498.381 161.118L502 165.451V175.961C502 175.961 498.924 209.119 489.158 212.784C479.392 216.449 461.961 210.659 461.961 210.659C461.961 210.659 457.455 197.936 459.561 197.168C461.667 196.401 478.172 191.749 478.172 191.749C478.172 191.749 477.942 172.296 481.557 166.511C481.557 166.511 479.206 148.394 487.346 148.008C495.486 147.622 498.381 161.118 498.381 161.118Z" fill="black"/>
<path d="M499.382 161.118L503 165.451V175.961C503 175.961 499.935 209.119 490.144 212.784C480.353 216.449 462.955 210.659 462.955 210.659C462.955 210.659 458.456 197.936 460.561 197.168C462.666 196.401 479.164 191.749 479.164 191.749C479.164 191.749 478.929 172.296 482.547 166.511C482.547 166.511 480.197 148.394 488.333 148.008C496.469 147.622 499.382 161.118 499.382 161.118Z" fill="#424C58"/>
<path opacity="0.1" d="M473.93 117.099C474.004 115.826 474.028 114.481 473.521 113.334C473.014 112.187 471.824 111.271 470.664 111.564C469.123 111.951 468.46 114.104 466.949 114.622C465.677 115.057 464.287 114.098 463.683 112.81C463.078 111.522 463.059 110.035 463.054 108.621C463.054 107.008 463.054 105.39 463.054 103.778C463.054 102.018 463 100.112 461.991 98.7404C460.738 97.0177 457.788 96.2689 455.819 96.337C454.507 96.3533 453.249 96.8991 452.294 97.8659C451.241 98.8242 450.022 99.5363 448.584 99.2797C447.986 99.1825 447.427 98.9057 446.97 98.4813C446.512 98.057 446.176 97.5023 446 96.8815V96.8187C447.531 94.6467 449.464 92.8388 451.677 91.5091C453.891 90.1794 456.337 89.3566 458.861 89.0927C461.385 88.8289 463.933 89.1296 466.344 89.9759C468.755 90.8222 470.976 92.1958 472.868 94.0101C474.76 95.8243 476.281 98.0399 477.336 100.517C478.391 102.994 478.957 105.679 478.998 108.403C479.038 111.127 478.553 113.83 477.573 116.342C476.593 118.855 475.138 121.121 473.302 123C473.614 121.047 473.824 119.077 473.93 117.099Z" fill="black"/>
<path d="M448.283 98.4893C447.688 98.3921 447.132 98.1173 446.677 97.6967C446.222 97.2761 445.888 96.7267 445.713 96.112C445.563 95.4957 445.602 94.8379 445.432 94.2216C445.015 92.7196 443.493 91.9375 442.523 90.7981C440.507 88.5089 440.637 84.7488 442.068 81.9934C443.221 79.7767 445.461 77.907 447.793 78.3369C449.248 78.6062 450.494 79.7094 451.962 79.8078C453.431 79.9062 454.663 79.0568 455.952 78.4301C459.056 76.9285 462.545 76.598 465.847 77.4927C466.862 77.7105 467.804 78.2169 468.572 78.9584C469.092 79.6579 469.577 80.3857 470.026 81.1388C471.699 83.4125 474.685 83.8579 477.347 84.3707C480.008 84.8834 483.014 86.0073 483.892 88.742C484.469 90.5547 483.892 92.5228 483.577 94.408C483.464 94.7922 483.489 95.207 483.644 95.5733C484.061 96.3088 485.099 96.0032 485.884 96.1793C487.397 96.516 487.785 98.5928 487.823 100.24C487.888 102.125 487.937 104.01 487.969 105.896C488.059 106.77 487.953 107.654 487.661 108.476C487.368 109.298 486.897 110.034 486.287 110.624L480.377 118.212C477.754 121.578 474.971 125.499 475.5 129.839C474.259 130.435 472.785 129.285 472.378 127.897C471.97 126.509 472.3 125.017 472.572 123.593C473.05 121.131 473.363 118.635 473.507 116.125C473.58 114.861 473.604 113.535 473.1 112.401C472.596 111.266 471.413 110.329 470.259 110.645C468.727 111.028 468.068 113.157 466.565 113.67C465.304 114.099 463.918 113.152 463.317 111.878C462.715 110.603 462.696 109.133 462.691 107.734V102.938C462.691 101.203 462.638 99.3127 461.634 97.9558C460.388 96.2518 457.455 95.5112 455.497 95.5785C454.192 95.5957 452.941 96.1354 451.992 97.0909C450.925 98.0387 449.713 98.7379 448.283 98.4893Z" fill="#7C5C5C"/>
<path opacity="0.1" d="M452 159L457.966 183C457.966 183 462.673 182.975 452 159Z" fill="black"/>
<path opacity="0.1" d="M472 155C472 155 464.858 167.733 467.646 180.892L468.976 181C468.976 181 466.598 174.906 472 155Z" fill="black"/>
<path opacity="0.1" d="M477 227.698C477 227.698 485.391 224.44 486 232C486 232 484.416 226.819 477 227.698Z" fill="black"/>
<path opacity="0.1" d="M449.619 185C449.619 185 447.92 198.316 451 203.642C451 203.642 444.775 206.496 436.036 205.924L435 185H449.619Z" fill="black"/>
<path opacity="0.1" d="M451 202.463L450.189 203L445 189.155L449.853 184H450.103C450.026 184.666 448.675 196.588 451 202.463Z" fill="black"/>
<path d="M449.547 184C449.547 184 447.76 197.314 451 202.642C451 202.642 444.451 205.496 435.258 204.924L429 184H449.547Z" fill="#424C58"/>
<path d="M434.97 408.014C434.864 408.969 434.462 409.86 433.824 410.547C433.187 411.234 432.352 411.677 431.45 411.806C426.542 412.584 414.674 414.566 411.68 416.07C407.876 417.984 392.833 416.646 392.106 414.732C391.902 413.958 391.995 413.13 392.366 412.429C392.89 411.258 393.748 410.291 394.82 409.663C395.167 409.453 395.532 409.279 395.91 409.145C398.742 408.144 404.092 406.032 405.54 403.801C405.54 403.801 412.21 397.633 414.11 394.298C414.468 393.643 414.973 393.091 415.581 392.691C416.189 392.291 416.88 392.056 417.595 392.005C419.185 391.927 420.952 392.773 421.673 396.451C421.673 396.451 430.371 401.695 432.722 397.094C432.722 397.094 433.085 404.159 434.528 406.089C434.719 406.363 434.856 406.674 434.932 407.005C435.008 407.335 435.02 407.678 434.97 408.014Z" fill="#A27772"/>
<path opacity="0.1" d="M434.971 407.932C434.866 408.896 434.463 409.795 433.826 410.488C433.188 411.181 432.353 411.628 431.452 411.759C426.543 412.544 414.675 414.544 411.681 416.062C407.877 417.993 392.833 416.643 392.106 414.711C391.902 413.93 391.995 413.094 392.366 412.387C392.89 411.205 393.749 410.229 394.821 409.596C397.275 411.334 402.718 413.031 414.694 411.036C426.116 409.136 431.771 407.272 434.529 406C434.719 406.275 434.855 406.587 434.931 406.919C435.007 407.25 435.02 407.595 434.971 407.932Z" fill="black"/>
<g opacity="0.1">
<path opacity="0.1" d="M484.082 95V94.895C484.499 93.2789 485.121 91.6103 484.979 90C484.793 91.3216 484.493 92.6331 484.082 93.9265C483.973 94.2797 483.973 94.6468 484.082 95Z" fill="black"/>
<path opacity="0.1" d="M473.53 112.791C473.816 113.488 473.969 114.239 473.978 115C474.062 113.95 473.908 112.895 473.53 111.921C473.039 110.764 471.825 109.853 470.655 110.147C469.102 110.534 468.433 112.686 466.909 113.204C465.626 113.639 464.226 112.681 463.611 111.393C462.997 110.105 462.987 108.618 462.982 107.204C462.982 105.586 462.982 103.974 462.982 102.356C462.982 100.602 462.928 98.6911 461.91 97.3194C460.647 95.5969 457.668 94.8482 455.688 94.9162C454.365 94.9326 453.096 95.4783 452.134 96.445C451.067 97.4084 449.843 98.1152 448.393 97.8639C447.79 97.7656 447.226 97.4879 446.765 97.0627C446.304 96.6375 445.965 96.0821 445.788 95.4607C445.636 94.8377 445.675 94.1728 445.503 93.5497C445.075 92.0314 443.537 91.2408 442.554 90.089C441.598 88.9669 441.055 87.5147 441.025 86C440.949 86.8938 441.046 87.7946 441.309 88.6472C441.572 89.4998 441.995 90.2862 442.554 90.9581C443.576 92.1099 445.095 92.9058 445.503 94.4241C445.675 95.0419 445.636 95.7068 445.788 96.3298C445.965 96.9512 446.304 97.5066 446.765 97.9318C447.226 98.357 447.79 98.6347 448.393 98.733C449.868 98.9843 451.067 98.2775 452.134 97.3141C453.096 96.3474 454.365 95.8017 455.688 95.7853C457.654 95.7173 460.647 96.4712 461.91 98.1885C462.928 99.5707 462.977 101.471 462.982 103.225C462.982 104.843 462.982 106.455 462.982 108.073C462.982 109.508 462.982 111 463.611 112.262C464.24 113.524 465.626 114.508 466.909 114.073C468.433 113.55 469.102 111.403 470.655 111.016C471.839 110.728 473.024 111.634 473.53 112.791Z" fill="black"/>
<path opacity="0.1" d="M488.824 107.244C488.485 108.253 487.947 109.174 487.246 109.946C485.206 112.545 483.164 115.142 481.121 117.737C478.543 121.018 475.809 124.815 476.01 129C476.196 125.16 478.724 121.667 481.121 118.619L487.246 110.834C487.946 110.059 488.484 109.137 488.824 108.127C488.976 107.43 489.03 106.714 488.985 106C488.98 106.42 488.926 106.838 488.824 107.244Z" fill="black"/>
<path opacity="0.1" d="M473.174 127.04C473.087 126.702 473.034 126.353 473.016 126C472.97 126.637 473.023 127.279 473.174 127.893C473.542 129.287 474.878 130.436 476 129.838C475.969 129.557 475.952 129.276 475.943 128.995C474.813 129.547 473.515 128.413 473.174 127.04Z" fill="black"/>
</g>
<path opacity="0.1" d="M412 396C412 396 413.947 400.149 421 396.495L412 396Z" fill="black"/>
<path opacity="0.1" d="M471 397C471 397 476.751 404.142 484 399.339L471 397Z" fill="black"/>
<path opacity="0.1" d="M488 310C488 310 484.128 312.856 484.005 314.491C483.883 316.125 486.003 313.301 486.003 313.301L488 310Z" fill="black"/>
<path opacity="0.1" d="M489 331C487.644 332.158 485.958 332.832 484.196 332.923C481.282 333.055 481.524 336.953 483.428 335.78C485.331 334.607 489 331 489 331Z" fill="black"/>
<path opacity="0.1" d="M490 334C490 334 487.792 343.619 486 341.762L490 334Z" fill="black"/>
<path d="M75.7123 382C75.7123 382 78.5101 385.689 74.4179 391.249C70.3256 396.809 66.952 401.526 68.3025 405C68.3025 405 74.4739 394.651 79.514 394.507C84.5541 394.363 81.2416 388.223 75.7123 382Z" fill="#2B7BE1"/>
<path opacity="0.1" d="M76.084 382C76.3143 382.355 76.4949 382.744 76.6201 383.155C81.2247 388.958 83.6801 394.376 79.2526 394.514C75.1315 394.637 70.1583 402.551 69 404.548C69.0391 404.701 69.0854 404.852 69.1388 405C69.1388 405 74.9352 394.658 79.6691 394.514C84.4029 394.37 81.2773 388.219 76.084 382Z" fill="black"/>
<path d="M83.289 388.503C82.1187 388.855 81.0959 389.068 81.0063 388.98C80.9167 388.893 81.7971 388.532 82.9674 388.18C84.1378 387.828 83.6739 388.084 83.7635 388.18C83.8531 388.276 84.4594 388.151 83.289 388.503Z" fill="#FFD037"/>
<path d="M61.838 382C61.838 382 59.2398 385.689 63.04 391.249C66.8403 396.809 69.9733 401.526 68.7191 405C68.7191 405 62.988 394.651 58.3075 394.507C53.627 394.363 56.7079 388.223 61.838 382Z" fill="#2B7BE1"/>
<path opacity="0.1" d="M61.9154 382C61.6872 382.356 61.5067 382.745 61.3793 383.155C56.7743 388.958 54.3186 394.376 58.7465 394.514C62.8728 394.637 67.8416 402.551 69 404.548C68.9631 404.702 68.9167 404.853 68.8612 405C68.8612 405 63.0643 394.658 58.33 394.514C53.5958 394.37 56.7264 388.219 61.9154 382Z" fill="black"/>
<path d="M57 386.782C57 388.007 57.2205 389 57.4961 389C57.7716 389 58 388.007 58 386.782C58 385.557 57.7165 386.138 57.4409 386.138C57.1654 386.138 57 385.566 57 386.782Z" fill="#FFD037"/>
<path d="M55.7141 388.503C56.8856 388.855 57.904 389.068 57.9937 388.98C58.0834 388.893 57.2022 388.532 56.0307 388.18C54.8592 387.828 55.3236 388.084 55.2339 388.18C55.1442 388.276 54.5426 388.151 55.7141 388.503Z" fill="#FFD037"/>
<path d="M58 405.289C58 405.289 65.5245 405.046 67.7975 403.341C70.0705 401.635 79.3683 399.604 79.9316 402.338C80.495 405.072 91.2379 415.925 82.7435 415.997C74.2491 416.07 63.0065 414.602 60.7433 413.145C58.4801 411.687 58 405.289 58 405.289Z" fill="#A8A8A8"/>
<path opacity="0.2" d="M82.8964 415.031C74.4 415.106 63.1547 413.598 60.8909 412.102C59.1662 410.966 58.4802 406.884 58.2499 405H58C58 405 58.49 411.576 60.739 413.068C62.9881 414.559 74.2481 416.072 82.7445 415.997C85.1944 415.997 86.047 415.031 85.998 413.63C85.6599 414.485 84.724 415.015 82.8964 415.031Z" fill="black"/>
<defs>
<linearGradient id="paint0_linear" x1="236.99" y1="396.016" x2="236.99" y2="19" gradientUnits="userSpaceOnUse">
<stop stop-color="#808080" stop-opacity="0.25"/>
<stop offset="0.54" stop-color="#808080" stop-opacity="0.12"/>
<stop offset="1" stop-color="#808080" stop-opacity="0.1"/>
</linearGradient>
<linearGradient id="paint1_linear" x1="109685" y1="286549" x2="109685" y2="60921.2" gradientUnits="userSpaceOnUse">
<stop stop-color="#808080" stop-opacity="0.25"/>
<stop offset="0.54" stop-color="#808080" stop-opacity="0.12"/>
<stop offset="1" stop-color="#808080" stop-opacity="0.1"/>
</linearGradient>
</defs>
</svg>
