<svg width="350" height="300" viewBox="0 0 350 300" fill="none" xmlns="http://www.w3.org/2000/svg">
<g clip-path="url(#clip0)">
<g opacity="0.5">
<path opacity="0.5" d="M193.238 0.00982214L160.553 216.639L317.339 240.294L350.023 23.6654L193.238 0.00982214Z" fill="url(#paint0_linear)"/>
</g>
<path d="M194.994 1.90719L163.032 213.747L315.828 236.801L347.791 24.9609L194.994 1.90719Z" fill="#F5F5F5"/>
<path d="M311.759 113.485L201.48 96.8459L200.471 103.53L310.751 120.169L311.759 113.485Z" fill="#E0E0E0"/>
<path d="M309.238 130.192L198.959 113.553L197.95 120.238L308.23 136.876L309.238 130.192Z" fill="#E0E0E0"/>
<path d="M319.825 60.0146L263.013 51.4429L262.004 58.1273L318.816 66.699L319.825 60.0146Z" fill="#E0E0E0"/>
<path d="M312.293 75.9698L265.506 68.9106L264.497 75.5951L311.284 82.6543L312.293 75.9698Z" fill="#2B7BE1"/>
<path d="M293.35 144.886L196.436 130.263L195.427 136.948L292.342 151.57L293.35 144.886Z" fill="#E0E0E0"/>
<path d="M277.458 159.578L193.912 146.973L192.904 153.658L276.449 166.263L277.458 159.578Z" fill="#E0E0E0"/>
<path d="M264.913 174.774L191.392 163.682L190.383 170.366L263.904 181.459L264.913 174.774Z" fill="#E0E0E0"/>
<path d="M282.441 194.509L188.871 180.391L187.863 187.076L281.433 201.194L282.441 194.509Z" fill="#E0E0E0"/>
<path d="M223.112 202.645L186.353 197.099L185.344 203.784L222.103 209.33L223.112 202.645Z" fill="#2B7BE1"/>
<g opacity="0.5">
<path opacity="0.5" d="M252.245 60.6367C252.825 56.7859 252.399 52.8504 251.007 49.2133C249.615 45.5762 247.306 42.3613 244.303 39.8816C241.3 37.4019 237.707 35.7417 233.872 35.0628C230.037 34.3838 226.092 34.7092 222.42 36.0071C218.749 37.3051 215.476 39.5315 212.92 42.4697C210.364 45.4078 208.612 48.9576 207.835 52.7736C207.058 56.5896 207.282 60.5417 208.485 64.2455C209.689 67.9492 211.83 71.2783 214.702 73.9087C214.702 73.9408 214.702 73.9768 214.702 74.0088C215.324 74.8206 216.101 75.5009 216.987 76.01L217.031 75.9139C217.94 76.9666 222.123 79.0639 227.178 79.8123H227.29C230.492 80.3006 234.05 80.2566 237.352 79.0639C237.352 79.0639 237.388 79.0078 237.448 78.9038C238.277 78.6563 239.061 78.2765 239.769 77.7791L239.841 77.5309C243.123 75.9304 245.966 73.5565 248.127 70.6136C250.287 67.6707 251.701 64.2468 252.245 60.6367Z" fill="url(#paint1_linear)"/>
</g>
<path d="M251.476 59.7146C253.279 47.7652 245.053 36.6167 233.104 34.8137C221.154 33.0108 210.006 41.2362 208.203 53.1857C206.4 65.1351 214.625 76.2836 226.575 78.0865C238.524 79.8894 249.673 71.664 251.476 59.7146Z" fill="#F5F5F5"/>
<path d="M219.865 63.6584C219.865 63.6584 214.662 63.3022 214.594 72.9C215.198 73.6847 215.951 74.3418 216.811 74.8332L221.19 65.4555L219.865 63.6584Z" fill="#FDA57D"/>
<path d="M236.595 66.1841C236.595 66.1841 241.686 67.3848 238.908 76.5704C238.1 77.1447 237.186 77.5529 236.219 77.7711L234.798 67.5209L236.595 66.1841Z" fill="#FDA57D"/>
<path d="M222.411 48.3053C222.411 48.3053 218.881 55.0734 217.644 54.2009C217.644 54.2009 228.875 67.3008 241.959 57.8671C240.941 55.3173 239.621 52.8986 238.028 50.6627L222.411 48.3053Z" fill="#333333"/>
<path d="M240.398 50.3397C241.197 45.0436 237.552 40.1026 232.255 39.3035C226.959 38.5045 222.018 42.15 221.219 47.446C220.42 52.7421 224.066 57.6832 229.362 58.4822C234.658 59.2813 239.599 55.6357 240.398 50.3397Z" fill="#333333"/>
<path opacity="0.1" d="M236.495 66.168L219.765 63.6465L217.196 70.1024C217.196 70.1024 215.811 73.0602 216.747 74.5971C217.684 76.1341 227.87 80.8369 236.359 77.7991C237.312 76.1177 237.686 74.1702 237.424 72.2557C237.004 68.9977 237.236 71.9995 237.236 71.9995L236.495 66.168Z" fill="black"/>
<path opacity="0.1" d="M236.719 66.2041L219.989 63.6826L217.424 70.1345C217.424 70.1345 216.039 73.0923 216.975 74.6292C217.912 76.1662 228.098 80.869 236.587 77.8312C237.54 76.1498 237.914 74.2023 237.652 72.2878C237.232 69.0299 237.464 72.0317 237.464 72.0317L236.719 66.2041Z" fill="black"/>
<path d="M236.596 66.1841L219.865 63.6626L217.296 70.1185C217.296 70.1185 215.911 73.0763 216.848 74.6132C217.784 76.1502 227.97 80.853 236.459 77.8152C237.412 76.1338 237.786 74.1863 237.524 72.2718C237.104 69.0138 237.336 72.0157 237.336 72.0157L236.596 66.1841Z" fill="#FDD835"/>
<path opacity="0.1" d="M225.829 58.9015L232.522 59.9112L231.61 65.9506C231.504 66.657 231.121 67.2921 230.546 67.7162C229.971 68.1404 229.251 68.3188 228.545 68.2122L227.176 68.0056C226.469 67.899 225.834 67.5162 225.41 66.9413C224.986 66.3664 224.807 65.6466 224.914 64.9402L225.825 58.9009L225.829 58.9015Z" fill="black"/>
<path d="M225.862 58.6536L232.554 59.6633L231.643 65.7026C231.536 66.409 231.154 67.0442 230.579 67.4683C230.004 67.8925 229.284 68.0709 228.578 67.9643L227.212 67.7583C226.506 67.6517 225.871 67.2689 225.447 66.694C225.022 66.1191 224.844 65.3993 224.951 64.6929L225.862 58.6536Z" fill="#FDA57D"/>
<path opacity="0.1" d="M225.737 59.6C227.772 60.7314 230.144 61.0963 232.425 60.6287L232.549 59.8082L225.857 58.7996L225.737 59.6Z" fill="black"/>
<path d="M240.084 52.4198C240.883 47.1238 237.238 42.1827 231.941 41.3836C226.645 40.5846 221.704 44.2301 220.905 49.5261C220.106 54.8222 223.752 59.7632 229.048 60.5623C234.344 61.3614 239.285 57.7158 240.084 52.4198Z" fill="#FDA57D"/>
<path d="M221.854 45.9399L240.146 48.6975C240.146 48.6975 239.697 41.0929 232.713 40.5046C225.729 39.9162 221.854 45.9399 221.854 45.9399Z" fill="#333333"/>
<path d="M222.053 49.2779C222.193 48.3533 221.907 47.5436 221.415 47.4694C220.923 47.3952 220.412 48.0846 220.272 49.0092C220.133 49.9337 220.418 50.7434 220.91 50.8176C221.402 50.8918 221.914 50.2024 222.053 49.2779Z" fill="#FDA57D"/>
<path d="M240.79 52.1065C240.93 51.1819 240.644 50.3722 240.152 50.298C239.661 50.2238 239.149 50.9132 239.009 51.8378C238.87 52.7623 239.156 53.572 239.647 53.6462C240.139 53.7204 240.651 53.031 240.79 52.1065Z" fill="#FDA57D"/>
<path opacity="0.1" d="M221.826 46.1879L240.117 48.9456C240.117 48.9456 239.669 41.341 232.685 40.7526C225.701 40.1643 221.826 46.1879 221.826 46.1879Z" fill="black"/>
<g opacity="0.5">
<path opacity="0.5" d="M157.106 31.1353L0.131348 56.5049L35.1843 273.395L192.159 248.025L157.106 31.1353Z" fill="url(#paint2_linear)"/>
</g>
<path d="M154.745 32.4016L2.25537 57.4001L36.9139 268.816L189.404 243.817L154.745 32.4016Z" fill="#F5F5F5"/>
<path d="M147.677 127.695L37.6187 145.737L38.7123 152.408L148.771 134.366L147.677 127.695Z" fill="#E0E0E0"/>
<path d="M150.41 144.371L40.3516 162.414L41.4452 169.085L151.504 151.042L150.41 144.371Z" fill="#E0E0E0"/>
<path d="M138.933 74.3331L82.2349 83.6279L83.3285 90.299L140.026 81.0042L138.933 74.3331Z" fill="#E0E0E0"/>
<path d="M136.662 91.8302L89.9688 99.4849L91.0624 106.156L137.756 98.5012L136.662 91.8302Z" fill="#2B7BE1"/>
<path d="M139.806 163.234L43.0854 179.09L44.1791 185.761L140.899 169.905L139.806 163.234Z" fill="#E0E0E0"/>
<path d="M129.197 182.093L45.8184 195.762L46.912 202.433L130.29 188.764L129.197 182.093Z" fill="#E0E0E0"/>
<path d="M121.926 200.412L48.5527 212.44L49.6464 219.111L123.02 207.083L121.926 200.412Z" fill="#E0E0E0"/>
<path d="M144.669 213.804L51.2861 229.113L52.3798 235.784L145.763 220.475L144.669 213.804Z" fill="#E0E0E0"/>
<path d="M90.7078 239.777L54.0229 245.791L55.1166 252.462L91.8014 246.448L90.7078 239.777Z" fill="#2B7BE1"/>
<g opacity="0.5">
<path opacity="0.5" d="M76.8627 94.2409C76.2145 90.2904 74.5546 86.5749 72.0445 83.4561C69.5345 80.3373 66.2598 77.9214 62.5391 76.4436C58.8185 74.9657 54.7786 74.4762 50.8127 75.0228C46.8468 75.5693 43.0899 77.1333 39.9077 79.5624C36.7254 81.9916 34.2263 85.2032 32.6534 88.8846C31.0805 92.5661 30.4875 96.5921 30.932 100.571C31.3765 104.549 32.8435 108.345 35.1901 111.589C37.5367 114.832 40.6831 117.413 44.323 119.08L44.355 119.18C45.2199 119.774 46.1939 120.19 47.2207 120.405V120.297C48.4415 121.041 53.1964 121.774 58.3795 120.909H58.4916C61.7776 120.377 65.2437 119.208 68.0974 116.999C68.0974 116.999 68.0974 116.935 68.1374 116.815C68.871 116.311 69.5184 115.692 70.0546 114.982C70.0546 114.891 70.0546 114.803 70.0546 114.717C72.7657 112.113 74.8022 108.888 75.9883 105.32C77.1745 101.753 77.4745 97.9503 76.8627 94.2409Z" fill="url(#paint3_linear)"/>
</g>
<path d="M57.6227 120.182C69.8819 118.173 78.1908 106.605 76.181 94.346C74.1713 82.0867 62.604 73.7779 50.3448 75.7876C38.0855 77.7973 29.7767 89.3646 31.7864 101.624C33.7961 113.883 45.3634 122.192 57.6227 120.182Z" fill="#F5F5F5"/>
<path d="M45.7956 108.246C45.7956 108.246 40.5924 109.546 43.5542 118.952C44.3928 119.533 45.3383 119.941 46.3359 120.153L47.6607 109.594L45.7956 108.246Z" fill="#4D8AF0"/>
<path d="M62.958 105.432C62.958 105.432 68.3172 104.996 68.4974 114.866C67.8854 115.675 67.1196 116.355 66.244 116.867L61.6172 107.285L62.958 105.432Z" fill="#4D8AF0"/>
<path d="M53.4342 100.173C58.8679 99.2824 62.5508 94.1553 61.66 88.7215C60.7692 83.2878 55.6421 79.6049 50.2083 80.4957C44.7746 81.3865 41.0918 86.5136 41.9825 91.9473C42.8733 97.3811 48.0004 101.064 53.4342 100.173Z" fill="#333333"/>
<path d="M62.8581 105.448L45.6957 108.25L45.2194 115.378C45.2194 115.378 44.8192 118.712 46.2 119.917C47.5809 121.121 59.0558 122.51 66.3762 116.843C66.7769 114.897 66.528 112.874 65.6678 111.083C64.2269 108.03 65.3996 110.891 65.3996 110.891L62.8581 105.448Z" fill="#4D8AF0"/>
<path d="M63.0861 105.412L45.9237 108.214L45.4475 115.342C45.4475 115.342 45.0472 118.676 46.428 119.881C47.8089 121.085 59.2838 122.474 66.6043 116.807C67.005 114.861 66.7561 112.838 65.8958 111.047C64.455 107.993 65.6277 110.855 65.6277 110.855L63.0861 105.412Z" fill="#4D8AF0"/>
<path d="M62.9582 105.432L45.7958 108.234L45.3195 115.374C45.3195 115.374 44.9193 118.708 46.3001 119.913C47.681 121.117 59.1559 122.506 66.4763 116.839C66.877 114.893 66.6281 112.87 65.7679 111.079C64.327 108.025 65.4997 110.887 65.4997 110.887L62.9582 105.432Z" fill="#4D8AF0"/>
<path opacity="0.1" d="M50.1319 101.683L56.9965 100.557L58.024 106.826C58.1396 107.531 57.9704 108.253 57.5536 108.833C57.1368 109.413 56.5066 109.804 55.8017 109.919L54.2494 110.174C53.5444 110.289 52.8224 110.12 52.2422 109.703C51.662 109.287 51.2711 108.657 51.1555 107.952L50.1279 101.683L50.1319 101.683Z" fill="black"/>
<path d="M50.0909 101.428L56.9554 100.303L57.983 106.571C58.0986 107.276 57.9294 107.998 57.5126 108.578C57.0958 109.159 56.4656 109.549 55.7606 109.665L54.2084 109.92C53.5034 110.035 52.7814 109.866 52.2012 109.449C51.621 109.032 51.2301 108.402 51.1145 107.697L50.0869 101.429L50.0909 101.428Z" fill="#FDA57D"/>
<path opacity="0.1" d="M50.2586 102.418C52.6065 102.883 55.0432 102.491 57.1268 101.313L56.9867 100.469L50.1226 101.597L50.2586 102.418Z" fill="black"/>
<path d="M53.7872 102.309C59.2209 101.419 62.9038 96.2915 62.013 90.8577C61.1222 85.424 55.9951 81.7412 50.5614 82.632C45.1276 83.5227 41.4448 88.6498 42.3356 94.0836C43.2264 99.5173 48.3534 103.2 53.7872 102.309Z" fill="#FDA57D"/>
<path opacity="0.1" d="M42.1895 90.5307L60.9568 87.4569C60.9568 87.4569 58.1111 80.1404 51.0989 81.7894C44.0866 83.4384 42.1895 90.5307 42.1895 90.5307Z" fill="black"/>
<path d="M42.1455 90.2786L60.9289 87.2007C60.9289 87.2007 58.0832 79.8843 51.0709 81.5333C44.0587 83.1823 42.1455 90.2786 42.1455 90.2786Z" fill="#333333"/>
<path d="M42.867 95.9379C43.3747 95.8558 43.6616 95.0176 43.5077 94.0657C43.3539 93.1137 42.8176 92.4085 42.3099 92.4906C41.8022 92.5726 41.5153 93.4109 41.6692 94.3628C41.823 95.3148 42.3593 96.02 42.867 95.9379Z" fill="#FDA57D"/>
<path d="M61.9704 92.1952C62.4764 92.1122 62.7606 91.2758 62.605 90.3269C62.4495 89.378 61.9131 88.676 61.4071 88.759C60.901 88.8419 60.6168 89.6784 60.7724 90.6273C60.9279 91.5762 61.4643 92.2782 61.9704 92.1952Z" fill="#FDA57D"/>
<g opacity="0.5">
<path opacity="0.5" d="M271.681 66.228H113.121V285.309H271.681V66.228Z" fill="url(#paint4_linear)"/>
</g>
<path d="M269.663 67.8411H115.138V282.079H269.663V67.8411Z" fill="white"/>
<g opacity="0.5">
<path opacity="0.5" d="M135.774 116.859C135.775 112.765 136.835 108.742 138.852 105.18C140.868 101.618 143.773 98.6384 147.283 96.5318C150.792 94.4252 154.787 93.2631 158.88 93.1586C162.972 93.0541 167.021 94.0108 170.634 95.9355C174.246 97.8602 177.299 100.687 179.495 104.142C181.691 107.596 182.955 111.561 183.164 115.649C183.373 119.737 182.521 123.809 180.689 127.47C178.858 131.131 176.11 134.255 172.713 136.539V136.643C171.938 137.386 171.024 137.968 170.023 138.356L169.991 138.252C168.882 139.204 164.208 140.729 158.836 140.713H158.72C155.318 140.713 151.628 140.113 148.378 138.356C148.378 138.356 148.35 138.292 148.306 138.176C147.482 137.789 146.727 137.271 146.069 136.643L146.033 136.375C142.869 134.197 140.281 131.283 138.494 127.883C136.707 124.483 135.774 120.7 135.774 116.859Z" fill="url(#paint5_linear)"/>
</g>
<path d="M159.48 139.857C172.182 139.857 182.478 129.56 182.478 116.859C182.478 104.157 172.182 93.8608 159.48 93.8608C146.779 93.8608 136.482 104.157 136.482 116.859C136.482 129.56 146.779 139.857 159.48 139.857Z" fill="#F5F5F5"/>
<path d="M150.459 125.62C150.459 125.62 144.98 126.064 146.428 136.07C147.18 136.791 148.067 137.356 149.038 137.731L152.12 127.297L150.459 125.62Z" fill="#BE7C5E"/>
<path d="M168.242 125.62C168.242 125.62 173.721 126.064 172.272 136.07C171.521 136.791 170.634 137.356 169.663 137.731L166.593 127.265L168.242 125.62Z" fill="#BE7C5E"/>
<path d="M150.695 109.254C150.695 109.254 150.275 110.483 149.675 111.904C148.37 115.01 149.859 126.945 152.981 128.218C156.483 129.647 161.09 130.559 165.873 128.814C170.031 127.297 171.312 113.713 168.374 110.403C168.03 110.003 167.67 109.63 167.293 109.254H150.695Z" fill="#333333"/>
<path d="M159.497 118.74C165.127 118.74 169.691 114.176 169.691 108.546C169.691 102.916 165.127 98.3516 159.497 98.3516C153.867 98.3516 149.303 102.916 149.303 108.546C149.303 114.176 153.867 118.74 159.497 118.74Z" fill="#333333"/>
<path opacity="0.1" d="M168.138 125.62H150.355L148.694 132.732C148.694 132.732 147.717 136.026 148.93 137.475C150.143 138.924 161.47 142.218 169.795 137.711C170.52 135.815 170.603 133.732 170.031 131.784C169.082 128.466 169.795 131.548 169.795 131.548L168.138 125.62Z" fill="black"/>
<path opacity="0.1" d="M168.374 125.62H150.583L148.922 132.732C148.922 132.732 147.945 136.026 149.158 137.475C150.371 138.924 161.698 142.218 170.023 137.711C170.748 135.815 170.831 133.732 170.259 131.784C169.31 128.466 170.023 131.548 170.023 131.548L168.374 125.62Z" fill="black"/>
<path d="M168.242 125.62H150.459L148.798 132.732C148.798 132.732 147.821 136.026 149.034 137.475C150.247 138.924 161.574 142.218 169.899 137.711C170.624 135.815 170.707 133.732 170.135 131.784C169.186 128.466 169.899 131.548 169.899 131.548L168.242 125.62Z" fill="#3AD29F"/>
<path opacity="0.1" d="M155.915 119.717H163.027V126.273C163.027 126.987 162.743 127.672 162.238 128.177C161.733 128.682 161.048 128.966 160.333 128.966H158.604C157.89 128.966 157.205 128.682 156.7 128.177C156.194 127.672 155.911 126.987 155.911 126.273V119.717H155.915Z" fill="black"/>
<path d="M155.915 119.452H163.027V126.008C163.027 126.723 162.743 127.408 162.238 127.913C161.733 128.418 161.048 128.702 160.333 128.702H158.604C157.89 128.702 157.205 128.418 156.7 127.913C156.194 127.408 155.911 126.723 155.911 126.008V119.452H155.915Z" fill="#BE7C5E"/>
<path opacity="0.1" d="M155.926 120.461C158.221 121.311 160.744 121.311 163.039 120.461V119.588H155.926V120.461Z" fill="black"/>
<path d="M159.497 120.953C165.127 120.953 169.691 116.389 169.691 110.759C169.691 105.129 165.127 100.565 159.497 100.565C153.867 100.565 149.303 105.129 149.303 110.759C149.303 116.389 153.867 120.953 159.497 120.953Z" fill="#BE7C5E"/>
<path d="M149.747 106.889H169.19C169.19 106.889 167.529 99.0361 160.181 99.5404C152.832 100.045 149.747 106.889 149.747 106.889Z" fill="#333333"/>
<path d="M149.514 112.104C150.038 112.104 150.463 111.308 150.463 110.327C150.463 109.345 150.038 108.55 149.514 108.55C148.991 108.55 148.566 109.345 148.566 110.327C148.566 111.308 148.991 112.104 149.514 112.104Z" fill="#BE7C5E"/>
<path d="M169.431 112.104C169.954 112.104 170.379 111.308 170.379 110.327C170.379 109.345 169.954 108.55 169.431 108.55C168.907 108.55 168.482 109.345 168.482 110.327C168.482 111.308 168.907 112.104 169.431 112.104Z" fill="#BE7C5E"/>
<path opacity="0.1" d="M149.747 107.149H169.19C169.19 107.149 167.529 99.2961 160.181 99.8004C152.832 100.305 149.747 107.149 149.747 107.149Z" fill="black"/>
<path d="M247.27 160.737H135.742V167.497H247.27V160.737Z" fill="#E0E0E0"/>
<path d="M247.27 177.635H135.742V184.396H247.27V177.635Z" fill="#E0E0E0"/>
<path d="M247.274 106.665H189.819V113.425H247.274V106.665Z" fill="#E0E0E0"/>
<path d="M242.203 123.563H194.886V130.323H242.203V123.563Z" fill="#2B7BE1"/>
<path d="M233.754 194.534H135.742V201.294H233.754V194.534Z" fill="#E0E0E0"/>
<path d="M220.233 211.432H135.742V218.192H220.233V211.432Z" fill="#E0E0E0"/>
<path d="M210.095 228.334H135.742V235.094H210.095V228.334Z" fill="#E0E0E0"/>
<path d="M230.372 245.233H135.742V251.993H230.372V245.233Z" fill="#E0E0E0"/>
<path d="M172.917 262.131H135.742V268.891H172.917V262.131Z" fill="#2B7BE1"/>
<g opacity="0.5">
<path opacity="0.5" d="M260.986 299.361C279.64 299.361 294.762 284.239 294.762 265.585C294.762 246.931 279.64 231.808 260.986 231.808C242.332 231.808 227.209 246.931 227.209 265.585C227.209 284.239 242.332 299.361 260.986 299.361Z" fill="url(#paint6_linear)"/>
</g>
<path d="M260.986 297.372C278.542 297.372 292.773 283.14 292.773 265.585C292.773 248.029 278.542 233.798 260.986 233.798C243.43 233.798 229.199 248.029 229.199 265.585C229.199 283.14 243.43 297.372 260.986 297.372Z" fill="#69F0AE"/>
<path d="M247.19 261.342L259.109 272.269L275.995 247.438L281.959 252.405L259.109 282.203L242.223 263.332L247.19 261.342Z" fill="white"/>
</g>
<defs>
<linearGradient id="paint0_linear" x1="238.946" y1="228.466" x2="271.631" y2="11.8376" gradientUnits="userSpaceOnUse">
<stop stop-color="#808080" stop-opacity="0.25"/>
<stop offset="0.54" stop-color="#808080" stop-opacity="0.12"/>
<stop offset="1" stop-color="#808080" stop-opacity="0.1"/>
</linearGradient>
<linearGradient id="paint1_linear" x1="26436.4" y1="33184" x2="27202" y2="28110" gradientUnits="userSpaceOnUse">
<stop stop-color="#808080" stop-opacity="0.25"/>
<stop offset="0.54" stop-color="#808080" stop-opacity="0.12"/>
<stop offset="1" stop-color="#808080" stop-opacity="0.1"/>
</linearGradient>
<linearGradient id="paint2_linear" x1="88068" y1="71522" x2="68881.1" y2="-47197" gradientUnits="userSpaceOnUse">
<stop stop-color="#808080" stop-opacity="0.25"/>
<stop offset="0.54" stop-color="#808080" stop-opacity="0.12"/>
<stop offset="1" stop-color="#808080" stop-opacity="0.1"/>
</linearGradient>
<linearGradient id="paint3_linear" x1="18169.1" y1="-1789.5" x2="17294.8" y2="-7122.86" gradientUnits="userSpaceOnUse">
<stop stop-color="#808080" stop-opacity="0.25"/>
<stop offset="0.54" stop-color="#808080" stop-opacity="0.12"/>
<stop offset="1" stop-color="#808080" stop-opacity="0.1"/>
</linearGradient>
<linearGradient id="paint4_linear" x1="76334.5" y1="156236" x2="76334.5" y2="36317.5" gradientUnits="userSpaceOnUse">
<stop stop-color="#808080" stop-opacity="0.25"/>
<stop offset="0.54" stop-color="#808080" stop-opacity="0.12"/>
<stop offset="1" stop-color="#808080" stop-opacity="0.1"/>
</linearGradient>
<linearGradient id="paint5_linear" x1="24090.4" y1="20430.9" x2="24090.4" y2="14778.1" gradientUnits="userSpaceOnUse">
<stop stop-color="#808080" stop-opacity="0.25"/>
<stop offset="0.54" stop-color="#808080" stop-opacity="0.12"/>
<stop offset="1" stop-color="#808080" stop-opacity="0.1"/>
</linearGradient>
<linearGradient id="paint6_linear" x1="44276.4" y1="50757.3" x2="44276.4" y2="39356.4" gradientUnits="userSpaceOnUse">
<stop stop-color="#808080" stop-opacity="0.25"/>
<stop offset="0.54" stop-color="#808080" stop-opacity="0.12"/>
<stop offset="1" stop-color="#808080" stop-opacity="0.1"/>
</linearGradient>
<clipPath id="clip0">
<rect width="350" height="299.357" fill="white"/>
</clipPath>
</defs>
</svg>
