<svg height="512pt" viewBox="0 0 512 512" width="512pt" xmlns="http://www.w3.org/2000/svg"><path d="m512 256c0 141.386719-114.613281 256-256 256s-256-114.613281-256-256 114.613281-256 256-256 256 114.613281 256 256zm0 0" fill="#0a77e8"/><path d="m502.878906 323.90625-125.050781-125.046875-64.054687 20.03125-88.546876-88.523437-57.125 65.210937 27.515626 27.539063-77.617188 170.882812 117.152344 117.152344c6.875.554687 13.828125.847656 20.847656.847656 117.871094 0 217.121094-79.667969 246.878906-188.09375zm0 0" fill="#085aae"/><path d="m274.328125 198.859375h103.5v80.859375h-103.5zm0 0" fill="#434343"/><path d="m217.726562 223.117188h-43.125c-22.292968 0-40.429687 18.136718-40.429687 40.429687v24.257813h123.984375v-24.257813c0-22.292969-18.136719-40.429687-40.429688-40.429687zm0 0" fill="#65eaff"/><path d="m188.078125 223.117188h16.171875v32.34375h-16.171875zm0 0" fill="#0a77e8"/><path d="m196.164062 118c-22.292968 0-40.429687 18.136719-40.429687 40.429688v8.085937c0 22.292969 18.136719 40.429687 40.429687 40.429687 22.292969 0 40.429688-18.136718 40.429688-40.429687v-8.085937c0-22.292969-18.136719-40.429688-40.429688-40.429688zm0 0" fill="#fcac5c"/><path d="m256 394h138v-81.9375l-170.34375-16.171875zm0 0" fill="#f86d24"/><path d="m256 271.632812-26.953125 40.429688h164.953125v-40.429688zm0 0" fill="#f98e2e"/><path d="m118 312.0625v81.9375h138v-81.9375l-69-16.171875zm0 0" fill="#f98e2e"/><path d="m118 271.632812h138v40.429688h-138zm0 0" fill="#fcac5c"/></svg>