<svg width="25" height="25" viewBox="0 0 25 25" fill="none" xmlns="http://www.w3.org/2000/svg">
<path d="M0.685964 21.0024C-0.228655 21.917 -0.228655 23.3982 0.685964 24.3128C1.14327 24.7701 1.7426 24.998 2.34197 24.998C2.94135 24.998 3.54067 24.7701 3.99798 24.3128L11.6849 16.6243L8.37284 13.3155L0.685964 21.0024Z" fill="white"/>
<path d="M19.8975 6.75555L23.2454 5.02458L24.9981 1.63612L23.364 0.00198364L19.977 1.75631L18.243 5.10109L14.1709 9.17785L15.8222 10.8323L19.8975 6.75555Z" fill="white"/>
<path d="M20.6313 15.6411L20.316 15.6099C19.7448 15.6099 19.2032 15.727 18.6975 15.9143L9.08769 6.30292C9.27499 5.79724 9.39205 5.25563 9.39205 4.68439L9.36083 4.36909C9.19541 1.93267 7.18821 0.00198364 4.7097 0.00198364C3.98859 0.00198364 3.31276 0.178346 2.7025 0.470229L5.81315 3.58088C5.97704 3.74476 6.08943 3.93828 6.16434 4.14277C6.36879 4.69527 6.25799 5.34147 5.81315 5.78785C5.50879 6.0922 5.10925 6.24515 4.7097 6.24515C4.52553 6.24515 4.3429 6.20459 4.16808 6.13903C3.96364 6.06099 3.77007 5.95173 3.60619 5.7863L0.495589 2.6772C0.203706 3.28746 0.0273438 3.96328 0.0273438 4.68439C0.0273438 7.16291 1.95803 9.1701 4.39445 9.33552L4.70975 9.36674C5.28099 9.36674 5.8226 9.24968 6.32828 9.06397L15.9365 18.6738C15.7523 19.1795 15.6353 19.7211 15.6353 20.2923L15.668 20.6076C15.8304 23.0456 17.8391 24.9747 20.3176 24.9747C21.0387 24.9747 21.7161 24.8015 22.3248 24.5065L19.2142 21.3958C19.0518 21.2335 18.9379 21.0384 18.8598 20.8355C18.6554 20.283 18.7662 19.6353 19.2142 19.1889C19.5154 18.8846 19.9181 18.7316 20.3176 18.7316C20.5018 18.7316 20.6828 18.7706 20.8608 18.8377C21.0652 18.9142 21.2603 19.0235 21.4211 19.1889L24.5317 22.2996C24.8252 21.6877 25 21.0135 25 20.2924C24.9984 17.8137 23.0677 15.8066 20.6313 15.6411Z" fill="white"/>
</svg>
