<svg width="350" height="245" viewBox="0 0 350 245" fill="none" xmlns="http://www.w3.org/2000/svg">
<g clip-path="url(#clip0)">
<path opacity="0.1" d="M148.9 9.41381C134.673 4.00312 119.639 -0.516545 104.291 0.0516423C81.7252 0.884553 60.0631 13.5816 49.4548 32.2252C40.4542 48.0215 39.3436 66.536 35.4664 84.0658C30.6949 105.66 21.5394 126.189 11.764 146.26C6.5147 157.042 0.974879 168.057 0.112914 179.876C-1.08157 196.286 7.30242 212.638 20.4514 223.553C33.6004 234.468 51.0625 240.227 68.5891 241.483C77.9158 242.151 87.6621 241.531 95.9461 237.47C104.711 233.173 111.1 225.409 119.9 221.173C128.055 217.248 137.595 216.699 146.75 217.209C158.704 217.875 170.505 220.222 181.804 224.182C194.601 228.676 206.5 235.187 219.252 239.746C232.004 244.304 246.286 246.848 259.335 243.045C271.603 239.471 281.288 230.794 290.021 222.006C304.3 207.663 317.388 192.182 329.155 175.715C337.035 164.671 344.37 153.02 347.853 140.148C354.516 115.539 345.348 87.7752 325.013 70.9685C308.164 57.0447 285.553 51.0012 263.419 47.3338C243.236 43.9893 219.898 43.7827 201.319 35.0662C183.602 26.7435 167.48 16.4839 148.9 9.41381Z" fill="#2B7BE1"/>
<path d="M204.218 199.834V211.563H207.553L206.907 198.972L204.218 199.834Z" fill="#AAABB0"/>
<path d="M154.124 197.468V209.196H157.462L156.816 196.606L154.124 197.468Z" fill="#AAABB0"/>
<path d="M212.395 180.251C212.395 179.062 211.432 178.098 210.243 178.098C209.055 178.098 208.092 179.062 208.092 180.251V196.822C208.092 198.011 209.055 198.975 210.243 198.975C211.432 198.975 212.395 198.011 212.395 196.822V180.251Z" fill="#AAABB0"/>
<path d="M157.191 175.621C157.191 174.432 156.227 173.468 155.039 173.468C153.851 173.468 152.887 174.432 152.887 175.621V196.819C152.887 198.008 153.851 198.972 155.039 198.972C156.227 198.972 157.191 198.008 157.191 196.819V175.621Z" fill="#AAABB0"/>
<path d="M217.887 53.161C217.887 53.161 222.19 51.3305 222.836 53.161C223.481 54.9915 223.804 70.8103 223.804 70.8103H219.714L217.887 53.161Z" fill="#AAABB0"/>
<path d="M170.753 53.161C170.753 53.161 166.447 51.3305 165.801 53.161C165.155 54.9915 164.833 70.8103 164.833 70.8103H168.923L170.753 53.161Z" fill="#AAABB0"/>
<path d="M171.396 37.4487L170.75 50.5783H173.656V37.1259L171.396 37.4487Z" fill="#AAABB0"/>
<path d="M168.923 70.8103L169.785 51.8697C169.785 51.8697 169.462 47.6728 179.683 48.9642C189.904 50.2555 219.824 52.8382 219.824 52.8382V70.8103H168.923Z" fill="#33323D"/>
<path d="M209.816 170.566L208.202 199.511C208.202 199.511 184.525 212.641 155.793 200.157L158.376 169.704L209.816 170.566Z" fill="#33323D"/>
<path d="M187.324 56.6024L187.86 75.3268H221.222L219.285 50.5783L187.324 56.6024Z" fill="#444053"/>
<path d="M190.714 158.188H159.289V198.004H190.714V158.188Z" fill="#4C4981"/>
<path d="M179.147 174.44C179.147 174.44 183.666 170.889 184.419 171.964C185.171 173.039 181.733 177.668 180.332 177.129C178.931 176.59 179.147 174.44 179.147 174.44Z" fill="#FFB9B9"/>
<path d="M304.587 69.7321H98.3062V173.039H304.587V69.7321Z" fill="#504F60"/>
<path d="M169.029 36.6965C169.029 36.6965 167.415 21.6299 169.029 19.8026C170.643 17.9754 197.761 0.645685 222.836 20.9842C222.836 20.9842 225.202 21.094 224.773 26.4724C224.519 29.8764 224.537 33.2952 224.824 36.6965C224.824 36.6965 170.859 40.5705 169.029 36.6965Z" fill="#33323D"/>
<path opacity="0.1" d="M169.029 36.6965C169.029 36.6965 167.415 21.6299 169.029 19.8026C170.643 17.9754 197.761 0.645685 222.836 20.9842C222.836 20.9842 225.202 21.094 224.773 26.4724C224.519 29.8764 224.537 33.2952 224.824 36.6965C224.824 36.6965 170.859 40.5705 169.029 36.6965Z" fill="black"/>
<path d="M169.029 38.6335C169.029 38.6335 167.415 23.5668 169.029 21.7396C170.643 19.9124 197.761 2.58267 222.836 22.9212C222.836 22.9212 225.202 23.0309 224.773 28.4094C224.519 31.8134 224.537 35.2322 224.824 38.6335C224.824 38.6335 170.859 42.5075 169.029 38.6335Z" fill="#33323D"/>
<path d="M225.741 31.7475C225.741 31.7475 227.462 38.2041 226.926 39.2792C226.39 40.3542 226.487 43.3695 226.487 43.3695C226.487 43.3695 226.603 45.3065 225.741 45.5195C224.879 45.7326 224.127 45.8424 224.824 46.488C225.522 47.1337 224.824 48.1022 224.824 48.1022C224.824 48.1022 224.447 49.6098 224.824 50.5783C225.202 51.5468 222.616 51.9504 222.836 53.161C223.055 54.3716 223.778 57.7872 222.836 57.897C221.893 58.0067 223.159 62.2003 222.309 62.2003C221.46 62.2003 220.857 69.732 220.857 69.732C220.857 69.732 214.884 64.6765 210.904 66.0743C210.904 66.0743 211.227 61.8775 212.518 60.3699C213.809 58.8622 213.419 54.9915 213.419 54.9915L219.824 35.728L225.741 31.7475Z" fill="#4C4981"/>
<path d="M193.781 120.778C192.383 122.325 190.875 114.067 190.875 114.067C190.875 114.067 186.895 119.555 184.312 115.897C182.524 113.363 183.934 106.183 184.958 102.015C185.416 100.162 185.804 98.9033 185.804 98.9033L191.615 97.9348C191.615 97.9348 191.634 99.2003 191.763 100.737C191.937 102.813 192.315 105.389 193.119 106.006C194.536 107.074 195.182 119.219 193.781 120.778Z" fill="#AE6E79"/>
<path opacity="0.1" d="M190.769 24.106C190.769 24.106 180.651 23.9995 178.178 29.3779C175.705 34.7563 175.596 36.59 174.627 37.4487C173.659 38.3074 185.171 42.8303 185.171 42.8303L185.71 61.3384C185.71 61.3384 187.97 59.0495 191.628 60.0858C195.285 61.1221 199.915 60.0858 199.915 60.0858C199.915 60.0858 199.698 59.6952 202.714 60.0858C205.729 60.4764 215.304 55.4209 215.304 55.4209C215.304 55.4209 215.462 47.3242 215.249 45.6003C215.036 43.8763 222.08 31.2083 222.08 31.2083C222.08 31.2083 227.569 25.9365 221.867 24.106C221.867 24.106 219.85 21.0649 214.659 21.094C209.467 21.123 190.769 24.106 190.769 24.106Z" fill="black"/>
<path d="M190.769 23.7831C190.769 23.7831 180.651 23.6766 178.178 29.055C175.705 34.4334 175.596 36.2671 174.627 37.1259C173.659 37.9846 185.171 42.5075 185.171 42.5075L185.71 61.0155C185.71 61.0155 187.97 58.7266 191.628 59.7629C195.285 60.7992 199.915 59.7629 199.915 59.7629C199.915 59.7629 199.698 59.3723 202.714 59.7629C205.729 60.1536 215.304 55.098 215.304 55.098C215.304 55.098 219.068 48.9642 218.855 47.2435C218.642 45.5228 226.387 32.4997 226.387 32.4997C226.387 32.4997 227.572 25.6136 221.867 23.7831C221.867 23.7831 219.85 20.7421 214.659 20.7711C209.467 20.8002 190.769 23.7831 190.769 23.7831Z" fill="#4C4981"/>
<path opacity="0.1" d="M191.789 100.727C189.571 100.036 186.091 101.56 184.983 102.019C185.442 100.166 185.829 98.9065 185.829 98.9065L191.64 97.938C191.64 97.938 191.65 99.2035 191.789 100.727Z" fill="black"/>
<path d="M177.745 37.1259H174.627C174.627 37.1259 173.981 43.6923 174.627 45.6293C175.272 47.5663 175.595 47.2854 175.379 48.7188C175.163 50.1522 176.887 52.3474 176.887 52.3474C176.887 52.3474 177.1 57.7581 178.178 59.7726C179.256 61.7871 176.993 70.82 176.993 70.82C177.61 72.3793 178.524 73.8045 179.682 75.0168C181.513 76.844 182.481 83.6236 181.942 86.2062C181.403 88.7889 183.45 89.7574 183.45 89.7574C183.45 89.7574 184.312 101.812 184.635 101.812C184.957 101.812 191.198 98.5837 193.135 101.379L191.627 90.2965L191.737 68.883C191.737 68.883 189.69 66.1905 190.768 63.8242C191.847 61.4578 189.907 55.8599 189.907 55.8599L187.108 43.3791L177.745 37.1259Z" fill="#4C4981"/>
<path d="M158.375 207.259C158.375 207.259 153.856 206.291 153.749 207.259C153.643 208.228 148.368 218.129 154.934 221.034C161.5 223.94 179.037 230.18 207.556 222.109C207.556 222.109 209.383 222.755 208.954 218.775C208.524 214.794 208.524 210.381 208.524 210.381C208.524 210.381 204.218 209.196 200.989 209.629C197.761 210.061 169.675 215.763 158.375 207.259Z" fill="#33323D"/>
<path opacity="0.1" d="M158.375 207.259C158.375 207.259 153.856 206.291 153.749 207.259C153.643 208.228 148.368 218.129 154.934 221.034C161.5 223.94 179.037 230.18 207.556 222.109C207.556 222.109 209.383 222.755 208.954 218.775C208.524 214.794 208.524 210.381 208.524 210.381C208.524 210.381 204.218 209.196 200.989 209.629C197.761 210.061 169.675 215.763 158.375 207.259Z" fill="black"/>
<path d="M158.375 205.968C158.375 205.968 153.856 204.999 153.749 205.968C153.643 206.936 148.368 216.838 154.934 219.743C161.5 222.649 179.037 228.889 207.556 220.818C207.556 220.818 209.383 221.464 208.954 217.483C208.524 213.503 208.524 209.09 208.524 209.09C208.524 209.09 204.218 207.905 200.989 208.337C197.761 208.77 169.675 214.471 158.375 205.968Z" fill="#33323D"/>
<path d="M184.732 40.9934C184.454 42.572 183.825 44.0894 183.728 45.6874C183.631 47.2854 184.248 49.103 185.723 49.7293C186.135 49.8523 186.534 50.0144 186.914 50.2135C187.483 50.5977 187.715 51.3208 187.835 51.9988C187.993 52.874 188.031 53.7669 187.947 54.6525C187.867 55.5435 187.676 56.5023 188.115 57.2803C188.887 58.6588 190.898 58.4555 192.428 58.0681L191.902 62.1454C191.86 62.4683 191.834 62.8331 192.07 63.0526C192.181 63.131 192.307 63.1863 192.44 63.2151C192.574 63.244 192.711 63.2458 192.845 63.2205C194.175 63.1365 195.544 62.9525 196.683 62.252C197.823 61.5514 198.672 60.2472 198.456 58.9332C198.204 57.4095 196.629 56.1988 196.842 54.6686C197.006 53.4838 198.165 52.7316 198.927 51.8212C200.306 50.1554 200.38 47.6244 199.298 45.739C198.217 43.8537 196.128 42.685 193.978 42.472C192.787 42.3525 191.547 42.4978 190.427 42.0846C190.037 41.9416 189.686 41.7104 189.4 41.4091C189.114 41.1078 188.902 40.7446 188.78 40.3477" fill="#444053"/>
<path d="M147.187 184.554L148.313 182.101C148.313 182.101 154.395 176.435 155.793 176.038C157.191 175.641 162.896 173.91 163.758 173.91C164.62 173.91 180.332 173.048 180.332 173.048L182.159 177.355L162.44 181.684L155.793 186.527L147.187 184.554Z" fill="#767D9F"/>
<path d="M194.562 118.48L193.532 126.405L193.135 129.456L188.509 130.102C188.509 130.102 188.009 129.03 187.302 127.384C185.155 122.386 181.113 112.081 183.457 110.303C186.572 107.933 187.331 115.791 187.331 115.791L190.882 114.067L194.562 118.48Z" fill="#FFB9B9"/>
<path d="M193.79 133.224H170.427V168.519H193.79V133.224Z" fill="white"/>
<path opacity="0.1" d="M193.79 133.224H170.427V168.519H193.79V133.224Z" fill="black"/>
<path d="M204.291 135.135L181.179 131.718L176.017 166.634L199.129 170.051L204.291 135.135Z" fill="white"/>
<path d="M195.251 136.806L183.355 135.048L180.698 153.018L192.594 154.777L195.251 136.806Z" fill="#2B7BE1"/>
<path d="M193.835 160.263L179.422 158.132L178.845 162.035L193.258 164.166L193.835 160.263Z" fill="#2B7BE1"/>
<path opacity="0.1" d="M199.915 44.1733C207.373 44.1733 213.419 38.1273 213.419 30.6692C213.419 23.2111 207.373 17.1651 199.915 17.1651C192.457 17.1651 186.411 23.2111 186.411 30.6692C186.411 38.1273 192.457 44.1733 199.915 44.1733Z" fill="black"/>
<path d="M199.915 43.8505C207.373 43.8505 213.419 37.8045 213.419 30.3464C213.419 22.8882 207.373 16.8422 199.915 16.8422C192.457 16.8422 186.411 22.8882 186.411 30.3464C186.411 37.8045 192.457 43.8505 199.915 43.8505Z" fill="#AE6E79"/>
<path d="M188.78 40.3542C188.688 40.0063 188.722 39.6373 188.874 39.3114C189.387 38.2428 190.85 38.1492 192.034 38.2041C194.82 38.3332 197.878 38.3494 200.057 36.5899C200.961 35.8668 201.971 34.0492 203.285 34.3947C204.454 34.7014 204.941 36.2865 206.158 36.6384C207.04 36.8934 207.953 36.4866 208.851 36.3155C210.142 36.0605 211.466 36.2736 212.776 36.2832C214.087 36.2929 215.511 36.0443 216.405 35.0855C217.613 33.7942 217.416 31.7765 217.309 30.0074C217.177 27.7221 217.332 25.4293 217.771 23.1827C218.21 20.9487 218.884 18.4499 217.651 16.5355C216.476 14.7115 214.042 14.2111 212.379 12.8132C210.823 11.5219 210 9.45255 208.357 8.25484C206.288 6.7472 203.476 6.9635 200.932 7.225L195.411 7.81256C193.988 7.96429 192.506 8.13539 191.334 8.98444C189.219 10.5147 188.929 13.6946 186.927 15.3701C186.036 16.1126 184.897 16.4806 183.88 17.0359C182.863 17.5912 181.881 18.4693 181.765 19.6186C181.668 20.5871 182.191 21.4813 182.446 22.4143C183.05 24.6419 182.107 26.934 181.504 29.1777C180.9 31.4214 180.784 34.1461 182.537 35.6343C182.892 35.9378 183.305 36.1702 183.65 36.4866C184.835 37.5681 184.997 39.3921 184.722 40.9676" fill="#444053"/>
<path d="M201.015 47.2144C201.194 47.2144 201.338 46.8531 201.338 46.4073C201.338 45.9616 201.194 45.6003 201.015 45.6003C200.837 45.6003 200.692 45.9616 200.692 46.4073C200.692 46.8531 200.837 47.2144 201.015 47.2144Z" fill="#444053"/>
<path d="M201.015 50.5783C201.194 50.5783 201.338 50.217 201.338 49.7713C201.338 49.3255 201.194 48.9642 201.015 48.9642C200.837 48.9642 200.692 49.3255 200.692 49.7713C200.692 50.217 200.837 50.5783 201.015 50.5783Z" fill="#444053"/>
<path d="M193.855 120.756C194.2 120.359 194.43 119.339 194.562 117.992L190.714 113.195C190.714 113.195 192.344 122.496 193.855 120.756Z" fill="#AE6E79"/>
<path opacity="0.1" d="M198.194 200.05C198.194 200.05 191.879 209.813 172.151 208.767C153.565 207.798 144.494 198.652 144.926 195.424C145.359 192.196 143.742 184.338 147.722 182.078C150.03 180.771 153.068 181.545 155.212 182.43C155.952 182.731 156.763 182.816 157.55 182.674C158.337 182.533 159.067 182.172 159.657 181.633C161.617 179.867 165.271 177.878 171.04 179.444C171.783 179.642 172.566 179.627 173.3 179.402C175.702 178.669 181.419 177.397 185.568 180.222C186.224 180.674 186.994 180.93 187.79 180.96C188.586 180.99 189.374 180.794 190.062 180.393L190.12 180.357C192.057 179.173 201.096 190.365 201.096 190.365C201.096 190.365 201.529 198.975 198.194 200.05Z" fill="black"/>
<path d="M198.194 200.373C198.194 200.373 191.879 210.136 172.151 209.09C153.565 208.121 144.494 198.975 144.926 195.747C145.359 192.519 143.742 184.661 147.722 182.401C150.03 181.093 153.068 181.868 155.212 182.753C155.952 183.054 156.763 183.138 157.55 182.997C158.337 182.856 159.067 182.495 159.657 181.955C161.617 180.19 165.271 178.201 171.04 179.767C171.783 179.965 172.566 179.95 173.3 179.725C175.702 178.992 181.419 177.72 185.568 180.545C186.224 180.997 186.994 181.253 187.79 181.283C188.586 181.313 189.374 181.116 190.062 180.716L190.12 180.68C192.057 179.495 201.096 190.688 201.096 190.688C201.096 190.688 201.529 199.298 198.194 200.373Z" fill="#767D9F"/>
<path opacity="0.1" d="M172.151 204.195C179.254 204.195 185.012 198.437 185.012 191.334C185.012 184.23 179.254 178.472 172.151 178.472C165.047 178.472 159.289 184.23 159.289 191.334C159.289 198.437 165.047 204.195 172.151 204.195Z" fill="black"/>
<path d="M172.151 204.518C179.254 204.518 185.012 198.76 185.012 191.657C185.012 184.553 179.254 178.795 172.151 178.795C165.047 178.795 159.289 184.553 159.289 191.657C159.289 198.76 165.047 204.518 172.151 204.518Z" fill="#FFB9B9"/>
<path d="M168.464 180.538C167.115 180.903 165.785 181.6 165.126 182.746C164.729 183.437 164.59 184.267 164.016 184.842C163.202 185.658 161.83 185.674 160.729 186.133C159.628 186.591 158.902 188.205 159.98 188.716C158.857 188.774 158.024 189.81 157.885 190.84C157.746 191.87 158.137 192.896 158.515 193.878C159.748 197.054 161.075 200.37 163.793 202.63C168.222 206.316 174.898 206.145 180.848 205.755C181.334 205.771 181.816 205.66 182.246 205.432C182.892 205.006 182.973 204.189 183.079 203.472C183.528 200.412 185.187 197.632 186.272 194.711C187.357 191.789 187.802 188.357 185.975 185.771C183.286 181.936 172.991 179.311 168.464 180.538Z" fill="#B96B6B"/>
<path opacity="0.1" d="M193.532 126.405L193.135 129.456L188.509 130.102C188.509 130.102 188.008 129.03 187.301 127.384L193.458 126.228L193.532 126.405Z" fill="black"/>
<path d="M198.407 193.81L201.1 190.688L200.56 173.471C200.826 172.229 201.006 170.971 201.1 169.704C201.206 167.873 199.753 163.786 199.753 163.786C199.979 162.968 200.285 162.174 200.667 161.417C201.313 160.125 199.757 157.22 199.757 157.22C199.757 157.22 197.439 149.688 198.407 145.921C199.376 142.153 198.171 140.003 198.171 140.003C198.171 140.003 197.226 135.806 197.332 134.086C197.439 132.365 195.179 130.748 195.179 130.748L193.458 126.551L186.572 127.842V142.37C186.572 142.37 187.001 156.251 186.572 158.944C186.143 161.636 187.431 164.216 187.431 164.216C187.431 164.216 186.679 168.196 187.324 169.704C187.97 171.212 189.261 174.869 189.261 174.869C189.021 176.176 189.096 177.522 189.478 178.795C190.123 180.68 189.478 181.755 189.478 181.755L198.407 193.81Z" fill="#767D9F"/>
<g opacity="0.1">
<path opacity="0.1" d="M217.78 22.1206C217.416 24.0103 217.253 25.9332 217.293 27.8573C217.32 26.2574 217.488 24.663 217.793 23.0923C218.077 21.6589 218.439 20.1158 218.361 18.6856C218.242 19.842 218.048 20.9894 217.78 22.1206Z" fill="black"/>
<path opacity="0.1" d="M183.66 35.4471C183.314 35.1243 182.901 34.8983 182.546 34.5916C181.603 33.7878 181.206 32.6223 181.129 31.3633C181.035 32.9774 181.364 34.54 182.546 35.5601C182.901 35.8668 183.314 36.0992 183.66 36.4156C184.382 37.1302 184.801 38.0958 184.828 39.1113C184.922 37.7554 184.648 36.3446 183.66 35.4471Z" fill="black"/>
<path opacity="0.1" d="M182.63 23.3925C182.686 22.7107 182.627 22.0242 182.455 21.3619C182.268 20.671 181.932 19.9963 181.81 19.3022C181.81 19.3765 181.784 19.4539 181.774 19.5347C181.681 20.5032 182.204 21.3974 182.455 22.3304C182.548 22.6779 182.607 23.0336 182.63 23.3925Z" fill="black"/>
<path opacity="0.1" d="M216.415 34.0234C215.52 34.9919 214.097 35.2308 212.786 35.2211C211.475 35.2115 210.148 34.9984 208.86 35.2567C207.963 35.4374 207.049 35.841 206.168 35.5795C204.951 35.2276 204.463 33.6425 203.298 33.3358C201.971 32.9871 200.961 34.8047 200.07 35.5278C197.89 37.2711 194.833 37.255 192.047 37.142C190.862 37.0871 189.4 37.1807 188.89 38.2525C188.734 38.5776 188.701 38.9478 188.796 39.2953L184.851 39.9151C184.836 40.2399 184.801 40.5634 184.745 40.8836L188.796 40.238C188.701 39.8904 188.734 39.5202 188.89 39.1952C189.4 38.1234 190.862 38.0298 192.047 38.0847C194.833 38.2138 197.89 38.2299 200.07 36.4705C200.973 35.7474 201.984 33.9298 203.298 34.2785C204.463 34.5819 204.951 36.1703 206.168 36.5222C207.049 36.774 207.963 36.3704 208.86 36.1993C210.152 35.9411 211.475 36.1541 212.786 36.1638C214.097 36.1735 215.52 35.9249 216.415 34.9661C217.309 34.0073 217.438 32.5771 217.383 31.1825C217.344 32.264 217.122 33.2648 216.415 34.0234Z" fill="black"/>
</g>
<g opacity="0.1">
<path opacity="0.1" d="M186.53 49.5291C186.15 49.3289 185.751 49.1667 185.339 49.0449C184.638 48.7265 184.082 48.1576 183.779 47.4501C184.021 48.5639 184.635 49.5775 185.661 50.0134C186.073 50.1352 186.472 50.2974 186.853 50.4976C187.096 50.6694 187.292 50.8991 187.424 51.1659C187.295 50.5331 187.059 49.8875 186.53 49.5291Z" fill="black"/>
<path opacity="0.1" d="M192.044 57.3837C190.556 57.7614 188.612 57.9583 187.795 56.696C187.821 57.0002 187.909 57.2958 188.054 57.5645C188.751 58.8074 190.456 58.7654 191.905 58.4587L192.044 57.3837Z" fill="black"/>
<path opacity="0.1" d="M198.074 58.2682C198.281 59.5789 197.428 60.8864 196.299 61.574C195.169 62.2617 193.79 62.4521 192.46 62.5425C192.249 62.5699 192.034 62.5455 191.834 62.4715C191.773 62.608 191.754 62.7592 191.778 62.9066C191.801 63.054 191.868 63.1913 191.969 63.3015C192.069 63.4118 192.2 63.4904 192.344 63.5276C192.489 63.5648 192.641 63.559 192.783 63.511C194.113 63.4271 195.482 63.2431 196.621 62.5425C197.761 61.842 198.613 60.5377 198.394 59.2238C198.332 58.8921 198.224 58.5705 198.074 58.2682Z" fill="black"/>
<path opacity="0.1" d="M199.508 46.5817C199.705 47.3666 199.72 48.1861 199.552 48.9778C199.385 49.7695 199.038 50.5123 198.54 51.1498C197.778 52.0731 196.619 52.8124 196.454 53.9972C196.399 54.5419 196.512 55.0904 196.777 55.5694C196.748 55.3692 196.748 55.1658 196.777 54.9657C196.941 53.7809 198.1 53.0286 198.862 52.1183C200.115 50.6042 200.289 48.3734 199.508 46.5817Z" fill="black"/>
</g>
<g opacity="0.1">
<path opacity="0.1" d="M160.732 186.63C161.83 186.175 163.202 186.159 164.019 185.339C164.593 184.764 164.732 183.934 165.129 183.247C165.775 182.097 167.115 181.403 168.464 181.039C172.984 179.812 183.289 182.433 185.975 186.233C186.762 187.383 187.191 188.74 187.208 190.133C187.311 188.524 186.879 186.927 185.978 185.591C183.292 181.791 172.997 179.169 168.467 180.396C167.118 180.761 165.788 181.455 165.132 182.604C164.735 183.292 164.596 184.122 164.022 184.696C163.205 185.513 161.833 185.529 160.735 185.988C159.899 186.333 159.279 187.353 159.505 188.038C159.595 187.728 159.752 187.442 159.964 187.199C160.176 186.956 160.438 186.762 160.732 186.63Z" fill="black"/>
<path opacity="0.1" d="M157.891 191.321C158.027 190.288 158.86 189.255 159.987 189.197C159.868 189.147 159.762 189.072 159.677 188.977C159.592 188.881 159.529 188.768 159.493 188.645C159.064 188.804 158.687 189.077 158.403 189.435C158.118 189.793 157.937 190.222 157.878 190.675C157.848 190.938 157.848 191.203 157.878 191.466C157.891 191.418 157.891 191.369 157.891 191.321Z" fill="black"/>
</g>
<path d="M226.277 74.3292H196.899V112.64H226.277V74.3292Z" fill="white"/>
<path opacity="0.1" d="M226.277 74.3292H196.899V112.64H226.277V74.3292Z" fill="black"/>
<path d="M237.501 76.5768L208.549 81.557L215.043 119.313L243.996 114.333L237.501 76.5768Z" fill="white"/>
<path d="M222.368 106.125L215.566 107.295L217.092 116.166L223.894 114.996L222.368 106.125Z" fill="#2B7BE1"/>
<path d="M231.781 104.504L224.979 105.674L226.505 114.545L233.307 113.375L231.781 104.504Z" fill="#2B7BE1"/>
<path d="M238.433 91.5086L214.578 95.605L216.108 104.516L239.963 100.419L238.433 91.5086Z" fill="#2B7BE1"/>
<path d="M236.445 80.8738L212.589 84.9701L212.931 86.9581L236.786 82.8617L236.445 80.8738Z" fill="#2B7BE1"/>
<path d="M237.227 84.5307L213.372 88.627L213.713 90.615L237.568 86.5186L237.227 84.5307Z" fill="#2B7BE1"/>
<path d="M213.419 63.921C213.419 63.921 199.915 77.48 206.694 80.9247C213.474 84.3693 217.887 69.4641 217.887 69.4641L218.958 66.0743L213.419 63.921Z" fill="#AE6E79"/>
<path opacity="0.1" d="M212.237 62.7233L210.568 66.4101C210.568 66.4101 218.801 67.5658 220.521 70.0549L219.501 63.5498L218.291 60.7734L212.237 62.7233Z" fill="black"/>
<path d="M212.56 62.4005L210.891 66.0872C210.891 66.0872 219.123 67.243 220.844 69.732L219.824 63.2269L218.613 60.4506L212.56 62.4005Z" fill="#4C4981"/>
<path d="M262.392 130.186L262.215 130.309L262.46 130.418L262.725 130.396L262.757 130.212L262.392 130.186Z" fill="#464A5F"/>
<path opacity="0.1" d="M262.392 130.186L262.215 130.309L262.46 130.418L262.725 130.396L262.757 130.212L262.392 130.186Z" fill="black"/>
<path d="M262.393 130.186L262.212 130.302L262.07 130.128L262.157 129.986L262.238 129.96L262.393 130.186Z" fill="#9C9CA1"/>
<path opacity="0.1" d="M262.393 130.186L262.212 130.302L262.07 130.128L262.157 129.986L262.238 129.96L262.393 130.186Z" fill="black"/>
<path d="M294.169 107.875L280.952 88.7857C280.835 88.6153 280.686 88.4697 280.512 88.3572C280.339 88.2446 280.145 88.1674 279.942 88.1299C279.738 88.0925 279.53 88.0954 279.328 88.1387C279.125 88.182 278.934 88.2647 278.764 88.3821L249.302 108.604C248.957 108.841 248.72 109.205 248.644 109.616C248.567 110.027 248.656 110.451 248.892 110.796L262.073 130.128L294.169 107.875Z" fill="#9C9CA1"/>
<path opacity="0.1" d="M294.169 107.875L280.952 88.7857C280.835 88.6153 280.686 88.4697 280.512 88.3572C280.339 88.2446 280.145 88.1674 279.942 88.1299C279.738 88.0925 279.53 88.0954 279.328 88.1387C279.125 88.182 278.934 88.2647 278.764 88.3821L249.302 108.604C248.957 108.841 248.72 109.205 248.644 109.616C248.567 110.027 248.656 110.451 248.892 110.796L262.073 130.128L294.169 107.875Z" fill="black"/>
<path d="M294.492 107.92L281.275 88.8309C281.158 88.6604 281.008 88.5147 280.834 88.4021C280.661 88.2896 280.466 88.2123 280.263 88.1749C280.059 88.1374 279.85 88.1404 279.648 88.1837C279.445 88.227 279.254 88.3098 279.083 88.4273L249.625 108.663C249.28 108.899 249.043 109.263 248.966 109.673C248.888 110.084 248.977 110.509 249.211 110.855L262.393 130.196L294.492 107.92Z" fill="#9C9CA1"/>
<path d="M305.539 111.694L294.563 108.169L262.46 130.422L273.611 134.07C273.861 134.151 274.126 134.172 274.385 134.133C274.645 134.094 274.891 133.995 275.106 133.844L305.63 112.291C305.687 112.259 305.733 112.21 305.762 112.151C305.791 112.092 305.801 112.026 305.791 111.961C305.781 111.896 305.752 111.836 305.707 111.788C305.662 111.741 305.603 111.708 305.539 111.694Z" fill="#464A5F"/>
<path opacity="0.1" d="M305.539 111.694L294.563 108.169L262.46 130.422L273.611 134.07C273.861 134.151 274.126 134.172 274.385 134.133C274.645 134.094 274.891 133.995 275.106 133.844L305.63 112.291C305.687 112.259 305.733 112.21 305.762 112.151C305.791 112.092 305.801 112.026 305.791 111.961C305.781 111.896 305.752 111.836 305.707 111.788C305.662 111.741 305.603 111.708 305.539 111.694Z" fill="black"/>
<path d="M305.472 111.471L294.495 107.943L262.393 130.196L273.543 133.837C273.792 133.92 274.058 133.943 274.317 133.904C274.577 133.865 274.824 133.766 275.038 133.614L305.562 112.062C305.617 112.029 305.661 111.98 305.688 111.922C305.715 111.864 305.725 111.8 305.715 111.736C305.705 111.673 305.677 111.614 305.634 111.567C305.59 111.519 305.534 111.486 305.472 111.471Z" fill="#464A5F"/>
<g opacity="0.1">
<path opacity="0.1" d="M289.307 107.068L288.497 105.906C288.448 105.838 288.375 105.792 288.293 105.777C288.212 105.762 288.127 105.779 288.058 105.825L286.854 106.629C286.786 106.676 286.739 106.748 286.723 106.829C286.707 106.91 286.722 106.995 286.766 107.065L287.512 108.211C287.559 108.279 287.63 108.327 287.711 108.345C287.792 108.362 287.877 108.348 287.948 108.304L289.217 107.507C289.286 107.46 289.334 107.387 289.351 107.306C289.367 107.224 289.352 107.138 289.307 107.068Z" fill="black"/>
<path opacity="0.1" d="M287.144 108.566L286.331 107.407C286.282 107.339 286.209 107.293 286.127 107.278C286.046 107.263 285.961 107.28 285.892 107.326L284.691 108.136C284.623 108.184 284.575 108.255 284.558 108.336C284.542 108.417 284.557 108.502 284.6 108.572L285.346 109.718C285.392 109.787 285.463 109.836 285.545 109.854C285.626 109.872 285.711 109.858 285.782 109.815L287.054 109.018C287.09 108.994 287.121 108.964 287.145 108.928C287.169 108.893 287.186 108.853 287.194 108.811C287.202 108.769 287.202 108.725 287.194 108.683C287.185 108.641 287.168 108.601 287.144 108.566Z" fill="black"/>
<path opacity="0.1" d="M284.871 110.138L284.058 108.979C284.009 108.912 283.936 108.866 283.854 108.85C283.773 108.835 283.688 108.853 283.619 108.898L282.415 109.709C282.346 109.756 282.299 109.829 282.283 109.911C282.266 109.992 282.282 110.077 282.327 110.148L283.073 111.294C283.12 111.362 283.191 111.41 283.272 111.428C283.353 111.445 283.438 111.431 283.509 111.387L284.778 110.59C284.814 110.567 284.845 110.536 284.869 110.501C284.894 110.466 284.911 110.426 284.92 110.384C284.928 110.341 284.929 110.298 284.92 110.256C284.912 110.214 284.895 110.174 284.871 110.138Z" fill="black"/>
<path opacity="0.1" d="M282.569 111.733L281.756 110.571C281.707 110.504 281.635 110.459 281.554 110.444C281.473 110.429 281.389 110.445 281.32 110.49L280.116 111.303C280.048 111.351 280.001 111.423 279.985 111.504C279.969 111.585 279.985 111.669 280.029 111.739L280.774 112.885C280.82 112.954 280.891 113.002 280.971 113.02C281.052 113.038 281.136 113.024 281.207 112.982L282.479 112.181C282.514 112.158 282.545 112.128 282.569 112.092C282.592 112.057 282.609 112.018 282.617 111.976C282.626 111.934 282.626 111.891 282.618 111.849C282.609 111.808 282.593 111.768 282.569 111.733Z" fill="black"/>
<path opacity="0.1" d="M280.271 113.324L279.457 112.165C279.409 112.098 279.336 112.052 279.254 112.037C279.172 112.022 279.088 112.039 279.018 112.085L277.817 112.895C277.749 112.942 277.702 113.014 277.685 113.095C277.668 113.176 277.683 113.26 277.727 113.331L278.473 114.477C278.519 114.546 278.59 114.595 278.671 114.613C278.752 114.631 278.837 114.617 278.908 114.574L280.18 113.773C280.216 113.75 280.246 113.719 280.27 113.684C280.294 113.649 280.311 113.609 280.319 113.567C280.327 113.526 280.327 113.483 280.319 113.441C280.311 113.399 280.294 113.36 280.271 113.324Z" fill="black"/>
<path opacity="0.1" d="M278.073 115.061L277.062 113.621C277.051 113.605 277.038 113.592 277.022 113.581C277.006 113.57 276.988 113.563 276.969 113.559C276.95 113.556 276.93 113.556 276.911 113.56C276.893 113.564 276.875 113.572 276.859 113.583L275.38 114.58C275.364 114.591 275.35 114.604 275.339 114.62C275.328 114.636 275.32 114.654 275.316 114.673C275.313 114.692 275.312 114.711 275.316 114.73C275.32 114.749 275.327 114.767 275.338 114.783L276.265 116.207C276.286 116.24 276.319 116.263 276.357 116.271C276.395 116.28 276.435 116.273 276.468 116.252L278.031 115.284C278.049 115.273 278.066 115.259 278.078 115.241C278.091 115.224 278.099 115.203 278.103 115.182C278.107 115.161 278.107 115.139 278.101 115.118C278.096 115.097 278.086 115.078 278.073 115.061Z" fill="black"/>
<path opacity="0.1" d="M275.774 116.653L274.757 115.213C274.746 115.197 274.732 115.183 274.715 115.172C274.699 115.162 274.681 115.154 274.662 115.151C274.642 115.147 274.623 115.147 274.603 115.151C274.584 115.155 274.566 115.163 274.55 115.174L273.072 116.172C273.04 116.194 273.018 116.228 273.011 116.265C273.004 116.303 273.012 116.343 273.033 116.375L273.959 117.799C273.969 117.816 273.983 117.83 273.998 117.842C274.014 117.853 274.032 117.862 274.051 117.866C274.07 117.87 274.09 117.87 274.109 117.866C274.128 117.863 274.147 117.855 274.163 117.844L275.722 116.875C275.742 116.866 275.76 116.852 275.773 116.835C275.787 116.818 275.797 116.798 275.802 116.777C275.807 116.755 275.807 116.733 275.802 116.711C275.797 116.69 275.788 116.67 275.774 116.653Z" fill="black"/>
<path opacity="0.1" d="M273.737 118.063L272.727 116.637C272.704 116.605 272.67 116.584 272.632 116.578C272.594 116.571 272.555 116.579 272.523 116.601L271.045 117.595C271.012 117.618 270.99 117.652 270.982 117.69C270.974 117.729 270.982 117.769 271.003 117.802L271.929 119.226C271.951 119.258 271.984 119.28 272.022 119.289C272.06 119.297 272.099 119.291 272.133 119.271L273.695 118.302C273.717 118.292 273.735 118.277 273.75 118.258C273.764 118.239 273.774 118.217 273.778 118.194C273.782 118.17 273.781 118.146 273.773 118.124C273.766 118.101 273.754 118.08 273.737 118.063Z" fill="black"/>
<path opacity="0.1" d="M271.458 119.639L270.447 118.199C270.425 118.168 270.391 118.147 270.353 118.14C270.315 118.134 270.276 118.142 270.244 118.164L268.765 119.158C268.749 119.169 268.735 119.183 268.724 119.199C268.713 119.215 268.705 119.233 268.701 119.252C268.697 119.272 268.697 119.291 268.701 119.311C268.705 119.33 268.712 119.348 268.723 119.365L269.65 120.788C269.672 120.82 269.705 120.843 269.743 120.851C269.78 120.86 269.82 120.853 269.853 120.833L271.416 119.865C271.435 119.854 271.451 119.839 271.463 119.821C271.476 119.803 271.484 119.783 271.488 119.762C271.492 119.74 271.492 119.718 271.486 119.697C271.481 119.676 271.471 119.656 271.458 119.639Z" fill="black"/>
<path opacity="0.1" d="M269.249 121.156L268.239 119.716C268.228 119.7 268.214 119.687 268.198 119.676C268.182 119.665 268.164 119.658 268.145 119.654C268.126 119.651 268.107 119.651 268.088 119.655C268.069 119.659 268.051 119.667 268.036 119.678L266.557 120.675C266.541 120.686 266.527 120.699 266.516 120.715C266.505 120.731 266.497 120.749 266.493 120.768C266.489 120.787 266.489 120.807 266.493 120.826C266.497 120.845 266.504 120.863 266.515 120.879L267.442 122.302C267.463 122.335 267.496 122.358 267.534 122.367C267.572 122.375 267.612 122.368 267.645 122.347L269.207 121.379C269.226 121.368 269.242 121.354 269.255 121.336C269.267 121.319 269.276 121.299 269.28 121.277C269.284 121.256 269.283 121.234 269.278 121.213C269.273 121.192 269.263 121.173 269.249 121.156Z" fill="black"/>
<path opacity="0.1" d="M267.041 122.699L266.04 121.256C266.018 121.225 265.984 121.204 265.946 121.197C265.908 121.191 265.869 121.199 265.837 121.221L264.358 122.215C264.342 122.226 264.328 122.24 264.317 122.256C264.306 122.272 264.298 122.29 264.294 122.31C264.291 122.329 264.291 122.349 264.294 122.368C264.298 122.387 264.306 122.405 264.317 122.422L265.243 123.845C265.265 123.877 265.298 123.9 265.336 123.908C265.374 123.917 265.413 123.91 265.446 123.891L267.009 122.922C267.027 122.911 267.042 122.895 267.054 122.877C267.066 122.86 267.073 122.839 267.076 122.818C267.079 122.797 267.078 122.775 267.072 122.755C267.066 122.734 267.055 122.715 267.041 122.699Z" fill="black"/>
<path opacity="0.1" d="M264.833 124.226L263.823 122.787C263.812 122.77 263.798 122.757 263.782 122.746C263.766 122.735 263.748 122.728 263.729 122.725C263.71 122.721 263.691 122.721 263.672 122.725C263.653 122.729 263.635 122.737 263.62 122.748L262.141 123.739C262.125 123.749 262.111 123.763 262.1 123.779C262.089 123.795 262.081 123.813 262.077 123.832C262.073 123.851 262.073 123.87 262.077 123.889C262.081 123.908 262.088 123.926 262.099 123.942L263.026 125.366C263.047 125.399 263.08 125.422 263.118 125.43C263.156 125.439 263.196 125.432 263.229 125.411L264.791 124.443C264.809 124.432 264.825 124.418 264.836 124.401C264.848 124.384 264.856 124.364 264.86 124.344C264.864 124.323 264.864 124.302 264.859 124.282C264.855 124.262 264.846 124.243 264.833 124.226Z" fill="black"/>
<path opacity="0.1" d="M287.854 104.966L287.041 103.804C286.992 103.736 286.919 103.69 286.838 103.675C286.756 103.66 286.671 103.678 286.602 103.723L285.411 104.537C285.342 104.584 285.295 104.655 285.278 104.737C285.261 104.818 285.276 104.902 285.32 104.973L286.066 106.119C286.113 106.187 286.184 106.235 286.265 106.253C286.346 106.27 286.431 106.256 286.502 106.212L287.774 105.415C287.844 105.366 287.892 105.291 287.907 105.207C287.922 105.123 287.903 105.036 287.854 104.966Z" fill="black"/>
<path opacity="0.1" d="M284.675 100.372L283.861 99.2035C283.812 99.137 283.74 99.0916 283.659 99.0766C283.578 99.0616 283.494 99.0781 283.425 99.1228L282.221 99.9331C282.153 99.9803 282.106 100.052 282.089 100.133C282.072 100.214 282.087 100.299 282.131 100.369L282.876 101.515C282.923 101.584 282.994 101.633 283.075 101.651C283.156 101.669 283.241 101.655 283.312 101.612L284.584 100.814C284.654 100.767 284.703 100.694 284.72 100.612C284.736 100.529 284.72 100.443 284.675 100.372Z" fill="black"/>
<path opacity="0.1" d="M285.689 106.464L284.875 105.305C284.826 105.239 284.754 105.193 284.673 105.178C284.592 105.163 284.508 105.18 284.439 105.224L283.235 106.035C283.167 106.082 283.121 106.154 283.104 106.235C283.088 106.316 283.104 106.401 283.148 106.471L283.89 107.617C283.936 107.686 284.008 107.734 284.089 107.753C284.17 107.771 284.255 107.757 284.326 107.713L285.598 106.916C285.634 106.893 285.665 106.862 285.689 106.827C285.713 106.791 285.73 106.751 285.738 106.709C285.747 106.667 285.747 106.624 285.738 106.582C285.73 106.539 285.713 106.5 285.689 106.464Z" fill="black"/>
<path opacity="0.1" d="M283.415 108.036L282.602 106.877C282.553 106.81 282.48 106.764 282.398 106.749C282.317 106.734 282.232 106.751 282.163 106.797L280.962 107.597C280.893 107.644 280.845 107.717 280.828 107.798C280.811 107.88 280.827 107.966 280.871 108.036L281.617 109.182C281.664 109.251 281.735 109.299 281.816 109.316C281.897 109.334 281.982 109.319 282.053 109.276L283.325 108.479C283.395 108.431 283.443 108.359 283.46 108.276C283.477 108.193 283.461 108.107 283.415 108.036Z" fill="black"/>
<path opacity="0.1" d="M281.114 109.631L280.303 108.469C280.255 108.401 280.182 108.355 280.1 108.34C280.018 108.325 279.934 108.342 279.864 108.388L278.66 109.211C278.593 109.259 278.546 109.331 278.53 109.412C278.513 109.493 278.529 109.577 278.573 109.647L279.319 110.793C279.365 110.862 279.437 110.91 279.518 110.927C279.599 110.945 279.684 110.93 279.755 110.887L281.023 110.089C281.06 110.066 281.092 110.035 281.117 109.999C281.141 109.963 281.158 109.922 281.167 109.88C281.175 109.837 281.175 109.793 281.166 109.75C281.157 109.707 281.139 109.667 281.114 109.631Z" fill="black"/>
<path opacity="0.1" d="M282.56 101.944L281.746 100.785C281.698 100.719 281.625 100.673 281.544 100.658C281.463 100.643 281.38 100.66 281.311 100.705L280.106 101.515C280.038 101.562 279.991 101.634 279.974 101.715C279.957 101.796 279.972 101.88 280.016 101.951L280.762 103.097C280.808 103.166 280.879 103.215 280.96 103.233C281.041 103.251 281.126 103.237 281.198 103.194L282.469 102.396C282.505 102.373 282.536 102.343 282.56 102.307C282.584 102.271 282.601 102.231 282.61 102.189C282.618 102.147 282.618 102.104 282.609 102.062C282.601 102.02 282.584 101.98 282.56 101.944Z" fill="black"/>
<path opacity="0.1" d="M280.287 103.52L279.474 102.358C279.425 102.29 279.352 102.244 279.271 102.229C279.189 102.214 279.104 102.231 279.035 102.277L277.834 103.078C277.766 103.125 277.718 103.196 277.702 103.277C277.685 103.358 277.7 103.443 277.743 103.513L278.489 104.659C278.536 104.728 278.607 104.776 278.688 104.794C278.77 104.811 278.854 104.796 278.925 104.753L280.197 103.956C280.265 103.908 280.312 103.837 280.329 103.756C280.346 103.675 280.331 103.59 280.287 103.52Z" fill="black"/>
<path opacity="0.1" d="M277.985 105.111L277.172 103.952C277.124 103.885 277.052 103.839 276.971 103.824C276.89 103.808 276.806 103.824 276.736 103.868L275.532 104.692C275.464 104.739 275.418 104.811 275.401 104.892C275.385 104.973 275.401 105.058 275.445 105.128L276.19 106.274C276.237 106.343 276.308 106.391 276.389 106.409C276.47 106.428 276.555 106.414 276.626 106.37L277.895 105.57C277.932 105.546 277.964 105.516 277.988 105.48C278.013 105.443 278.03 105.403 278.038 105.36C278.047 105.317 278.046 105.273 278.037 105.23C278.028 105.188 278.011 105.147 277.985 105.111Z" fill="black"/>
<path opacity="0.1" d="M278.815 111.223L278.001 110.064C277.953 109.997 277.881 109.951 277.8 109.935C277.719 109.919 277.635 109.935 277.566 109.98L276.371 110.793C276.304 110.841 276.257 110.913 276.241 110.994C276.224 111.075 276.24 111.159 276.284 111.229L277.017 112.375C277.063 112.443 277.133 112.492 277.214 112.51C277.294 112.528 277.379 112.514 277.449 112.472L278.721 111.671C278.757 111.648 278.788 111.618 278.812 111.583C278.836 111.548 278.853 111.508 278.862 111.466C278.87 111.425 278.871 111.382 278.863 111.34C278.855 111.298 278.838 111.258 278.815 111.223Z" fill="black"/>
<path opacity="0.1" d="M276.516 112.814L275.703 111.655C275.654 111.588 275.581 111.542 275.5 111.527C275.418 111.512 275.333 111.529 275.264 111.575L274.063 112.385C273.995 112.432 273.947 112.504 273.931 112.585C273.914 112.666 273.929 112.75 273.972 112.821L274.718 113.967C274.764 114.036 274.836 114.085 274.917 114.103C274.998 114.121 275.083 114.107 275.154 114.064L276.426 113.266C276.462 113.243 276.493 113.212 276.517 113.177C276.541 113.141 276.558 113.101 276.566 113.059C276.575 113.017 276.574 112.974 276.566 112.932C276.557 112.89 276.541 112.85 276.516 112.814Z" fill="black"/>
<path opacity="0.1" d="M274.318 114.551L273.307 113.111C273.297 113.095 273.283 113.081 273.267 113.071C273.251 113.06 273.233 113.053 273.214 113.049C273.195 113.046 273.175 113.046 273.157 113.05C273.138 113.054 273.12 113.062 273.104 113.072L271.625 114.07C271.609 114.08 271.595 114.094 271.584 114.11C271.573 114.126 271.566 114.144 271.562 114.163C271.558 114.182 271.558 114.201 271.561 114.22C271.565 114.239 271.573 114.257 271.583 114.273L272.51 115.697C272.52 115.714 272.534 115.728 272.549 115.739C272.565 115.75 272.583 115.758 272.602 115.763C272.621 115.767 272.641 115.767 272.66 115.764C272.679 115.76 272.697 115.753 272.713 115.742L274.276 114.774C274.295 114.763 274.311 114.749 274.323 114.731C274.336 114.713 274.344 114.693 274.348 114.672C274.352 114.651 274.352 114.629 274.347 114.608C274.341 114.587 274.331 114.568 274.318 114.551Z" fill="black"/>
<path opacity="0.1" d="M272.281 115.962L271.27 114.519C271.248 114.488 271.214 114.466 271.176 114.46C271.138 114.453 271.099 114.462 271.067 114.483L269.592 115.478C269.559 115.5 269.537 115.534 269.529 115.572C269.521 115.611 269.529 115.651 269.55 115.684L270.476 117.108C270.498 117.14 270.531 117.162 270.569 117.171C270.607 117.179 270.646 117.173 270.68 117.153L272.242 116.185C272.262 116.175 272.278 116.16 272.291 116.142C272.304 116.125 272.313 116.104 272.317 116.083C272.32 116.061 272.319 116.039 272.313 116.018C272.307 115.997 272.296 115.978 272.281 115.962Z" fill="black"/>
<path opacity="0.1" d="M270.002 117.537L268.991 116.097C268.969 116.066 268.935 116.045 268.897 116.039C268.859 116.032 268.82 116.04 268.788 116.062L267.309 117.056C267.293 117.067 267.279 117.08 267.268 117.096C267.257 117.112 267.25 117.13 267.246 117.149C267.242 117.168 267.242 117.188 267.245 117.207C267.249 117.226 267.257 117.244 267.267 117.26L268.194 118.687C268.216 118.719 268.249 118.741 268.287 118.75C268.325 118.758 268.364 118.752 268.397 118.732L269.96 117.763C269.979 117.752 269.995 117.737 270.008 117.719C270.02 117.702 270.029 117.681 270.033 117.66C270.037 117.638 270.036 117.616 270.031 117.595C270.025 117.574 270.016 117.554 270.002 117.537Z" fill="black"/>
<path opacity="0.1" d="M267.794 119.067L266.783 117.628C266.773 117.612 266.759 117.598 266.743 117.587C266.727 117.577 266.709 117.569 266.69 117.566C266.671 117.562 266.651 117.562 266.633 117.566C266.614 117.57 266.596 117.578 266.58 117.589L265.101 118.574C265.085 118.584 265.071 118.598 265.06 118.614C265.049 118.629 265.042 118.647 265.038 118.666C265.034 118.685 265.034 118.705 265.037 118.724C265.041 118.743 265.049 118.761 265.059 118.777L265.986 120.201C266.007 120.233 266.04 120.256 266.078 120.265C266.116 120.273 266.156 120.266 266.189 120.246L267.752 119.277C267.769 119.267 267.783 119.253 267.794 119.236C267.806 119.22 267.814 119.201 267.818 119.181C267.821 119.162 267.821 119.142 267.817 119.122C267.813 119.102 267.805 119.084 267.794 119.067Z" fill="black"/>
<path opacity="0.1" d="M281.901 105.851L281.088 104.692C281.039 104.625 280.967 104.58 280.886 104.565C280.805 104.55 280.721 104.566 280.652 104.611L279.448 105.425C279.38 105.472 279.334 105.544 279.317 105.625C279.301 105.706 279.317 105.79 279.361 105.86L280.106 107.006C280.153 107.074 280.224 107.122 280.304 107.139C280.385 107.156 280.469 107.142 280.539 107.1L281.811 106.303C281.847 106.279 281.878 106.249 281.902 106.213C281.926 106.178 281.943 106.138 281.951 106.096C281.959 106.054 281.959 106.01 281.951 105.968C281.942 105.926 281.926 105.886 281.901 105.851Z" fill="black"/>
<path opacity="0.1" d="M279.599 107.445L278.786 106.283C278.737 106.216 278.664 106.17 278.583 106.155C278.501 106.14 278.416 106.157 278.347 106.203L277.146 107.016C277.078 107.063 277.03 107.135 277.014 107.216C276.997 107.297 277.012 107.382 277.055 107.452L277.801 108.598C277.847 108.667 277.919 108.716 278 108.734C278.081 108.752 278.166 108.738 278.237 108.695L279.509 107.894C279.545 107.871 279.575 107.841 279.599 107.805C279.623 107.77 279.639 107.73 279.648 107.689C279.656 107.647 279.656 107.604 279.648 107.562C279.639 107.521 279.623 107.481 279.599 107.445Z" fill="black"/>
<path opacity="0.1" d="M277.304 109.037L276.491 107.878C276.442 107.811 276.369 107.765 276.288 107.75C276.206 107.735 276.121 107.752 276.052 107.797L274.848 108.608C274.78 108.655 274.733 108.727 274.717 108.808C274.701 108.889 274.717 108.974 274.761 109.043L275.506 110.19C275.552 110.259 275.624 110.307 275.705 110.325C275.786 110.344 275.871 110.33 275.942 110.286L277.211 109.486C277.247 109.463 277.277 109.433 277.301 109.397C277.326 109.362 277.342 109.323 277.351 109.281C277.36 109.239 277.36 109.196 277.352 109.154C277.344 109.112 277.328 109.073 277.304 109.037Z" fill="black"/>
<path opacity="0.1" d="M275.003 110.629L274.189 109.47C274.14 109.403 274.068 109.358 273.987 109.343C273.906 109.328 273.822 109.344 273.753 109.389L272.549 110.199C272.481 110.247 272.435 110.319 272.418 110.4C272.402 110.481 272.418 110.565 272.462 110.635L273.208 111.794C273.254 111.862 273.324 111.91 273.405 111.928C273.485 111.946 273.569 111.933 273.64 111.891L274.912 111.094C274.95 111.07 274.982 111.039 275.008 111.002C275.033 110.966 275.05 110.924 275.059 110.881C275.067 110.837 275.067 110.792 275.057 110.749C275.047 110.705 275.029 110.665 275.003 110.629Z" fill="black"/>
<path opacity="0.1" d="M272.82 112.365L271.809 110.926C271.799 110.91 271.785 110.896 271.769 110.885C271.753 110.875 271.735 110.867 271.716 110.864C271.697 110.86 271.678 110.86 271.659 110.864C271.64 110.868 271.622 110.876 271.606 110.887L270.128 111.884C270.095 111.906 270.073 111.94 270.065 111.978C270.057 112.016 270.065 112.055 270.086 112.088L271.012 113.515C271.023 113.531 271.036 113.545 271.052 113.556C271.068 113.567 271.086 113.575 271.105 113.579C271.124 113.582 271.143 113.583 271.162 113.579C271.181 113.575 271.199 113.568 271.215 113.557L272.778 112.588C272.797 112.578 272.813 112.563 272.826 112.545C272.838 112.528 272.847 112.508 272.851 112.487C272.855 112.465 272.854 112.444 272.849 112.423C272.843 112.402 272.834 112.382 272.82 112.365Z" fill="black"/>
<path opacity="0.1" d="M270.77 113.776L269.759 112.333C269.736 112.302 269.702 112.281 269.663 112.274C269.625 112.267 269.585 112.276 269.553 112.298L268.077 113.292C268.045 113.314 268.023 113.348 268.015 113.387C268.007 113.425 268.014 113.465 268.036 113.499L268.962 114.922C268.983 114.955 269.016 114.978 269.054 114.987C269.093 114.995 269.132 114.988 269.165 114.967L270.728 113.999C270.747 113.988 270.763 113.974 270.775 113.956C270.788 113.939 270.797 113.919 270.801 113.897C270.805 113.876 270.804 113.854 270.799 113.833C270.793 113.812 270.784 113.793 270.77 113.776Z" fill="black"/>
<path opacity="0.1" d="M268.491 115.345L267.48 113.902C267.457 113.871 267.423 113.85 267.384 113.843C267.346 113.836 267.306 113.845 267.274 113.867L265.795 114.861C265.763 114.884 265.741 114.918 265.734 114.956C265.726 114.994 265.733 115.034 265.753 115.068L266.683 116.491C266.704 116.524 266.737 116.547 266.775 116.556C266.813 116.564 266.853 116.557 266.886 116.536L268.446 115.568C268.465 115.558 268.482 115.544 268.495 115.526C268.508 115.509 268.518 115.489 268.522 115.467C268.526 115.446 268.526 115.424 268.52 115.403C268.515 115.382 268.505 115.362 268.491 115.345Z" fill="black"/>
<path opacity="0.1" d="M266.283 116.882L265.272 115.442C265.261 115.426 265.247 115.412 265.231 115.401C265.215 115.391 265.196 115.383 265.177 115.38C265.158 115.376 265.138 115.376 265.119 115.38C265.1 115.385 265.082 115.392 265.066 115.403L263.587 116.401C263.556 116.423 263.534 116.457 263.527 116.495C263.519 116.533 263.527 116.572 263.548 116.604L264.475 118.028C264.485 118.045 264.498 118.059 264.514 118.071C264.53 118.083 264.548 118.091 264.567 118.095C264.586 118.099 264.606 118.099 264.625 118.096C264.644 118.092 264.662 118.084 264.678 118.073L266.238 117.105C266.257 117.095 266.274 117.081 266.287 117.063C266.301 117.046 266.31 117.026 266.314 117.004C266.318 116.983 266.318 116.961 266.312 116.939C266.307 116.918 266.297 116.899 266.283 116.882Z" fill="black"/>
<path opacity="0.1" d="M265.585 120.594L264.575 119.155C264.552 119.123 264.518 119.102 264.48 119.096C264.442 119.089 264.403 119.098 264.372 119.119L262.893 120.113C262.877 120.124 262.863 120.138 262.852 120.153C262.841 120.169 262.833 120.187 262.829 120.206C262.825 120.225 262.825 120.245 262.829 120.264C262.833 120.283 262.84 120.301 262.851 120.317L263.777 121.744C263.799 121.776 263.832 121.798 263.87 121.807C263.908 121.815 263.948 121.809 263.981 121.789L265.543 120.82C265.562 120.809 265.578 120.795 265.591 120.777C265.604 120.759 265.612 120.739 265.616 120.717C265.62 120.696 265.619 120.674 265.614 120.652C265.609 120.631 265.599 120.612 265.585 120.594Z" fill="black"/>
<path opacity="0.1" d="M263.377 122.125L262.367 120.685C262.356 120.669 262.342 120.655 262.326 120.645C262.31 120.634 262.292 120.627 262.273 120.623C262.254 120.619 262.235 120.62 262.216 120.624C262.197 120.627 262.179 120.635 262.163 120.646L260.685 121.644C260.669 121.654 260.655 121.668 260.644 121.684C260.633 121.7 260.625 121.718 260.621 121.737C260.617 121.756 260.617 121.775 260.621 121.794C260.625 121.813 260.632 121.831 260.643 121.847L261.569 123.271C261.591 123.303 261.624 123.327 261.662 123.335C261.7 123.343 261.74 123.337 261.773 123.316L263.335 122.347C263.354 122.337 263.37 122.322 263.383 122.305C263.395 122.287 263.404 122.267 263.408 122.246C263.412 122.225 263.411 122.203 263.406 122.182C263.401 122.161 263.391 122.141 263.377 122.125Z" fill="black"/>
<path opacity="0.1" d="M266.844 112.976L265.876 111.62C265.845 111.578 265.8 111.549 265.748 111.54C265.697 111.531 265.644 111.542 265.601 111.571L264.207 112.511C264.185 112.525 264.166 112.544 264.152 112.565C264.137 112.587 264.127 112.611 264.122 112.637C264.117 112.662 264.117 112.688 264.122 112.714C264.127 112.739 264.137 112.764 264.152 112.785L265.023 114.125C265.037 114.147 265.055 114.166 265.076 114.181C265.097 114.196 265.121 114.207 265.146 114.213C265.171 114.219 265.198 114.219 265.223 114.215C265.249 114.21 265.273 114.2 265.295 114.186L266.77 113.26C266.794 113.247 266.816 113.229 266.833 113.207C266.85 113.185 266.862 113.161 266.869 113.134C266.876 113.107 266.877 113.079 266.873 113.052C266.869 113.025 266.859 112.999 266.844 112.976Z" fill="black"/>
<path opacity="0.1" d="M264.636 114.506L263.684 113.15C263.67 113.128 263.651 113.11 263.629 113.096C263.607 113.082 263.583 113.072 263.558 113.067C263.532 113.062 263.506 113.063 263.481 113.068C263.455 113.073 263.431 113.084 263.41 113.098L262.015 114.054C261.993 114.068 261.975 114.086 261.96 114.107C261.946 114.129 261.936 114.153 261.931 114.178C261.925 114.203 261.925 114.229 261.931 114.254C261.936 114.28 261.946 114.304 261.96 114.325L262.832 115.668C262.86 115.711 262.904 115.742 262.955 115.753C263.006 115.765 263.059 115.756 263.103 115.729L264.578 114.803C264.603 114.789 264.625 114.769 264.642 114.746C264.658 114.722 264.67 114.696 264.675 114.668C264.681 114.639 264.68 114.61 264.673 114.582C264.667 114.555 264.654 114.528 264.636 114.506Z" fill="black"/>
<path opacity="0.1" d="M262.428 116.036L261.476 114.677C261.445 114.635 261.4 114.606 261.348 114.597C261.297 114.588 261.244 114.599 261.201 114.629L259.807 115.568C259.785 115.582 259.766 115.601 259.752 115.622C259.737 115.644 259.727 115.668 259.722 115.694C259.717 115.719 259.717 115.746 259.722 115.771C259.727 115.797 259.737 115.821 259.752 115.842L260.623 117.182C260.637 117.204 260.655 117.223 260.676 117.239C260.697 117.254 260.721 117.264 260.746 117.27C260.771 117.276 260.798 117.276 260.823 117.272C260.849 117.267 260.873 117.258 260.895 117.243L262.37 116.317C262.393 116.303 262.413 116.284 262.428 116.262C262.444 116.24 262.454 116.215 262.46 116.189C262.465 116.163 262.465 116.136 262.46 116.109C262.454 116.083 262.444 116.058 262.428 116.036Z" fill="black"/>
<path opacity="0.1" d="M260.249 117.605L259.238 116.162C259.216 116.131 259.182 116.11 259.144 116.103C259.106 116.096 259.067 116.105 259.035 116.126L257.556 117.121C257.524 117.143 257.502 117.177 257.494 117.216C257.486 117.254 257.493 117.294 257.515 117.327L258.441 118.751C258.463 118.783 258.496 118.806 258.534 118.814C258.572 118.823 258.611 118.816 258.644 118.796L260.207 117.828C260.227 117.818 260.244 117.804 260.257 117.786C260.27 117.769 260.279 117.748 260.283 117.727C260.287 117.705 260.286 117.683 260.28 117.662C260.275 117.641 260.264 117.621 260.249 117.605Z" fill="black"/>
<path opacity="0.1" d="M286.379 102.706L285.504 101.463C285.455 101.396 285.382 101.351 285.3 101.337C285.218 101.322 285.134 101.34 285.065 101.386L281.649 103.778C281.583 103.826 281.538 103.898 281.522 103.978C281.506 104.058 281.522 104.141 281.565 104.211L282.389 105.483C282.412 105.518 282.443 105.548 282.478 105.572C282.513 105.595 282.553 105.611 282.595 105.619C282.637 105.627 282.679 105.627 282.721 105.619C282.763 105.61 282.802 105.594 282.837 105.57L286.304 103.145C286.371 103.096 286.416 103.022 286.429 102.941C286.443 102.859 286.425 102.775 286.379 102.706Z" fill="black"/>
<path opacity="0.1" d="M264.068 118.364L262.996 116.85C262.985 116.833 262.971 116.82 262.955 116.809C262.938 116.798 262.92 116.791 262.901 116.788C262.881 116.784 262.862 116.785 262.843 116.79C262.824 116.794 262.806 116.802 262.79 116.814L259.103 119.397C259.072 119.418 259.05 119.451 259.043 119.489C259.035 119.526 259.043 119.565 259.064 119.597L260.072 121.156C260.082 121.173 260.096 121.188 260.113 121.199C260.129 121.21 260.148 121.218 260.168 121.222C260.187 121.226 260.207 121.226 260.227 121.222C260.246 121.218 260.265 121.21 260.281 121.198L264.03 118.574C264.062 118.551 264.085 118.516 264.092 118.477C264.099 118.437 264.091 118.397 264.068 118.364Z" fill="black"/>
<path opacity="0.1" d="M275.796 106.784L274.809 105.337C274.786 105.306 274.753 105.284 274.715 105.277C274.677 105.269 274.637 105.277 274.605 105.299L266.418 110.826C266.386 110.847 266.363 110.881 266.356 110.919C266.348 110.957 266.355 110.996 266.376 111.029L267.387 112.579C267.397 112.595 267.411 112.61 267.428 112.621C267.444 112.632 267.463 112.64 267.483 112.644C267.502 112.648 267.522 112.648 267.542 112.644C267.561 112.64 267.58 112.632 267.596 112.621L275.758 106.99C275.774 106.979 275.788 106.965 275.798 106.949C275.809 106.933 275.816 106.914 275.82 106.895C275.823 106.876 275.823 106.856 275.819 106.837C275.815 106.818 275.807 106.8 275.796 106.784Z" fill="black"/>
</g>
<path d="M289.524 107.106L288.71 105.944C288.661 105.877 288.589 105.831 288.507 105.816C288.425 105.801 288.341 105.818 288.271 105.864L287.07 106.677C287.002 106.724 286.955 106.796 286.938 106.877C286.921 106.958 286.936 107.043 286.98 107.113L287.726 108.259C287.772 108.328 287.843 108.377 287.924 108.395C288.005 108.413 288.09 108.399 288.161 108.356L289.433 107.555C289.469 107.532 289.499 107.502 289.523 107.466C289.547 107.431 289.563 107.391 289.572 107.35C289.58 107.308 289.58 107.265 289.572 107.223C289.564 107.182 289.547 107.142 289.524 107.106Z" fill="#464A5F"/>
<path d="M287.347 108.604L286.534 107.445C286.485 107.379 286.413 107.334 286.332 107.319C286.251 107.304 286.167 107.32 286.098 107.365L284.894 108.175C284.826 108.222 284.778 108.294 284.762 108.375C284.745 108.456 284.76 108.541 284.804 108.611L285.549 109.757C285.595 109.826 285.667 109.875 285.748 109.893C285.829 109.911 285.914 109.897 285.985 109.854L287.257 109.056C287.293 109.033 287.324 109.003 287.348 108.967C287.372 108.931 287.389 108.891 287.397 108.849C287.406 108.807 287.405 108.764 287.397 108.722C287.388 108.68 287.372 108.64 287.347 108.604Z" fill="#464A5F"/>
<path d="M285.088 110.18L284.274 109.021C284.225 108.953 284.153 108.907 284.071 108.892C283.989 108.877 283.905 108.894 283.835 108.94L282.634 109.754C282.566 109.801 282.519 109.872 282.502 109.954C282.485 110.035 282.5 110.119 282.544 110.19L283.29 111.336C283.336 111.404 283.408 111.452 283.489 111.47C283.57 111.487 283.655 111.473 283.725 111.429L284.997 110.632C285.033 110.608 285.064 110.578 285.088 110.542C285.112 110.507 285.129 110.467 285.137 110.425C285.146 110.383 285.146 110.339 285.137 110.297C285.129 110.255 285.112 110.215 285.088 110.18Z" fill="#464A5F"/>
<path d="M282.783 111.771L281.969 110.609C281.921 110.543 281.849 110.497 281.768 110.482C281.687 110.467 281.603 110.484 281.534 110.529L280.329 111.342C280.294 111.366 280.264 111.397 280.24 111.433C280.217 111.468 280.201 111.508 280.193 111.551C280.185 111.593 280.186 111.636 280.195 111.678C280.204 111.719 280.221 111.759 280.245 111.794L280.991 112.94C281.037 113.009 281.109 113.058 281.19 113.076C281.271 113.094 281.356 113.08 281.427 113.037L282.696 112.236C282.733 112.213 282.766 112.181 282.79 112.145C282.815 112.108 282.833 112.067 282.841 112.023C282.849 111.979 282.848 111.934 282.838 111.891C282.828 111.848 282.809 111.807 282.783 111.771Z" fill="#464A5F"/>
<path d="M280.484 113.363L279.671 112.204C279.622 112.137 279.55 112.092 279.469 112.077C279.388 112.062 279.304 112.079 279.235 112.123L278.031 112.934C277.963 112.981 277.917 113.053 277.9 113.134C277.884 113.215 277.9 113.299 277.944 113.369L278.686 114.516C278.732 114.585 278.803 114.633 278.885 114.651C278.966 114.669 279.051 114.655 279.122 114.612L280.394 113.812C280.43 113.788 280.46 113.758 280.484 113.723C280.508 113.687 280.524 113.648 280.532 113.606C280.541 113.564 280.541 113.522 280.533 113.48C280.524 113.438 280.508 113.398 280.484 113.363Z" fill="#464A5F"/>
<path d="M278.286 115.1L277.275 113.66C277.264 113.644 277.251 113.63 277.235 113.62C277.218 113.609 277.2 113.602 277.182 113.598C277.163 113.594 277.143 113.595 277.124 113.599C277.105 113.603 277.088 113.61 277.072 113.621L275.593 114.619C275.577 114.629 275.563 114.643 275.552 114.659C275.541 114.675 275.533 114.693 275.529 114.712C275.525 114.731 275.525 114.75 275.529 114.769C275.533 114.788 275.54 114.806 275.551 114.822L276.478 116.246C276.499 116.279 276.532 116.302 276.57 116.31C276.608 116.319 276.648 116.312 276.681 116.291L278.244 115.323C278.262 115.312 278.279 115.297 278.291 115.28C278.304 115.262 278.312 115.242 278.316 115.221C278.32 115.2 278.32 115.178 278.314 115.157C278.309 115.136 278.299 115.117 278.286 115.1Z" fill="#464A5F"/>
<path d="M275.987 116.691L274.977 115.252C274.966 115.235 274.952 115.222 274.935 115.211C274.919 115.2 274.901 115.193 274.881 115.189C274.862 115.186 274.843 115.186 274.823 115.19C274.804 115.194 274.786 115.202 274.77 115.213L273.295 116.21C273.278 116.221 273.264 116.234 273.254 116.25C273.243 116.266 273.235 116.284 273.231 116.303C273.227 116.322 273.227 116.342 273.231 116.361C273.235 116.38 273.242 116.398 273.253 116.414L274.179 117.841C274.19 117.857 274.203 117.871 274.219 117.882C274.235 117.893 274.253 117.901 274.272 117.904C274.291 117.908 274.311 117.908 274.33 117.905C274.349 117.901 274.367 117.893 274.383 117.883L275.945 116.914C275.964 116.903 275.979 116.888 275.992 116.871C276.004 116.853 276.012 116.833 276.016 116.812C276.02 116.791 276.02 116.77 276.015 116.749C276.01 116.728 276 116.708 275.987 116.691Z" fill="#464A5F"/>
<path d="M273.95 118.102L272.94 116.659C272.917 116.628 272.883 116.607 272.845 116.6C272.807 116.594 272.768 116.602 272.736 116.624L271.258 117.605C271.225 117.627 271.203 117.661 271.195 117.7C271.187 117.738 271.195 117.778 271.216 117.812L272.142 119.235C272.164 119.267 272.197 119.29 272.235 119.298C272.273 119.307 272.312 119.3 272.346 119.281L273.908 118.312C273.925 118.301 273.939 118.287 273.951 118.271C273.962 118.254 273.97 118.236 273.974 118.216C273.978 118.196 273.978 118.176 273.974 118.157C273.969 118.137 273.961 118.119 273.95 118.102Z" fill="#464A5F"/>
<path d="M271.671 119.681L270.661 118.251C270.638 118.22 270.604 118.198 270.566 118.192C270.528 118.185 270.489 118.194 270.457 118.215L268.979 119.21C268.962 119.22 268.948 119.234 268.937 119.25C268.926 119.267 268.918 119.285 268.915 119.304C268.911 119.323 268.911 119.343 268.914 119.362C268.918 119.382 268.926 119.4 268.937 119.416L269.863 120.84C269.885 120.872 269.918 120.894 269.956 120.903C269.994 120.911 270.033 120.905 270.067 120.885L271.629 119.917C271.65 119.906 271.668 119.891 271.682 119.873C271.696 119.854 271.706 119.832 271.71 119.809C271.714 119.786 271.712 119.763 271.706 119.74C271.699 119.718 271.687 119.698 271.671 119.681Z" fill="#464A5F"/>
<path d="M269.463 121.208L268.452 119.768C268.442 119.752 268.428 119.738 268.412 119.728C268.396 119.717 268.378 119.71 268.359 119.706C268.34 119.702 268.32 119.703 268.302 119.707C268.283 119.711 268.265 119.718 268.249 119.729L266.77 120.727C266.754 120.737 266.74 120.751 266.729 120.767C266.718 120.783 266.711 120.801 266.707 120.82C266.703 120.839 266.703 120.858 266.706 120.877C266.71 120.896 266.718 120.914 266.728 120.93L267.655 122.354C267.665 122.37 267.679 122.385 267.694 122.396C267.71 122.407 267.728 122.415 267.747 122.419C267.766 122.424 267.786 122.424 267.805 122.421C267.824 122.417 267.842 122.41 267.858 122.399L269.421 121.431C269.44 121.42 269.456 121.405 269.468 121.388C269.481 121.37 269.489 121.35 269.493 121.329C269.497 121.308 269.497 121.286 269.491 121.265C269.486 121.244 269.476 121.225 269.463 121.208Z" fill="#464A5F"/>
<path d="M267.254 122.738L266.244 121.295C266.221 121.264 266.187 121.243 266.149 121.236C266.111 121.23 266.072 121.238 266.04 121.26L264.562 122.254C264.529 122.276 264.507 122.31 264.499 122.349C264.491 122.387 264.499 122.427 264.52 122.46L265.446 123.884C265.468 123.916 265.501 123.939 265.539 123.947C265.577 123.956 265.617 123.949 265.65 123.929L267.212 122.961C267.231 122.95 267.247 122.936 267.26 122.918C267.272 122.9 267.281 122.88 267.285 122.859C267.289 122.838 267.288 122.816 267.283 122.795C267.278 122.774 267.268 122.755 267.254 122.738Z" fill="#464A5F"/>
<path d="M265.046 124.265L264.036 122.825C264.025 122.809 264.011 122.796 263.995 122.785C263.979 122.774 263.961 122.767 263.942 122.763C263.923 122.76 263.904 122.76 263.885 122.764C263.866 122.768 263.848 122.776 263.832 122.787L262.354 123.784C262.338 123.795 262.324 123.808 262.313 123.824C262.302 123.84 262.294 123.858 262.29 123.877C262.286 123.896 262.286 123.915 262.29 123.934C262.294 123.953 262.301 123.971 262.312 123.987L263.238 125.411C263.249 125.428 263.262 125.442 263.278 125.453C263.294 125.465 263.312 125.473 263.331 125.477C263.35 125.481 263.369 125.481 263.388 125.478C263.407 125.474 263.426 125.467 263.442 125.456L265.004 124.488C265.023 124.477 265.039 124.463 265.052 124.445C265.064 124.427 265.073 124.407 265.077 124.386C265.081 124.365 265.08 124.343 265.075 124.322C265.07 124.301 265.06 124.282 265.046 124.265Z" fill="#464A5F"/>
<path d="M288.068 105.015L287.254 103.852C287.206 103.786 287.133 103.74 287.052 103.725C286.971 103.71 286.888 103.727 286.818 103.772L285.614 104.585C285.547 104.633 285.5 104.705 285.484 104.786C285.468 104.867 285.483 104.951 285.527 105.021L286.27 106.167C286.316 106.236 286.387 106.285 286.468 106.303C286.549 106.321 286.634 106.307 286.705 106.264L287.977 105.463C288.013 105.44 288.043 105.41 288.067 105.374C288.091 105.339 288.108 105.299 288.116 105.258C288.124 105.216 288.124 105.173 288.116 105.131C288.108 105.09 288.091 105.05 288.068 105.015Z" fill="#464A5F"/>
<path d="M284.888 100.411L284.074 99.2519C284.026 99.1854 283.953 99.14 283.872 99.125C283.791 99.11 283.708 99.1265 283.638 99.1712L282.434 99.9815C282.367 100.029 282.32 100.101 282.304 100.182C282.287 100.263 282.303 100.347 282.347 100.417L283.093 101.563C283.139 101.632 283.209 101.68 283.29 101.698C283.37 101.716 283.454 101.702 283.525 101.66L284.797 100.863C284.833 100.839 284.864 100.809 284.888 100.773C284.912 100.738 284.929 100.698 284.937 100.656C284.946 100.614 284.946 100.57 284.937 100.528C284.929 100.486 284.912 100.446 284.888 100.411Z" fill="#464A5F"/>
<path d="M285.901 106.503L285.088 105.337C285.039 105.271 284.967 105.225 284.886 105.21C284.805 105.195 284.721 105.212 284.652 105.257L283.448 106.067C283.38 106.115 283.334 106.186 283.317 106.267C283.301 106.349 283.317 106.433 283.361 106.503L284.106 107.649C284.153 107.717 284.223 107.765 284.303 107.783C284.384 107.801 284.468 107.788 284.539 107.746L285.811 106.948C285.882 106.901 285.931 106.828 285.948 106.744C285.965 106.661 285.948 106.574 285.901 106.503Z" fill="#464A5F"/>
<path d="M283.629 108.075L282.828 106.916C282.779 106.849 282.707 106.804 282.626 106.789C282.545 106.774 282.461 106.791 282.392 106.835L281.188 107.646C281.12 107.693 281.072 107.766 281.056 107.848C281.04 107.929 281.056 108.014 281.101 108.085L281.843 109.231C281.89 109.299 281.961 109.347 282.043 109.365C282.124 109.382 282.208 109.368 282.279 109.324L283.551 108.527C283.586 108.502 283.616 108.471 283.639 108.435C283.661 108.399 283.677 108.359 283.684 108.317C283.691 108.275 283.69 108.232 283.681 108.191C283.671 108.149 283.653 108.11 283.629 108.075Z" fill="#464A5F"/>
<path d="M281.33 109.67L280.517 108.508C280.468 108.44 280.395 108.394 280.313 108.379C280.232 108.364 280.147 108.381 280.078 108.427L278.877 109.24C278.809 109.288 278.761 109.359 278.745 109.44C278.728 109.521 278.743 109.606 278.786 109.676L279.532 110.822C279.578 110.891 279.649 110.94 279.731 110.958C279.812 110.976 279.897 110.962 279.968 110.919L281.24 110.119C281.275 110.095 281.306 110.065 281.33 110.03C281.353 109.994 281.37 109.955 281.378 109.913C281.387 109.871 281.387 109.828 281.379 109.787C281.37 109.745 281.354 109.705 281.33 109.67Z" fill="#464A5F"/>
<path d="M282.773 101.983L281.959 100.818C281.911 100.751 281.839 100.706 281.758 100.691C281.676 100.676 281.593 100.692 281.524 100.737L280.319 101.547C280.252 101.595 280.205 101.667 280.189 101.748C280.173 101.829 280.188 101.913 280.232 101.983L280.978 103.129C281.024 103.198 281.095 103.246 281.175 103.264C281.255 103.282 281.34 103.268 281.411 103.226L282.683 102.429C282.753 102.381 282.802 102.308 282.819 102.224C282.836 102.141 282.82 102.054 282.773 101.983Z" fill="#464A5F"/>
<path d="M280.5 103.559L279.687 102.396C279.638 102.33 279.566 102.284 279.485 102.269C279.404 102.254 279.32 102.271 279.251 102.316L278.047 103.129C277.979 103.176 277.931 103.248 277.914 103.329C277.898 103.41 277.913 103.495 277.956 103.565L278.702 104.711C278.748 104.78 278.819 104.829 278.901 104.847C278.982 104.865 279.067 104.851 279.138 104.808L280.41 104.007C280.445 103.984 280.476 103.954 280.5 103.918C280.523 103.883 280.54 103.843 280.548 103.802C280.557 103.76 280.557 103.717 280.549 103.675C280.54 103.634 280.524 103.594 280.5 103.559Z" fill="#464A5F"/>
<path d="M278.202 105.15L277.388 103.991C277.34 103.924 277.267 103.878 277.185 103.863C277.103 103.848 277.019 103.865 276.949 103.91L275.748 104.721C275.68 104.768 275.633 104.839 275.616 104.921C275.599 105.002 275.614 105.086 275.658 105.157L276.404 106.306C276.45 106.375 276.521 106.424 276.602 106.442C276.683 106.46 276.768 106.446 276.84 106.403L278.108 105.602C278.145 105.579 278.176 105.549 278.2 105.513C278.224 105.478 278.241 105.438 278.25 105.396C278.259 105.354 278.259 105.31 278.251 105.268C278.243 105.226 278.226 105.186 278.202 105.15Z" fill="#464A5F"/>
<path d="M279.028 111.261L278.215 110.102C278.166 110.036 278.094 109.99 278.013 109.975C277.932 109.96 277.848 109.977 277.779 110.022L276.575 110.826C276.507 110.873 276.46 110.945 276.444 111.026C276.428 111.107 276.444 111.191 276.488 111.261L277.233 112.407C277.279 112.476 277.35 112.524 277.43 112.542C277.511 112.56 277.595 112.546 277.666 112.504L278.938 111.704C279.008 111.656 279.056 111.584 279.073 111.501C279.09 111.418 279.074 111.332 279.028 111.261Z" fill="#464A5F"/>
<path d="M276.73 112.853L275.916 111.694C275.868 111.627 275.795 111.582 275.714 111.567C275.633 111.552 275.55 111.569 275.48 111.613L274.276 112.44C274.208 112.487 274.161 112.558 274.144 112.64C274.127 112.721 274.142 112.805 274.186 112.876L274.932 114.022C274.978 114.091 275.049 114.139 275.13 114.157C275.211 114.176 275.296 114.162 275.367 114.118L276.639 113.321C276.678 113.298 276.711 113.266 276.736 113.23C276.762 113.193 276.779 113.151 276.788 113.107C276.796 113.063 276.796 113.018 276.786 112.974C276.776 112.93 276.757 112.889 276.73 112.853Z" fill="#464A5F"/>
<path d="M274.531 114.59L273.521 113.15C273.51 113.134 273.496 113.12 273.48 113.11C273.464 113.099 273.446 113.092 273.427 113.088C273.408 113.084 273.389 113.085 273.37 113.089C273.351 113.093 273.333 113.1 273.318 113.111L271.852 114.109C271.836 114.119 271.822 114.133 271.811 114.149C271.8 114.165 271.792 114.183 271.788 114.202C271.784 114.221 271.784 114.24 271.788 114.259C271.792 114.278 271.799 114.296 271.81 114.312L272.736 115.736C272.747 115.752 272.76 115.767 272.776 115.778C272.792 115.789 272.81 115.797 272.829 115.801C272.848 115.806 272.867 115.806 272.886 115.802C272.905 115.799 272.924 115.792 272.94 115.781L274.502 114.813C274.52 114.8 274.534 114.785 274.545 114.767C274.556 114.749 274.563 114.729 274.566 114.708C274.569 114.687 274.567 114.665 274.561 114.645C274.555 114.625 274.545 114.606 274.531 114.59Z" fill="#464A5F"/>
<path d="M272.498 115.991L271.487 114.548C271.464 114.516 271.429 114.495 271.391 114.489C271.352 114.482 271.313 114.491 271.281 114.512L269.802 115.507C269.77 115.529 269.748 115.563 269.74 115.602C269.733 115.64 269.74 115.68 269.76 115.713L270.69 117.137C270.711 117.17 270.744 117.193 270.782 117.201C270.82 117.21 270.86 117.203 270.893 117.182L272.452 116.214C272.472 116.204 272.489 116.189 272.502 116.172C272.515 116.155 272.524 116.135 272.529 116.113C272.533 116.092 272.532 116.07 272.527 116.048C272.522 116.027 272.512 116.008 272.498 115.991Z" fill="#464A5F"/>
<path d="M270.215 117.579L269.204 116.136C269.182 116.105 269.148 116.084 269.11 116.077C269.072 116.071 269.033 116.079 269.001 116.101L267.522 117.095C267.49 117.117 267.467 117.151 267.46 117.19C267.452 117.228 267.459 117.268 267.48 117.302L268.407 118.725C268.429 118.757 268.462 118.78 268.5 118.788C268.537 118.797 268.577 118.79 268.61 118.77L270.173 117.802C270.192 117.792 270.21 117.778 270.223 117.76C270.236 117.743 270.245 117.723 270.249 117.701C270.253 117.679 270.252 117.657 270.246 117.636C270.24 117.615 270.23 117.595 270.215 117.579Z" fill="#464A5F"/>
<path d="M268.01 119.106L267.009 117.666C266.999 117.65 266.985 117.637 266.969 117.626C266.953 117.615 266.935 117.608 266.916 117.604C266.897 117.601 266.877 117.601 266.858 117.605C266.84 117.609 266.822 117.617 266.806 117.628L265.327 118.625C265.295 118.647 265.273 118.68 265.265 118.718C265.257 118.756 265.264 118.796 265.285 118.829L266.212 120.252C266.233 120.285 266.266 120.308 266.304 120.317C266.342 120.325 266.382 120.318 266.415 120.297L267.978 119.329C267.996 119.318 268.012 119.303 268.024 119.285C268.036 119.267 268.044 119.247 268.047 119.225C268.05 119.204 268.048 119.182 268.042 119.162C268.035 119.141 268.025 119.122 268.01 119.106Z" fill="#464A5F"/>
<path d="M282.115 105.893L281.304 104.73C281.256 104.663 281.183 104.617 281.101 104.602C281.019 104.587 280.935 104.604 280.865 104.65L279.661 105.463C279.594 105.511 279.547 105.583 279.531 105.664C279.514 105.745 279.53 105.829 279.574 105.899L280.32 107.045C280.366 107.114 280.438 107.162 280.519 107.179C280.6 107.197 280.685 107.182 280.756 107.139L282.024 106.341C282.06 106.318 282.09 106.288 282.114 106.252C282.138 106.217 282.154 106.178 282.163 106.136C282.171 106.094 282.171 106.051 282.163 106.009C282.155 105.968 282.138 105.928 282.115 105.893Z" fill="#464A5F"/>
<path d="M279.816 107.484L279.002 106.325C278.954 106.258 278.882 106.212 278.801 106.197C278.72 106.181 278.636 106.197 278.567 106.241L277.362 107.055C277.295 107.103 277.248 107.174 277.232 107.255C277.216 107.336 277.231 107.421 277.275 107.491L278.021 108.637C278.067 108.705 278.138 108.753 278.218 108.771C278.298 108.789 278.383 108.776 278.454 108.734L279.725 107.933C279.761 107.91 279.791 107.879 279.815 107.844C279.839 107.809 279.856 107.769 279.864 107.727C279.872 107.686 279.872 107.643 279.864 107.601C279.856 107.559 279.84 107.52 279.816 107.484Z" fill="#464A5F"/>
<path d="M277.517 109.076L276.694 107.92C276.645 107.853 276.573 107.807 276.491 107.792C276.409 107.777 276.325 107.794 276.255 107.839L275.08 108.646C275.012 108.694 274.964 108.765 274.948 108.846C274.931 108.927 274.946 109.012 274.99 109.082L275.735 110.228C275.782 110.297 275.853 110.346 275.934 110.364C276.015 110.382 276.1 110.368 276.171 110.325L277.443 109.528C277.478 109.503 277.507 109.472 277.53 109.436C277.552 109.399 277.567 109.359 277.574 109.317C277.581 109.275 277.58 109.232 277.57 109.191C277.56 109.149 277.542 109.11 277.517 109.076Z" fill="#464A5F"/>
<path d="M275.215 110.667L274.402 109.508C274.353 109.442 274.281 109.396 274.2 109.381C274.119 109.366 274.035 109.383 273.966 109.428L272.762 110.238C272.694 110.286 272.647 110.357 272.631 110.438C272.615 110.52 272.631 110.604 272.675 110.674L273.42 111.82C273.466 111.888 273.537 111.936 273.617 111.954C273.698 111.972 273.782 111.959 273.853 111.917L275.125 111.119C275.161 111.096 275.192 111.065 275.216 111.03C275.24 110.994 275.257 110.954 275.265 110.912C275.273 110.87 275.273 110.827 275.265 110.785C275.256 110.743 275.239 110.703 275.215 110.667Z" fill="#464A5F"/>
<path d="M273.02 112.404L272.01 110.964C271.999 110.948 271.985 110.934 271.969 110.924C271.952 110.913 271.934 110.906 271.915 110.902C271.896 110.899 271.876 110.899 271.857 110.903C271.838 110.907 271.819 110.915 271.803 110.926L270.325 111.923C270.293 111.945 270.27 111.978 270.262 112.016C270.254 112.054 270.262 112.094 270.283 112.127L271.209 113.553C271.22 113.57 271.234 113.584 271.25 113.595C271.266 113.606 271.285 113.614 271.304 113.617C271.323 113.621 271.343 113.621 271.362 113.618C271.381 113.614 271.4 113.606 271.416 113.595L272.975 112.627C272.994 112.617 273.011 112.602 273.024 112.585C273.037 112.567 273.045 112.547 273.05 112.526C273.054 112.505 273.054 112.483 273.049 112.462C273.044 112.441 273.034 112.421 273.02 112.404Z" fill="#464A5F"/>
<path d="M270.983 113.815L269.972 112.375C269.962 112.359 269.948 112.345 269.932 112.335C269.916 112.324 269.898 112.317 269.879 112.313C269.86 112.31 269.84 112.31 269.822 112.314C269.803 112.318 269.785 112.325 269.769 112.336L268.3 113.331C268.268 113.353 268.245 113.387 268.237 113.426C268.23 113.464 268.237 113.504 268.258 113.537L269.185 114.961C269.206 114.993 269.24 115.016 269.277 115.024C269.315 115.032 269.355 115.026 269.388 115.006L270.951 114.038C270.969 114.026 270.984 114.011 270.996 113.993C271.007 113.975 271.015 113.955 271.018 113.934C271.021 113.913 271.019 113.891 271.013 113.871C271.007 113.85 270.997 113.831 270.983 113.815Z" fill="#464A5F"/>
<path d="M268.704 115.394L267.694 113.951C267.67 113.919 267.636 113.898 267.597 113.891C267.559 113.885 267.519 113.893 267.487 113.915L266.012 114.909C265.979 114.932 265.957 114.966 265.949 115.004C265.941 115.043 265.948 115.083 265.97 115.116L266.896 116.54C266.917 116.572 266.951 116.595 266.989 116.604C267.027 116.612 267.066 116.606 267.1 116.585L268.662 115.616C268.681 115.606 268.697 115.591 268.71 115.574C268.722 115.556 268.731 115.536 268.735 115.515C268.739 115.494 268.738 115.472 268.733 115.451C268.727 115.43 268.718 115.41 268.704 115.394Z" fill="#464A5F"/>
<path d="M266.496 116.921L265.486 115.481C265.475 115.465 265.46 115.451 265.444 115.44C265.428 115.43 265.409 115.422 265.39 115.419C265.371 115.415 265.351 115.415 265.332 115.419C265.313 115.423 265.295 115.431 265.279 115.442L263.804 116.44C263.787 116.45 263.773 116.464 263.762 116.48C263.751 116.496 263.744 116.514 263.74 116.532C263.736 116.551 263.736 116.571 263.74 116.59C263.743 116.609 263.751 116.627 263.762 116.643L264.688 118.07C264.699 118.086 264.712 118.1 264.728 118.111C264.744 118.122 264.762 118.13 264.781 118.134C264.8 118.138 264.819 118.138 264.838 118.134C264.857 118.13 264.875 118.123 264.892 118.112L266.454 117.143C266.472 117.132 266.488 117.118 266.5 117.1C266.513 117.082 266.521 117.062 266.525 117.041C266.529 117.02 266.528 116.999 266.523 116.978C266.518 116.957 266.509 116.938 266.496 116.921Z" fill="#464A5F"/>
<path d="M265.802 120.636L264.792 119.193C264.768 119.162 264.734 119.141 264.695 119.134C264.657 119.128 264.617 119.136 264.585 119.158L263.106 120.152C263.074 120.174 263.051 120.208 263.044 120.247C263.036 120.286 263.043 120.326 263.064 120.359L263.991 121.782C264.013 121.815 264.046 121.837 264.084 121.845C264.121 121.854 264.161 121.848 264.194 121.828L265.757 120.859C265.776 120.849 265.793 120.835 265.806 120.818C265.82 120.8 265.829 120.78 265.833 120.759C265.837 120.737 265.837 120.715 265.831 120.694C265.826 120.673 265.816 120.653 265.802 120.636Z" fill="#464A5F"/>
<path d="M263.594 122.163L262.583 120.724C262.572 120.707 262.558 120.694 262.542 120.683C262.525 120.672 262.507 120.665 262.488 120.661C262.469 120.658 262.449 120.658 262.43 120.662C262.411 120.666 262.393 120.674 262.377 120.685L260.898 121.682C260.866 121.704 260.843 121.738 260.836 121.776C260.828 121.814 260.835 121.853 260.856 121.886L261.783 123.31C261.793 123.326 261.807 123.341 261.823 123.352C261.839 123.363 261.857 123.371 261.876 123.375C261.896 123.38 261.916 123.38 261.935 123.376C261.954 123.373 261.973 123.365 261.989 123.355L263.548 122.386C263.568 122.376 263.585 122.362 263.598 122.345C263.611 122.327 263.62 122.307 263.625 122.286C263.629 122.264 263.629 122.242 263.623 122.221C263.618 122.2 263.608 122.18 263.594 122.163Z" fill="#464A5F"/>
<path d="M267.058 113.018L266.105 111.658C266.075 111.616 266.029 111.588 265.978 111.579C265.927 111.57 265.874 111.581 265.831 111.61L264.427 112.549C264.383 112.579 264.353 112.624 264.343 112.675C264.333 112.727 264.343 112.78 264.372 112.824L265.243 114.167C265.272 114.211 265.317 114.241 265.369 114.252C265.42 114.263 265.474 114.253 265.518 114.225L266.99 113.298C267.014 113.285 267.034 113.267 267.051 113.246C267.067 113.224 267.079 113.199 267.085 113.173C267.091 113.146 267.092 113.119 267.088 113.092C267.083 113.066 267.073 113.04 267.058 113.018Z" fill="#464A5F"/>
<path d="M264.85 114.545L263.897 113.189C263.883 113.167 263.864 113.149 263.842 113.135C263.82 113.12 263.796 113.111 263.771 113.106C263.745 113.101 263.719 113.101 263.694 113.107C263.668 113.112 263.644 113.122 263.623 113.137L262.228 114.08C262.185 114.109 262.155 114.153 262.145 114.204C262.135 114.255 262.145 114.308 262.173 114.351L263.045 115.694C263.074 115.737 263.119 115.768 263.17 115.78C263.221 115.791 263.274 115.782 263.319 115.755L264.795 114.829C264.817 114.814 264.836 114.795 264.851 114.772C264.866 114.75 264.876 114.725 264.881 114.698C264.887 114.672 264.886 114.645 264.881 114.618C264.875 114.592 264.865 114.567 264.85 114.545Z" fill="#464A5F"/>
<path d="M262.641 116.075L261.673 114.716C261.643 114.674 261.598 114.645 261.547 114.636C261.496 114.627 261.444 114.638 261.402 114.667L260.004 115.607C259.961 115.636 259.931 115.681 259.92 115.733C259.91 115.784 259.92 115.837 259.949 115.881L260.821 117.224C260.85 117.268 260.895 117.298 260.946 117.309C260.997 117.32 261.051 117.31 261.095 117.282L262.57 116.356C262.594 116.343 262.615 116.325 262.632 116.303C262.649 116.282 262.661 116.257 262.667 116.231C262.674 116.204 262.675 116.177 262.671 116.15C262.666 116.123 262.656 116.098 262.641 116.075Z" fill="#464A5F"/>
<path d="M260.465 117.647L259.455 116.204C259.432 116.173 259.397 116.151 259.359 116.145C259.32 116.138 259.281 116.147 259.248 116.168L257.77 117.163C257.738 117.186 257.716 117.22 257.709 117.258C257.701 117.297 257.709 117.337 257.731 117.369L258.657 118.793C258.679 118.826 258.712 118.849 258.75 118.857C258.788 118.866 258.828 118.859 258.861 118.838L260.423 117.87C260.442 117.859 260.458 117.845 260.471 117.827C260.483 117.809 260.492 117.789 260.496 117.768C260.5 117.747 260.499 117.725 260.494 117.704C260.489 117.683 260.479 117.664 260.465 117.647Z" fill="#464A5F"/>
<path d="M286.596 102.755L285.734 101.509C285.685 101.442 285.611 101.396 285.53 101.382C285.448 101.367 285.364 101.385 285.295 101.431L281.86 103.823C281.794 103.871 281.748 103.943 281.732 104.023C281.717 104.103 281.732 104.187 281.776 104.256L282.602 105.528C282.626 105.563 282.656 105.593 282.692 105.617C282.727 105.64 282.767 105.656 282.809 105.665C282.85 105.673 282.893 105.672 282.935 105.664C282.976 105.655 283.016 105.639 283.051 105.615L286.515 103.191C286.582 103.142 286.627 103.07 286.642 102.989C286.657 102.908 286.64 102.824 286.596 102.755Z" fill="#464A5F"/>
<path d="M264.281 118.402L263.209 116.888C263.198 116.872 263.184 116.858 263.168 116.848C263.151 116.837 263.133 116.83 263.113 116.827C263.094 116.823 263.074 116.824 263.055 116.828C263.036 116.833 263.018 116.841 263.002 116.853L259.316 119.436C259.284 119.458 259.262 119.491 259.255 119.529C259.248 119.567 259.256 119.607 259.277 119.639L260.287 121.195C260.298 121.212 260.312 121.226 260.329 121.238C260.345 121.249 260.364 121.257 260.383 121.261C260.403 121.264 260.423 121.264 260.443 121.26C260.462 121.256 260.481 121.248 260.497 121.237L264.245 118.612C264.278 118.589 264.299 118.554 264.306 118.515C264.313 118.475 264.304 118.435 264.281 118.402Z" fill="#464A5F"/>
<path d="M276.01 106.822L275.041 105.386C275.019 105.353 274.985 105.331 274.946 105.323C274.908 105.315 274.868 105.323 274.835 105.344L266.651 110.864C266.634 110.875 266.62 110.888 266.61 110.904C266.599 110.92 266.591 110.938 266.587 110.957C266.583 110.976 266.583 110.996 266.587 111.015C266.59 111.034 266.598 111.052 266.609 111.068L267.616 112.617C267.627 112.634 267.641 112.649 267.657 112.66C267.674 112.671 267.692 112.679 267.712 112.683C267.732 112.687 267.752 112.687 267.771 112.683C267.791 112.679 267.809 112.671 267.826 112.659L275.987 107.029C276.017 107.004 276.036 106.969 276.041 106.93C276.045 106.892 276.034 106.853 276.01 106.822Z" fill="#464A5F"/>
<path opacity="0.1" d="M276.048 101.89L271.697 95.5652C271.576 95.3895 271.391 95.2684 271.182 95.2285C270.973 95.1886 270.756 95.233 270.58 95.3521L258.593 103.4C258.504 103.46 258.429 103.537 258.37 103.626C258.311 103.715 258.271 103.814 258.251 103.919C258.231 104.023 258.232 104.131 258.253 104.235C258.275 104.34 258.317 104.439 258.376 104.527L262.812 111.032C262.872 111.121 262.948 111.196 263.037 111.255C263.127 111.313 263.226 111.354 263.331 111.374C263.436 111.393 263.544 111.392 263.648 111.37C263.752 111.348 263.851 111.306 263.939 111.245L275.842 103.01C275.929 102.95 276.004 102.873 276.061 102.785C276.119 102.696 276.159 102.597 276.178 102.493C276.197 102.388 276.195 102.282 276.173 102.178C276.151 102.075 276.109 101.977 276.048 101.89Z" fill="black"/>
<path d="M276.249 101.928L271.897 95.6039C271.776 95.4289 271.591 95.3084 271.382 95.2686C271.173 95.2287 270.957 95.2726 270.78 95.3909L258.809 103.446C258.72 103.505 258.644 103.581 258.585 103.67C258.526 103.759 258.485 103.858 258.464 103.963C258.444 104.068 258.444 104.176 258.466 104.28C258.487 104.385 258.529 104.484 258.59 104.572L263.012 111.071C263.072 111.159 263.149 111.235 263.238 111.294C263.327 111.352 263.427 111.392 263.531 111.412C263.636 111.432 263.744 111.431 263.848 111.409C263.952 111.387 264.051 111.344 264.139 111.284L276.048 103.048C276.135 102.988 276.209 102.911 276.266 102.822C276.323 102.733 276.362 102.634 276.381 102.53C276.399 102.426 276.397 102.319 276.375 102.216C276.352 102.113 276.309 102.015 276.249 101.928Z" fill="#939498"/>
<path d="M303.234 112.149L294.001 109.069L264.388 129.64L273.553 132.626C273.8 132.707 274.063 132.729 274.32 132.691C274.577 132.653 274.822 132.556 275.035 132.407L303.318 112.74C303.373 112.707 303.417 112.659 303.445 112.602C303.473 112.544 303.483 112.48 303.474 112.416C303.465 112.353 303.437 112.294 303.395 112.246C303.352 112.199 303.296 112.165 303.234 112.149Z" fill="#2B7BE1"/>
</g>
<defs>
<clipPath id="clip0">
<rect width="350" height="244.892" fill="white"/>
</clipPath>
</defs>
</svg>
