<svg width="50" height="50" viewBox="0 0 50 50" fill="none" xmlns="http://www.w3.org/2000/svg">
<path d="M32.7191 41.7877L23.4997 38.435L17.3451 41.7877L14.2441 45.8427L25.0321 48.7331L35.8197 45.8427L32.7191 41.7877Z" fill="#0B4DA1"/>
<path d="M43.53 47.9214C43.53 49.0692 42.5996 50 41.4518 50H8.61183C8.03848 50 7.51778 49.7673 7.14241 49.3908C6.7659 49.0154 6.5332 48.4947 6.5332 47.9214C6.5332 46.7735 7.46399 45.8427 8.61183 45.8427H41.4518C42.0263 45.8427 42.5455 46.0754 42.9212 46.452C43.2977 46.8277 43.53 47.348 43.53 47.9214Z" fill="#0B4DA1"/>
<path d="M43.5304 47.9214C43.5304 49.0692 42.6 50 41.4522 50H13.6621C13.0876 50 12.5685 49.7673 12.1927 49.3908C11.8162 49.0154 11.5835 48.4947 11.5835 47.9214C11.5835 46.7735 12.5143 45.8427 13.6621 45.8427H41.4522C42.0267 45.8427 42.5459 46.0754 42.9216 46.452C43.2981 46.8277 43.5304 47.348 43.5304 47.9214Z" fill="#2B7BE1"/>
<path d="M43.6375 3.06129H6.42624C3.74031 3.06129 1.5625 5.23872 1.5625 7.92503V36.924C1.5625 39.6103 3.74031 41.7877 6.42624 41.7877H43.6375C46.3238 41.7877 48.5016 39.6103 48.5016 36.924V7.92503C48.5016 5.23872 46.3238 3.06129 43.6375 3.06129Z" fill="#2B7BE1"/>
<path d="M6.42616 35.561C5.32906 35.561 4.43604 34.668 4.43604 33.5709V7.92503C4.43604 6.82793 5.32906 5.93491 6.42616 5.93491H43.6374C44.7349 5.93491 45.6275 6.82793 45.6275 7.92503V33.5709C45.6275 34.6684 44.7349 35.561 43.6374 35.561H6.42616Z" fill="#87B9F9"/>
<path d="M32.4883 9.56955H35.5496V17.5358H32.4883V9.56955Z" fill="#24465E"/>
<path d="M41.2692 20.3564V35.5606H8.79541V26.2074C8.79541 24.6189 10.0833 23.3299 11.6721 23.3299H17.1526V20.3564C17.1526 17.9974 19.065 16.0851 21.4232 16.0851H36.9975C39.3569 16.0851 41.2692 17.9974 41.2692 20.3564Z" fill="#E6E6E6"/>
<path d="M27.8604 0H40.1769C41.6223 0 42.7942 1.17149 42.7942 2.61688V8.4034C42.7942 9.84879 41.6223 11.0207 40.1769 11.0207H27.8604C26.415 11.0207 25.2432 9.84879 25.2432 8.4034V2.61688C25.2432 1.17149 26.415 0 27.8604 0Z" fill="#75B2CC"/>
<path d="M39.325 5.01366H29.3248C28.9025 5.01366 28.5596 4.6711 28.5596 4.24843C28.5596 3.82576 28.9025 3.4832 29.3248 3.4832H39.325C39.7477 3.4832 40.0906 3.82576 40.0906 4.24843C40.0906 4.6711 39.7477 5.01366 39.325 5.01366Z" fill="#E6E6E6"/>
<path d="M32.9984 7.53746H29.3248C28.9025 7.53746 28.5596 7.19452 28.5596 6.77223C28.5596 6.34956 28.9025 6.00662 29.3248 6.00662H32.9984C33.421 6.00662 33.7636 6.34956 33.7636 6.77223C33.7636 7.19452 33.421 7.53746 32.9984 7.53746Z" fill="#E6E6E6"/>
<path d="M20.0396 20.7539C20.0396 19.4576 21.0901 18.4071 22.3864 18.4071H36.4565C37.7527 18.4071 38.8033 19.4576 38.8033 20.7539C38.8033 22.0501 37.7527 23.1007 36.4565 23.1007H22.3864C21.0901 23.1007 20.0396 22.0501 20.0396 20.7539Z" fill="#75B2CC"/>
<path d="M21.8175 27.2739H12.1236C11.701 27.2739 11.3584 26.931 11.3584 26.5087C11.3584 26.086 11.701 25.7431 12.1236 25.7431H21.8175C22.2402 25.7431 22.5828 26.086 22.5828 26.5087C22.5828 26.931 22.2402 27.2739 21.8175 27.2739Z" fill="#152F42"/>
<path d="M26.5627 27.2739H24.42C23.9973 27.2739 23.6548 26.931 23.6548 26.5087C23.6548 26.086 23.9973 25.7431 24.42 25.7431H26.5627C26.9854 25.7431 27.328 26.086 27.328 26.5087C27.328 26.931 26.9854 27.2739 26.5627 27.2739Z" fill="#24465E"/>
<path d="M31.6115 27.2739H29.4684C29.0457 27.2739 28.7031 26.931 28.7031 26.5087C28.7031 26.086 29.0457 25.7431 29.4684 25.7431H31.6115C32.0341 25.7431 32.3767 26.086 32.3767 26.5087C32.3767 26.931 32.0341 27.2739 31.6115 27.2739Z" fill="#24465E"/>
<path d="M36.6603 27.2739H34.5172C34.0945 27.2739 33.752 26.931 33.752 26.5087C33.752 26.086 34.0945 25.7431 34.5172 25.7431H36.6603C37.0829 25.7431 37.4255 26.086 37.4255 26.5087C37.4255 26.931 37.0829 27.2739 36.6603 27.2739Z" fill="#24465E"/>
<path d="M26.5627 33.2371H24.42C23.9973 33.2371 23.6548 32.8945 23.6548 32.4718C23.6548 32.0492 23.9973 31.7062 24.42 31.7062H26.5627C26.9854 31.7062 27.328 32.0492 27.328 32.4718C27.328 32.8945 26.9854 33.2371 26.5627 33.2371Z" fill="#24465E"/>
<path d="M31.6115 33.2371H29.4684C29.0457 33.2371 28.7031 32.8945 28.7031 32.4718C28.7031 32.0492 29.0457 31.7062 29.4684 31.7062H31.6115C32.0341 31.7062 32.3767 32.0492 32.3767 32.4718C32.3767 32.8945 32.0341 33.2371 31.6115 33.2371Z" fill="#24465E"/>
<path d="M36.6603 33.2371H34.5172C34.0945 33.2371 33.752 32.8945 33.752 32.4718C33.752 32.0492 34.0945 31.7062 34.5172 31.7062H36.6603C37.0829 31.7062 37.4255 32.0492 37.4255 32.4718C37.4255 32.8945 37.0829 33.2371 36.6603 33.2371Z" fill="#24465E"/>
<path d="M26.5627 30.2555H24.42C23.9973 30.2555 23.6548 29.9126 23.6548 29.4899C23.6548 29.0672 23.9973 28.7247 24.42 28.7247H26.5627C26.9854 28.7247 27.328 29.0672 27.328 29.4899C27.328 29.9126 26.9854 30.2555 26.5627 30.2555Z" fill="#24465E"/>
<path d="M31.6115 30.2555H29.4684C29.0457 30.2555 28.7031 29.9126 28.7031 29.4899C28.7031 29.0672 29.0457 28.7247 29.4684 28.7247H31.6115C32.0341 28.7247 32.3767 29.0672 32.3767 29.4899C32.3767 29.9126 32.0341 30.2555 31.6115 30.2555Z" fill="#24465E"/>
<path d="M36.6603 30.2555H34.5172C34.0945 30.2555 33.752 29.9126 33.752 29.4899C33.752 29.0672 34.0945 28.7247 34.5172 28.7247H36.6603C37.0829 28.7247 37.4255 29.0672 37.4255 29.4899C37.4255 29.9126 37.0829 30.2555 36.6603 30.2555Z" fill="#24465E"/>
<path d="M13.0933 26.5087H20.8485V32.7328H13.0933V26.5087Z" fill="white"/>
</svg>
