<svg width="75" height="75" viewBox="0 0 75 75" fill="none" xmlns="http://www.w3.org/2000/svg">
<g clip-path="url(#clip0)">
<path d="M20.0215 33.6288C17.8633 33.6624 16.6191 35.8015 16.6191 38.6355C16.6191 41.4919 17.9079 43.5165 20.0431 43.538C22.2235 43.561 23.4841 41.4133 23.4841 38.5294C23.4841 35.8644 22.246 33.5936 20.0215 33.6288Z" fill="#2B7BE1"/>
<path d="M73.5693 11.0855C73.5693 8.43029 71.409 6.26898 68.7528 6.26898H46.0464C45.9463 6.26898 45.8475 6.27866 45.748 6.28478V0L1.43066 5.91449V68.9322L45.748 74.9999V68.5251C45.8475 68.5319 45.9456 68.5398 46.0464 68.5398H68.7528C71.409 68.5398 73.5693 66.3782 73.5693 63.7233V11.0855ZM45.748 47.8298C45.8011 47.8628 45.8602 47.8869 45.9268 47.8869H63.5875C63.7776 47.8869 63.9316 47.7323 63.9316 47.5429C63.9316 47.3521 63.7776 47.1988 63.5875 47.1988H45.9269C45.8604 47.1988 45.8013 47.223 45.7481 47.2559V43.8155C45.8013 43.8485 45.8604 43.8726 45.9269 43.8726H63.5877C63.7778 43.8726 63.9317 43.7195 63.9317 43.5287C63.9317 43.3392 63.7778 43.1847 63.5877 43.1847H45.9269C45.8604 43.1847 45.8013 43.2088 45.7481 43.2418V39.1133C45.8013 39.1463 45.8604 39.1704 45.9269 39.1704H63.5877C63.7778 39.1704 63.9317 39.0173 63.9317 38.8264C63.9317 38.637 63.7778 38.4825 63.5877 38.4825H45.9269C45.8604 38.4825 45.8013 38.5066 45.7481 38.5394V35.1005C45.8013 35.1339 45.8604 35.1576 45.9269 35.1576H63.5877C63.7778 35.1576 63.9317 35.0027 63.9317 34.8135C63.9317 34.623 63.7778 34.4695 63.5877 34.4695H45.9269C45.8604 34.4695 45.8013 34.4936 45.7481 34.5266V31.201H66.9709V51.8432H45.748V47.8298ZM12.89 45.8227L4.54279 45.6883V31.5686L7.53195 31.5031V43.0341L12.89 43.0811V45.8227ZM19.8732 46.1774C15.7131 46.1068 13.3193 42.8285 13.3193 38.7101C13.3193 34.378 15.9613 31.0787 20.1056 30.985C24.5156 30.8853 26.9672 34.2749 26.9672 38.407C26.9666 43.319 24.0634 46.2486 19.8732 46.1774ZM30.581 44.2275C29.2083 42.9144 28.4583 40.9449 28.4808 38.7369C28.501 33.7408 32.1201 30.8036 37.1361 30.6901C39.1429 30.6461 40.7039 31.0002 41.476 31.3519L40.7234 34.1758C39.8606 33.8186 38.7935 33.5384 37.0868 33.5647C34.1914 33.6099 32.0314 35.2623 32.0314 38.5495C32.0314 41.6781 33.9891 43.5421 36.8341 43.5701C37.6442 43.5782 38.2856 43.4936 38.565 43.3585V40.1312L36.1723 40.1298V37.4218L41.8563 37.389V45.6215C40.7261 45.969 38.7424 46.4045 36.7687 46.3721C33.9649 46.324 31.9631 45.5922 30.581 44.2275ZM70.817 63.7233C70.817 64.8609 69.8909 65.7875 68.7528 65.7875H46.0464C45.945 65.7875 45.8462 65.7727 45.748 65.7579V53.9061H66.6261C67.7664 53.9061 68.6904 52.983 68.6904 51.8419V25.0071C68.6904 23.8678 67.7664 22.9429 66.6261 22.9429H64.6767V26.2691C64.6767 26.8711 64.189 27.359 63.5875 27.359C62.9855 27.359 62.4983 26.8711 62.4983 26.2691V22.9429H59.058V26.2691C59.058 26.8711 58.5701 27.359 57.9687 27.359C57.3666 27.359 56.8795 26.8711 56.8795 26.2691V22.9429H52.6362V26.2691C52.6362 26.8711 52.1483 27.359 51.5469 27.359C50.9448 27.359 50.4577 26.8711 50.4577 26.2691V22.9429H47.0174V26.2691C47.0174 26.8711 46.5296 27.359 45.9282 27.359C45.867 27.359 45.8079 27.351 45.7494 27.3412V22.9429H47.0174V22.5988C47.0174 21.9982 46.5296 21.5103 45.9282 21.5103C45.867 21.5103 45.8079 21.5187 45.7494 21.5281V9.05223C45.8476 9.0377 45.9456 9.02126 46.0478 9.02126H68.7542C69.8924 9.02126 70.8183 9.94761 70.8183 11.0855V63.7234L70.817 63.7233Z" fill="#2B7BE1"/>
<path d="M51.5462 21.5103C50.9442 21.5103 50.457 21.9982 50.457 22.5988V22.9429H52.6362V22.5988C52.6354 21.9982 52.1476 21.5103 51.5462 21.5103Z" fill="#2B7BE1"/>
<path d="M57.9677 21.5103C57.3655 21.5103 56.8784 21.9982 56.8784 22.5988V22.9429H59.0577V22.5988C59.0568 21.9982 58.569 21.5103 57.9677 21.5103Z" fill="#2B7BE1"/>
<path d="M63.5872 21.5103C62.9852 21.5103 62.498 21.9982 62.498 22.5988V22.9429H64.6772V22.5988C64.6764 21.9982 64.1887 21.5103 63.5872 21.5103Z" fill="#2B7BE1"/>
</g>
<defs>
<clipPath id="clip0">
<rect width="75" height="74.9999" fill="white"/>
</clipPath>
</defs>
</svg>
