<svg width="36" height="35" viewBox="0 0 36 35" fill="none" xmlns="http://www.w3.org/2000/svg">
<path d="M27.5227 2.84282C23.0777 0.291262 19.8977 -0.677964 15.073 0.491862C11.4089 1.38027 9.27712 1.02307 6.51374 4.06367C3.29465 7.60571 1.35424 9.15079 1.03204 14.3977C0.603841 21.3706 2.25795 27.1261 6.51366 31.8628C10.0637 35.8141 15.2971 34.799 20.1213 34.9665C25.9817 35.1701 29.5169 34.5852 33.3776 29.253C36.9136 24.3693 36.0514 18.9378 35.268 12.5178C34.4216 5.58144 32.7631 5.85095 27.5227 2.84282Z" fill="#BBBBBB" fill-opacity="0.2"/>
<g clip-path="url(#clip0)">
<path d="M32.1475 13.6228C32.1448 13.5928 32.1389 13.5631 32.1298 13.5343C32.1238 13.5087 32.1156 13.4836 32.1051 13.4594C32.093 13.4357 32.0785 13.4134 32.0619 13.3927C32.0452 13.3681 32.0259 13.3455 32.0043 13.3251C31.9974 13.3191 31.9944 13.3107 31.987 13.3047L27.8259 10.0501V6.67711C27.8259 5.95518 27.2448 5.36989 26.5279 5.36989H21.8389L19.9614 3.90188C19.4976 3.53759 18.8473 3.53759 18.3835 3.90188L16.5056 5.36989H11.8166C11.0997 5.36989 10.5186 5.95513 10.5186 6.67711V10.0502L6.35877 13.3047C6.35142 13.3108 6.34837 13.3191 6.34148 13.3252C6.31993 13.3455 6.30061 13.3682 6.28393 13.3927C6.2673 13.4134 6.2528 13.4357 6.24068 13.4594C6.23018 13.4836 6.22197 13.5087 6.21603 13.5344C6.20701 13.5627 6.20108 13.5919 6.19829 13.6216C6.19829 13.6307 6.19312 13.6386 6.19312 13.6477V28.4641C6.19372 28.7412 6.28276 29.0109 6.4471 29.2331C6.44968 29.2371 6.45014 29.2419 6.45313 29.2453C6.45617 29.2488 6.46266 29.2527 6.46697 29.2575C6.71005 29.5797 7.08811 29.7696 7.48984 29.7713H30.8547C31.258 29.7701 31.6376 29.5792 31.881 29.2554C31.8845 29.2511 31.8897 29.2497 31.8927 29.2454C31.8957 29.2411 31.8961 29.2371 31.8988 29.2332C32.0631 29.0109 32.1521 28.7412 32.1528 28.4641V13.6489C32.1527 13.6398 32.148 13.6319 32.1475 13.6228ZM18.9126 4.58944C19.0637 4.46853 19.2777 4.46853 19.4288 4.58944L20.427 5.36984H17.9174L18.9126 4.58944ZM7.59886 28.8998L18.9127 20.0495C19.0639 19.9288 19.2777 19.9288 19.4288 20.0495L30.7456 28.8998H7.59886ZM31.2874 28.2205L19.9614 19.3619C19.4975 18.9979 18.8474 18.9979 18.3835 19.3619L7.05713 28.2205V14.3126L14.1475 19.8574C14.3364 20.0049 14.6083 19.9703 14.7548 19.78C14.9013 19.5897 14.8669 19.3159 14.678 19.1684L7.47468 13.5356L10.5186 11.1534V14.5204C10.5186 14.761 10.7123 14.9561 10.9513 14.9561C11.1902 14.9561 11.3839 14.761 11.3839 14.5204V6.67706C11.3839 6.4364 11.5776 6.24134 11.8166 6.24134H26.5278C26.7668 6.24134 26.9605 6.4364 26.9605 6.67706V14.5204C26.9605 14.761 27.1542 14.9561 27.3931 14.9561C27.6321 14.9561 27.8258 14.761 27.8258 14.5204V11.1534L30.8697 13.5356L23.6539 19.1785C23.5298 19.2732 23.4657 19.4278 23.4863 19.5833C23.5069 19.7388 23.6089 19.8711 23.7533 19.9298C23.8978 19.9885 24.0624 19.9645 24.1844 19.8669L31.2873 14.3126V28.2205H31.2874Z" fill="#323438"/>
<path d="M24.3643 14.0846V12.3417C24.3643 9.45384 22.0397 7.11279 19.1722 7.11279C16.3046 7.11279 13.98 9.45384 13.98 12.3417C13.98 15.2295 16.3046 17.5706 19.1722 17.5706C19.4111 17.5706 19.6048 17.3755 19.6048 17.1348C19.6048 16.8942 19.4111 16.6991 19.1722 16.6991C16.7825 16.6991 14.8454 14.7482 14.8454 12.3417C14.8454 9.93521 16.7825 7.98434 19.1722 7.98434C21.5618 7.98434 23.499 9.93521 23.499 12.3417V14.0847C23.499 14.566 23.1115 14.9562 22.6336 14.9562C22.1556 14.9562 21.7682 14.566 21.7682 14.0847V12.3417C21.7682 12.1011 21.5745 11.906 21.3355 11.906C21.0966 11.906 20.9029 12.1011 20.9029 12.3417C20.9029 13.3043 20.128 14.0847 19.1722 14.0847C18.2163 14.0847 17.4415 13.3043 17.4415 12.3417C17.4415 11.3791 18.2163 10.5988 19.1722 10.5988C19.4111 10.5988 19.6048 10.4037 19.6048 10.1631C19.6048 9.9224 19.4111 9.72733 19.1722 9.72733C18.0103 9.72473 16.9881 10.4999 16.6697 11.6253C16.3512 12.7506 16.814 13.952 17.8028 14.5665C18.7915 15.1811 20.0653 15.0593 20.9215 14.2682C21.0157 15.1897 21.811 15.8748 22.7296 15.8259C23.6482 15.7769 24.3672 15.011 24.3643 14.0846Z" fill="#323438"/>
</g>
<defs>
<clipPath id="clip0">
<rect width="25.9596" height="26.1431" fill="white" transform="translate(6.19312 3.62842)"/>
</clipPath>
</defs>
</svg>
