<svg width="50" height="50" viewBox="0 0 50 50" fill="none" xmlns="http://www.w3.org/2000/svg">
<path d="M25 50C38.8071 50 50 38.8071 50 25C50 11.1929 38.8071 0 25 0C11.1929 0 0 11.1929 0 25C0 38.8071 11.1929 50 25 50Z" fill="#87B9F9"/>
<path d="M31.6534 43.7624C31.4752 43.7624 31.2969 43.7228 31.1286 43.6238L15.3563 34.9307C15.0098 34.7327 14.792 34.3663 14.792 33.9604C14.8019 33.5544 15.0197 33.198 15.3762 33.0099L31.495 24.6436L19.6633 18.4752C19.1286 18.198 18.9207 17.5445 19.1979 17.0099C19.4752 16.4752 20.1286 16.2673 20.6633 16.5445L34.3464 23.6832C34.7029 23.8713 34.9306 24.2475 34.9306 24.6535C34.9306 25.0594 34.7029 25.4356 34.3464 25.6139L18.1781 34.0099L32.1682 41.7228C32.693 42.0099 32.891 42.6733 32.594 43.198C32.4059 43.5643 32.0296 43.7624 31.6534 43.7624Z" fill="white"/>
<path d="M20.4253 6.23761C18.059 6.23761 16.1382 8.1485 16.1382 10.5247C16.1382 12.8911 20.4253 17.5346 20.4253 17.5346C20.4253 17.5346 24.7124 12.8911 24.7124 10.5247C24.7124 8.1485 22.7916 6.23761 20.4253 6.23761ZM20.4253 12.4158C19.3758 12.4158 18.5243 11.5643 18.5243 10.5148C18.5243 9.46533 19.3758 8.61385 20.4253 8.61385C21.4748 8.61385 22.3263 9.46533 22.3263 10.5148C22.3263 11.5643 21.4748 12.4158 20.4253 12.4158Z" fill="#FF7058"/>
<path d="M33.851 11.5544C31.1183 11.5544 28.8906 13.7722 28.8906 16.5148C28.8906 19.2574 33.851 24.6336 33.851 24.6336C33.851 24.6336 38.8114 19.2574 38.8114 16.5148C38.8114 13.7722 36.5936 11.5544 33.851 11.5544ZM33.851 18.7128C32.6332 18.7128 31.653 17.7326 31.653 16.5148C31.653 15.297 32.6332 14.3168 33.851 14.3168C35.0688 14.3168 36.049 15.297 36.049 16.5148C36.049 17.7326 35.0688 18.7128 33.851 18.7128Z" fill="#FF7058"/>
<path d="M16.1382 21.1881C13.4154 21.1881 11.2075 23.396 11.2075 26.1188C11.2075 28.8416 16.1382 34.1881 16.1382 34.1881C16.1382 34.1881 21.0689 28.8416 21.0689 26.1188C21.0788 23.3861 18.8709 21.1881 16.1382 21.1881ZM16.1382 28.297C14.9303 28.297 13.9501 27.3168 13.9501 26.1089C13.9501 24.901 14.9303 23.9208 16.1382 23.9208C17.3461 23.9208 18.3263 24.901 18.3263 26.1089C18.3263 27.3267 17.3461 28.297 16.1382 28.297Z" fill="#FF7058"/>
<path d="M31.7123 28.9406C28.841 28.9406 26.5044 31.2673 26.5044 34.1485C26.5044 37.0297 31.7123 42.6733 31.7123 42.6733C31.7123 42.6733 36.9202 37.0297 36.9202 34.1485C36.9202 31.2772 34.5935 28.9406 31.7123 28.9406ZM31.7123 36.4653C30.4351 36.4653 29.4054 35.4356 29.4054 34.1584C29.4054 32.8812 30.4351 31.8515 31.7123 31.8515C32.9895 31.8515 34.0192 32.8812 34.0192 34.1584C34.0192 35.4257 32.9895 36.4653 31.7123 36.4653Z" fill="#FF7058"/>
</svg>
