<svg width="350" height="294" viewBox="0 0 350 294" fill="none" xmlns="http://www.w3.org/2000/svg">
<path d="M227.947 63.324C187.141 52.5231 185.602 -5.7456 143.666 0.46151C108.217 5.7083 109.289 41.3298 82.6349 63.324C59.5527 82.3709 35.8474 82.9984 18.6978 106.708C-14.349 152.396 -1.12363 205.068 39.0412 245.714C77.8505 284.988 124.773 275.23 182.416 280.244C235.98 284.903 284.577 310.195 319.977 273.161C347.117 244.769 332.249 215.184 334.509 177.539C337.373 129.834 371.788 81.0662 327.727 55.3555C294.759 36.1173 265.518 73.2688 227.947 63.324Z" fill="#87B9F9" fill-opacity="0.2"/>
<g clip-path="url(#clip0)">
<path d="M154.157 0H0V208.191H154.157V0Z" fill="url(#paint0_linear)"/>
<path d="M151.376 3.1785H9.13818V204.218H151.376V3.1785Z" fill="white"/>
<path d="M9.13809 3.1785H2.38379V204.218H9.13809V3.1785Z" fill="#F5F5F5"/>
<path d="M127.934 152.17H32.5796V154.554H127.934V152.17Z" fill="#E0E0E0"/>
<path opacity="0.4" d="M127.934 161.309H32.5796V163.693H127.934V161.309Z" fill="#69F0AE"/>
<path opacity="0.4" d="M127.934 170.447H32.5796V172.831H127.934V170.447Z" fill="#FFFF00"/>
<path d="M127.934 179.585H32.5796V181.969H127.934V179.585Z" fill="#E0E0E0"/>
<path d="M127.934 188.723H32.5796V191.107H127.934V188.723Z" fill="#E0E0E0"/>
<path d="M64.1857 35.5793C64.2255 35.1383 64.2493 34.6933 64.2493 34.2443C64.2492 32.86 64.0553 31.4826 63.6732 30.152L61.9449 30.2355L61.1503 28.0582L62.2667 26.8385C61.3515 25.2513 60.153 23.8454 58.7306 22.6905L57.3679 23.7474L55.4687 22.4203L55.6872 20.7794C54.03 19.9995 52.2421 19.5347 50.4149 19.4087L49.9024 21.0576H47.586L46.8232 19.5875C44.154 20.0511 41.6628 21.237 39.6199 23.0163L40.4146 24.542L38.7776 26.1789L37.1884 25.6823C36.13 27.1775 35.3581 28.8561 34.9118 30.6328L36.4534 31.4274L36.056 33.708L34.4668 34.2046C34.4668 34.2046 34.4668 34.2285 34.4668 34.2404C34.4663 36.0608 34.8017 37.8656 35.4561 39.5644L37.1725 39.3299L38.1499 41.4277L37.1447 42.7389C38.1926 44.2416 39.5068 45.5397 41.0225 46.569L42.2899 45.377L44.2963 46.5372L44.2248 48.1979C45.8661 48.8014 47.6013 49.1094 49.3501 49.1078H49.6004L49.9659 47.4192L52.2743 47.2166L53.1643 48.6151C54.9346 48.1443 56.6023 47.3495 58.083 46.271L57.4155 44.6817L59.1915 43.1918L60.7172 43.8235C61.9004 42.4245 62.815 40.8189 63.4149 39.0876L61.9528 38.1658L62.5528 35.9289L64.1857 35.5793ZM49.366 45.385C47.1657 45.385 45.0149 44.7325 43.1854 43.5101C41.356 42.2877 39.9301 40.5503 39.0881 38.5175C38.2461 36.4847 38.0258 34.2479 38.455 32.0899C38.8843 29.9319 39.9438 27.9497 41.4996 26.3939C43.0554 24.838 45.0377 23.7785 47.1957 23.3493C49.3537 22.92 51.5905 23.1403 53.6232 23.9823C55.656 24.8243 57.3935 26.2502 58.6159 28.0797C59.8383 29.9091 60.4907 32.06 60.4907 34.2602C60.4834 37.2084 59.309 40.0338 57.2243 42.1185C55.1396 44.2032 52.3142 45.3776 49.366 45.385Z" fill="#2B7BE1"/>
<path opacity="0.6" d="M82.4621 62.9938C82.5018 62.5528 82.5257 62.1078 82.5257 61.6588C82.5255 60.2745 82.3316 58.8971 81.9496 57.5665L80.2213 57.65L79.4266 55.4727L80.5431 54.2529C79.6278 52.6658 78.4293 51.2599 77.007 50.105L75.6442 51.1619L73.7451 49.8348L73.9636 48.1939C72.3064 47.414 70.5185 46.9492 68.6913 46.8232L68.1787 48.4721H65.8624L65.0996 47.002C62.4304 47.4656 59.9392 48.6514 57.8963 50.4308L58.6909 51.9565L57.054 53.5934L55.4648 53.0968C54.4064 54.592 53.6344 56.2706 53.1882 58.0473L54.7297 58.8419L54.3324 61.1225L52.7432 61.6191C52.7432 61.6191 52.7432 61.6429 52.7432 61.6549C52.7427 63.4753 53.0781 65.2801 53.7325 66.9788L55.4489 66.7444L56.4262 68.8422L55.421 70.1534C56.4689 71.6561 57.7832 72.9542 59.2988 73.9835L60.5662 72.7915L62.5727 73.9517L62.5011 75.6124C64.1425 76.2159 65.8777 76.5239 67.6265 76.5223H67.8768L68.2423 74.8337L70.5507 74.6311L71.4407 76.0296C73.211 75.5588 74.8787 74.764 76.3594 73.6855L75.6919 72.0962L77.4679 70.6063L78.9936 71.238C80.1767 69.8389 81.0913 68.2334 81.6913 66.5021L80.2292 65.5803L80.8291 63.3434L82.4621 62.9938ZM67.6424 72.7995C65.4421 72.7995 63.2912 72.147 61.4618 70.9246C59.6323 69.7022 58.2065 67.9648 57.3644 65.932C56.5224 63.8992 56.3021 61.6624 56.7314 59.5044C57.1606 57.3464 58.2202 55.3642 59.776 53.8084C61.3318 52.2525 63.314 51.193 65.472 50.7638C67.63 50.3345 69.8668 50.5548 71.8996 51.3968C73.9324 52.2388 75.6698 53.6647 76.8922 55.4942C78.1146 57.3236 78.7671 59.4745 78.7671 61.6747C78.7598 64.6229 77.5853 67.4483 75.5006 69.533C73.4159 71.6177 70.5906 72.7921 67.6424 72.7995Z" fill="#2B7BE1"/>
<path opacity="0.4" d="M101.136 35.5793C101.176 35.1383 101.2 34.6933 101.2 34.2443C101.199 32.86 101.005 31.4826 100.623 30.152L98.8951 30.2355L98.1005 28.0582L99.2169 26.8385C98.3017 25.2513 97.1032 23.8454 95.6808 22.6905L94.3181 23.7474L92.4189 22.4203L92.6374 20.7794C90.9802 19.9995 89.1923 19.5347 87.3651 19.4087L86.8526 21.0576H84.5362L83.7734 19.5875C81.1042 20.0511 78.613 21.237 76.5701 23.0163L77.3648 24.542L75.7278 26.1789L74.1386 25.6823C73.0802 27.1775 72.3083 28.8561 71.862 30.6328L73.4036 31.4274L73.0062 33.708L71.417 34.2046C71.417 34.2046 71.417 34.2285 71.417 34.2404C71.4165 36.0608 71.7519 37.8656 72.4063 39.5644L74.1227 39.3299L75.1001 41.4277L74.0949 42.7389C75.1428 44.2416 76.457 45.5397 77.9726 46.569L79.2401 45.377L81.2465 46.5372L81.175 48.1979C82.8163 48.8014 84.5515 49.1094 86.3003 49.1078H86.5506L86.9161 47.4192L89.2245 47.2166L90.1145 48.6151C91.8848 48.1443 93.5525 47.3495 95.0332 46.271L94.3657 44.6817L96.1417 43.1918L97.6674 43.8235C98.8506 42.4245 99.7652 40.8189 100.365 39.0876L98.903 38.1658L99.503 35.9289L101.136 35.5793ZM86.3162 45.385C84.1159 45.385 81.9651 44.7325 80.1356 43.5101C78.3062 42.2877 76.8803 40.5503 76.0383 38.5175C75.1963 36.4847 74.976 34.2479 75.4052 32.0899C75.8345 29.9319 76.894 27.9497 78.4498 26.3939C80.0056 24.838 81.9879 23.7785 84.1459 23.3493C86.3039 22.92 88.5407 23.1403 90.5734 23.9823C92.6062 24.8243 94.3437 26.2502 95.5661 28.0797C96.7885 29.9091 97.4409 32.06 97.4409 34.2602C97.4336 37.2084 96.2592 40.0338 94.1745 42.1185C92.0898 44.2032 89.2644 45.3776 86.3162 45.385Z" fill="#2B7BE1"/>
<path d="M123.782 62.9938C123.822 62.5528 123.846 62.1078 123.846 61.6588C123.846 60.2745 123.652 58.8971 123.27 57.5665L121.542 57.65L120.747 55.4727L121.863 54.2529C120.948 52.6658 119.75 51.2599 118.327 50.105L116.965 51.1619L115.065 49.8348L115.284 48.1939C113.627 47.414 111.839 46.9492 110.012 46.8232L109.499 48.4721H107.183L106.42 47.002C103.751 47.4656 101.259 48.6514 99.2166 50.4308L100.011 51.9565L98.3743 53.5934L96.7851 53.0968C95.7267 54.592 94.9547 56.2706 94.5085 58.0473L96.05 58.8419L95.6527 61.1225L94.0635 61.6191C94.0635 61.6191 94.0635 61.6429 94.0635 61.6549C94.063 63.4753 94.3984 65.2801 95.0528 66.9788L96.7692 66.7444L97.7466 68.8422L96.7414 70.1534C97.7892 71.6561 99.1035 72.9542 100.619 73.9835L101.887 72.7915L103.893 73.9517L103.821 75.6124C105.463 76.2159 107.198 76.5239 108.947 76.5223H109.197L109.563 74.8337L111.871 74.6311L112.761 76.0296C114.531 75.5588 116.199 74.764 117.68 73.6855L117.012 72.0962L118.788 70.6063L120.314 71.238C121.497 69.8389 122.412 68.2334 123.012 66.5021L121.55 65.5803L122.149 63.3434L123.782 62.9938ZM108.963 72.7995C106.762 72.7995 104.612 72.147 102.782 70.9246C100.953 69.7022 99.5268 67.9648 98.6848 65.932C97.8428 63.8992 97.6224 61.6624 98.0517 59.5044C98.4809 57.3464 99.5405 55.3642 101.096 53.8084C102.652 52.2525 104.634 51.193 106.792 50.7638C108.95 50.3345 111.187 50.5548 113.22 51.3968C115.253 52.2388 116.99 53.6647 118.213 55.4942C119.435 57.3236 120.087 59.4745 120.087 61.6747C120.08 64.6229 118.906 67.4483 116.821 69.533C114.736 71.6177 111.911 72.7921 108.963 72.7995Z" fill="#2B7BE1"/>
<path d="M64.0665 8.74088H61.6826" stroke="#2B7BE1" stroke-miterlimit="10"/>
<path d="M56.6331 8.74088H28.8491" stroke="#2B7BE1" stroke-miterlimit="10" stroke-dasharray="12.71 12.71"/>
<path d="M26.3219 8.74088H23.938V11.1247" stroke="#2B7BE1" stroke-miterlimit="10"/>
<path d="M23.938 15.6263V49.3978" stroke="#2B7BE1" stroke-miterlimit="10" stroke-dasharray="11.33 11.33"/>
<path d="M23.938 51.6505V54.0344" stroke="#2B7BE1" stroke-miterlimit="10"/>
<path d="M82.5415 88.4019H136.576V41.1218" stroke="#2B7BE1" stroke-miterlimit="10" stroke-dasharray="12 12"/>
<path d="M162.898 103.698H40.9233V135.483H162.898V103.698Z" fill="url(#paint1_linear)"/>
<path d="M161.309 105.685H42.1152V133.894H161.309V105.685Z" fill="#2B7BE1"/>
<path d="M108.863 112.439H73.8999V114.029H108.863V112.439Z" fill="#2B7BE1"/>
<path opacity="0.2" d="M108.863 116.015H73.8999V117.604H108.863V116.015Z" fill="black"/>
<path d="M142.238 121.975H73.8999V123.564H142.238V121.975Z" fill="white"/>
<path d="M55.6236 127.14C59.7928 127.14 63.1726 123.76 63.1726 119.591C63.1726 115.422 59.7928 112.042 55.6236 112.042C51.4545 112.042 48.0747 115.422 48.0747 119.591C48.0747 123.76 51.4545 127.14 55.6236 127.14Z" fill="#2B7BE1"/>
<path opacity="0.2" d="M55.6236 127.14C59.7928 127.14 63.1726 123.76 63.1726 119.591C63.1726 115.422 59.7928 112.042 55.6236 112.042C51.4545 112.042 48.0747 115.422 48.0747 119.591C48.0747 123.76 51.4545 127.14 55.6236 127.14Z" fill="black"/>
<path d="M240.024 191.504C240.098 191.422 240.144 191.319 240.157 191.21C240.17 191.1 240.148 190.989 240.095 190.892C238.387 187.472 236.674 188.33 231.621 178.552C226.241 168.154 227.58 164.67 225.566 162.683C224.771 161.889 223.953 159.235 222.872 158.77L222.173 155.965C222.805 156.035 223.446 155.936 224.028 155.679C225.141 155.186 225.987 154.248 226.738 153.295C227.897 151.877 228.835 150.29 229.519 148.591C229.981 147.351 230.249 146.047 230.314 144.725C230.351 144.063 230.339 143.399 230.278 142.738C231.522 142.533 232.7 142.036 233.715 141.288C234.921 140.316 235.702 138.913 235.892 137.375C235.892 137.22 235.928 137.069 235.935 136.914C235.946 136.731 235.946 136.548 235.935 136.365C235.878 135.428 235.599 134.518 235.123 133.709C234.646 132.899 233.986 132.214 233.194 131.709C231.752 130.877 230.08 130.53 228.426 130.72C226.775 130.921 225.155 131.319 223.599 131.908C223.202 132.035 222.63 132.198 222.109 132.424C220.987 132.049 219.812 131.857 218.629 131.856C216.698 131.856 214.806 132.364 212.943 132.865L206.669 134.546C205.279 134.919 203.829 135.34 202.792 136.322C202.7 136.411 202.614 136.505 202.533 136.604L202.486 136.663C202.404 136.766 202.329 136.874 202.259 136.985C201.639 137.986 201.504 139.313 202.259 140.195C202.636 140.599 203.095 140.916 203.606 141.125C204.221 141.409 204.854 141.65 205.501 141.848C204.336 143.564 203.715 145.591 203.717 147.665C203.717 147.784 203.717 147.899 203.717 148.019C203.717 148.138 203.717 148.253 203.717 148.372C203.717 151.121 204.81 153.758 206.754 155.702C208.698 157.646 211.334 158.738 214.083 158.738H214.254L214.556 161.17C213.147 162.643 211.955 164.31 211.016 166.12C210.435 166.665 209.979 167.329 209.68 168.067C209.38 168.805 209.244 169.599 209.28 170.395C209.26 172.119 209.729 174.229 210.186 177.149L195.449 170.888L186.248 190.706L193.328 193.316C190.002 193.467 188.163 195.899 188.19 198.374C188.166 199.051 188.283 199.726 188.533 200.356C188.784 200.986 189.162 201.557 189.645 202.033C192.207 204.596 195.318 231.287 195.318 231.287H196.614V234.088C191.365 234.406 186.041 235.054 186.041 236.369C186.061 237.003 186.222 237.624 186.512 238.189C186.802 238.753 187.214 239.245 187.718 239.631C187.642 239.539 187.567 239.44 187.495 239.337C187.889 239.742 188.342 240.086 188.838 240.358H217.345V234.47H217.393V233.758C217.393 233.758 216.36 233.758 214.755 233.786V231.267H216.05C217.206 220.85 212.164 207.333 211.072 204.568C212.848 204.568 214.715 204.544 216.567 204.441C224.429 204.794 237.95 204.707 240.671 200.17C243.695 195.156 241.275 192.474 240.024 191.504ZM200.519 204.059C200.519 204.059 201.111 204.119 202.108 204.194C203.177 207.242 203.968 212.248 204.528 217.135C203.541 212.677 202.201 208.305 200.519 204.059ZM211.894 157.796C212.619 157.954 213.358 158.034 214.099 158.035H214.179L214.242 158.555C213.432 158.396 212.643 158.14 211.894 157.792V157.796ZM206.999 233.862H206.785V233.758C206.785 233.758 205.859 233.758 204.401 233.782V231.267H206.991L206.999 233.862Z" fill="url(#paint2_linear)"/>
<path d="M213.368 203.424L207 266.994L214.56 267.391L224.084 203.424H213.368Z" fill="url(#paint3_linear)"/>
<path d="M213.754 203.424L208.986 266.199H213.754L220.508 203.424H213.754Z" fill="#2B7BE1"/>
<path d="M343.738 201.04L350 265.007H342.546L336.555 201.04H343.738Z" fill="url(#paint4_linear)"/>
<path d="M343.675 201.437L348.442 264.212H343.675L336.92 201.437H343.675Z" fill="#2B7BE1"/>
<path d="M231.99 200.643L226.07 264.61H233.977L240.374 200.643H231.99Z" fill="url(#paint5_linear)"/>
<path d="M232.427 200.643L227.66 263.418H232.427L239.182 200.643H232.427Z" fill="#2B7BE1"/>
<path d="M326.467 201.437L332.55 266.994H325.275L317.85 201.437H326.467Z" fill="url(#paint6_linear)"/>
<path d="M326.193 203.424L330.961 266.199H326.193L319.439 203.424H326.193Z" fill="#2B7BE1"/>
<path d="M346.456 199.848H203.821V206.602H346.456V199.848Z" fill="url(#paint7_linear)"/>
<path d="M319.439 199.848H205.013V205.808H319.439V199.848Z" fill="#2B7BE1"/>
<path d="M345.662 199.848H319.439V205.808H345.662V199.848Z" fill="#2B7BE1"/>
<path opacity="0.2" d="M345.844 199.848H319.622V205.808H345.844V199.848Z" fill="black"/>
<path d="M303.546 161.706H249.909V195.477H303.546V161.706Z" fill="url(#paint8_linear)"/>
<path d="M301.162 162.898H251.101V194.286H301.162V162.898Z" fill="white"/>
<path d="M284.873 191.504H268.583V199.848H284.873V191.504Z" fill="url(#paint9_linear)"/>
<path d="M283.085 191.504H269.179V199.848H283.085V191.504Z" fill="white"/>
<path d="M302.752 162.898H301.163V194.286H302.752V162.898Z" fill="#F5F5F5"/>
<path d="M284.078 191.504H282.886V199.848H284.078V191.504Z" fill="#F5F5F5"/>
<path d="M278.118 174.023H274.145V177.996H278.118V174.023Z" fill="url(#paint10_linear)"/>
<path d="M277.721 174.42H274.542V177.598H277.721V174.42Z" fill="#F5F5F5"/>
<path d="M198.592 170.884L224.573 181.925L215.828 198.537L190.146 189.073L198.592 170.884Z" fill="#2B7BE1"/>
<path d="M206.793 223.933H199.657V229.877H206.793V223.933Z" fill="#F8C198"/>
<path d="M216.309 223.933H209.173V229.877H216.309V223.933Z" fill="#F8C198"/>
<path d="M215.689 159.1C220.942 159.1 225.201 154.841 225.201 149.588C225.201 144.335 220.942 140.076 215.689 140.076C210.436 140.076 206.177 144.335 206.177 149.588C206.177 154.841 210.436 159.1 215.689 159.1Z" fill="#F8C198"/>
<path d="M224.604 163.263H216.281L215.093 153.752H222.229L224.604 163.263Z" fill="#F8C198"/>
<path d="M229.388 189.45C229.388 189.45 234.156 191.834 230.58 197.794C227.004 203.753 203.229 201.37 203.229 201.37C203.229 201.37 209.189 215.637 207.997 226.341H198.469C198.469 226.341 195.617 201.834 193.276 199.451C190.245 196.419 192.537 190.622 198.485 191.81C204.433 192.998 229.388 189.45 229.388 189.45Z" fill="#263238"/>
<g opacity="0.2">
<path opacity="0.2" d="M205.176 201.127C205.176 201.127 209.356 201.525 214.469 201.592C210.758 201.632 207.317 201.441 205.243 201.294L205.176 201.127Z" fill="white"/>
<path opacity="0.2" d="M203.094 191.842C212.379 191.663 229.388 189.236 229.388 189.236C229.512 189.301 229.631 189.374 229.746 189.454C224.903 190.114 210.202 192.009 203.094 191.842Z" fill="white"/>
<path opacity="0.2" d="M197.945 191.524C193.896 192.14 192.645 196.689 195.211 199.252C197.563 201.604 200.42 226.098 200.42 226.098H198.473C198.473 226.098 195.617 201.604 193.276 199.252C190.32 196.312 192.394 190.769 197.945 191.524Z" fill="white"/>
</g>
<path d="M209.168 228.689C209.168 228.689 190.141 228.689 190.141 231.073C190.141 233.457 192.525 234.648 192.525 234.648H209.168V228.689Z" fill="#263238"/>
<path opacity="0.2" d="M208.986 228.597V229.249C205.672 229.273 190.61 229.507 190.61 231.633C190.619 232.495 190.934 233.326 191.5 233.977C191.038 233.624 190.659 233.172 190.393 232.655C190.126 232.137 189.978 231.567 189.958 230.985C189.958 228.597 208.986 228.597 208.986 228.597Z" fill="white"/>
<path d="M238.899 189.45C238.899 189.45 243.667 191.834 240.091 197.794C236.516 203.753 212.74 201.37 212.74 201.37C212.74 201.37 218.7 215.637 217.508 226.341H207.977C207.977 226.341 206.785 201.37 203.209 198.99C199.633 196.61 202.017 190.646 207.977 191.838C213.936 193.03 238.899 189.45 238.899 189.45Z" fill="#263238"/>
<path d="M218.704 228.689C218.704 228.689 199.677 228.689 199.677 231.073C199.677 233.457 202.061 234.648 202.061 234.648H218.704V228.689Z" fill="#263238"/>
<path d="M222.931 159.719H225.824C226.964 159.719 227.778 162.58 228.605 163.383C230.456 165.206 229.225 168.401 234.167 177.944C238.808 186.915 240.377 186.133 241.947 189.267C243.516 192.402 213.936 192.259 213.936 192.259C213.936 192.259 215.442 186.252 215.128 181.846C214.476 172.791 212.124 169.656 215.263 166.517C215.255 166.517 218.62 159.719 222.931 159.719Z" fill="#FF5252"/>
<path d="M199.24 175.429L195.342 183.876L197.941 185.175L201.838 176.728L199.24 175.429Z" fill="white"/>
<path opacity="0.2" d="M215.689 140.728C216.014 140.727 216.339 140.743 216.662 140.776C214.316 141.011 212.141 142.11 210.559 143.859C208.978 145.608 208.102 147.882 208.102 150.24C208.102 152.598 208.978 154.871 210.559 156.62C212.141 158.369 214.316 159.468 216.662 159.704C216.339 159.736 216.014 159.752 215.689 159.751C213.166 159.751 210.746 158.749 208.962 156.965C207.178 155.181 206.175 152.761 206.175 150.238C206.175 147.714 207.178 145.295 208.962 143.51C210.746 141.726 213.166 140.724 215.689 140.724V140.728Z" fill="white"/>
<path d="M205.311 139.182C206.264 138.269 207.595 137.895 208.887 137.553L214.644 136.012C216.356 135.555 218.088 135.09 219.86 135.086C220.941 135.089 222.014 135.265 223.039 135.607C223.516 135.4 224.052 135.249 224.406 135.134C225.829 134.604 227.311 134.246 228.82 134.069C230.336 133.898 231.868 134.217 233.19 134.979C233.921 135.437 234.531 136.064 234.969 136.808C235.407 137.551 235.659 138.389 235.706 139.25C235.752 140.112 235.591 140.972 235.235 141.758C234.88 142.544 234.341 143.233 233.663 143.767C232.733 144.453 231.653 144.91 230.512 145.098C230.696 146.911 230.462 148.742 229.829 150.45C229.206 152.01 228.35 153.466 227.29 154.769C226.603 155.647 225.824 156.505 224.803 156.958C223.782 157.411 222.467 157.355 221.68 156.561C221.1 155.977 220.886 155.119 220.754 154.308C220.154 151.098 219.562 147.407 216.781 145.694C215.037 144.622 213.094 144.725 211.147 144.737C209.399 144.732 207.674 144.337 206.098 143.581C205.619 143.393 205.188 143.103 204.834 142.73C203.96 141.729 204.357 140.096 205.311 139.182Z" fill="#FCCC63"/>
<g opacity="0.2">
<path opacity="0.2" d="M233.202 136.278C231.88 135.516 230.348 135.197 228.832 135.368C227.323 135.546 225.841 135.903 224.418 136.433C224.064 136.552 223.528 136.699 223.051 136.906C222.026 136.564 220.953 136.388 219.872 136.385C218.1 136.385 216.368 136.85 214.656 137.311L208.899 138.853C207.623 139.194 206.292 139.568 205.323 140.482C204.896 140.902 204.595 141.433 204.453 142.015C204.34 141.508 204.36 140.98 204.513 140.484C204.665 139.987 204.945 139.539 205.323 139.182C206.276 138.269 207.607 137.895 208.899 137.553L214.656 136.012C216.368 135.555 218.1 135.09 219.872 135.086C220.953 135.089 222.026 135.265 223.051 135.607C223.528 135.4 224.064 135.249 224.418 135.134C225.841 134.604 227.323 134.246 228.832 134.069C230.348 133.898 231.88 134.217 233.202 134.979C233.928 135.443 234.533 136.072 234.97 136.814C235.407 137.556 235.663 138.39 235.717 139.25C235.73 139.559 235.716 139.869 235.673 140.176C235.57 139.385 235.295 138.627 234.868 137.954C234.441 137.281 233.873 136.709 233.202 136.278Z" fill="white"/>
<path opacity="0.2" d="M230.576 146.386C230.576 146.56 230.576 146.731 230.576 146.906C230.576 146.735 230.576 146.568 230.54 146.398L230.576 146.386Z" fill="white"/>
</g>
<path opacity="0.2" d="M215.128 181.969C214.476 172.914 212.124 169.779 215.263 166.641C215.263 166.641 218.624 159.843 222.939 159.843H225.832C226.029 159.872 226.217 159.945 226.383 160.057C226.548 160.169 226.685 160.317 226.785 160.49H224.89C220.575 160.49 217.214 167.288 217.214 167.288C214.075 170.427 216.419 173.562 217.079 182.616C217.333 186.149 216.415 190.71 216.042 192.378C214.731 192.378 213.94 192.378 213.94 192.378C213.94 192.378 215.438 186.371 215.128 181.969Z" fill="white"/>
<path d="M216.13 176.081H226.523V168.937H216.13V176.081Z" fill="#FF5252"/>
<g opacity="0.2">
<path opacity="0.2" d="M212.609 191.842C221.895 191.663 238.903 189.236 238.903 189.236C239.027 189.301 239.146 189.374 239.261 189.454C234.414 190.114 219.717 192.009 212.609 191.842Z" fill="white"/>
<path opacity="0.2" d="M207.48 191.528C203.404 192.148 202.148 196.729 205.176 198.747C208.752 201.131 209.944 226.098 209.944 226.098H207.977C207.977 226.098 206.785 201.127 203.209 198.747C199.761 196.439 201.906 190.765 207.48 191.528Z" fill="white"/>
<path opacity="0.2" d="M214.688 201.127C214.688 201.127 218.867 201.525 223.981 201.592C220.27 201.632 216.829 201.441 214.755 201.294L214.688 201.127Z" fill="white"/>
</g>
<path d="M225.82 173.991V185.366C225.821 186.344 225.624 187.313 225.241 188.213C224.858 189.113 224.297 189.927 223.592 190.605C222.887 191.284 222.053 191.813 221.138 192.16C220.224 192.508 219.248 192.667 218.271 192.629C213.245 192.434 207.448 192.359 206.785 193.026C206.232 193.578 204.917 194.639 203.662 195.617C203.378 195.838 203.035 195.971 202.676 196C202.317 196.028 201.958 195.951 201.642 195.778C201.326 195.605 201.068 195.343 200.9 195.025C200.731 194.707 200.66 194.346 200.694 193.988C200.853 192.076 201.453 190.042 203.213 189.458C204.631 188.985 207.186 188.699 209.721 188.528C211.831 188.38 213.806 187.436 215.246 185.887C216.687 184.339 217.485 182.3 217.48 180.185V173.991H225.82Z" fill="#F8C198"/>
<path opacity="0.2" d="M200.706 193.98C200.865 192.069 201.465 190.034 203.225 189.45C204.643 188.977 207.198 188.691 209.733 188.521C211.843 188.372 213.818 187.428 215.258 185.88C216.699 184.331 217.497 182.292 217.492 180.177V173.991H225.836V174.638H218.795V180.825C218.801 182.94 218.002 184.978 216.562 186.527C215.121 188.076 213.146 189.02 211.036 189.168C208.485 189.339 205.942 189.625 204.528 190.098C202.768 190.686 202.164 192.72 202.009 194.627C201.987 194.873 202.015 195.121 202.09 195.356C202.166 195.59 202.288 195.808 202.45 195.994C202.202 195.98 201.959 195.916 201.736 195.807C201.513 195.697 201.314 195.544 201.151 195.356C200.989 195.168 200.866 194.949 200.789 194.713C200.712 194.477 200.684 194.227 200.706 193.98Z" fill="white"/>
<path opacity="0.2" d="M218.728 228.597V229.249C215.415 229.273 200.353 229.507 200.353 231.633C200.361 232.495 200.677 233.326 201.243 233.977C200.78 233.624 200.402 233.172 200.135 232.655C199.869 232.137 199.721 231.567 199.701 230.985C199.701 228.597 218.728 228.597 218.728 228.597Z" fill="white"/>
<path opacity="0.5" d="M92.5737 205.808V292.422H245.539V179.585H249.909" stroke="#2B7BE1" stroke-width="3" stroke-miterlimit="10"/>
</g>
<defs>
<linearGradient id="paint0_linear" x1="77.0785" y1="208.191" x2="77.0785" y2="0" gradientUnits="userSpaceOnUse">
<stop stop-color="#808080" stop-opacity="0.25"/>
<stop offset="0.54" stop-color="#808080" stop-opacity="0.12"/>
<stop offset="1" stop-color="#808080" stop-opacity="0.1"/>
</linearGradient>
<linearGradient id="paint1_linear" x1="31327.4" y1="10942.4" x2="31327.4" y2="8399.57" gradientUnits="userSpaceOnUse">
<stop stop-color="#808080" stop-opacity="0.25"/>
<stop offset="0.54" stop-color="#808080" stop-opacity="0.12"/>
<stop offset="1" stop-color="#808080" stop-opacity="0.1"/>
</linearGradient>
<linearGradient id="paint2_linear" x1="39358.7" y1="75476.9" x2="39358.7" y2="45212.7" gradientUnits="userSpaceOnUse">
<stop stop-color="#808080" stop-opacity="0.25"/>
<stop offset="0.54" stop-color="#808080" stop-opacity="0.12"/>
<stop offset="1" stop-color="#808080" stop-opacity="0.1"/>
</linearGradient>
<linearGradient id="paint3_linear" x1="9107.99" y1="38104" x2="9842.62" y2="38104" gradientUnits="userSpaceOnUse">
<stop stop-color="#808080" stop-opacity="0.25"/>
<stop offset="0.54" stop-color="#808080" stop-opacity="0.12"/>
<stop offset="1" stop-color="#808080" stop-opacity="0.1"/>
</linearGradient>
<linearGradient id="paint4_linear" x1="11953" y1="42867.2" x2="11953" y2="32568.5" gradientUnits="userSpaceOnUse">
<stop stop-color="#808080" stop-opacity="0.25"/>
<stop offset="0.54" stop-color="#808080" stop-opacity="0.12"/>
<stop offset="1" stop-color="#808080" stop-opacity="0.1"/>
</linearGradient>
<linearGradient id="paint5_linear" x1="8622.07" y1="42802.8" x2="8622.07" y2="32504.1" gradientUnits="userSpaceOnUse">
<stop stop-color="#808080" stop-opacity="0.25"/>
<stop offset="0.54" stop-color="#808080" stop-opacity="0.12"/>
<stop offset="1" stop-color="#808080" stop-opacity="0.1"/>
</linearGradient>
<linearGradient id="paint6_linear" x1="12350.2" y1="44255.4" x2="12350.2" y2="33438.6" gradientUnits="userSpaceOnUse">
<stop stop-color="#808080" stop-opacity="0.25"/>
<stop offset="0.54" stop-color="#808080" stop-opacity="0.12"/>
<stop offset="1" stop-color="#808080" stop-opacity="0.1"/>
</linearGradient>
<linearGradient id="paint7_linear" x1="98978.6" y1="3712.09" x2="98978.6" y2="3597.26" gradientUnits="userSpaceOnUse">
<stop stop-color="#808080" stop-opacity="0.25"/>
<stop offset="0.54" stop-color="#808080" stop-opacity="0.12"/>
<stop offset="1" stop-color="#808080" stop-opacity="0.1"/>
</linearGradient>
<linearGradient id="paint8_linear" x1="37608.1" y1="16777.3" x2="37608.1" y2="13906.7" gradientUnits="userSpaceOnUse">
<stop stop-color="#808080" stop-opacity="0.25"/>
<stop offset="0.54" stop-color="#808080" stop-opacity="0.12"/>
<stop offset="1" stop-color="#808080" stop-opacity="0.1"/>
</linearGradient>
<linearGradient id="paint9_linear" x1="11614.4" y1="4388.31" x2="11614.4" y2="4213.1" gradientUnits="userSpaceOnUse">
<stop stop-color="#808080" stop-opacity="0.25"/>
<stop offset="0.54" stop-color="#808080" stop-opacity="0.12"/>
<stop offset="1" stop-color="#808080" stop-opacity="0.1"/>
</linearGradient>
<linearGradient id="paint10_linear" x1="3035.46" y1="1953.98" x2="3035.46" y2="1914.25" gradientUnits="userSpaceOnUse">
<stop stop-color="#808080" stop-opacity="0.25"/>
<stop offset="0.54" stop-color="#808080" stop-opacity="0.12"/>
<stop offset="1" stop-color="#808080" stop-opacity="0.1"/>
</linearGradient>
<clipPath id="clip0">
<rect width="350" height="293.018" fill="white"/>
</clipPath>
</defs>
</svg>
