<svg width="50" height="50" viewBox="0 0 50 50" fill="none" xmlns="http://www.w3.org/2000/svg">
<path d="M48.4375 0V43.9453H13.2812V11.7188L25 0H48.4375Z" fill="#ECECF1"/>
<path d="M30.8594 0H48.4375V43.9453H30.8594V0Z" fill="#D3D3D8"/>
<path d="M39.6484 19.043C39.6484 20.9473 38.4182 22.5586 36.7188 23.1739V26.3672H33.7891V23.1739C32.0896 22.5586 30.8594 20.9473 30.8594 19.043H33.7891C33.7891 19.8635 34.4334 20.5078 35.2539 20.5078C36.0744 20.5078 36.7188 19.8635 36.7188 19.043C36.7188 18.2224 36.0744 17.5781 35.2539 17.5781C32.822 17.5781 30.8594 15.6155 30.8594 13.1836C30.8594 11.2793 32.0896 9.66797 33.7891 9.05266V5.85938H36.7188V9.05266C38.4182 9.66797 39.6484 11.2793 39.6484 13.1836H36.7188C36.7188 12.3631 36.0744 11.7188 35.2539 11.7188C34.4334 11.7188 33.7891 12.3631 33.7891 13.1836C33.7891 14.0041 34.4334 14.6484 35.2539 14.6484C37.6858 14.6484 39.6484 16.6111 39.6484 19.043Z" fill="#424C58"/>
<path d="M25 0H22.9286L13.2812 9.64737V11.7188H25V0Z" fill="#D3D3D8"/>
<path d="M25 29.2969H42.5781V32.2266H25V29.2969Z" fill="#D3D3D8"/>
<path d="M25 35.1562H42.5781V38.0859H25V35.1562Z" fill="#D3D3D8"/>
<path d="M30.8594 29.2969H42.5781V32.2266H30.8594V29.2969Z" fill="#BABAC0"/>
<path d="M30.8594 35.1562H42.5781V38.0859H30.8594V35.1562Z" fill="#BABAC0"/>
<path d="M13.2812 17.5781C8.44727 17.5781 4.49219 21.5332 4.49219 26.3672C4.49219 31.2012 8.44727 35.1562 13.2812 35.1562C18.1152 35.1562 22.0703 31.2012 22.0703 26.3672C22.0703 21.5332 18.1152 17.5781 13.2812 17.5781Z" fill="#87B9F9"/>
<path d="M13.2812 35.1562C6.80656 35.1562 1.5625 40.4003 1.5625 46.875V50H25V46.875C25 40.4003 19.7559 35.1562 13.2812 35.1562Z" fill="#87B9F9"/>
<path d="M13.2812 35.1562V17.5781C18.1152 17.5781 22.0703 21.5332 22.0703 26.3672C22.0703 31.2012 18.1152 35.1562 13.2812 35.1562Z" fill="#2B7BE1"/>
<path d="M25 46.875V50H13.2812V35.1562C19.7559 35.1562 25 40.4003 25 46.875Z" fill="#2B7BE1"/>
</svg>
