<svg width="50" height="50" viewBox="0 0 50 50" fill="none" xmlns="http://www.w3.org/2000/svg">
<path d="M44.043 11.8164V44.1406H0V11.8164L2.92969 8.88672H41.1133L44.043 11.8164Z" fill="#ECECF1"/>
<path d="M44.043 11.8164V44.1406H22.0703V8.88672H41.1133L44.043 11.8164Z" fill="#D3D3D8"/>
<path d="M0 3.02734H44.043V11.8164H0V3.02734Z" fill="#2B7BE1"/>
<path d="M22.0703 3.02734H44.043V11.8164H22.0703V3.02734Z" fill="#0B4DA1"/>
<path d="M5.95703 0H8.88672V8.88672H5.95703V0Z" fill="#537983"/>
<path d="M11.8164 0H14.7461V8.88672H11.8164V0Z" fill="#537983"/>
<path d="M29.3945 0H32.3242V8.88672H29.3945V0Z" fill="#3E5959"/>
<path d="M35.2539 0H38.1836V8.88672H35.2539V0Z" fill="#3E5959"/>
<path d="M5.95703 17.7734H11.8164V20.7031H5.95703V17.7734Z" fill="#87B9F9"/>
<path d="M14.7461 17.7734H20.6055V20.7031H14.7461V17.7734Z" fill="#87B9F9"/>
<path d="M23.5352 17.7734H29.3945V20.7031H23.5352V17.7734Z" fill="#2B7BE1"/>
<path d="M32.3242 17.7734H38.1836V20.7031H32.3242V17.7734Z" fill="#2B7BE1"/>
<path d="M5.95703 23.6328H11.8164V26.5625H5.95703V23.6328Z" fill="#87B9F9"/>
<path d="M14.7461 23.6328H20.6055V26.5625H14.7461V23.6328Z" fill="#87B9F9"/>
<path d="M23.5352 23.6328H29.3945V26.5625H23.5352V23.6328Z" fill="#2B7BE1"/>
<path d="M5.95703 29.4922H11.8164V32.4219H5.95703V29.4922Z" fill="#87B9F9"/>
<path d="M14.7461 29.4922H20.6055V32.4219H14.7461V29.4922Z" fill="#87B9F9"/>
<path d="M50 36.8164C50 44.1113 44.0136 50 36.7188 50C29.4239 50 23.5352 44.1113 23.5352 36.8164C23.5352 29.5216 29.4239 23.6328 36.7188 23.6328C44.0136 23.6328 50 29.5216 50 36.8164Z" fill="#FFDA2D"/>
<path d="M50 36.8164C50 44.1113 44.0136 50 36.7188 50V23.6328C44.0136 23.6328 50 29.5216 50 36.8164Z" fill="#FDBF00"/>
<path d="M46.9727 36.8164C46.9727 42.4706 42.3729 47.0703 36.7188 47.0703C31.0646 47.0703 26.4648 42.4706 26.4648 36.8164C26.4648 31.1623 31.0646 26.5625 36.7188 26.5625C42.3729 26.5625 46.9727 31.1623 46.9727 36.8164Z" fill="#FDBF00"/>
<path d="M46.9727 36.8164C46.9727 42.4706 42.3729 47.0703 36.7188 47.0703V26.5625C42.3729 26.5625 46.9727 31.1623 46.9727 36.8164Z" fill="#FF9100"/>
<path d="M41.1133 39.7461C41.1133 41.6504 39.883 43.2617 38.1836 43.877V48.5352H35.2539V43.877C33.5545 43.2617 32.3242 41.6504 32.3242 39.7461H35.2539C35.2539 40.5666 35.8982 41.2109 36.7188 41.2109C37.5393 41.2109 38.1836 40.5666 38.1836 39.7461C38.1836 38.9256 37.5393 38.2812 36.7188 38.2812C34.2869 38.2812 32.3242 36.3186 32.3242 33.8867C32.3242 31.9824 33.5545 30.3711 35.2539 29.7558V25.0977H38.1836V29.7558C39.883 30.3711 41.1133 31.9824 41.1133 33.8867H38.1836C38.1836 33.0662 37.5393 32.4219 36.7188 32.4219C35.8982 32.4219 35.2539 33.0662 35.2539 33.8867C35.2539 34.7073 35.8982 35.3516 36.7188 35.3516C39.1506 35.3516 41.1133 37.3142 41.1133 39.7461Z" fill="#FFDA2D"/>
<path d="M41.1133 39.7461C41.1133 41.6504 39.883 43.2617 38.1836 43.877V48.5352H36.7188V41.2109C37.5393 41.2109 38.1836 40.5666 38.1836 39.7461C38.1836 38.9256 37.5393 38.2812 36.7188 38.2812V35.3516C39.1506 35.3516 41.1133 37.3142 41.1133 39.7461Z" fill="#FDBF00"/>
<path d="M36.7188 32.4219V25.0977H38.1836V29.7558C39.883 30.3711 41.1133 31.9824 41.1133 33.8867H38.1836C38.1836 33.0662 37.5393 32.4219 36.7188 32.4219Z" fill="#FDBF00"/>
</svg>
