<svg width="350" height="252" viewBox="0 0 350 252" fill="none" xmlns="http://www.w3.org/2000/svg">
<g clip-path="url(#clip0)">
<path opacity="0.1" d="M175 251.33C271.65 251.33 350 241.806 350 230.058C350 218.309 271.65 208.785 175 208.785C78.3502 208.785 0 218.309 0 230.058C0 241.806 78.3502 251.33 175 251.33Z" fill="#2B7BE1"/>
<path d="M299.438 240.486C299.438 240.486 308.563 228.871 307.824 217.347C307.484 212.516 308.72 207.705 311.346 203.635C312.611 201.715 314.046 199.913 315.635 198.251" stroke="#535461" stroke-width="2" stroke-miterlimit="10"/>
<path d="M315.216 190.988C314.571 192.6 315.626 198.442 315.626 198.442C315.626 198.442 320.413 194.932 321.055 193.317C321.208 192.934 321.284 192.524 321.278 192.111C321.273 191.699 321.186 191.291 321.023 190.912C320.86 190.533 320.624 190.189 320.328 189.901C320.033 189.613 319.683 189.386 319.3 189.233C318.917 189.08 318.507 189.004 318.094 189.01C317.681 189.015 317.274 189.102 316.895 189.265C316.515 189.428 316.172 189.664 315.884 189.959C315.596 190.255 315.369 190.605 315.216 190.988Z" fill="#2B7BE1"/>
<path d="M306.823 197.997C307.158 199.7 311.206 204.03 311.206 204.03C311.206 204.03 313.316 198.483 312.981 196.776C312.819 195.958 312.338 195.238 311.645 194.774C310.952 194.31 310.103 194.14 309.285 194.302C308.467 194.464 307.746 194.944 307.282 195.637C306.818 196.33 306.648 197.179 306.81 197.997H306.823Z" fill="#2B7BE1"/>
<path d="M300.94 213.347C302.093 214.649 307.784 216.336 307.784 216.336C307.784 216.336 306.804 210.482 305.652 209.18C305.099 208.555 304.321 208.175 303.489 208.124C302.656 208.073 301.838 208.355 301.213 208.908C300.588 209.46 300.208 210.238 300.157 211.071C300.106 211.903 300.388 212.722 300.94 213.347Z" fill="#2B7BE1"/>
<path d="M299.109 225.963C300.023 227.441 305.345 230.067 305.345 230.067C305.345 230.067 305.37 224.119 304.456 222.654C304.018 221.945 303.315 221.439 302.503 221.248C301.692 221.057 300.837 221.196 300.128 221.635C299.419 222.074 298.913 222.776 298.722 223.588C298.531 224.4 298.67 225.254 299.109 225.963Z" fill="#2B7BE1"/>
<path d="M317.226 206.791C315.62 207.452 309.766 206.478 309.766 206.478C309.766 206.478 313.209 201.651 314.828 200.99C315.599 200.672 316.464 200.673 317.234 200.994C318.004 201.314 318.616 201.927 318.934 202.698C319.252 203.469 319.25 204.334 318.93 205.104C318.61 205.874 317.997 206.486 317.226 206.804V206.791Z" fill="#2B7BE1"/>
<path d="M314.894 221.517C313.166 221.671 307.875 218.979 307.875 218.979C307.875 218.979 312.615 215.407 314.346 215.253C315.176 215.181 316.001 215.441 316.64 215.976C317.278 216.512 317.678 217.28 317.75 218.11C317.823 218.94 317.563 219.765 317.027 220.404C316.492 221.042 315.724 221.442 314.894 221.514V221.517Z" fill="#2B7BE1"/>
<path d="M310.664 235.524C308.983 235.965 303.313 234.206 303.313 234.206C303.313 234.206 307.383 229.882 309.064 229.441C309.871 229.229 310.729 229.346 311.449 229.766C312.17 230.187 312.693 230.876 312.906 231.682C313.118 232.489 313.001 233.347 312.58 234.067C312.16 234.788 311.471 235.312 310.664 235.524Z" fill="#2B7BE1"/>
<path opacity="0.25" d="M315.216 190.988C314.571 192.6 315.626 198.442 315.626 198.442C315.626 198.442 320.413 194.932 321.055 193.317C321.208 192.934 321.284 192.524 321.278 192.111C321.273 191.699 321.186 191.291 321.023 190.912C320.86 190.533 320.624 190.189 320.328 189.901C320.033 189.613 319.683 189.386 319.3 189.233C318.917 189.08 318.507 189.004 318.094 189.01C317.681 189.015 317.274 189.102 316.895 189.265C316.515 189.428 316.172 189.664 315.884 189.959C315.596 190.255 315.369 190.605 315.216 190.988Z" fill="black"/>
<path opacity="0.25" d="M306.823 197.997C307.158 199.7 311.206 204.03 311.206 204.03C311.206 204.03 313.316 198.483 312.981 196.776C312.819 195.958 312.338 195.238 311.645 194.774C310.952 194.31 310.103 194.14 309.285 194.302C308.467 194.464 307.746 194.944 307.282 195.637C306.818 196.33 306.648 197.179 306.81 197.997H306.823Z" fill="black"/>
<path opacity="0.25" d="M300.94 213.347C302.093 214.649 307.784 216.336 307.784 216.336C307.784 216.336 306.804 210.482 305.652 209.18C305.099 208.555 304.321 208.175 303.489 208.124C302.656 208.073 301.838 208.355 301.213 208.908C300.588 209.46 300.208 210.238 300.157 211.071C300.106 211.903 300.388 212.722 300.94 213.347Z" fill="black"/>
<path opacity="0.25" d="M299.109 225.963C300.023 227.441 305.345 230.067 305.345 230.067C305.345 230.067 305.37 224.119 304.456 222.654C304.018 221.945 303.315 221.439 302.503 221.248C301.692 221.057 300.837 221.196 300.128 221.635C299.419 222.074 298.913 222.776 298.722 223.588C298.531 224.4 298.67 225.254 299.109 225.963Z" fill="black"/>
<path opacity="0.25" d="M317.226 206.791C315.62 207.452 309.766 206.478 309.766 206.478C309.766 206.478 313.209 201.651 314.828 200.99C315.599 200.672 316.464 200.673 317.234 200.994C318.004 201.314 318.616 201.927 318.934 202.698C319.252 203.469 319.25 204.334 318.93 205.104C318.61 205.874 317.997 206.486 317.226 206.804V206.791Z" fill="black"/>
<path opacity="0.25" d="M314.894 221.517C313.166 221.671 307.875 218.979 307.875 218.979C307.875 218.979 312.615 215.407 314.346 215.253C315.176 215.181 316.001 215.441 316.64 215.976C317.278 216.512 317.678 217.28 317.75 218.11C317.823 218.94 317.563 219.765 317.027 220.404C316.492 221.042 315.724 221.442 314.894 221.514V221.517Z" fill="black"/>
<path opacity="0.25" d="M310.664 235.524C308.983 235.965 303.313 234.206 303.313 234.206C303.313 234.206 307.383 229.882 309.064 229.441C309.871 229.229 310.729 229.346 311.449 229.766C312.17 230.187 312.693 230.876 312.906 231.682C313.118 232.489 313.001 233.347 312.58 234.067C312.16 234.788 311.471 235.312 310.664 235.524Z" fill="black"/>
<path d="M299.513 240C299.513 240 312.565 233.082 316.559 222.25C318.203 217.696 321.279 213.798 325.325 211.14C327.258 209.894 329.302 208.828 331.43 207.956" stroke="#535461" stroke-width="2" stroke-miterlimit="10"/>
<path d="M333.996 201.144C332.744 202.358 331.351 208.125 331.351 208.125C331.351 208.125 337.149 206.854 338.392 205.642C338.687 205.354 338.923 205.011 339.086 204.632C339.248 204.253 339.335 203.846 339.34 203.434C339.346 203.022 339.27 202.612 339.117 202.229C338.964 201.846 338.737 201.497 338.45 201.201C338.162 200.906 337.819 200.67 337.44 200.508C337.061 200.345 336.654 200.258 336.241 200.253C335.408 200.242 334.606 200.562 334.009 201.144H333.996Z" fill="#2B7BE1"/>
<path d="M323.484 204.149C323.102 205.843 325.049 211.449 325.049 211.449C325.049 211.449 329.225 207.229 329.607 205.536C329.791 204.722 329.644 203.869 329.199 203.164C328.754 202.459 328.047 201.96 327.234 201.776C326.421 201.592 325.568 201.739 324.863 202.184C324.158 202.629 323.658 203.336 323.474 204.149H323.484Z" fill="#2B7BE1"/>
<path d="M311.888 215.801C312.411 217.457 316.931 221.308 316.931 221.308C316.931 221.308 318.406 215.557 317.871 213.901C317.746 213.507 317.545 213.142 317.279 212.826C317.013 212.51 316.687 212.25 316.321 212.059C315.954 211.869 315.554 211.753 315.142 211.718C314.731 211.682 314.317 211.729 313.923 211.853C313.529 211.978 313.164 212.179 312.848 212.445C312.532 212.711 312.272 213.037 312.082 213.403C311.892 213.77 311.775 214.17 311.74 214.582C311.705 214.993 311.751 215.407 311.876 215.801H311.888Z" fill="#2B7BE1"/>
<path d="M305.098 226.592C305.336 228.314 309.14 232.872 309.14 232.872C309.14 232.872 311.566 227.453 311.331 225.734C311.275 225.325 311.138 224.931 310.93 224.575C310.721 224.219 310.444 223.907 310.115 223.657C309.786 223.408 309.411 223.226 309.012 223.121C308.612 223.017 308.196 222.992 307.787 223.048C307.378 223.105 306.984 223.241 306.628 223.45C306.271 223.658 305.96 223.935 305.71 224.264C305.461 224.593 305.279 224.968 305.174 225.367C305.07 225.767 305.045 226.183 305.101 226.592H305.098Z" fill="#2B7BE1"/>
<path d="M329.432 216.405C327.694 216.361 322.742 213.087 322.742 213.087C322.742 213.087 327.86 210.075 329.595 210.119C330.428 210.141 331.219 210.492 331.793 211.097C332.367 211.702 332.678 212.51 332.656 213.344C332.635 214.177 332.283 214.968 331.678 215.542C331.073 216.116 330.265 216.427 329.432 216.405Z" fill="#2B7BE1"/>
<path d="M321.333 228.924C319.69 228.364 315.942 223.759 315.942 223.759C315.942 223.759 321.725 222.413 323.368 222.976C323.759 223.11 324.119 223.319 324.429 223.592C324.738 223.865 324.991 224.196 325.173 224.567C325.355 224.938 325.462 225.34 325.488 225.752C325.514 226.164 325.458 226.577 325.325 226.968C325.191 227.358 324.982 227.719 324.709 228.029C324.436 228.338 324.105 228.591 323.734 228.773C323.364 228.955 322.961 229.061 322.549 229.087C322.137 229.113 321.724 229.058 321.333 228.924Z" fill="#2B7BE1"/>
<path d="M311.788 240.013C310.075 239.737 305.605 235.83 305.605 235.83C305.605 235.83 311.077 233.529 312.805 233.805C313.629 233.938 314.365 234.392 314.853 235.068C315.342 235.744 315.541 236.587 315.408 237.41C315.276 238.233 314.821 238.97 314.145 239.458C313.469 239.946 312.627 240.146 311.804 240.013H311.788Z" fill="#2B7BE1"/>
<path opacity="0.1" d="M199.462 29.7657C182.169 29.1646 165.699 23.5828 149.974 17.475C134.249 11.3672 118.668 4.59885 101.788 1.3806C90.9341 -0.701241 78.5182 -0.995516 69.7713 4.82425C61.3594 10.4092 58.6358 20.0765 57.1738 29.0488C56.0718 35.7983 55.4238 42.9016 58.426 49.2192C60.5204 53.602 64.2364 57.2961 66.8066 61.4973C75.7476 76.1172 69.4269 94.1463 59.7378 108.425C55.1921 115.121 49.9202 121.508 46.4108 128.639C42.9014 135.771 41.2829 143.935 44.3509 151.208C47.3938 158.408 54.6411 163.83 62.4927 167.637C78.4399 175.373 97.2422 177.586 115.559 178.838C156.126 181.615 196.908 180.403 237.58 179.208C252.635 178.763 267.753 178.312 282.561 175.986C290.785 174.693 299.275 172.64 305.242 167.687C312.821 161.401 314.699 150.754 309.625 142.871C301.106 129.647 277.555 126.363 271.6 112.172C268.326 104.361 271.691 95.6615 276.453 88.4173C286.668 72.8739 303.792 59.2402 304.697 41.4772C305.323 29.2679 297.083 17.0586 284.348 11.2858C271.006 5.23749 252.504 5.99822 242.661 16.013C232.543 26.3283 214.73 30.2947 199.462 29.7657Z" fill="#2B7BE1"/>
<path d="M185.644 99.0925H177.858C177.864 98.492 177.901 97.8921 177.971 97.2956C178.215 95.173 178.967 91.7294 181.296 90.114C183.472 88.6051 186.305 90.881 185.193 93.2884L185.165 93.3542C184.749 94.2245 184.736 95.3077 184.874 96.3001C185.02 97.2579 185.279 98.1952 185.644 99.0925Z" fill="#2B7BE1"/>
<path opacity="0.1" d="M185.644 99.0925H177.858C177.864 98.4919 177.901 97.8921 177.971 97.2956C180.168 96.4718 182.518 96.1322 184.858 96.3001C185.01 97.2585 185.273 98.1958 185.644 99.0925Z" fill="black"/>
<path d="M190.694 107.335C188.674 108.979 185.851 109.004 182.961 108.3C177.044 106.853 170.868 102.326 170.868 102.326C171.288 101.86 171.74 101.423 172.22 101.018C174.656 98.9267 180.238 95.2294 187.71 97.0671C189.538 97.4868 191.148 98.5629 192.234 100.091C193.471 101.901 194.115 104.552 190.694 107.335Z" fill="#2B7BE1"/>
<path opacity="0.1" d="M188.315 104.039C188.315 104.039 183.813 100.204 177.611 105.291L188.315 104.039Z" fill="black"/>
<path d="M61.7165 136.347C61.7165 136.347 47.2093 125.183 46.4799 135.304C45.7505 145.425 49.4007 154.924 52.5313 155.756C55.6619 156.589 61.7165 136.347 61.7165 136.347Z" fill="#2B7BE1"/>
<path opacity="0.2" d="M61.7165 136.347C61.7165 136.347 47.2093 125.183 46.4799 135.304C45.7505 145.425 49.4007 154.924 52.5313 155.756C55.6619 156.589 61.7165 136.347 61.7165 136.347Z" fill="black"/>
<path opacity="0.1" d="M52.2183 139.897C52.2183 139.897 52.5595 149.21 55.4553 147.723C58.3511 146.236 54.0966 140.313 52.2183 139.897Z" fill="black"/>
<path d="M97.3611 215.716C97.0199 217.151 96.4937 218.535 95.7958 219.833C95.6173 220.171 95.4232 220.519 95.2103 220.873C91.7949 226.551 83.8995 228.909 83.8995 227.657C83.8995 226.404 83.12 223.167 81.1352 224.106C79.1504 225.046 76.1263 224.839 76.1263 224.839C70.6634 224.423 71.5869 219.038 73.3964 214.477C73.9982 212.977 74.686 211.514 75.4563 210.094C76.1388 208.842 76.6491 208.021 76.6491 208.021L97.5207 211.362C97.5207 211.362 97.9872 213.009 97.3611 215.716Z" fill="#2B7BE1"/>
<path opacity="0.1" d="M182.961 108.3C177.044 106.853 170.868 102.327 170.868 102.327C171.288 101.86 171.74 101.423 172.22 101.018C173.122 101.494 174.027 102 174.937 102.536C177.79 104.197 180.477 106.127 182.961 108.3Z" fill="black"/>
<path opacity="0.1" d="M97.3614 215.716C91.6982 215.209 83.496 213.816 75.4473 210.11C76.1297 208.857 76.64 208.037 76.64 208.037L97.5117 211.377C97.5117 211.377 97.9875 213.008 97.3614 215.716Z" fill="black"/>
<path d="M185.268 188.627C185.268 188.627 184.893 195.318 181.117 202.878C178.21 208.824 173.726 213.857 168.153 217.429C168.153 217.429 164.816 220.143 164.606 212.63C164.606 212.63 163.144 211.064 153.127 217.905C153.127 217.905 147.081 221.599 148.744 206.187C148.744 206.187 148.744 206.168 148.744 206.159C148.744 206.149 148.593 206.256 148.318 206.422H148.299C147.585 206.86 146.07 207.758 144.267 208.663C140.964 210.322 136.685 212.01 134.562 210.945C134.075 214.846 132.871 218.623 131.012 222.087C128.908 225.916 125.59 229.66 120.393 231.351C119.083 231.771 117.682 231.821 116.345 231.495C115.008 231.169 113.787 230.48 112.817 229.504L112.222 228.909C112.222 228.909 107.63 232.039 105.335 230.994C103.04 229.948 101.159 227.03 104.289 221.602C104.289 221.602 104.455 221.151 104.659 220.491C105.169 218.816 105.911 215.795 104.709 215.341C104.709 215.341 56.0782 217.845 49.6104 174.643C43.1426 131.441 85.9253 115.581 98.0281 117.25C98.0281 117.25 130.17 76.7621 174.624 102.849C219.079 128.936 185.268 188.627 185.268 188.627Z" fill="#2B7BE1"/>
<path opacity="0.1" d="M98.0283 117.25C98.0283 117.25 151.004 117.043 147.37 185.707" stroke="black" stroke-miterlimit="10"/>
<path opacity="0.2" d="M95.7958 219.833C95.6173 220.171 95.4232 220.519 95.2104 220.873C91.7949 226.552 83.8995 228.909 83.8995 227.657C83.8995 226.404 83.12 223.167 81.1352 224.107C79.1504 225.046 76.1263 224.839 76.1263 224.839C70.6634 224.423 71.5869 219.038 73.3964 214.477C78.5181 217.047 87.7815 220.876 95.7958 219.833Z" fill="black"/>
<path opacity="0.2" d="M131.012 222.087C128.908 225.916 125.59 229.66 120.393 231.351C119.083 231.771 117.682 231.821 116.345 231.495C115.008 231.169 113.787 230.48 112.817 229.504L112.222 228.909C112.222 228.909 107.63 232.039 105.335 230.994C103.04 229.948 101.159 227.03 104.289 221.602C104.289 221.602 104.455 221.151 104.659 220.491C108.75 221.934 119.588 225.005 131.012 222.087Z" fill="black"/>
<path opacity="0.1" d="M148.744 206.159C167.631 196.351 170.868 188.524 170.868 188.524L148.744 206.159Z" fill="black"/>
<path opacity="0.2" d="M181.117 202.878C178.21 208.824 173.726 213.857 168.154 217.429C168.154 217.429 164.816 220.143 164.607 212.63C164.607 212.63 163.145 211.064 153.127 217.905C153.127 217.905 147.082 221.599 148.744 206.187L153.753 203.41C164.547 209.411 175.391 205.752 181.117 202.878Z" fill="black"/>
<path d="M103.667 123.305C103.667 123.305 114.311 107.026 122.344 112.138C130.377 117.25 120.885 136.347 120.885 136.347C120.885 136.347 105.125 136.034 103.667 123.305Z" fill="#2B7BE1"/>
<path opacity="0.2" d="M103.667 123.305C103.667 123.305 114.311 107.026 122.344 112.138C130.377 117.25 120.885 136.347 120.885 136.347C120.885 136.347 105.125 136.034 103.667 123.305Z" fill="black"/>
<path opacity="0.1" d="M120.988 118.815C120.988 118.815 107.003 125.599 111.283 129.566C115.562 133.532 120.988 118.815 120.988 118.815Z" fill="black"/>
<path opacity="0.1" d="M87.2813 184.876C97.7919 182.45 104.683 173.426 102.674 164.721C100.664 156.017 90.5144 150.927 80.0038 153.354C69.4932 155.781 62.6018 164.804 64.6114 173.509C66.621 182.214 76.7707 187.303 87.2813 184.876Z" fill="black"/>
<path d="M87.2813 184.251C97.7919 181.824 104.683 172.8 102.674 164.096C100.664 155.391 90.5144 150.302 80.0038 152.728C69.4932 155.155 62.6018 164.178 64.6114 172.883C66.621 181.588 76.7707 186.677 87.2813 184.251Z" fill="#2B7BE1"/>
<path opacity="0.2" d="M87.2813 184.251C97.7919 181.824 104.683 172.8 102.674 164.096C100.664 155.391 90.5144 150.302 80.0038 152.728C69.4932 155.155 62.6018 164.178 64.6114 172.883C66.621 181.588 76.7707 186.677 87.2813 184.251Z" fill="black"/>
<path opacity="0.1" d="M75.3848 168.485C75.3848 168.485 75.5945 174.54 77.3696 172.768C79.1446 170.996 77.4729 168.479 75.3848 168.485Z" fill="black"/>
<path opacity="0.1" d="M85.5088 163.877C85.5088 163.877 85.7154 169.931 87.4905 168.16C89.2655 166.388 87.5938 163.858 85.5088 163.877Z" fill="black"/>
<path opacity="0.1" d="M102.64 198.542C102.64 198.542 107.004 202.822 112.326 196.873L102.64 198.542Z" fill="black"/>
<path opacity="0.15" d="M121.821 106.709C124.222 106.083 133.091 109.84 133.091 109.84C136.913 106.017 142.483 103.726 147.37 102.364L148.39 97.7371C129.009 97.9593 121.821 106.709 121.821 106.709Z" fill="black"/>
<path opacity="0.3" d="M148.431 97.7371L147.467 102.336C150.923 101.385 154.46 100.756 158.033 100.458C153.44 98.1534 148.431 97.7371 148.431 97.7371Z" fill="black"/>
<path opacity="0.15" d="M148.39 97.7371L147.376 102.364L147.473 102.336L148.437 97.7371H148.39Z" fill="black"/>
<g opacity="0.1">
<path opacity="0.1" d="M106.481 223.562C106.481 223.562 106.647 223.111 106.85 222.45C107.36 220.775 108.102 217.754 106.9 217.301C106.9 217.301 106.343 217.329 105.335 217.326C105.225 218.429 104.997 219.517 104.656 220.572C104.452 221.233 104.286 221.683 104.286 221.683C101.156 227.112 103.034 230.033 105.332 231.075L105.454 231.119C104.53 229.538 104.455 227.074 106.481 223.562Z" fill="white"/>
<path opacity="0.1" d="M51.8019 176.603C45.331 133.401 89.4942 115.844 101.597 117.525L98.0282 117.344C85.9253 115.675 43.1396 131.535 49.6105 174.737C51.6454 188.321 57.8502 197.384 65.3981 203.429C58.8551 197.418 53.6364 188.847 51.8019 176.603Z" fill="white"/>
<path opacity="0.1" d="M150.932 208.147C150.932 208.147 150.932 208.128 150.932 208.118C150.932 208.109 150.782 208.216 150.507 208.381H150.488C150.065 208.638 149.361 209.061 148.484 209.549C148.171 216.671 150.015 218.215 151.465 218.349C150.729 216.687 150.344 213.635 150.932 208.147Z" fill="white"/>
<path opacity="0.1" d="M166.798 214.589C166.798 214.589 166.422 214.192 164.763 214.683C165.195 217.789 166.391 218.127 167.243 217.942C166.951 216.849 166.801 215.722 166.798 214.589Z" fill="white"/>
</g>
<path opacity="0.1" d="M104.708 215.341C104.708 215.341 131.841 213.672 134.552 210.958L104.708 215.341Z" fill="black"/>
<path d="M169.853 220.519C176.347 220.519 181.612 214.931 181.612 208.037C181.612 201.144 176.347 195.556 169.853 195.556C163.359 195.556 158.095 201.144 158.095 208.037C158.095 214.931 163.359 220.519 169.853 220.519Z" fill="#FBD56F"/>
<path opacity="0.1" d="M169.853 220.519C176.347 220.519 181.612 214.931 181.612 208.037C181.612 201.144 176.347 195.556 169.853 195.556C163.359 195.556 158.095 201.144 158.095 208.037C158.095 214.931 163.359 220.519 169.853 220.519Z" fill="black"/>
<path d="M171.882 220.519C178.376 220.519 183.641 215.055 183.641 208.316C183.641 201.576 178.376 196.113 171.882 196.113C165.388 196.113 160.124 201.576 160.124 208.316C160.124 215.055 165.388 220.519 171.882 220.519Z" fill="#FBD56F"/>
<path d="M176.647 219.373L175.423 218.694C175.423 218.694 174.85 221.079 175.038 222.782C175.056 222.953 175.125 223.115 175.237 223.246C175.349 223.377 175.498 223.471 175.664 223.515C178.481 224.213 191.887 227.19 201.109 222.995C201.243 222.935 201.359 222.84 201.444 222.721C201.53 222.601 201.583 222.462 201.598 222.316C201.714 221.27 201.313 219.113 201.153 218.694C200.818 217.789 176.647 219.373 176.647 219.373Z" fill="#FBD56F"/>
<path opacity="0.1" d="M176.647 219.373L175.423 218.694C175.423 218.694 174.85 221.079 175.038 222.782C175.056 222.953 175.125 223.115 175.237 223.246C175.349 223.377 175.498 223.471 175.664 223.515C178.481 224.213 191.887 227.19 201.109 222.995C201.243 222.935 201.359 222.84 201.444 222.721C201.53 222.601 201.583 222.462 201.598 222.316C201.714 221.27 201.313 219.113 201.153 218.694C200.818 217.789 176.647 219.373 176.647 219.373Z" fill="black"/>
<path d="M188.292 221.596C195.4 221.596 201.162 220.296 201.162 218.694C201.162 217.091 195.4 215.792 188.292 215.792C181.184 215.792 175.422 217.091 175.422 218.694C175.422 220.296 181.184 221.596 188.292 221.596Z" fill="#FBD56F"/>
<path d="M181.574 215.093L180.354 214.414C180.354 214.414 179.781 216.8 179.968 218.503C179.986 218.674 180.055 218.835 180.167 218.966C180.279 219.096 180.428 219.189 180.595 219.232C183.412 219.933 196.817 222.911 206.04 218.716C206.173 218.654 206.289 218.56 206.374 218.441C206.46 218.321 206.513 218.182 206.528 218.036C206.641 216.991 206.24 214.834 206.081 214.414C205.733 213.509 181.574 215.093 181.574 215.093Z" fill="#FBD56F"/>
<path opacity="0.1" d="M181.574 215.093L180.354 214.414C180.354 214.414 179.781 216.8 179.968 218.503C179.986 218.674 180.055 218.835 180.167 218.966C180.279 219.096 180.428 219.189 180.595 219.232C183.412 219.933 196.817 222.911 206.04 218.716C206.173 218.654 206.289 218.56 206.374 218.441C206.46 218.321 206.513 218.182 206.528 218.036C206.641 216.991 206.24 214.834 206.081 214.414C205.733 213.509 181.574 215.093 181.574 215.093Z" fill="black"/>
<path d="M193.208 217.316C200.316 217.316 206.078 216.017 206.078 214.414C206.078 212.811 200.316 211.512 193.208 211.512C186.1 211.512 180.338 212.811 180.338 214.414C180.338 216.017 186.1 217.316 193.208 217.316Z" fill="#FBD56F"/>
<path d="M185.91 209.468L184.686 208.788C184.686 208.788 184.113 211.174 184.301 212.877C184.319 213.048 184.388 213.21 184.5 213.341C184.612 213.472 184.761 213.565 184.927 213.61C187.745 214.308 201.153 217.285 210.373 213.09C210.506 213.029 210.622 212.934 210.708 212.815C210.794 212.696 210.848 212.557 210.864 212.411C210.977 211.365 210.576 209.208 210.416 208.788C210.081 207.884 185.91 209.468 185.91 209.468Z" fill="#FBD56F"/>
<path opacity="0.1" d="M185.91 209.468L184.686 208.788C184.686 208.788 184.113 211.174 184.301 212.877C184.319 213.048 184.388 213.21 184.5 213.341C184.612 213.472 184.761 213.565 184.927 213.61C187.745 214.308 201.153 217.285 210.373 213.09C210.506 213.029 210.622 212.934 210.708 212.815C210.794 212.696 210.848 212.557 210.864 212.411C210.977 211.365 210.576 209.208 210.416 208.788C210.081 207.884 185.91 209.468 185.91 209.468Z" fill="black"/>
<path d="M197.556 211.691C204.664 211.691 210.426 210.391 210.426 208.789C210.426 207.186 204.664 205.886 197.556 205.886C190.448 205.886 184.686 207.186 184.686 208.789C184.686 210.391 190.448 211.691 197.556 211.691Z" fill="#FBD56F"/>
<path d="M181.095 203.617L179.871 202.934C179.871 202.934 179.301 205.323 179.486 207.023C179.504 207.194 179.574 207.355 179.686 207.486C179.797 207.617 179.946 207.711 180.112 207.755C182.93 208.454 196.335 211.431 205.554 207.239C205.688 207.178 205.804 207.084 205.89 206.964C205.977 206.845 206.03 206.706 206.046 206.56C206.159 205.514 205.758 203.357 205.598 202.934C205.266 202.026 181.095 203.617 181.095 203.617Z" fill="#FBD56F"/>
<path opacity="0.1" d="M181.095 203.617L179.871 202.934C179.871 202.934 179.301 205.323 179.486 207.023C179.504 207.194 179.574 207.355 179.686 207.486C179.797 207.617 179.946 207.711 180.112 207.755C182.93 208.454 196.335 211.431 205.554 207.239C205.688 207.178 205.804 207.084 205.89 206.964C205.977 206.845 206.03 206.706 206.046 206.56C206.159 205.514 205.758 203.357 205.598 202.934C205.266 202.026 181.095 203.617 181.095 203.617Z" fill="black"/>
<path d="M192.741 205.833C199.849 205.833 205.611 204.534 205.611 202.931C205.611 201.328 199.849 200.029 192.741 200.029C185.633 200.029 179.871 201.328 179.871 202.931C179.871 204.534 185.633 205.833 192.741 205.833Z" fill="#FBD56F"/>
<path d="M191.924 198.921L190.703 198.238C190.703 198.238 190.13 200.627 190.318 202.327C190.335 202.498 190.405 202.66 190.517 202.791C190.628 202.922 190.778 203.016 190.944 203.06C193.762 203.758 207.167 206.735 216.387 202.543C216.52 202.482 216.636 202.387 216.722 202.268C216.808 202.149 216.862 202.01 216.878 201.864C216.991 200.818 216.59 198.658 216.43 198.238C216.095 197.327 191.924 198.921 191.924 198.921Z" fill="#FBD56F"/>
<path opacity="0.1" d="M191.924 198.921L190.703 198.238C190.703 198.238 190.13 200.627 190.318 202.327C190.335 202.498 190.405 202.66 190.517 202.791C190.628 202.922 190.778 203.016 190.944 203.06C193.762 203.758 207.167 206.735 216.387 202.543C216.52 202.482 216.636 202.387 216.722 202.268C216.808 202.149 216.862 202.01 216.878 201.864C216.991 200.818 216.59 198.658 216.43 198.238C216.095 197.327 191.924 198.921 191.924 198.921Z" fill="black"/>
<path d="M203.57 201.134C210.678 201.134 216.44 199.835 216.44 198.232C216.44 196.629 210.678 195.33 203.57 195.33C196.462 195.33 190.7 196.629 190.7 198.232C190.7 199.835 196.462 201.134 203.57 201.134Z" fill="#FBD56F"/>
<path d="M184.608 195.756L183.384 195.073C183.384 195.073 182.814 197.462 182.999 199.162C183.017 199.333 183.086 199.494 183.198 199.625C183.31 199.756 183.459 199.85 183.625 199.894C186.442 200.593 199.848 203.57 209.067 199.378C209.201 199.317 209.317 199.223 209.403 199.103C209.489 198.984 209.543 198.845 209.559 198.699C209.671 197.653 209.271 195.493 209.111 195.073C208.779 194.169 184.608 195.756 184.608 195.756Z" fill="#FBD56F"/>
<path opacity="0.1" d="M184.608 195.756L183.384 195.073C183.384 195.073 182.814 197.462 182.999 199.162C183.017 199.333 183.086 199.494 183.198 199.625C183.31 199.756 183.459 199.85 183.625 199.894C186.442 200.593 199.848 203.57 209.067 199.378C209.201 199.317 209.317 199.223 209.403 199.103C209.489 198.984 209.543 198.845 209.559 198.699C209.671 197.653 209.271 195.493 209.111 195.073C208.779 194.169 184.608 195.756 184.608 195.756Z" fill="black"/>
<path d="M196.254 197.975C203.361 197.975 209.123 196.676 209.123 195.073C209.123 193.471 203.361 192.171 196.254 192.171C189.146 192.171 183.384 193.471 183.384 195.073C183.384 196.676 189.146 197.975 196.254 197.975Z" fill="#FBD56F"/>
<path d="M189.491 189.658L188.271 188.975C188.271 188.975 187.698 191.364 187.885 193.064C187.903 193.235 187.972 193.397 188.084 193.528C188.196 193.659 188.345 193.752 188.512 193.796C191.329 194.494 204.734 197.471 213.957 193.28C214.091 193.219 214.206 193.124 214.292 193.005C214.377 192.886 214.43 192.746 214.445 192.6C214.558 191.555 214.157 189.398 213.998 188.975C213.666 188.07 189.491 189.658 189.491 189.658Z" fill="#FBD56F"/>
<path opacity="0.1" d="M189.491 189.658L188.271 188.975C188.271 188.975 187.698 191.364 187.885 193.064C187.903 193.235 187.972 193.397 188.084 193.528C188.196 193.659 188.345 193.752 188.512 193.796C191.329 194.494 204.734 197.471 213.957 193.28C214.091 193.219 214.206 193.124 214.292 193.005C214.377 192.886 214.43 192.746 214.445 192.6C214.558 191.555 214.157 189.398 213.998 188.975C213.666 188.07 189.491 189.658 189.491 189.658Z" fill="black"/>
<path d="M201.14 191.877C208.248 191.877 214.01 190.578 214.01 188.975C214.01 187.372 208.248 186.073 201.14 186.073C194.033 186.073 188.271 187.372 188.271 188.975C188.271 190.578 194.033 191.877 201.14 191.877Z" fill="#FBD56F"/>
<path d="M191.905 182.419L190.681 181.737C190.681 181.737 190.111 184.126 190.296 185.826C190.314 185.997 190.384 186.158 190.496 186.289C190.607 186.42 190.756 186.514 190.922 186.558C193.74 187.256 207.145 190.233 216.365 186.042C216.499 185.981 216.614 185.886 216.701 185.767C216.787 185.648 216.84 185.508 216.856 185.362C216.969 184.317 216.568 182.16 216.408 181.737C216.073 180.832 191.905 182.419 191.905 182.419Z" fill="#FBD56F"/>
<path opacity="0.1" d="M191.905 182.419L190.681 181.737C190.681 181.737 190.111 184.126 190.296 185.826C190.314 185.997 190.384 186.158 190.496 186.289C190.607 186.42 190.756 186.514 190.922 186.558C193.74 187.256 207.145 190.233 216.365 186.042C216.499 185.981 216.614 185.886 216.701 185.767C216.787 185.648 216.84 185.508 216.856 185.362C216.969 184.317 216.568 182.16 216.408 181.737C216.073 180.832 191.905 182.419 191.905 182.419Z" fill="black"/>
<path d="M203.548 184.639C210.655 184.639 216.417 183.34 216.417 181.737C216.417 180.134 210.655 178.835 203.548 178.835C196.44 178.835 190.678 180.134 190.678 181.737C190.678 183.34 196.44 184.639 203.548 184.639Z" fill="#FBD56F"/>
<path d="M213.628 221.054L212.404 220.372C212.404 220.372 211.831 222.76 212.019 224.46C212.037 224.632 212.106 224.793 212.218 224.924C212.33 225.055 212.479 225.149 212.645 225.193C215.463 225.891 228.868 228.868 238.091 224.676C238.224 224.615 238.34 224.519 238.425 224.4C238.511 224.28 238.564 224.14 238.579 223.994C238.695 222.948 238.294 220.791 238.135 220.372C237.8 219.467 213.628 221.054 213.628 221.054Z" fill="#FBD56F"/>
<path opacity="0.1" d="M213.628 221.054L212.404 220.372C212.404 220.372 211.831 222.76 212.019 224.46C212.037 224.632 212.106 224.793 212.218 224.924C212.33 225.055 212.479 225.149 212.645 225.193C215.463 225.891 228.868 228.868 238.091 224.676C238.224 224.615 238.34 224.519 238.425 224.4C238.511 224.28 238.564 224.14 238.579 223.994C238.695 222.948 238.294 220.791 238.135 220.372C237.8 219.467 213.628 221.054 213.628 221.054Z" fill="black"/>
<path d="M225.274 223.274C232.382 223.274 238.144 221.974 238.144 220.372C238.144 218.769 232.382 217.47 225.274 217.47C218.166 217.47 212.404 218.769 212.404 220.372C212.404 221.974 218.166 223.274 225.274 223.274Z" fill="#FBD56F"/>
<path d="M217.974 215.429L216.75 214.746C216.75 214.746 216.18 217.135 216.364 218.835C216.383 219.006 216.452 219.167 216.564 219.298C216.676 219.429 216.824 219.523 216.991 219.567C219.808 220.265 233.213 223.242 242.433 219.051C242.567 218.99 242.683 218.895 242.769 218.776C242.855 218.657 242.909 218.517 242.924 218.371C243.037 217.326 242.636 215.166 242.477 214.746C242.145 213.841 217.974 215.429 217.974 215.429Z" fill="#FBD56F"/>
<path opacity="0.1" d="M217.974 215.429L216.75 214.746C216.75 214.746 216.18 217.135 216.364 218.835C216.383 219.006 216.452 219.167 216.564 219.298C216.676 219.429 216.824 219.523 216.991 219.567C219.808 220.265 233.213 223.242 242.433 219.051C242.567 218.99 242.683 218.895 242.769 218.776C242.855 218.657 242.909 218.517 242.924 218.371C243.037 217.326 242.636 215.166 242.477 214.746C242.145 213.841 217.974 215.429 217.974 215.429Z" fill="black"/>
<path d="M229.619 217.648C236.727 217.648 242.489 216.349 242.489 214.746C242.489 213.143 236.727 211.844 229.619 211.844C222.512 211.844 216.75 213.143 216.75 214.746C216.75 216.349 222.512 217.648 229.619 217.648Z" fill="#FBD56F"/>
<path d="M213.159 209.565L211.938 208.885C211.938 208.885 211.365 211.271 211.553 212.974C211.57 213.145 211.64 213.306 211.752 213.437C211.864 213.567 212.013 213.66 212.179 213.703C214.997 214.405 228.402 217.382 237.625 213.187C237.758 213.126 237.874 213.032 237.959 212.912C238.045 212.793 238.098 212.654 238.113 212.508C238.226 211.462 237.825 209.305 237.665 208.885C237.333 208 213.159 209.565 213.159 209.565Z" fill="#FBD56F"/>
<path opacity="0.1" d="M213.159 209.565L211.938 208.885C211.938 208.885 211.365 211.271 211.553 212.974C211.57 213.145 211.64 213.306 211.752 213.437C211.864 213.567 212.013 213.66 212.179 213.703C214.997 214.405 228.402 217.382 237.625 213.187C237.758 213.126 237.874 213.032 237.959 212.912C238.045 212.793 238.098 212.654 238.113 212.508C238.226 211.462 237.825 209.305 237.665 208.885C237.333 208 213.159 209.565 213.159 209.565Z" fill="black"/>
<path d="M224.807 211.794C231.915 211.794 237.677 210.495 237.677 208.892C237.677 207.289 231.915 205.99 224.807 205.99C217.7 205.99 211.938 207.289 211.938 208.892C211.938 210.495 217.7 211.794 224.807 211.794Z" fill="#FBD56F"/>
<path d="M223.991 204.869L222.767 204.19C222.767 204.19 222.194 206.575 222.382 208.259C222.399 208.431 222.468 208.593 222.58 208.724C222.692 208.855 222.841 208.948 223.008 208.992C225.825 209.693 239.23 212.667 248.453 208.475C248.587 208.415 248.702 208.32 248.788 208.201C248.874 208.082 248.927 207.942 248.942 207.796C249.054 206.75 248.657 204.594 248.497 204.174C248.162 203.304 223.991 204.869 223.991 204.869Z" fill="#FBD56F"/>
<path opacity="0.1" d="M223.991 204.869L222.767 204.19C222.767 204.19 222.194 206.575 222.382 208.259C222.399 208.431 222.468 208.593 222.58 208.724C222.692 208.855 222.841 208.948 223.008 208.992C225.825 209.693 239.23 212.667 248.453 208.475C248.587 208.415 248.702 208.32 248.788 208.201C248.874 208.082 248.927 207.942 248.942 207.796C249.054 206.75 248.657 204.594 248.497 204.174C248.162 203.304 223.991 204.869 223.991 204.869Z" fill="black"/>
<path d="M235.636 207.095C242.744 207.095 248.506 205.795 248.506 204.193C248.506 202.59 242.744 201.291 235.636 201.291C228.529 201.291 222.767 202.59 222.767 204.193C222.767 205.795 228.529 207.095 235.636 207.095Z" fill="#FBD56F"/>
<path d="M216.671 201.713L215.45 201.034C215.45 201.034 214.877 203.42 215.065 205.123C215.083 205.293 215.153 205.455 215.264 205.585C215.376 205.715 215.525 205.808 215.691 205.852C218.509 206.553 231.914 209.527 241.137 205.335C241.27 205.275 241.386 205.18 241.472 205.061C241.557 204.942 241.61 204.802 241.625 204.656C241.738 203.61 241.337 201.454 241.177 201.034C240.846 200.129 216.671 201.713 216.671 201.713Z" fill="#FBD56F"/>
<path opacity="0.1" d="M216.671 201.713L215.45 201.034C215.45 201.034 214.877 203.42 215.065 205.123C215.083 205.293 215.153 205.455 215.264 205.585C215.376 205.715 215.525 205.808 215.691 205.852C218.509 206.553 231.914 209.527 241.137 205.335C241.27 205.275 241.386 205.18 241.472 205.061C241.557 204.942 241.61 204.802 241.625 204.656C241.738 203.61 241.337 201.454 241.177 201.034C240.846 200.129 216.671 201.713 216.671 201.713Z" fill="black"/>
<path d="M228.32 203.936C235.428 203.936 241.19 202.637 241.19 201.034C241.19 199.431 235.428 198.132 228.32 198.132C221.212 198.132 215.45 199.431 215.45 201.034C215.45 202.637 221.212 203.936 228.32 203.936Z" fill="#FBD56F"/>
<path d="M221.558 195.615L220.334 194.936C220.334 194.936 219.761 197.321 219.949 199.024C219.967 199.195 220.036 199.357 220.148 199.488C220.26 199.619 220.409 199.713 220.575 199.757C223.393 200.455 236.798 203.432 246.017 199.237C246.151 199.176 246.267 199.081 246.353 198.962C246.439 198.843 246.493 198.704 246.509 198.558C246.622 197.512 246.221 195.355 246.061 194.936C245.729 194.031 221.558 195.615 221.558 195.615Z" fill="#FBD56F"/>
<path opacity="0.1" d="M221.558 195.615L220.334 194.936C220.334 194.936 219.761 197.321 219.949 199.024C219.967 199.195 220.036 199.357 220.148 199.488C220.26 199.619 220.409 199.713 220.575 199.757C223.393 200.455 236.798 203.432 246.017 199.237C246.151 199.176 246.267 199.081 246.353 198.962C246.439 198.843 246.493 198.704 246.509 198.558C246.622 197.512 246.221 195.355 246.061 194.936C245.729 194.031 221.558 195.615 221.558 195.615Z" fill="black"/>
<path d="M233.204 197.838C240.312 197.838 246.074 196.538 246.074 194.936C246.074 193.333 240.312 192.034 233.204 192.034C226.096 192.034 220.334 193.333 220.334 194.936C220.334 196.538 226.096 197.838 233.204 197.838Z" fill="#FBD56F"/>
<path d="M223.966 188.377L222.745 187.698C222.745 187.698 222.172 190.083 222.36 191.786C222.377 191.957 222.447 192.119 222.559 192.25C222.67 192.381 222.819 192.475 222.986 192.519C225.803 193.217 239.208 196.194 248.431 191.999C248.565 191.939 248.68 191.844 248.766 191.725C248.852 191.605 248.905 191.466 248.919 191.32C249.032 190.274 248.631 188.117 248.472 187.698C248.14 186.793 223.966 188.377 223.966 188.377Z" fill="#FBD56F"/>
<path opacity="0.1" d="M223.966 188.377L222.745 187.698C222.745 187.698 222.172 190.083 222.36 191.786C222.377 191.957 222.447 192.119 222.559 192.25C222.67 192.381 222.819 192.475 222.986 192.519C225.803 193.217 239.208 196.194 248.431 191.999C248.565 191.939 248.68 191.844 248.766 191.725C248.852 191.605 248.905 191.466 248.919 191.32C249.032 190.274 248.631 188.117 248.472 187.698C248.14 186.793 223.966 188.377 223.966 188.377Z" fill="black"/>
<path d="M235.614 190.6C242.722 190.6 248.484 189.3 248.484 187.698C248.484 186.095 242.722 184.796 235.614 184.796C228.507 184.796 222.745 186.095 222.745 187.698C222.745 189.3 228.507 190.6 235.614 190.6Z" fill="#FBD56F"/>
<path d="M127.916 98.4289C127.916 91.6919 133.178 86.2196 139.674 86.2196C140.311 86.2203 140.947 86.2737 141.575 86.3793C140.318 85.9048 138.986 85.6619 137.643 85.6624C131.15 85.6624 125.887 91.2505 125.887 98.144C125.887 103.322 128.858 107.761 133.088 109.652C133.291 109.474 133.545 109.261 133.845 109.026C132.023 107.925 130.519 106.369 129.48 104.511C128.44 102.654 127.901 100.558 127.916 98.4289Z" fill="#FBD56F"/>
<path opacity="0.1" d="M127.916 98.4289C127.916 91.6919 133.178 86.2196 139.674 86.2196C140.311 86.2203 140.947 86.2737 141.575 86.3793C140.318 85.9048 138.986 85.6619 137.643 85.6624C131.15 85.6624 125.887 91.2505 125.887 98.144C125.887 103.322 128.858 107.761 133.088 109.652C133.291 109.474 133.545 109.261 133.845 109.026C132.023 107.925 130.519 106.369 129.48 104.511C128.44 102.654 127.901 100.558 127.916 98.4289Z" fill="black"/>
<path d="M149.401 98.1628C149.4 99.5239 149.189 100.877 148.775 102.173C149.489 102.001 150.234 101.86 151.001 101.697C151.286 100.631 151.43 99.5324 151.43 98.4289C151.43 92.3618 147.163 87.3341 141.575 86.3887C146.136 88.1168 149.401 92.7312 149.401 98.1628Z" fill="#FBD56F"/>
<path d="M127.916 98.4289C127.901 100.558 128.44 102.655 129.48 104.514C130.52 106.372 132.025 107.928 133.848 109.029C136.062 107.27 140.942 104.036 148.778 102.164C149.192 100.867 149.403 99.5145 149.404 98.1534C149.404 92.7218 146.139 88.1074 141.578 86.3887C140.95 86.2831 140.314 86.2297 139.677 86.229C133.178 86.2384 127.916 91.7013 127.916 98.4289Z" fill="#FBD56F"/>
<path d="M301.535 238.125C299.744 238.063 299.679 237.368 297.378 236.169C296.075 235.492 294.103 233.526 292.632 231.945L292.287 231.573H292.914C292.914 231.573 292.338 226.523 292.851 225.312C293.364 224.1 292.979 216.978 292.979 216.978C292.979 216.978 293.292 211.547 292.723 210.285C292.153 209.023 292.914 200.943 292.914 200.943C292.914 200.943 293.427 196.144 293.54 186.358C293.652 176.572 287.905 176.259 287.905 176.259C287.905 176.259 287.138 176.199 285.973 176.086L285.622 176.052C286.377 174.487 286.818 173.291 286.818 173.291C286.818 173.291 285.857 164.137 285.6 162.559C285.344 160.981 283.813 154.466 283.813 154.466C283.813 154.466 282.727 151.69 282.085 149.733C281.443 147.776 279.527 145.504 279.527 145.504C279.527 145.504 276.083 138.685 275.113 137.677C274.668 137.211 274.042 136.619 273.501 136.112L273.219 135.855C273.366 135.144 273.443 134.421 273.451 133.695C273.451 133.695 269.866 130.157 269.609 129.275C269.353 128.392 265.965 125.108 265.965 125.108C265.965 125.108 264.043 121.573 261.871 121.511C260.842 121.451 259.81 121.482 258.787 121.602C259.235 119.949 259.764 118.217 260.236 116.73C260.29 116.564 260.343 116.417 260.393 116.245C262.131 115.069 263.496 113.418 264.325 111.49C264.369 111.386 264.41 111.283 264.45 111.177H264.519C264.609 111.175 264.699 111.166 264.788 111.152C265.505 111.03 266.113 110.212 265.781 109.586C265.802 109.622 265.833 109.652 265.87 109.673C265.907 109.693 265.948 109.703 265.99 109.702C266.228 109.702 266.52 109.348 266.576 109.045C266.576 108.992 266.592 108.938 266.598 108.885C266.604 108.832 266.62 108.754 266.629 108.688C266.638 108.622 266.629 108.563 266.629 108.5C266.629 108.437 266.629 108.372 266.629 108.309C266.629 108.246 266.629 108.187 266.629 108.127C266.629 108.068 266.629 107.987 266.629 107.918C266.629 107.849 266.629 107.808 266.629 107.752C266.629 107.695 266.629 107.583 266.61 107.498C266.61 107.464 266.61 107.429 266.61 107.395C266.573 107.05 266.504 106.71 266.404 106.377C266.053 105.204 265.311 104.039 265.596 102.849V102.812C265.834 101.873 266.635 101.215 267.124 100.389C267.171 100.31 267.211 100.229 267.252 100.148C267.252 100.132 267.268 100.116 267.274 100.104C267.305 100.041 267.33 99.9785 267.355 99.9159L267.405 99.7938C267.427 99.7406 267.443 99.6843 267.462 99.6279C267.481 99.5716 267.496 99.5277 267.509 99.4745C267.521 99.4213 267.534 99.3743 267.546 99.3242C267.559 99.2742 267.575 99.2053 267.587 99.1427C267.6 99.0801 267.587 99.055 267.609 99.0112C267.631 98.9674 267.628 98.8734 267.634 98.8046C267.64 98.7357 267.634 98.7294 267.634 98.6919C267.634 98.6543 267.634 98.5385 267.634 98.4602V98.3663C267.634 98.2818 267.634 98.1941 267.634 98.1096C267.634 98.0845 267.634 98.0595 267.634 98.0344C267.634 97.9437 267.634 97.8529 267.609 97.7621C267.609 97.7621 267.609 97.737 267.609 97.7245C267.501 96.931 267.184 96.1803 266.692 95.5488C266.132 94.8815 265.424 94.3538 264.625 94.0077C263.825 93.6615 262.956 93.5064 262.087 93.5546C261.606 93.6093 261.122 93.6187 260.64 93.5827C259.836 93.4638 259.156 92.9566 258.518 92.462L253.158 88.3327C252.56 87.8149 251.874 87.4078 251.133 87.1306C250.375 86.8989 249.467 86.9772 248.907 87.5313C247.902 88.5206 248.541 90.2236 248.14 91.5666C247.789 92.7312 246.665 93.5201 245.504 93.9115C244.342 94.3028 243.096 94.3904 241.901 94.6753C241.546 94.7321 241.214 94.8847 240.939 95.1167C240.631 95.4932 240.481 95.9746 240.52 96.4598C240.512 97.6495 240.798 98.8228 241.353 99.8752C241.578 100.301 241.85 100.736 242.092 101.174L242.151 101.284L242.229 101.434C242.27 101.519 242.311 101.6 242.348 101.682L242.395 101.788L242.467 101.966C242.467 102.004 242.495 102.042 242.508 102.076C242.52 102.11 242.552 102.217 242.574 102.286C242.7 102.692 242.712 103.125 242.608 103.538C242.423 104.217 241.894 104.74 241.425 105.269C241.045 105.685 240.773 106.188 240.636 106.734C240.613 106.863 240.613 106.994 240.636 107.123C240.636 107.138 240.636 107.154 240.636 107.17C240.643 107.198 240.651 107.226 240.661 107.254C240.668 107.274 240.676 107.294 240.686 107.314C240.695 107.336 240.706 107.358 240.717 107.379C240.741 107.413 240.768 107.445 240.799 107.473L240.846 107.508C240.871 107.527 240.898 107.544 240.927 107.558L240.98 107.583L241.112 107.617H241.149C241.218 107.622 241.287 107.622 241.356 107.617H241.418C241.484 107.613 241.548 107.605 241.613 107.592H241.685C241.79 107.572 241.895 107.546 241.998 107.514C242.357 107.406 242.707 107.268 243.043 107.101C243.043 107.138 243.043 107.179 243.043 107.216C243.043 107.254 243.043 107.351 243.043 107.417C243.061 108.655 243.295 109.881 243.735 111.039C244.421 112.843 245.571 114.434 247.069 115.65C247.05 115.757 247.032 115.866 247.01 115.979C246.697 117.491 246.055 119.009 245.657 118.894C245.268 118.806 244.87 118.761 244.471 118.762H244.123C243.761 118.721 243.396 118.721 243.034 118.762C242.872 118.774 242.71 118.752 242.558 118.696C241.524 118.37 240.425 118.309 239.362 118.518C237.151 118.972 233.786 119.801 232.863 120.794C231.454 122.309 229.419 123.762 227.105 130.073C227.105 130.073 225.953 133.924 225.058 134.431C225.255 134.328 225.458 134.236 225.665 134.155C225.546 134.364 225.383 134.543 225.186 134.681C225.51 134.516 225.846 134.376 226.191 134.262C225.493 138.375 226.529 150.14 226.529 150.14C226.529 150.14 225.697 152.169 226.783 153.371C227.431 154.081 227.782 155.193 227.963 155.982L227.804 156.226C227.227 157.118 226.457 158.283 225.953 158.924C225.058 160.061 225.312 163.661 225.312 163.661C225.312 163.661 225.121 165.364 224.482 165.996C223.843 166.629 223.969 168.964 223.969 168.964L222.331 175.128C222.331 175.128 220.794 176.515 220.794 177.148C220.794 177.78 219.579 179.546 219.579 179.546C219.579 179.546 217.723 182.576 219.579 182.135C220.258 181.938 220.894 181.62 221.458 181.195V181.242C221.458 181.352 221.458 181.465 221.458 181.581C221.405 184.88 221.771 189.526 224.2 189.526C227.957 189.526 237.699 194.006 237.699 194.006C239.681 195.521 242.367 195.017 242.367 195.017C242.367 195.017 237.612 199.741 237.749 201.701C237.887 203.661 235.063 206.876 235.063 206.876L226.36 223.859C226.409 225.043 226.62 226.214 226.986 227.34L226.861 227.447C223.518 230.502 223.227 236.547 223.227 236.547L222.46 239.64L234.102 244.756C234.102 244.756 249.201 245.069 251.825 244.377C254.448 243.685 253.872 240.777 250.416 240.21C246.96 239.644 246.13 238.125 244.978 237.433C244.202 236.964 241.444 233.937 239.731 232.017C239.706 231.986 239.681 231.961 239.656 231.933L240.054 229.742C240.821 229.363 241.973 225.575 241.973 225.575C241.973 225.575 241.973 224.06 242.74 223.618C243.507 223.177 245.106 218.631 245.106 218.631C245.106 218.631 248.55 212.886 248.372 212.129C248.193 211.371 250.876 207.521 250.876 207.521C250.876 207.521 255.418 203.1 255.224 202.311C255.03 201.522 258.871 197.481 258.871 197.481C260.259 196.423 261.415 195.092 262.268 193.571L263.376 193.389C268.401 192.566 276.747 191.079 277.68 190.662C278.96 190.096 278.704 192.622 278.194 194.767C277.683 196.911 277.298 207.204 277.88 208.541C278.463 209.878 278.194 212.016 278.194 212.016L277.427 223.568L277.937 226.032C277.937 226.032 276.209 227.419 276.913 228.239C277.617 229.059 276.979 232.597 276.979 232.597C277.038 232.575 277.11 232.553 277.189 232.531C277.129 232.669 277.07 232.813 277.016 232.96C276.024 235.777 276.594 240.423 276.594 240.423V244.086C276.594 244.086 294.316 244.399 298.217 244.399C302.117 244.399 307.496 242.505 307.815 240.99C308.134 239.475 303.326 238.191 301.535 238.125ZM251.133 172.405L249.974 172.502C250.357 172.445 250.743 172.413 251.13 172.405H251.133ZM258.211 123.946C258.374 123.214 258.571 122.431 258.79 121.623L258.211 123.946ZM260.402 174.174C259.296 174.61 258.065 174.61 256.959 174.174C256.959 174.174 257.021 169.756 257.535 167.912C258.048 166.068 258.749 162.734 258.749 162.734C258.749 162.734 259.325 158.126 259.901 156.041C260.477 153.956 262.719 142.342 263.868 141.584C265.017 140.826 265.659 142.154 265.659 142.154C265.659 142.154 265.831 142.154 266.119 142.119C266.175 142.238 266.235 142.37 266.304 142.504C267.668 145.263 271.672 150.929 271.672 150.929C272.861 151.662 273.867 152.655 274.615 153.834C275.705 155.662 276.024 159.958 276.024 159.958C276.024 159.958 278.456 169.49 279.605 170.814C280.181 171.478 279.918 171.873 279.527 172.101C278.71 172.551 278.016 173.197 277.508 173.979C277.345 174.239 277.17 174.524 276.994 174.831C276.553 174.728 276.162 174.621 275.833 174.518C272.674 173.457 262.124 173.416 260.399 174.189L260.402 174.174Z" fill="url(#paint0_linear)"/>
<path d="M276.165 240.436V244.067C276.165 244.067 293.505 244.38 297.325 244.38C301.144 244.38 306.403 242.502 306.716 240.999C307.03 239.496 302.334 238.244 300.581 238.182C298.827 238.119 298.765 237.43 296.511 236.241C295.24 235.571 293.308 233.62 291.868 232.052C290.757 230.84 289.937 229.86 289.937 229.86C289.937 229.86 280.611 229.673 277.918 231.175C277.292 231.52 276.869 232.199 276.578 233.054C275.608 235.84 276.165 240.436 276.165 240.436Z" fill="#434175"/>
<path opacity="0.1" d="M276.579 233.044C278.535 232.365 289.984 232.105 291.868 232.061C290.757 230.85 289.937 229.87 289.937 229.87C289.937 229.87 280.611 229.682 277.919 231.185C277.299 231.517 276.87 232.196 276.579 233.044Z" fill="black"/>
<path d="M226.27 175.128L227.281 175.755L227.66 175.983L229.131 176.872C237.001 181.612 258.461 194.466 259.639 194.363C259.952 194.338 260.872 194.197 262.143 193.99L263.229 193.812C268.144 192.995 276.312 191.52 277.226 191.107C278.478 190.543 278.228 193.048 277.727 195.177C277.226 197.305 276.851 207.511 277.414 208.826C277.978 210.141 277.727 212.27 277.727 212.27L276.976 223.728L277.477 226.17C277.477 226.17 275.786 227.547 276.475 228.361C277.164 229.175 276.537 232.681 276.537 232.681C278.541 231.93 292.125 231.679 292.125 231.679C292.125 231.679 291.561 226.67 292.062 225.481C292.563 224.291 292.187 217.216 292.187 217.216C292.187 217.216 292.5 211.831 291.937 210.579C291.373 209.327 292.125 201.316 292.125 201.316C292.125 201.316 292.626 196.557 292.751 186.856C292.876 177.154 287.241 176.838 287.241 176.838C287.241 176.838 286.49 176.778 285.363 176.669C283.13 176.456 279.414 176.043 276.929 175.504C276.42 175.4 275.917 175.268 275.423 175.106C272.355 174.061 262.024 174.02 260.337 174.771C259.253 175.205 258.045 175.205 256.962 174.771L255.647 172.643L243.09 173.713L241.76 173.826L229.397 174.881L228.545 174.953L226.27 175.128Z" fill="#565387"/>
<path opacity="0.1" d="M276.603 184.746C280.25 186.524 283.731 180.219 285.369 176.662C283.137 176.45 279.421 176.036 276.935 175.498C275.285 178.24 273.106 183.039 276.603 184.746Z" fill="black"/>
<path d="M265.646 142.148C265.724 142.578 265.873 142.993 266.088 143.375C267.425 146.108 271.344 151.727 271.344 151.727C272.51 152.457 273.495 153.442 274.224 154.607C275.289 156.423 275.602 160.681 275.602 160.681C275.602 160.681 277.981 170.132 279.108 171.447C279.671 172.104 279.421 172.496 279.03 172.724C278.23 173.169 277.552 173.803 277.054 174.571C275.411 177.213 272.79 182.448 276.478 184.245C281.487 186.686 286.183 173.889 286.183 173.889C286.183 173.889 285.244 164.81 284.993 163.245C284.743 161.679 283.243 155.23 283.243 155.23C283.243 155.23 282.179 152.475 281.553 150.534C280.927 148.593 279.048 146.339 279.048 146.339C279.048 146.339 275.667 139.58 274.728 138.579C274.293 138.112 273.683 137.527 273.163 137.032C272.537 136.459 272.049 136.012 272.049 136.012C272.049 136.012 265.584 140.648 265.646 142.148Z" fill="#EE8E9E"/>
<path d="M223.211 239.684L234.606 244.756C234.606 244.756 249.38 245.069 251.947 244.38C254.514 243.692 253.95 240.811 250.569 240.248C247.188 239.684 246.374 238.182 245.247 237.493C244.486 237.03 241.788 234.027 240.113 232.124C239.305 231.207 238.736 230.559 238.736 230.559C238.736 230.559 236.544 224.736 230.474 226.051C229.364 226.293 228.342 226.834 227.519 227.616C224.247 230.643 223.962 236.638 223.962 236.638L223.211 239.684Z" fill="#434175"/>
<path opacity="0.1" d="M227.66 175.98L229.131 176.869C237.001 181.609 258.462 194.463 259.639 194.359C259.952 194.334 260.872 194.194 262.143 193.987L263.229 193.809L263.27 193.737C263.903 192.636 264.385 191.456 264.704 190.227C266.022 185.221 259.526 181.389 259.526 181.389L258.149 180.319C256.583 177.683 245.313 175.191 245.313 175.191L243.86 174.214L243.087 173.695L242.881 173.557L241.118 172.373L232.293 173L229.67 174.684L229.394 174.862L228.42 175.488L227.66 175.98Z" fill="black"/>
<path opacity="0.1" d="M227.509 227.594C229.904 235.881 239.916 233.176 239.916 233.176L240.104 232.124C239.296 231.207 238.726 230.559 238.726 230.559C238.726 230.559 236.535 224.736 230.465 226.051C229.357 226.286 228.335 226.82 227.509 227.594Z" fill="black"/>
<path d="M224.892 189.977C228.586 189.977 238.1 194.422 238.1 194.422C240.041 195.925 242.671 195.424 242.671 195.424C242.671 195.424 238.038 200.12 238.163 202.061C238.288 204.002 235.536 207.195 235.536 207.195L227.021 224.034C227.647 235.99 239.916 232.675 239.916 232.675L240.417 229.857C241.168 229.482 242.295 225.725 242.295 225.725C242.295 225.725 242.295 224.222 243.047 223.784C243.798 223.346 245.363 218.838 245.363 218.838C245.363 218.838 248.744 213.14 248.557 212.389C248.369 211.637 250.998 207.821 250.998 207.821C250.998 207.821 255.444 203.438 255.256 202.656C255.068 201.873 258.825 197.866 258.825 197.866C260.184 196.812 261.314 195.492 262.146 193.987C262.785 192.885 263.273 191.701 263.596 190.468C264.657 186.436 260.641 183.174 259.035 182.06C258.646 181.787 258.408 181.643 258.408 181.643L257.031 180.572C256.32 179.373 253.587 178.203 250.845 177.285C248.86 176.625 246.857 176.093 245.576 175.773C244.706 175.573 244.186 175.441 244.186 175.441L242.734 174.465L242.223 174.123L241.757 173.81L239.979 172.624L236.053 172.903L231.154 173.25L228.533 174.947L227.281 175.754L222.388 178.885C222.388 178.885 222.26 180.09 222.219 181.703C222.219 181.828 222.219 181.953 222.219 182.085C222.159 185.372 222.51 189.977 224.892 189.977Z" fill="#565387"/>
<path d="M243.735 119.861L245.05 124.557C245.05 124.557 247.367 132.634 247.617 133.197C247.868 133.761 253.941 139.458 254.192 139.584C254.442 139.709 257.748 141.584 257.748 141.584C257.748 141.584 258.011 131.253 257.748 128.251C257.726 127.59 257.781 126.93 257.911 126.282C258.308 123.928 259.319 120.475 260.158 117.814C260.86 115.588 261.439 113.916 261.439 113.916C261.439 113.916 246.791 113.29 247.292 114.73C247.48 115.275 247.42 116.183 247.235 117.097C246.922 118.596 246.296 120.105 245.914 119.986C245.533 119.901 245.143 119.858 244.753 119.858C244.227 119.842 243.735 119.861 243.735 119.861Z" fill="#EE8E9E"/>
<path opacity="0.1" d="M247.248 117.097C249.038 118.591 251.262 119.468 253.59 119.597C255.918 119.726 258.226 119.101 260.171 117.814C260.872 115.588 261.451 113.916 261.451 113.916C261.451 113.916 246.803 113.29 247.304 114.73C247.492 115.275 247.432 116.183 247.248 117.097Z" fill="black"/>
<path d="M265.024 108.409C265.024 109.558 264.841 110.699 264.482 111.79C264.392 112.072 264.287 112.349 264.169 112.62C263.326 114.617 261.902 116.315 260.083 117.495C258.265 118.674 256.133 119.281 253.966 119.236C251.798 119.191 249.694 118.497 247.926 117.243C246.157 115.99 244.805 114.234 244.045 112.203C243.615 111.054 243.387 109.84 243.369 108.613C243.369 108.547 243.369 108.478 243.369 108.412C243.345 106.975 243.607 105.546 244.14 104.211C244.673 102.876 245.467 101.66 246.475 100.634C247.484 99.6089 248.686 98.7945 250.012 98.2386C251.338 97.6827 252.762 97.3964 254.2 97.3964C255.637 97.3964 257.061 97.6827 258.387 98.2386C259.713 98.7945 260.915 99.6089 261.924 100.634C262.932 101.66 263.726 102.876 264.259 104.211C264.792 105.546 265.054 106.975 265.03 108.412L265.024 108.409Z" fill="#EE8E9E"/>
<path opacity="0.1" d="M243.735 119.861L245.05 124.557C245.05 124.557 247.367 132.634 247.617 133.197C247.868 133.761 253.941 139.459 254.192 139.584C254.442 139.709 257.748 141.584 257.748 141.584C257.748 141.584 258.011 131.253 257.748 128.251C257.726 127.591 257.781 126.93 257.911 126.282L257.059 129.754L257.122 136.704L257.623 137.079L256.496 138.77V137.518C256.496 137.518 252.488 133.636 251.862 132.008C251.236 130.38 248.982 127.431 248.982 127.431C248.982 127.431 246.415 123.117 246.353 122.365C246.306 121.78 245.226 120.425 244.753 119.861C244.227 119.842 243.735 119.861 243.735 119.861Z" fill="black"/>
<path opacity="0.1" d="M265.646 142.148C265.724 142.578 265.873 142.993 266.088 143.375C267.459 143.234 272.121 142.364 273.147 137.035C272.521 136.462 272.033 136.015 272.033 136.015C272.033 136.015 265.584 140.648 265.646 142.148Z" fill="black"/>
<path opacity="0.1" d="M222.209 182.1C223.462 181.205 224.676 179.987 225.393 179.649C226.458 179.148 228.086 177.52 228.086 177.52C228.086 177.52 228.499 177.238 229.131 176.869C230.293 176.187 232.199 175.2 233.658 175.078C234.964 174.969 239.293 174.69 242.737 174.477L247.195 174.202C247.195 174.202 251.264 172.762 253.018 173.701C254.273 174.33 255.597 174.813 256.962 175.141C256.962 175.141 256.962 175.003 256.962 174.768L255.647 172.64L241.76 173.823L239.979 172.624L231.154 173.25L228.533 174.947L226.273 175.141L227.284 175.767L222.391 178.898C222.391 178.898 222.238 180.297 222.209 182.1Z" fill="black"/>
<path d="M220.394 182.642C221.057 182.443 221.679 182.125 222.228 181.703C223.48 180.81 224.686 179.593 225.402 179.258C226.467 178.757 228.095 177.129 228.095 177.129C228.095 177.129 231.413 174.875 233.667 174.687C234.293 174.637 235.564 174.546 237.111 174.446C238.657 174.346 240.555 174.224 242.22 174.133L244.875 173.967L247.188 173.823C247.188 173.823 251.258 172.383 253.011 173.322C254.267 173.951 255.59 174.434 256.956 174.762C256.956 174.762 257.018 170.379 257.519 168.563C258.02 166.748 258.709 163.432 258.709 163.432C258.709 163.432 259.272 158.862 259.836 156.796C260.399 154.729 262.588 143.209 263.715 142.457C264.842 141.706 265.468 143.021 265.468 143.021C265.468 143.021 272.981 142.896 273.106 134.634C273.106 134.634 269.6 131.128 269.35 130.251C269.099 129.375 265.781 126.119 265.781 126.119C265.781 126.119 263.903 122.613 261.774 122.55C260.768 122.492 259.759 122.524 258.759 122.644L256.956 130.001L257.018 136.951L257.519 137.326L256.392 139.017V137.765C256.392 137.765 252.385 133.883 251.759 132.255C251.133 130.627 248.879 127.678 248.879 127.678C248.879 127.678 246.312 123.364 246.249 122.613C246.187 121.861 244.433 119.848 244.433 119.848C244.08 119.807 243.723 119.807 243.369 119.848C243.211 119.86 243.051 119.838 242.903 119.783C241.891 119.459 240.813 119.398 239.772 119.607C237.609 120.055 234.315 120.878 233.414 121.861C232.036 123.364 230.033 124.804 227.779 131.065L239.922 135.448L238.864 137.427L229.2 155.797C229.2 155.797 228.887 156.32 228.445 157.002C227.882 157.888 227.127 159.043 226.633 159.679C225.756 160.806 226.007 164.375 226.007 164.375C226.007 164.375 225.819 166.065 225.193 166.691C224.567 167.317 224.692 169.634 224.692 169.634L223.064 175.707C223.064 175.707 221.561 177.085 221.561 177.711C221.561 178.337 220.372 180.09 220.372 180.09C220.372 180.09 218.568 183.093 220.394 182.642Z" fill="#434175"/>
<path opacity="0.1" d="M284.489 187.162C284.489 187.162 280.548 188.474 279.48 190.352C278.413 192.231 284.489 187.162 284.489 187.162Z" fill="black"/>
<path opacity="0.1" d="M282.489 183.03C282.364 183.218 277.086 188.512 277.417 189.789C277.749 191.066 282.489 183.03 282.489 183.03Z" fill="black"/>
<path opacity="0.1" d="M253.503 186.787C253.503 186.787 247.63 189.56 247.116 190.781C246.603 192.002 253.503 186.787 253.503 186.787Z" fill="black"/>
<path opacity="0.1" d="M253.127 190.352C253.127 190.352 247.805 192.606 247.091 193.17C246.377 193.733 253.127 190.352 253.127 190.352Z" fill="black"/>
<path opacity="0.1" d="M250.685 195.164C250.685 195.164 248.334 196.917 247.035 195.54C245.736 194.162 250.685 195.164 250.685 195.164Z" fill="black"/>
<path opacity="0.1" d="M259.526 149.473C259.401 149.661 251.574 163.749 249.508 164.813C247.442 165.877 259.526 149.473 259.526 149.473Z" fill="black"/>
<path opacity="0.1" d="M259.138 154.795C259.138 155.108 251.499 171.447 250.247 171.635C248.994 171.822 259.138 154.795 259.138 154.795Z" fill="black"/>
<path opacity="0.1" d="M230.098 165.311C230.098 165.311 226.41 173.19 224.964 173.638C223.518 174.086 230.098 165.311 230.098 165.311Z" fill="black"/>
<path opacity="0.1" d="M229.472 161.808C229.472 161.808 228.201 164.56 227.428 164.56C226.655 164.56 229.472 161.808 229.472 161.808Z" fill="black"/>
<path opacity="0.1" d="M265.024 108.409C265.024 109.558 264.841 110.699 264.482 111.79C264.392 112.072 264.287 112.349 264.169 112.62C263.615 112.535 263.093 112.304 262.657 111.953C262.192 111.638 261.804 111.223 261.52 110.738C261.307 110.222 261.122 109.694 260.966 109.157C260.716 108.552 260.309 108.024 259.787 107.628C259.265 107.232 258.646 106.983 257.995 106.906C258.355 107.533 257.782 108.362 257.078 108.472C256.374 108.581 255.688 108.159 255.2 107.636C254.711 107.113 254.364 106.478 253.882 105.955C253.4 105.432 252.711 105.016 252.003 105.119C251.377 105.213 250.898 105.689 250.376 106.042C249.853 106.396 249.123 106.634 248.622 106.255C248.341 106.046 248.203 105.689 247.934 105.46C247.242 104.881 246.165 105.479 245.655 106.227C244.869 107.385 244.402 108.087 243.369 108.61C243.369 108.544 243.369 108.475 243.369 108.409C243.345 106.971 243.607 105.543 244.14 104.208C244.673 102.872 245.467 101.657 246.475 100.631C247.484 99.6058 248.686 98.7913 250.012 98.2354C251.338 97.6795 252.762 97.3932 254.2 97.3932C255.637 97.3932 257.061 97.6795 258.387 98.2354C259.713 98.7913 260.915 99.6058 261.924 100.631C262.932 101.657 263.726 102.872 264.259 104.208C264.792 105.543 265.054 106.971 265.03 108.409H265.024Z" fill="black"/>
<path d="M245.654 105.914C246.164 105.163 247.241 104.565 247.933 105.147C248.202 105.373 248.34 105.729 248.622 105.942C249.123 106.321 249.855 106.083 250.375 105.729C250.895 105.376 251.38 104.9 252.003 104.806C252.707 104.696 253.393 105.119 253.881 105.642C254.37 106.165 254.714 106.8 255.199 107.323C255.684 107.846 256.37 108.262 257.078 108.156C257.785 108.049 258.355 107.216 257.995 106.59C258.645 106.667 259.264 106.916 259.785 107.312C260.307 107.707 260.714 108.235 260.963 108.841C261.12 109.378 261.305 109.905 261.517 110.422C261.801 110.906 262.191 111.32 262.656 111.634C263.229 112.056 263.927 112.41 264.629 112.288C265.33 112.166 265.925 111.349 265.599 110.723C265.821 111.064 266.303 110.588 266.375 110.187C266.535 109.307 266.485 108.403 266.231 107.545C265.887 106.381 265.161 105.229 265.439 104.045C265.662 103.106 266.46 102.439 266.945 101.61C267.806 100.138 267.571 98.1659 266.532 96.8135C265.988 96.1537 265.297 95.6311 264.514 95.288C263.73 94.9448 262.878 94.7907 262.024 94.8381C261.554 94.8902 261.08 94.8986 260.609 94.8631C259.823 94.7473 259.156 94.237 258.53 93.7518L253.28 89.6632C252.697 89.1481 252.026 88.743 251.299 88.4674C250.56 88.2388 249.671 88.3171 249.107 88.8649C248.124 89.8479 248.747 91.5385 248.353 92.869C248.011 94.021 246.913 94.8037 245.776 95.1919C244.64 95.5801 243.422 95.6677 242.251 95.9495C241.904 96.0071 241.579 96.1587 241.312 96.3877C241.009 96.7631 240.862 97.2407 240.902 97.7214C240.894 98.8989 241.173 100.061 241.716 101.106C242.323 102.273 243.281 103.472 242.946 104.746C242.765 105.419 242.245 105.936 241.788 106.462C240.799 107.602 240.464 109.279 242.329 108.697C244.136 108.134 244.64 107.404 245.654 105.914Z" fill="#434175"/>
<g opacity="0.1">
<path opacity="0.1" d="M266.373 108.963C266.298 109.364 265.819 109.84 265.593 109.499C265.906 110.125 265.324 110.936 264.623 111.064C263.921 111.192 263.226 110.829 262.65 110.41C262.186 110.095 261.797 109.68 261.514 109.195C261.251 108.704 261.166 108.134 260.96 107.614C260.709 107.009 260.302 106.481 259.78 106.085C259.258 105.69 258.64 105.44 257.989 105.363C258.352 105.989 257.776 106.822 257.072 106.928C256.367 107.035 255.682 106.615 255.193 106.093C254.705 105.57 254.357 104.937 253.875 104.411C253.393 103.886 252.705 103.472 251.997 103.576C251.371 103.673 250.892 104.145 250.369 104.499C249.846 104.853 249.117 105.094 248.616 104.715C248.334 104.502 248.2 104.145 247.93 103.92C247.235 103.338 246.158 103.936 245.648 104.684C244.637 106.174 244.133 106.91 242.336 107.476C241.747 107.661 241.378 107.62 241.178 107.442C240.786 108.347 240.965 109.142 242.336 108.71C244.133 108.143 244.637 107.411 245.648 105.92C246.158 105.169 247.235 104.571 247.93 105.153C248.2 105.379 248.334 105.736 248.616 105.949C249.12 106.327 249.849 106.089 250.369 105.736C250.889 105.382 251.374 104.906 251.997 104.812C252.701 104.703 253.387 105.125 253.875 105.648C254.364 106.171 254.708 106.806 255.193 107.329C255.679 107.852 256.364 108.268 257.072 108.162C257.779 108.055 258.352 107.223 257.989 106.597C258.64 106.673 259.259 106.921 259.781 107.317C260.304 107.713 260.711 108.241 260.96 108.848C261.115 109.384 261.3 109.912 261.514 110.428C261.798 110.912 262.186 111.326 262.65 111.64C263.226 112.063 263.921 112.416 264.623 112.294C265.324 112.172 265.919 111.355 265.593 110.729C265.819 111.07 266.298 110.594 266.373 110.194C266.47 109.653 266.489 109.102 266.429 108.556C266.419 108.692 266.4 108.828 266.373 108.963Z" fill="black"/>
<path opacity="0.1" d="M242.934 103.566C242.934 103.547 242.934 103.535 242.95 103.516C243.291 102.245 242.324 101.046 241.719 99.8784C241.294 99.0544 241.03 98.1564 240.943 97.233C240.92 97.3969 240.907 97.5621 240.905 97.7277C240.899 98.905 241.178 100.066 241.719 101.112C242.145 101.91 242.724 102.724 242.934 103.566Z" fill="black"/>
<path opacity="0.1" d="M266.939 100.386C266.454 101.215 265.655 101.885 265.433 102.821C265.344 103.216 265.344 103.625 265.433 104.02C265.665 103.103 266.447 102.439 266.926 101.619C267.382 100.818 267.552 99.8867 267.409 98.9768C267.347 99.4728 267.187 99.9516 266.939 100.386Z" fill="black"/>
</g>
<path opacity="0.1" d="M228.458 157.002C228.54 157.348 228.604 157.698 228.649 158.051C228.649 158.051 233.595 169.634 234.221 170.32C234.412 170.533 235.139 171.572 236.053 172.915L237.102 174.462C238.98 177.279 241.106 180.463 241.106 180.463L245.751 184.52C245.751 184.52 255.829 185.325 259.031 182.056C258.643 181.784 258.405 181.64 258.405 181.64L257.028 180.569C256.317 179.37 253.584 178.2 250.842 177.282C248.306 177.301 246.23 177.508 246.23 177.508L245.573 175.77L244.884 173.958L241.369 164.747C241.369 164.747 239.108 153.105 238.357 152.538C237.606 151.971 237.797 150.221 237.797 150.221C237.797 150.221 239.171 145.275 238.67 144.586C238.169 143.898 239.484 138.829 239.484 138.829C239.355 138.333 239.152 137.859 238.883 137.424L229.219 155.794C229.219 155.794 228.89 156.32 228.458 157.002Z" fill="black"/>
<path d="M239.603 138.457C239.603 138.457 238.288 143.525 238.789 144.214C239.29 144.902 237.913 149.849 237.913 149.849C237.913 149.849 237.728 151.602 238.476 152.165C239.224 152.729 241.488 164.375 241.488 164.375L246.337 177.148C246.337 177.148 261.514 175.645 259.952 180.403C258.39 185.162 245.864 184.16 245.864 184.16L241.231 180.09C241.231 180.09 234.97 170.636 234.344 169.947C233.718 169.258 228.771 157.678 228.771 157.678C228.771 157.678 228.521 155.362 227.456 154.172C226.392 152.982 227.206 150.97 227.206 150.97C227.206 150.97 225.891 135.83 227.269 134.014C228.646 132.198 238.163 133.009 239.603 138.457Z" fill="#EE8E9E"/>
<path opacity="0.1" d="M231.842 128.94L227.898 131.319C227.898 131.319 226.771 135.138 225.894 135.639C225.894 135.639 233.783 131.256 239.728 141.334C239.728 141.334 239.54 140.022 240.354 139.396C241.168 138.77 240.98 136.077 240.98 136.077C241.197 135.652 241.385 135.213 241.544 134.763C242.107 133.385 239.177 125.496 231.842 128.94Z" fill="black"/>
<path d="M231.717 128.689L227.772 131.069C227.772 131.069 226.645 134.888 225.769 135.389C225.769 135.389 233.658 131.006 239.603 141.083C239.603 141.083 239.415 139.772 240.229 139.145C241.043 138.519 240.855 135.827 240.855 135.827C241.071 135.402 241.26 134.962 241.418 134.512C241.994 133.135 239.039 125.246 231.717 128.689Z" fill="#434175"/>
<path d="M196.564 238.326C203.058 238.326 208.322 232.737 208.322 225.844C208.322 218.95 203.058 213.362 196.564 213.362C190.07 213.362 184.805 218.95 184.805 225.844C184.805 232.737 190.07 238.326 196.564 238.326Z" fill="#FBD56F"/>
<path opacity="0.1" d="M196.564 238.326C203.058 238.326 208.322 232.737 208.322 225.844C208.322 218.95 203.058 213.362 196.564 213.362C190.07 213.362 184.805 218.95 184.805 225.844C184.805 232.737 190.07 238.326 196.564 238.326Z" fill="black"/>
<path d="M198.592 238.326C205.087 238.326 210.351 232.862 210.351 226.122C210.351 219.383 205.087 213.919 198.592 213.919C192.098 213.919 186.834 219.383 186.834 226.122C186.834 232.862 192.098 238.326 198.592 238.326Z" fill="#FBD56F"/>
<path d="M28.2191 232.703C36.2398 232.703 42.7419 231.604 42.7419 230.249C42.7419 228.893 36.2398 227.794 28.2191 227.794C20.1984 227.794 13.6963 228.893 13.6963 230.249C13.6963 231.604 20.1984 232.703 28.2191 232.703Z" fill="#2B7BE1"/>
<path d="M34.2234 226.232C34.8495 225.653 35.4287 224.98 35.6103 224.141C35.7918 223.302 35.435 222.319 34.6429 222.015C33.7538 221.674 32.8021 222.291 32.0821 222.914C31.3621 223.537 30.5387 224.244 29.5964 224.113C30.0812 223.673 30.4438 223.116 30.649 222.495C30.8542 221.874 30.8949 221.21 30.7672 220.569C30.73 220.305 30.6218 220.056 30.4542 219.849C29.9627 219.323 29.0673 219.536 28.4757 219.965C26.5973 221.286 26.0745 223.837 26.0651 226.132C25.8741 225.302 26.0338 224.441 26.0307 223.59C26.0275 222.738 25.7927 221.799 25.0915 221.342C24.6445 221.103 24.1425 220.985 23.6358 221.001C22.7905 220.97 21.8513 221.054 21.2753 221.671C20.5584 222.441 20.7431 223.728 21.3661 224.573C21.9891 225.418 22.9314 225.944 23.8111 226.529C24.5105 226.947 25.1074 227.516 25.5579 228.195C25.6116 228.294 25.6547 228.399 25.6863 228.508H30.9801C32.1589 227.899 33.2499 227.133 34.2234 226.232Z" fill="#2B7BE1"/>
<path d="M132.84 93.7863L144.712 87.8381L149.094 91.8547L150.137 94.7254L151.233 99.5497L150.268 101.663L142.677 103.047C142.677 103.047 138.632 102.812 138.006 103.125C137.38 103.438 134.825 103.979 134.825 103.979L132.84 99.0926V93.7863Z" fill="#FBD56F"/>
</g>
<defs>
<linearGradient id="paint0_linear" x1="263.289" y1="244.828" x2="263.289" y2="87.0335" gradientUnits="userSpaceOnUse">
<stop stop-color="#808080" stop-opacity="0.25"/>
<stop offset="0.54" stop-color="#808080" stop-opacity="0.12"/>
<stop offset="1" stop-color="#808080" stop-opacity="0.1"/>
</linearGradient>
<clipPath id="clip0">
<rect width="350" height="251.33" fill="white"/>
</clipPath>
</defs>
</svg>
