<svg width="350" height="292" viewBox="0 0 350 292" fill="none" xmlns="http://www.w3.org/2000/svg">
<path d="M210.865 11.7532C184.877 11.7532 170.248 10.2449 144.32 11.7532C105.402 14.0171 76.3992 5.30037 45.8559 26.2024C20.2515 43.7244 14.9932 62.7627 6.90292 90.0582C-6.79655 136.278 -0.367988 170.095 28.5435 210.778C67.9634 266.249 129.201 305.586 201.126 285.821C247.386 273.109 281.843 254.806 312.034 216.838C336.352 186.256 344.296 163.865 347.2 126.88C350.841 80.4956 358.371 35.5797 312.034 11.7532C278.108 -5.69153 250.374 11.7532 210.865 11.7532Z" fill="#87B9F9" fill-opacity="0.2"/>
<g clip-path="url(#clip0)">
<g opacity="0.8">
<path opacity="0.8" d="M350 0H183.892V185.395H350V0Z" fill="url(#paint0_linear)"/>
</g>
<path d="M347.252 123.781H186.636V181.357H347.252V123.781Z" fill="white"/>
<path d="M206.043 137.438H199.819V166.941H206.043V137.438Z" fill="#64FFDA"/>
<g opacity="0.7">
<path opacity="0.7" d="M218.329 137.438H212.105V166.941H218.329V137.438Z" fill="#64FFDA"/>
</g>
<g opacity="0.6">
<path opacity="0.6" d="M230.62 137.438H224.396V166.941H230.62V137.438Z" fill="#64FFDA"/>
</g>
<g opacity="0.5">
<path opacity="0.5" d="M242.907 137.438H236.683V166.941H242.907V137.438Z" fill="#64FFDA"/>
</g>
<g opacity="0.5">
<path opacity="0.5" d="M255.193 137.438H248.969V166.941H255.193V137.438Z" fill="#64FFDA"/>
</g>
<g opacity="0.4">
<path opacity="0.4" d="M267.479 137.438H261.255V166.941H267.479V137.438Z" fill="#64FFDA"/>
</g>
<g opacity="0.3">
<path opacity="0.3" d="M279.769 137.438H273.545V166.941H279.769V137.438Z" fill="#64FFDA"/>
</g>
<path d="M324.514 167.018C332.808 167.018 339.532 160.294 339.532 151.999C339.532 143.705 332.808 136.981 324.514 136.981C316.219 136.981 309.495 143.705 309.495 151.999C309.495 160.294 316.219 167.018 324.514 167.018Z" fill="#2B7BE1"/>
<path d="M347.252 63.9619H186.636V121.538H347.252V63.9619Z" fill="white"/>
<path d="M206.043 77.6183H199.819V107.122H206.043V77.6183Z" fill="#64FFDA"/>
<g opacity="0.7">
<path opacity="0.7" d="M218.329 77.6183H212.105V107.122H218.329V77.6183Z" fill="#64FFDA"/>
</g>
<g opacity="0.6">
<path opacity="0.6" d="M230.62 77.6183H224.396V107.122H230.62V77.6183Z" fill="#64FFDA"/>
</g>
<g opacity="0.5">
<path opacity="0.5" d="M242.907 77.6183H236.683V107.122H242.907V77.6183Z" fill="#64FFDA"/>
</g>
<g opacity="0.5">
<path opacity="0.5" d="M255.193 77.6183H248.969V107.122H255.193V77.6183Z" fill="#64FFDA"/>
</g>
<g opacity="0.4">
<path opacity="0.4" d="M267.479 77.6183H261.255V107.122H267.479V77.6183Z" fill="#64FFDA"/>
</g>
<g opacity="0.3">
<path opacity="0.3" d="M279.769 77.6183H273.545V107.122H279.769V77.6183Z" fill="#64FFDA"/>
</g>
<path d="M324.514 107.203C332.808 107.203 339.532 100.479 339.532 92.1842C339.532 83.8897 332.808 77.1657 324.514 77.1657C316.219 77.1657 309.495 83.8897 309.495 92.1842C309.495 100.479 316.219 107.203 324.514 107.203Z" fill="#2B7BE1"/>
<path d="M347.252 4.14261H186.636V61.7188H347.252V4.14261Z" fill="white"/>
<path d="M206.043 17.8031H199.819V47.3066H206.043V17.8031Z" fill="#64FFDA"/>
<g opacity="0.7">
<path opacity="0.7" d="M218.329 17.8031H212.105V47.3066H218.329V17.8031Z" fill="#64FFDA"/>
</g>
<g opacity="0.6">
<path opacity="0.6" d="M230.62 17.8031H224.396V47.3066H230.62V17.8031Z" fill="#64FFDA"/>
</g>
<g opacity="0.5">
<path opacity="0.5" d="M242.907 17.8031H236.683V47.3066H242.907V17.8031Z" fill="#64FFDA"/>
</g>
<g opacity="0.5">
<path opacity="0.5" d="M255.193 17.8031H248.969V47.3066H255.193V17.8031Z" fill="#64FFDA"/>
</g>
<g opacity="0.4">
<path opacity="0.4" d="M267.479 17.8031H261.255V47.3066H267.479V17.8031Z" fill="#64FFDA"/>
</g>
<g opacity="0.3">
<path opacity="0.3" d="M279.769 17.8031H273.545V47.3066H279.769V17.8031Z" fill="#64FFDA"/>
</g>
<path d="M324.514 48.5554C333.456 48.5554 340.704 41.3067 340.704 32.3649C340.704 23.4231 333.456 16.1744 324.514 16.1744C315.572 16.1744 308.323 23.4231 308.323 32.3649C308.323 41.3067 315.572 48.5554 324.514 48.5554Z" fill="url(#paint1_linear)"/>
<path d="M324.514 108.775C333.456 108.775 340.704 101.526 340.704 92.5843C340.704 83.6425 333.456 76.3938 324.514 76.3938C315.572 76.3938 308.323 83.6425 308.323 92.5843C308.323 101.526 315.572 108.775 324.514 108.775Z" fill="url(#paint2_linear)"/>
<path d="M324.514 168.59C333.456 168.59 340.704 161.341 340.704 152.4C340.704 143.458 333.456 136.209 324.514 136.209C315.572 136.209 308.323 143.458 308.323 152.4C308.323 161.341 315.572 168.59 324.514 168.59Z" fill="url(#paint3_linear)"/>
<path d="M324.514 47.3834C332.808 47.3834 339.532 40.6594 339.532 32.3649C339.532 24.0704 332.808 17.3464 324.514 17.3464C316.219 17.3464 309.495 24.0704 309.495 32.3649C309.495 40.6594 316.219 47.3834 324.514 47.3834Z" fill="#2B7BE1"/>
<g opacity="0.8">
<path opacity="0.8" d="M235.676 281.039H13.3657V139.107C13.3657 138.268 13.5309 137.438 13.8518 136.663C14.1727 135.888 14.6431 135.184 15.236 134.591C15.829 133.998 16.533 133.528 17.3077 133.207C18.0825 132.886 18.9128 132.721 19.7514 132.721H229.287C230.125 132.721 230.956 132.886 231.73 133.207C232.505 133.528 233.209 133.998 233.802 134.591C234.395 135.184 234.865 135.888 235.186 136.663C235.507 137.438 235.672 138.268 235.672 139.107L235.676 281.039Z" fill="url(#paint4_linear)"/>
</g>
<path d="M22.8144 135.332H226.227C227.92 135.332 229.544 136.005 230.742 137.202C231.939 138.4 232.612 140.024 232.612 141.718V281.039H16.4287V141.718C16.4287 140.024 17.1015 138.4 18.299 137.202C19.4966 136.005 21.1208 135.332 22.8144 135.332Z" fill="white"/>
<path d="M225.653 143.807H23.3887V276.472H225.653V143.807Z" fill="#F5F5F5"/>
<path opacity="0.8" d="M225.572 150.249H24.1646V269.605H225.572V150.249Z" fill="#E0E0E0"/>
<path d="M225.572 143.908H24.1646V150.249H225.572V143.908Z" fill="#F5F5F5"/>
<path d="M28.4811 148.516C29.3293 148.516 30.0169 147.828 30.0169 146.98C30.0169 146.132 29.3293 145.444 28.4811 145.444C27.6329 145.444 26.9453 146.132 26.9453 146.98C26.9453 147.828 27.6329 148.516 28.4811 148.516Z" fill="#FF5252"/>
<path d="M32.7086 148.516C33.5568 148.516 34.2444 147.828 34.2444 146.98C34.2444 146.132 33.5568 145.444 32.7086 145.444C31.8605 145.444 31.1729 146.132 31.1729 146.98C31.1729 147.828 31.8605 148.516 32.7086 148.516Z" fill="#FFFF00"/>
<path d="M36.9401 148.516C37.7883 148.516 38.4759 147.828 38.4759 146.98C38.4759 146.132 37.7883 145.444 36.9401 145.444C36.0919 145.444 35.4043 146.132 35.4043 146.98C35.4043 147.828 36.0919 148.516 36.9401 148.516Z" fill="#69F0AE"/>
<g opacity="0.8">
<path opacity="0.8" d="M241.896 290.573C229.521 291.51 16.999 291.135 9.57061 290.573C-0.165528 285.88 0.000179572 267.677 0.000179572 267.677L97.4626 267.027L97.79 272.568H139.515L141.132 267.677H249.155C249.155 267.677 251.301 284.381 241.896 290.573Z" fill="url(#paint5_linear)"/>
</g>
<path d="M247.57 269.144H141.657C142.074 269.614 142.345 270.194 142.437 270.815C142.529 271.435 142.439 272.069 142.177 272.64C141.916 273.21 141.494 273.692 140.963 274.026C140.432 274.361 139.815 274.534 139.188 274.524H98.7718C98.1444 274.534 97.5276 274.361 96.9967 274.026C96.4658 273.692 96.0437 273.21 95.782 272.64C95.5202 272.069 95.43 271.435 95.5224 270.815C95.6148 270.194 95.8858 269.614 96.3024 269.144H1.46697C1.46697 269.144 1.3053 284.955 10.9202 289.029C18.2557 289.518 228.179 289.837 240.401 289.029C249.692 283.65 247.57 269.144 247.57 269.144Z" fill="#F5F5F5"/>
<path d="M23.4695 273.869C24.1905 273.869 24.7749 273.284 24.7749 272.564C24.7749 271.843 24.1905 271.258 23.4695 271.258C22.7485 271.258 22.1641 271.843 22.1641 272.564C22.1641 273.284 22.7485 273.869 23.4695 273.869Z" fill="#E0E0E0"/>
<path d="M27.3816 273.869C28.1026 273.869 28.687 273.284 28.687 272.564C28.687 271.843 28.1026 271.258 27.3816 271.258C26.6606 271.258 26.0762 271.843 26.0762 272.564C26.0762 273.284 26.6606 273.869 27.3816 273.869Z" fill="#E0E0E0"/>
<path d="M31.2942 273.869C32.0152 273.869 32.5996 273.284 32.5996 272.564C32.5996 271.843 32.0152 271.258 31.2942 271.258C30.5732 271.258 29.9888 271.843 29.9888 272.564C29.9888 273.284 30.5732 273.869 31.2942 273.869Z" fill="#E0E0E0"/>
<g opacity="0.7">
<path opacity="0.7" d="M118.236 154.942L79.0083 179.082C79.0083 179.082 79.0083 228.874 118.236 256.029C157.463 228.87 157.463 179.082 157.463 179.082L118.236 154.942Z" fill="url(#paint6_linear)"/>
</g>
<path d="M118.236 157.791L81.2354 180.573C81.2354 180.573 81.2354 227.561 118.256 253.188C155.277 227.561 155.277 180.573 155.277 180.573L118.236 157.791Z" fill="#2B7BE1"/>
<path opacity="0.05" d="M118.867 157.791L118.232 158.195V252.768L118.867 253.212C155.888 227.585 155.888 180.598 155.888 180.598L118.867 157.791Z" fill="black"/>
<path d="M118.236 163.296L85.4995 183.447C85.4995 183.447 85.4995 225.01 118.236 247.684C150.973 225.01 150.973 183.447 150.973 183.447L118.236 163.296Z" fill="#2B7BE1"/>
<path opacity="0.08" d="M118.236 163.453V247.825C150.973 225.152 150.973 183.588 150.973 183.588L118.236 163.453Z" fill="black"/>
<path d="M96.5938 123.826V40.1651H165.705" stroke="#3AD29F" stroke-width="2" stroke-miterlimit="10" stroke-dasharray="12 12"/>
<path d="M75.1733 98.3638V14.7032H144.284" stroke="#3AD29F" stroke-width="2" stroke-miterlimit="10" stroke-dasharray="12 12"/>
<path d="M289.377 192.936V258.41H253.002" stroke="#3AD29F" stroke-width="2" stroke-miterlimit="10" stroke-dasharray="12 12"/>
<path d="M311.201 207.486V272.96H274.827" stroke="#3AD29F" stroke-width="2" stroke-miterlimit="10" stroke-dasharray="12 12"/>
</g>
<defs>
<linearGradient id="paint0_linear" x1="266.946" y1="185.395" x2="266.946" y2="0" gradientUnits="userSpaceOnUse">
<stop stop-color="#808080" stop-opacity="0.25"/>
<stop offset="0.54" stop-color="#808080" stop-opacity="0.12"/>
<stop offset="1" stop-color="#808080" stop-opacity="0.1"/>
</linearGradient>
<linearGradient id="paint1_linear" x1="26308.4" y1="3906.44" x2="26308.4" y2="1312.06" gradientUnits="userSpaceOnUse">
<stop stop-color="#808080" stop-opacity="0.25"/>
<stop offset="0.54" stop-color="#808080" stop-opacity="0.12"/>
<stop offset="1" stop-color="#808080" stop-opacity="0.1"/>
</linearGradient>
<linearGradient id="paint2_linear" x1="26308.4" y1="8791.44" x2="26308.4" y2="6197.07" gradientUnits="userSpaceOnUse">
<stop stop-color="#808080" stop-opacity="0.25"/>
<stop offset="0.54" stop-color="#808080" stop-opacity="0.12"/>
<stop offset="1" stop-color="#808080" stop-opacity="0.1"/>
</linearGradient>
<linearGradient id="paint3_linear" x1="26308.4" y1="13643.7" x2="26308.4" y2="11049.3" gradientUnits="userSpaceOnUse">
<stop stop-color="#808080" stop-opacity="0.25"/>
<stop offset="0.54" stop-color="#808080" stop-opacity="0.12"/>
<stop offset="1" stop-color="#808080" stop-opacity="0.1"/>
</linearGradient>
<linearGradient id="paint4_linear" x1="105633" y1="116589" x2="105633" y2="62160.6" gradientUnits="userSpaceOnUse">
<stop stop-color="#808080" stop-opacity="0.25"/>
<stop offset="0.54" stop-color="#808080" stop-opacity="0.12"/>
<stop offset="1" stop-color="#808080" stop-opacity="0.1"/>
</linearGradient>
<linearGradient id="paint5_linear" x1="118573" y1="19806.4" x2="118573" y2="18366.9" gradientUnits="userSpaceOnUse">
<stop stop-color="#808080" stop-opacity="0.25"/>
<stop offset="0.54" stop-color="#808080" stop-opacity="0.12"/>
<stop offset="1" stop-color="#808080" stop-opacity="0.1"/>
</linearGradient>
<linearGradient id="paint6_linear" x1="36133" y1="73272.7" x2="36133" y2="47987.7" gradientUnits="userSpaceOnUse">
<stop stop-color="#808080" stop-opacity="0.25"/>
<stop offset="0.54" stop-color="#808080" stop-opacity="0.12"/>
<stop offset="1" stop-color="#808080" stop-opacity="0.1"/>
</linearGradient>
<clipPath id="clip0">
<rect width="350" height="291.143" fill="white"/>
</clipPath>
</defs>
</svg>
