<svg width="75" height="75" viewBox="0 0 75 75" fill="none" xmlns="http://www.w3.org/2000/svg">
<path d="M54.2861 11.5H64.9721C70.495 11.5 74.9721 15.9772 74.9721 21.5V60.9721C74.9721 66.495 70.4949 70.9721 64.9721 70.9721H54.2861V11.5Z" fill="#8EA0B7"/>
<path d="M64.6288 61.922C65.3428 61.922 65.9217 61.3432 65.9217 60.6292C65.9217 59.9151 65.3428 59.3363 64.6288 59.3363C63.9148 59.3363 63.3359 59.9151 63.3359 60.6292C63.3359 61.3432 63.9148 61.922 64.6288 61.922Z" fill="#5B5B5B"/>
<path d="M64.6288 52.8719C65.3428 52.8719 65.9217 52.2931 65.9217 51.579C65.9217 50.865 65.3428 50.2862 64.6288 50.2862C63.9148 50.2862 63.3359 50.865 63.3359 51.579C63.3359 52.2931 63.9148 52.8719 64.6288 52.8719Z" fill="#5B5B5B"/>
<path d="M64.6288 47.7004C65.3428 47.7004 65.9217 47.1216 65.9217 46.4076C65.9217 45.6935 65.3428 45.1147 64.6288 45.1147C63.9148 45.1147 63.3359 45.6935 63.3359 46.4076C63.3359 47.1216 63.9148 47.7004 64.6288 47.7004Z" fill="#00DD7B"/>
<path d="M64.6295 65.8006C61.7734 65.8006 59.458 63.4853 59.458 60.6292C59.458 57.773 61.7734 55.4577 64.6295 55.4577C67.4856 55.4577 69.801 57.773 69.801 60.6292C69.801 63.4853 67.4856 65.8006 64.6295 65.8006ZM64.6295 58.0434C63.2014 58.0434 62.0438 59.201 62.0438 60.6292C62.0438 62.0573 63.2014 63.2149 64.6295 63.2149C66.0576 63.2149 67.2152 62.0573 67.2152 60.6292C67.2152 59.201 66.0575 58.0434 64.6295 58.0434Z" fill="#0B4DA1"/>
<path d="M60.751 16.6715H68.5082V19.2572H60.751V16.6715Z" fill="#0B4DA1"/>
<path d="M58.165 21.843H71.0938V24.4287H58.165V21.843Z" fill="#0B4DA1"/>
<path d="M58.165 27.0145H71.0938V29.6002H58.165V27.0145Z" fill="#0B4DA1"/>
<path d="M0 21.5C0 15.9772 4.47715 11.5 10 11.5H54.5V71H10C4.47715 71 0 66.5228 0 61V38.663V21.5Z" fill="#424C58"/>
<path d="M32.3076 54.1648H40.0648V56.7505H32.3076V54.1648Z" fill="#0B4DA1"/>
<path d="M32.3076 64.5078H40.0648V67.0935H32.3076V64.5078Z" fill="#0B4DA1"/>
<path d="M29.7217 59.3363H42.6504V61.922H29.7217V59.3363Z" fill="#0B4DA1"/>
<path d="M20.2377 7.52644C11.6009 5.27522 2.77426 10.4519 0.523212 19.0888C-1.09724 25.3057 1.11874 31.8919 6.16741 35.8651L8.8721 31.3827C4.33832 27.3478 3.93397 20.4013 7.96886 15.8676C9.04566 14.6576 10.3765 13.7007 11.8664 13.0653L11.8573 13.0433L13.5652 16.2755L20.3205 7.53565L20.2377 7.52644Z" fill="#2B7BE1"/>
<path d="M22.3878 14.1046C27.3931 17.5371 28.6682 24.3774 25.2358 29.3828C23.7474 31.5533 21.5293 33.1175 18.9849 33.7911L18.7832 33.8403L17.5473 29.6824L10.792 38.4261L11.41 38.6161C19.9358 41.2568 28.988 36.4858 31.6287 27.96C33.6093 21.5654 31.4424 14.6117 26.1798 10.4742C25.841 10.2066 25.4894 9.95704 25.1261 9.7101L22.3878 14.1046Z" fill="#2B7BE1"/>
</svg>
