<svg width="75" height="75" viewBox="0 0 75 75" fill="none" xmlns="http://www.w3.org/2000/svg">
<path d="M75 15.6666V59.3334C75 64.9107 70.4632 69.4475 64.8858 69.4475H10.1142C4.53823 69.4475 0 64.9107 0 59.3334V15.6666C0 10.0893 4.53823 5.55249 10.1142 5.55249H64.8858C70.4632 5.55249 75 10.0893 75 15.6666Z" fill="#2B7BE1"/>
<path d="M75 15.6666V59.3334C75 64.9107 70.4632 69.4475 64.8858 69.4475H37.4663V5.55249H64.8858C70.4632 5.55249 75 10.0893 75 15.6666Z" fill="black" fill-opacity="0.2"/>
<path d="M10.9264 18.7815C10.8546 18.7815 10.7813 18.7786 10.7095 18.7712C10.6392 18.7639 10.5672 18.7537 10.4969 18.739C10.4266 18.7258 10.3562 18.7068 10.2873 18.6863C10.2199 18.6658 10.1509 18.6409 10.085 18.6147C10.0191 18.5868 9.95303 18.5561 9.89004 18.5224C9.82705 18.4887 9.76538 18.4521 9.70532 18.4124C9.64526 18.3727 9.58652 18.3289 9.53233 18.2832C9.4752 18.2378 9.42232 18.1894 9.37105 18.1381C8.96206 17.7292 8.72754 17.162 8.72754 16.5842C8.72754 16.5125 8.73047 16.4391 8.73779 16.3674C8.74512 16.2971 8.75537 16.2251 8.77002 16.1549C8.78467 16.0846 8.80225 16.0141 8.82275 15.9453C8.84326 15.8763 8.86816 15.8087 8.896 15.7428C8.92236 15.6771 8.95313 15.611 8.98682 15.548C9.02051 15.4849 9.05859 15.4232 9.09829 15.3631C9.13784 15.3031 9.18032 15.2443 9.22588 15.1901C9.27129 15.133 9.31963 15.0801 9.37105 15.0289C9.42232 14.9774 9.47505 14.9291 9.53233 14.8837C9.58652 14.8381 9.64526 14.7957 9.70532 14.7546C9.76538 14.7149 9.82705 14.6783 9.89004 14.6448C9.95303 14.6111 10.0191 14.5803 10.085 14.5525C10.1509 14.526 10.2199 14.5011 10.2873 14.4807C10.3562 14.4601 10.4266 14.441 10.4969 14.428C10.5672 14.4133 10.6392 14.4031 10.7095 14.3958C10.8532 14.3811 10.9982 14.3811 11.1419 14.3958C11.2137 14.4031 11.2856 14.4133 11.3559 14.428C11.4262 14.4412 11.4967 14.4602 11.5641 14.4807C11.6329 14.5012 11.7004 14.5261 11.7664 14.5525C11.8337 14.5802 11.8983 14.6109 11.9613 14.6448C12.0243 14.6783 12.0875 14.7149 12.146 14.7546C12.2061 14.7955 12.2648 14.838 12.3205 14.8837C12.3762 14.9291 12.4305 14.9774 12.4803 15.0289C12.5316 15.0801 12.5799 15.1329 12.6255 15.1901C12.6709 15.2443 12.7148 15.3031 12.7545 15.3631C12.7941 15.4232 12.8307 15.4849 12.8644 15.548C12.8981 15.611 12.9289 15.6771 12.9567 15.7428C12.9831 15.8087 13.008 15.8763 13.0285 15.9453C13.0504 16.0141 13.068 16.0844 13.0812 16.1549C13.0959 16.2251 13.1061 16.2971 13.1134 16.3674C13.1208 16.4391 13.1252 16.5125 13.1252 16.5842C13.1252 17.1618 12.8906 17.7292 12.4802 18.1381C12.4304 18.1894 12.3762 18.2378 12.3204 18.2832C12.2647 18.3287 12.206 18.3725 12.1459 18.4124C12.0873 18.4519 12.0242 18.4885 11.9612 18.5224C11.8982 18.5559 11.8336 18.5867 11.7662 18.6147C11.7003 18.641 11.6328 18.6659 11.5639 18.6863C11.4965 18.7069 11.4261 18.726 11.3558 18.739C11.2855 18.7537 11.2135 18.7639 11.1418 18.7712C11.07 18.7786 10.9982 18.7815 10.9264 18.7815Z" fill="#00DD7B"/>
<path d="M19.7213 18.7815C19.6496 18.7815 19.5762 18.7786 19.5044 18.7712C19.4341 18.7639 19.3622 18.7537 19.2918 18.739C19.2215 18.7258 19.1511 18.7068 19.0822 18.6863C19.0148 18.6658 18.9458 18.6409 18.8799 18.6147C18.814 18.5868 18.7479 18.5561 18.685 18.5224C18.622 18.4887 18.5603 18.4521 18.5002 18.4124C18.4402 18.3727 18.3814 18.3289 18.3272 18.2832C18.2716 18.2378 18.2174 18.1894 18.166 18.1381C17.757 17.7292 17.5225 17.162 17.5225 16.5842C17.5225 16.5125 17.5254 16.4391 17.5327 16.3674C17.54 16.2971 17.5503 16.2251 17.5649 16.1549C17.5796 16.0846 17.5972 16.0141 17.6177 15.9453C17.6382 15.8763 17.6631 15.8087 17.6909 15.7428C17.7173 15.6771 17.748 15.611 17.7817 15.548C17.8154 15.4849 17.8535 15.4232 17.8932 15.3631C17.9328 15.3031 17.9752 15.2443 18.0208 15.1901C18.0662 15.133 18.1146 15.0801 18.166 15.0289C18.2172 14.9774 18.27 14.9291 18.3272 14.8837C18.3814 14.8381 18.4402 14.7957 18.5002 14.7546C18.5603 14.7149 18.622 14.6783 18.685 14.6448C18.7479 14.6111 18.814 14.5803 18.8799 14.5525C18.9458 14.526 19.0148 14.5011 19.0822 14.4807C19.1511 14.4601 19.2215 14.441 19.2918 14.428C19.3622 14.4133 19.4341 14.4031 19.5044 14.3958C19.6481 14.3811 19.7931 14.3811 19.9368 14.3958C20.0086 14.4031 20.0805 14.4133 20.1508 14.428C20.2211 14.4412 20.2916 14.4602 20.359 14.4807C20.4278 14.5012 20.4954 14.5261 20.5613 14.5525C20.6287 14.5802 20.6933 14.6109 20.7562 14.6448C20.8192 14.6783 20.8824 14.7149 20.941 14.7546C21.001 14.7955 21.0598 14.838 21.1154 14.8837C21.1711 14.9291 21.2254 14.9774 21.2752 15.0289C21.3265 15.0801 21.3749 15.1329 21.4204 15.1901C21.4658 15.2443 21.5098 15.3031 21.5495 15.3631C21.589 15.4232 21.6256 15.4849 21.6593 15.548C21.693 15.611 21.7238 15.6771 21.7516 15.7428C21.778 15.8087 21.8029 15.8763 21.8234 15.9453C21.8454 16.0141 21.8629 16.0844 21.8761 16.1549C21.8908 16.2251 21.901 16.2971 21.9083 16.3674C21.9157 16.4391 21.9201 16.5125 21.9201 16.5842C21.9201 17.1618 21.6855 17.7292 21.2751 18.1381C21.2253 18.1894 21.1711 18.2378 21.1153 18.2832C21.0596 18.3287 21.0009 18.3725 20.9408 18.4124C20.8822 18.4519 20.8191 18.4885 20.7561 18.5224C20.6931 18.5559 20.6271 18.5867 20.5611 18.6147C20.4952 18.641 20.4277 18.6659 20.3588 18.6863C20.29 18.7069 20.221 18.726 20.1507 18.739C20.0804 18.7537 20.0084 18.7639 19.9367 18.7712C19.865 18.7786 19.7933 18.7815 19.7213 18.7815Z" fill="#00DD7B"/>
<path d="M28.5163 18.7815C28.4445 18.7815 28.3711 18.7786 28.2993 18.7712C28.229 18.7639 28.1571 18.7537 28.0868 18.739C28.0165 18.7258 27.946 18.7068 27.8771 18.6863C27.8098 18.6658 27.7408 18.6409 27.6749 18.6147C27.6089 18.5868 27.5429 18.5561 27.4799 18.5224C27.4169 18.4887 27.3552 18.4521 27.2952 18.4124C27.2351 18.3727 27.1764 18.3289 27.1222 18.2832C27.065 18.2378 27.0123 18.1894 26.9609 18.1381C26.5519 17.7292 26.3174 17.162 26.3174 16.5842C26.3174 16.5125 26.3203 16.4391 26.3276 16.3674C26.335 16.2971 26.3452 16.2251 26.3599 16.1549C26.3745 16.0846 26.3921 16.0141 26.4126 15.9453C26.4331 15.8763 26.458 15.8087 26.4858 15.7428C26.5122 15.6771 26.543 15.611 26.5767 15.548C26.6104 15.4849 26.6484 15.4232 26.6881 15.3631C26.7277 15.3031 26.7702 15.2443 26.8157 15.1901C26.8611 15.133 26.9095 15.0801 26.9609 15.0289C27.0122 14.9774 27.0649 14.9291 27.1222 14.8837C27.1764 14.8381 27.2351 14.7957 27.2952 14.7546C27.3552 14.7149 27.4169 14.6783 27.4799 14.6448C27.5429 14.6111 27.6089 14.5803 27.6749 14.5525C27.7408 14.526 27.8098 14.5011 27.8771 14.4807C27.946 14.4601 28.0165 14.441 28.0868 14.428C28.1571 14.4133 28.229 14.4031 28.2993 14.3958C28.443 14.3811 28.588 14.3811 28.7317 14.3958C28.8035 14.4031 28.8754 14.4133 28.9458 14.428C29.0161 14.4412 29.0865 14.4602 29.1539 14.4807C29.2228 14.5012 29.2903 14.5261 29.3577 14.5525C29.4236 14.5802 29.4882 14.6109 29.5512 14.6448C29.6142 14.6783 29.6773 14.7149 29.7359 14.7546C29.7959 14.7955 29.8547 14.838 29.9104 14.8837C29.966 14.9291 30.0202 14.9774 30.0702 15.0289C30.1214 15.0801 30.1698 15.1329 30.2153 15.1901C30.2607 15.2443 30.3047 15.3031 30.3444 15.3631C30.3839 15.4232 30.4206 15.4849 30.4542 15.548C30.4879 15.611 30.5187 15.6771 30.5465 15.7428C30.5729 15.8087 30.5978 15.8763 30.6183 15.9453C30.6403 16.0141 30.6579 16.0844 30.671 16.1549C30.6857 16.2251 30.6959 16.2971 30.7033 16.3674C30.7106 16.4391 30.715 16.5125 30.715 16.5842C30.715 17.1618 30.4805 17.7292 30.07 18.1381C30.0202 18.1894 29.966 18.2378 29.9102 18.2832C29.8545 18.3287 29.7958 18.3725 29.7357 18.4124C29.6771 18.4519 29.614 18.4885 29.551 18.5224C29.488 18.5559 29.4234 18.5867 29.3561 18.6147C29.2901 18.641 29.2226 18.6659 29.1538 18.6863C29.0864 18.7069 29.0159 18.726 28.9456 18.739C28.8753 18.7537 28.8034 18.7639 28.7316 18.7712C28.66 18.7786 28.5882 18.7815 28.5163 18.7815Z" fill="#00DD7B"/>
<path d="M25.0252 42.3101C24.495 42.6116 23.8741 42.7623 23.1617 42.7623C22.5951 42.7623 22.0562 42.6519 21.545 42.4301C21.0333 42.2086 20.6359 41.9632 20.3529 41.6937C20.0694 41.4243 19.7589 41.179 19.4212 40.9573C19.0829 40.7358 18.7771 40.6248 18.5032 40.6248C18.01 40.6248 17.5758 40.8809 17.2016 41.3921C16.8269 41.9036 16.6396 42.4154 16.6396 42.9268C16.6396 43.8404 17.2974 44.6628 18.6128 45.3932C19.9282 46.124 21.4719 46.4893 23.2442 46.4893C25.2901 46.4893 26.9438 45.9649 28.2043 44.9153C29.4649 43.8659 30.0953 42.3993 30.0953 40.5152C30.0953 39.4374 29.8804 38.4784 29.4512 37.6377C29.0217 36.7976 28.4873 36.1441 27.8481 35.6783C27.2084 35.2124 26.5095 34.7834 25.7516 34.3903C24.9934 33.9976 24.2943 33.6778 23.6551 33.4311C23.0154 33.1844 22.481 32.8878 22.052 32.5405C21.6225 32.1936 21.4079 31.8101 21.4079 31.3895C21.4079 30.9331 21.6361 30.5446 22.093 30.2249C22.5494 29.9055 23.2345 29.7454 24.1482 29.7454C25.0067 29.7454 25.7923 29.9194 26.5051 30.2662C27.2176 30.6135 27.6834 30.7868 27.9027 30.7868C28.4322 30.7868 28.8481 30.5269 29.1496 30.007C29.451 29.4872 29.6018 28.9862 29.6018 28.5031C29.6018 27.9954 29.3962 27.5624 28.9851 27.2045C28.574 26.8469 28.0439 26.5882 27.3956 26.428C26.7469 26.2679 26.1623 26.1596 25.6417 26.1031C25.1211 26.0465 24.6229 26.0184 24.1482 26.0184C22.2115 26.0184 20.5583 26.4978 19.188 27.4572C17.8178 28.4162 17.1329 29.8641 17.1329 31.8007C17.1329 32.9886 17.4295 34.0116 18.0235 34.87C18.617 35.729 19.3432 36.391 20.2022 36.8569C21.0607 37.3228 21.915 37.7433 22.7645 38.1176C23.6141 38.4924 24.3355 38.9082 24.9295 39.3646C25.5231 39.8215 25.8201 40.351 25.8201 40.9541C25.82 41.5569 25.5548 42.0085 25.0252 42.3101Z" fill="white"/>
<path d="M44.7018 40.5152C44.7018 42.3989 44.0715 43.8661 42.8108 44.9156C41.5502 45.9652 39.8954 46.4899 37.8506 46.4899C37.7215 46.4899 37.5941 46.4884 37.4665 46.4826C35.8542 46.4342 34.4381 46.0706 33.2186 45.3934C31.9038 44.6621 31.2456 43.8397 31.2456 42.9265C31.2456 42.415 31.4333 41.9033 31.8071 41.3918C32.1824 40.8803 32.6163 40.6252 33.1087 40.6252C33.3828 40.6252 33.6893 40.7351 34.0278 40.9566C34.365 41.1794 34.6757 41.4242 34.9585 41.6938C35.2414 41.9635 35.6401 42.2083 36.1517 42.4296C36.5709 42.6129 37.0092 42.7198 37.4665 42.7506C37.5661 42.7594 37.6673 42.7623 37.7684 42.7623C38.4808 42.7623 39.1008 42.6113 39.6314 42.3094C40.1605 42.0089 40.4259 41.556 40.4259 40.9535C40.4259 40.351 40.1284 39.8205 39.5347 39.3646C38.963 38.9249 38.2741 38.5247 37.4665 38.1598C37.4357 38.1451 37.4035 38.1319 37.3713 38.1173C36.5211 37.7435 35.6665 37.3228 34.8075 36.8566C33.95 36.3905 33.223 35.7294 32.6293 34.8705C32.0356 34.0115 31.7396 32.9883 31.7396 31.801C31.7396 29.8632 32.4241 28.4165 33.7946 27.4563C34.85 26.7176 36.0739 26.2632 37.4665 26.0946C37.8799 26.0433 38.3108 26.0184 38.755 26.0184C39.2299 26.0184 39.7268 26.0462 40.2487 26.1034C40.769 26.159 41.3539 26.2676 42.0018 26.4272C42.6497 26.5885 43.1803 26.8465 43.5907 27.2042C44.0026 27.5619 44.2079 27.9958 44.2079 28.5029C44.2079 28.9866 44.0568 29.4864 43.7564 30.0069C43.4545 30.5272 43.0382 30.7868 42.5089 30.7868C42.2891 30.7868 41.8244 30.6138 41.1106 30.2665C40.3982 29.919 39.6125 29.7447 38.755 29.7447C38.2566 29.7447 37.8272 29.793 37.4665 29.8884C37.1631 29.9675 36.9065 30.0804 36.7 30.2256C36.2426 30.5451 36.014 30.9335 36.014 31.3894C36.014 31.8101 36.228 32.1942 36.6575 32.54C36.8949 32.7321 37.1646 32.9095 37.4667 33.0691C37.71 33.2011 37.9752 33.3212 38.2612 33.4312C38.9003 33.6775 39.5995 33.9986 40.3574 34.3898C41.1151 34.7842 41.8145 35.2122 42.4549 35.6783C43.094 36.1444 43.6275 36.7982 44.057 37.6381C44.4865 38.4781 44.7018 39.4378 44.7018 40.5152Z" fill="white"/>
<path d="M58.5667 44.3512C58.5667 44.8627 58.4582 45.3025 58.2384 45.6675C58.02 46.0326 57.7181 46.2157 57.334 46.2157H48.674C48.1625 46.2157 47.7242 46.1013 47.3592 45.8726C46.9927 45.6439 46.811 45.3201 46.811 44.8994V27.4709C46.811 27.0502 47.0207 26.7308 47.4414 26.5109C47.8621 26.2925 48.3633 26.1825 48.9482 26.1825C49.5332 26.1825 50.0359 26.2925 50.4566 26.5109C50.8758 26.7308 51.0869 27.0502 51.0869 27.4709V42.4882H57.334C57.7181 42.4882 58.02 42.6715 58.2384 43.0364C58.4583 43.4014 58.5667 43.8397 58.5667 44.3512Z" fill="#DCE6EB"/>
<path d="M59.0141 53.4231C59.0141 54.6384 58.0306 55.6219 56.8153 55.6219H18.1177C16.9024 55.6219 15.9189 54.6384 15.9189 53.4231C15.9189 52.2094 16.9024 51.2244 18.1177 51.2244H56.8152C58.0304 51.2244 59.0141 52.2095 59.0141 53.4231Z" fill="white"/>
<path d="M38.7548 29.7444C38.2564 29.7444 37.827 29.7927 37.4663 29.8881V26.0946C37.8797 26.0433 38.3106 26.0184 38.7548 26.0184C39.2297 26.0184 39.7266 26.0462 40.2485 26.1034C40.7688 26.159 41.3537 26.2676 42.0016 26.4272C42.6495 26.5885 43.1801 26.8465 43.5905 27.2042C44.0024 27.5619 44.2076 27.9958 44.2076 28.5029C44.2076 28.9866 44.0566 29.4864 43.7562 30.0069C43.4543 30.5272 43.038 30.7868 42.5087 30.7868C42.2889 30.7868 41.8242 30.6138 41.1104 30.2665C40.3979 29.9188 39.6123 29.7444 38.7548 29.7444Z" fill="#DCE6EB"/>
<path d="M44.7016 40.5152C44.7016 42.3989 44.0713 43.8661 42.8106 44.9156C41.55 45.9652 39.8952 46.4899 37.8504 46.4899C37.7213 46.4899 37.5939 46.4884 37.4663 46.4826V42.7506C37.5659 42.7594 37.6671 42.7623 37.7682 42.7623C38.4806 42.7623 39.1006 42.6113 39.6312 42.3094C40.1603 42.0089 40.4257 41.556 40.4257 40.9535C40.4257 40.351 40.1282 39.8205 39.5345 39.3646C38.9628 38.9249 38.2739 38.5247 37.4663 38.1598V33.0688C37.7096 33.2008 37.9749 33.3209 38.2608 33.431C38.8999 33.6772 39.5991 33.9983 40.357 34.3896C41.1148 34.7839 41.8141 35.2119 42.4545 35.678C43.0936 36.1441 43.6271 36.7979 44.0566 37.6378C44.4861 38.4776 44.7016 39.4378 44.7016 40.5152Z" fill="#DCE6EB"/>
<path d="M59.0139 53.4231C59.0139 54.6384 58.0304 55.6219 56.8151 55.6219H37.4663V51.2244H56.8151C58.0302 51.2244 59.0139 52.2095 59.0139 53.4231Z" fill="#DCE6EB"/>
</svg>
