<svg width="50" height="50" viewBox="0 0 50 50" fill="none" xmlns="http://www.w3.org/2000/svg">
<g clip-path="url(#clip0)">
<path d="M34.6111 18.1305C34.8508 18.0032 35.0007 17.754 35.0007 17.4825V4.97666C35.0007 4.57148 34.6723 4.24306 34.2671 4.24306H27.2664C26.8611 4.24306 26.5328 4.57148 26.5328 4.97666V8.24062H8.46787V4.97666C8.46787 4.57148 8.13955 4.24306 7.73428 4.24306H0.733594C0.32832 4.24306 0 4.57158 0 4.97666V45.9426C0 46.3477 0.32832 46.6762 0.733594 46.6762H24.731C25.1362 46.6762 25.4646 46.3477 25.4646 45.9426V45.4237C25.4646 42.9721 26.3407 40.6253 27.9983 38.6374C29.5913 36.727 31.795 35.3228 34.2037 34.6838C34.2037 34.6838 34.2037 34.6838 34.2038 34.6838C34.2782 34.6641 34.353 34.646 34.428 34.6278L34.4396 34.6251C34.7687 34.5455 35.0005 34.2508 35.0005 33.912V32.8892C35.0005 32.6178 34.8507 32.3684 34.6108 32.2411C32.9198 31.3435 31.8694 29.607 31.8694 27.7091V22.664C31.8694 20.7655 32.92 19.0283 34.6111 18.1305Z" fill="#546F7A"/>
<path d="M8.46807 8.24063V4.97666C8.46807 4.57148 8.13975 4.24306 7.73447 4.24306H5.82715V8.24063H8.46807Z" fill="#465A65"/>
<path d="M34.6116 18.1305C34.8513 18.0032 35.0012 17.754 35.0012 17.4825V4.97666C35.0012 4.57148 34.6728 4.24306 34.2676 4.24306H32.3603V17.4825C32.3603 17.7517 32.2142 18.0016 31.9763 18.1275C30.2819 19.0246 29.2291 20.7635 29.2291 22.6644V27.7095C29.2291 29.6073 30.2795 31.3439 31.9705 32.2415C32.2104 32.3687 32.3602 32.618 32.3602 32.8895V33.9144C32.3602 34.2526 32.1281 34.5467 31.7992 34.6255L31.7877 34.6282C31.7128 34.6464 31.638 34.6644 31.5635 34.6842C31.5634 34.6842 31.5634 34.6842 31.5634 34.6842C29.1547 35.3233 26.951 36.7274 25.358 38.6378C23.7005 40.6258 22.8242 42.9724 22.8242 45.4241V46.6766H24.7315C25.1368 46.6766 25.4651 46.3481 25.4651 45.943V45.4241C25.4651 42.9725 26.3413 40.6257 27.9989 38.6378C29.5919 36.7274 31.7956 35.3232 34.2043 34.6842C34.2043 34.6842 34.2043 34.6842 34.2044 34.6842C34.2788 34.6644 34.3536 34.6464 34.4286 34.6282L34.4401 34.6255C34.7692 34.5459 35.0011 34.2512 35.0011 33.9124V32.8895C35.0011 32.6182 34.8513 32.3687 34.6114 32.2415C32.9204 31.3439 31.87 29.6074 31.87 27.7095V22.6644C31.8699 20.7655 32.9205 19.0283 34.6116 18.1305Z" fill="#465A65"/>
<path d="M31.1215 6.82421H27.2666C26.8613 6.82421 26.533 7.15263 26.533 7.55781V8.24052H8.46816V7.55781C8.46816 7.15263 8.13984 6.82421 7.73457 6.82421H3.87959C3.47441 6.82421 3.146 7.15263 3.146 7.55781V43.1028C3.146 43.508 3.47441 43.8364 3.87959 43.8364H24.9838C25.3284 43.8364 25.6265 43.5966 25.7003 43.2601C26.3827 40.1511 28.4875 37.4249 31.4752 35.7808C31.7096 35.6518 31.8551 35.4056 31.8551 35.138V7.55781C31.8551 7.15263 31.5267 6.82421 31.1215 6.82421Z" fill="#EFE7E4"/>
<path d="M31.1212 6.82421H29.2139V35.5794C29.2139 35.5797 29.2137 35.58 29.2134 35.5802C25.837 37.2928 23.5077 40.3577 22.9497 43.8364H24.9835C25.3281 43.8364 25.6262 43.5966 25.7 43.2601C26.3824 40.1511 28.4872 37.4249 31.4749 35.7808C31.7093 35.6518 31.8548 35.4056 31.8548 35.138V7.55781C31.8548 7.15263 31.5264 6.82421 31.1212 6.82421Z" fill="#D8D1D0"/>
<path d="M24.9017 25.7689C24.7642 25.6313 24.5777 25.5539 24.3829 25.5538L16.7487 25.5504C16.52 25.5504 16.3041 25.657 16.1653 25.8388L11.6033 31.8119C11.3588 32.1319 11.4181 32.5894 11.7361 32.8364C13.2025 33.9761 14.9611 34.5785 16.8216 34.5785C21.3931 34.5785 25.114 30.8594 25.1161 26.2878C25.1163 26.0932 25.0392 25.9066 24.9017 25.7689Z" fill="#37B7FF"/>
<path d="M24.9018 25.7689C24.7643 25.6313 24.5777 25.5539 24.383 25.5538L16.7487 25.5504C16.7486 25.5504 16.7485 25.5504 16.7484 25.5504C16.7415 25.5504 16.7348 25.5514 16.7279 25.5516L21.6776 25.5537C21.8722 25.5538 22.0587 25.6312 22.1964 25.7688C22.3339 25.9064 22.4111 26.0931 22.411 26.2877C22.4092 30.4021 19.3946 33.8243 15.4595 34.4682C15.9054 34.5412 16.3605 34.5785 16.8219 34.5785C21.3934 34.5785 25.1142 30.8594 25.1164 26.2878C25.1164 26.0932 25.0393 25.9066 24.9018 25.7689Z" fill="#3178A0"/>
<path d="M27.2661 2.5707H21.3098C20.6919 1.0333 19.1989 0.00234175 17.5001 0.00234175C15.8013 0.00234175 14.3082 1.0332 13.6903 2.5707H7.73408C7.32891 2.5707 7.00049 2.89912 7.00049 3.30429V8.97422C7.00049 9.37939 7.32891 9.70781 7.73408 9.70781H27.2661C27.6714 9.70781 27.9997 9.37939 27.9997 8.97422V3.30429C27.9997 2.89912 27.6712 2.5707 27.2661 2.5707Z" fill="#2B7BE1"/>
<path d="M37.0089 32.8286C37.0022 32.8285 36.9955 32.8285 36.9889 32.8286C29.9469 32.925 23.9976 38.693 23.9976 45.4238V49.264C23.9976 49.6692 24.3259 49.9976 24.7312 49.9976H49.2666C49.6719 49.9976 50.0002 49.6692 50.0002 49.264V45.4238C50.0002 38.6928 44.0509 32.9249 37.0089 32.8286Z" fill="#68CBD8"/>
<path d="M37.0087 32.8286C37.002 32.8285 36.9953 32.8285 36.9887 32.8286C36.5362 32.8348 36.0882 32.8648 35.646 32.9166C42.0853 33.6706 47.2946 39.1254 47.2946 45.4239V49.264C47.2946 49.6692 46.9663 49.9976 46.561 49.9976H49.2665C49.6718 49.9976 50.0001 49.6692 50.0001 49.264V45.4239C50 38.6928 44.0507 32.9249 37.0087 32.8286Z" fill="#3695B2"/>
<path d="M40.8274 43.9966L39.1628 36.7711C39.0847 36.4316 38.7825 36.1911 38.4341 36.1911H35.5632C35.2149 36.1911 34.9126 36.4316 34.8345 36.7711L33.17 43.9966C33.1095 44.2592 33.195 44.5341 33.3939 44.7161L36.4939 47.5534C36.6367 47.6842 36.8177 47.7495 36.9988 47.7495C37.1798 47.7495 37.3608 47.6842 37.5035 47.5534L40.6035 44.7161C40.8024 44.5342 40.8878 44.2592 40.8274 43.9966Z" fill="#2B7BE1"/>
<path d="M40.6029 44.7161C40.8017 44.5341 40.8873 44.2593 40.8268 43.9966L39.223 37.0345H36.9981H36.4501L38.083 44.1228L35.4141 46.5656L36.4934 47.5533C36.6361 47.6841 36.8172 47.7494 36.9982 47.7494C37.1793 47.7494 37.3602 47.6841 37.5031 47.5533L40.6029 44.7161Z" fill="#0B4DA1"/>
<path d="M34.765 37.0345H39.2317L41.0284 33.5182C39.7564 33.0903 38.4041 32.8477 37.0085 32.8285C37.0019 32.8284 36.9951 32.8284 36.9885 32.8285C35.5874 32.8477 34.2299 33.092 32.9536 33.5232L34.765 37.0345Z" fill="#0B4DA1"/>
<path d="M38.4367 32.9285L36.4507 37.0346H39.232L41.0287 33.5183C40.1959 33.238 39.328 33.039 38.4367 32.9285Z" fill="#424C58"/>
<path d="M36.9989 16.0679C33.3615 16.0679 30.4023 19.0271 30.4023 22.6644V27.7095C30.4023 31.3468 33.3615 34.306 36.9989 34.306C40.6361 34.306 43.5953 31.3468 43.5953 27.7095V22.6644C43.5953 19.0271 40.6361 16.0679 36.9989 16.0679Z" fill="#FFC89F"/>
<path d="M36.9986 16.0679C36.5391 16.0679 36.0905 16.1154 35.6572 16.2053C38.6534 16.8267 40.9122 19.4865 40.9122 22.6643V27.7094C40.9122 30.8871 38.6534 33.547 35.6572 34.1684C36.0905 34.2583 36.5391 34.3058 36.9986 34.3058C40.6358 34.3058 43.595 31.3466 43.595 27.7093V22.6642C43.595 19.027 40.6358 16.0679 36.9986 16.0679Z" fill="#F7B081"/>
<path d="M43.5953 25.1965V22.6641C43.5953 19.0268 40.6361 16.0677 36.9989 16.0677C33.3615 16.0677 30.4023 19.0268 30.4023 22.6641V25.1971H31.1214C36.2521 25.1971 38.1213 21.7327 38.1213 21.7327C38.1213 21.7327 39.4279 25.1804 42.8616 25.1964H43.5952V25.1965H43.5953Z" fill="black"/>
<path d="M17.3671 25.8898L12.5045 18.2592C12.3994 18.0942 12.2329 17.9781 12.0417 17.9366C11.8509 17.8949 11.6509 17.9314 11.4868 18.0379C8.67793 19.8587 7.00098 22.9414 7.00098 26.2842C7.00098 29.3431 8.38945 32.1738 10.8105 34.0503C10.9398 34.1506 11.0981 34.2041 11.26 34.2041C11.2915 34.2041 11.3231 34.2021 11.3549 34.198C11.5486 34.1728 11.7243 34.0712 11.843 33.9157L17.3315 26.7295C17.5183 26.4847 17.5325 26.1494 17.3671 25.8898Z" fill="#8EA0B7"/>
<path d="M17.3665 25.8898L16.3533 24.3L9.74609 33.0973C10.0742 33.4366 10.4292 33.7552 10.8099 34.0502C10.9392 34.1505 11.0975 34.204 11.2593 34.204C11.2908 34.204 11.3225 34.202 11.3542 34.1979C11.5479 34.1727 11.7236 34.0711 11.8423 33.9156L17.3308 26.7294C17.5177 26.4847 17.5319 26.1494 17.3665 25.8898Z" fill="#424C58"/>
<path d="M16.8216 15.1058C14.6615 15.1058 12.5645 15.7236 10.7577 16.8925C10.419 17.1115 10.3208 17.5627 10.5374 17.9027L16.1295 26.6782C16.2642 26.8895 16.4974 27.0175 16.7479 27.0176L27.2659 27.0223C27.266 27.0223 27.2661 27.0223 27.2662 27.0223C27.4606 27.0223 27.6472 26.945 27.7848 26.8075C27.9192 26.6732 27.996 26.4922 27.9998 26.3026C27.9999 26.2964 28 26.2895 28 26.2841C28 20.1203 22.9853 15.1058 16.8216 15.1058Z" fill="#2B7BE1"/>
<path d="M16.8215 15.1058C16.3684 15.1058 15.9182 15.1346 15.4727 15.1883C20.9986 15.8603 25.2937 20.5797 25.2937 26.284C25.2937 26.2896 25.2936 26.2964 25.2935 26.3025C25.2925 26.3563 25.3028 26.64 25.3151 27.0214L27.2658 27.0223C27.2659 27.0223 27.266 27.0223 27.2661 27.0223C27.4606 27.0223 27.6472 26.945 27.7848 26.8075C27.9192 26.6732 27.996 26.4922 27.9997 26.3026C27.9998 26.2964 27.9999 26.2895 27.9999 26.2841C27.9998 20.1203 22.9852 15.1058 16.8215 15.1058Z" fill="#0B4DA1"/>
</g>
<defs>
<clipPath id="clip0">
<rect width="50" height="50" fill="white"/>
</clipPath>
</defs>
</svg>
