<svg width="50" height="50" viewBox="0 0 50 50" fill="none" xmlns="http://www.w3.org/2000/svg">
<g clip-path="url(#clip0)">
<path d="M36.2069 10.3448V46.5517H3.44828C1.95607 46.5521 0.633505 45.5916 0.172584 44.1726C0.0580908 43.8274 -0.000418677 43.4667 2.25513e-06 43.1034V3.44828C2.25513e-06 1.54398 1.54398 0 3.44828 0H25.8621V8.62069C25.865 9.57158 26.6353 10.3419 27.5862 10.3448H36.2069Z" fill="#E6E7E8"/>
<path d="M27.5864 10.3448H36.2071L25.8623 0V8.62069C25.8623 9.57284 26.6343 10.3448 27.5864 10.3448Z" fill="#8EA0B7"/>
<path d="M25.8619 15.5172H46.5515C48.4558 15.5172 49.9998 17.0612 49.9998 18.9655V46.5517C49.9998 48.456 48.4558 50 46.5515 50H25.8619C23.9576 50 22.4136 48.456 22.4136 46.5517V18.9655C22.4136 17.0612 23.9576 15.5172 25.8619 15.5172Z" fill="#2B7BE1"/>
<path d="M46.5772 25.724C46.5986 27.6275 45.0753 29.1891 43.1723 29.2156L30.7758 29.3878L29.3791 29.4051C27.4757 29.4261 25.914 27.9032 25.8875 26.0001L25.8362 22.5519C25.8147 20.6484 27.338 19.0867 29.2411 19.0602L43.0342 18.8708C43.3844 18.8704 43.7325 18.9196 44.0688 19.0173C45.5114 19.45 46.5065 20.7696 46.5258 22.2757L46.5772 25.724Z" fill="#E6E7E8"/>
<path d="M31.0347 35.3448C31.0347 36.7731 29.8767 37.931 28.4485 37.931C27.0203 37.931 25.8623 36.7731 25.8623 35.3448C25.8623 33.9166 27.0203 32.7586 28.4485 32.7586C29.8767 32.7586 31.0347 33.9166 31.0347 35.3448Z" fill="#87B9F9"/>
<path d="M38.7935 35.3448C38.7935 36.7731 37.6355 37.931 36.2073 37.931C34.7791 37.931 33.6211 36.7731 33.6211 35.3448C33.6211 33.9166 34.7791 32.7586 36.2073 32.7586C37.6355 32.7586 38.7935 33.9166 38.7935 35.3448Z" fill="#87B9F9"/>
<path d="M31.0347 43.9655C31.0347 45.3937 29.8767 46.5517 28.4485 46.5517C27.0203 46.5517 25.8623 45.3937 25.8623 43.9655C25.8623 42.5373 27.0203 41.3793 28.4485 41.3793C29.8767 41.3793 31.0347 42.5373 31.0347 43.9655Z" fill="#87B9F9"/>
<path d="M38.7935 43.9655C38.7935 45.3937 37.6355 46.5517 36.2073 46.5517C34.7791 46.5517 33.6211 45.3937 33.6211 43.9655C33.6211 42.5373 34.7791 41.3793 36.2073 41.3793C37.6355 41.3793 38.7935 42.5373 38.7935 43.9655Z" fill="#87B9F9"/>
<path d="M43.9656 32.7586C42.5374 32.7586 41.3794 33.9166 41.3794 35.3448V43.9655C41.3794 45.3937 42.5374 46.5517 43.9656 46.5517C45.3938 46.5517 46.5518 45.3937 46.5518 43.9655V35.3448C46.5518 33.9166 45.3938 32.7586 43.9656 32.7586Z" fill="#87B9F9"/>
<path d="M46.5773 25.724C46.5987 27.6275 45.0754 29.1891 43.1723 29.2156L30.7759 29.3878C35.7955 26.7603 40.299 23.2468 44.0689 19.0173C45.5115 19.45 46.5065 20.7696 46.5259 22.2757L46.5773 25.724Z" fill="#D8D7DA"/>
<path d="M8.62077 14.6552C8.27224 14.6552 7.9578 14.4451 7.82436 14.1231C7.69093 13.8011 7.76501 13.4303 8.01126 13.1836L15.7699 5.42498C16.1083 5.09833 16.6458 5.10296 16.9784 5.4355C17.3109 5.76804 17.3155 6.30557 16.9889 6.644L9.23028 14.4026C9.06864 14.5643 8.84933 14.6552 8.62077 14.6552Z" fill="#2B7BE1"/>
<path d="M15.5174 15.5172C14.0891 15.5172 12.9312 14.3593 12.9312 12.931C12.9312 11.5028 14.0891 10.3448 15.5174 10.3448C16.9456 10.3448 18.1036 11.5028 18.1036 12.931C18.1036 14.3593 16.9456 15.5172 15.5174 15.5172ZM15.5174 12.069C15.0413 12.069 14.6553 12.455 14.6553 12.931C14.6553 13.4071 15.0413 13.7931 15.5174 13.7931C15.9934 13.7931 16.3794 13.4071 16.3794 12.931C16.3794 12.455 15.9934 12.069 15.5174 12.069Z" fill="#2B7BE1"/>
<path d="M9.48269 9.48276C8.05447 9.48276 6.89648 8.32478 6.89648 6.89656C6.89648 5.46833 8.05447 4.31035 9.48269 4.31035C10.9109 4.31035 12.0689 5.46833 12.0689 6.89656C12.0689 8.32478 10.9109 9.48276 9.48269 9.48276ZM9.48269 6.03449C9.00662 6.03449 8.62062 6.42048 8.62062 6.89656C8.62062 7.37263 9.00662 7.75862 9.48269 7.75862C9.95877 7.75862 10.3448 7.37263 10.3448 6.89656C10.3448 6.42048 9.95877 6.03449 9.48269 6.03449Z" fill="#2B7BE1"/>
<path d="M15.5174 22.4138H5.17262C4.69654 22.4138 4.31055 22.0278 4.31055 21.5517C4.31055 21.0756 4.69654 20.6897 5.17262 20.6897H15.5174C15.9935 20.6897 16.3795 21.0756 16.3795 21.5517C16.3795 22.0278 15.9935 22.4138 15.5174 22.4138Z" fill="#87B9F9"/>
<path d="M17.2416 25.8621H5.17262C4.69654 25.8621 4.31055 25.4761 4.31055 25C4.31055 24.5239 4.69654 24.1379 5.17262 24.1379H17.2416C17.7177 24.1379 18.1036 24.5239 18.1036 25C18.1036 25.4761 17.7177 25.8621 17.2416 25.8621Z" fill="#87B9F9"/>
<path d="M8.62089 29.3104H5.17262C4.69654 29.3104 4.31055 28.9244 4.31055 28.4483C4.31055 27.9722 4.69654 27.5862 5.17262 27.5862H8.62089C9.09697 27.5862 9.48296 27.9722 9.48296 28.4483C9.48296 28.9244 9.09697 29.3104 8.62089 29.3104Z" fill="#87B9F9"/>
<path d="M17.2415 29.3104H12.0691C11.593 29.3104 11.207 28.9244 11.207 28.4483C11.207 27.9722 11.593 27.5862 12.0691 27.5862H17.2415C17.7176 27.5862 18.1036 27.9722 18.1036 28.4483C18.1036 28.9244 17.7176 29.3104 17.2415 29.3104Z" fill="#87B9F9"/>
</g>
<defs>
<clipPath id="clip0">
<rect width="50" height="50" fill="white"/>
</clipPath>
</defs>
</svg>
