<svg width="35" height="35" viewBox="0 0 35 35" fill="none" xmlns="http://www.w3.org/2000/svg">
<path d="M25.541 2.71852C21.2603 0.278527 18.1978 -0.648321 13.5514 0.470356C10.0228 1.31992 7.96983 2.50867 5.3086 5.41632C2.2085 8.80349 0.339829 10.281 0.0295354 15.2985C-0.382833 21.9665 3.59096 26.0674 7.68935 30.597C11.1082 34.3755 13.7673 34.8078 18.4131 34.968C24.0569 35.1626 27.4614 34.6034 31.1794 29.5042C34.5847 24.8341 35.5085 20.345 34.7541 14.2057C33.9391 7.57268 30.5876 5.59513 25.541 2.71852Z" fill="#BBBBBB" fill-opacity="0.2"/>
<g clip-path="url(#clip0)">
<path d="M26.4491 8.55091C24.1591 6.26095 21.1152 5 17.8765 5C17.8763 5 17.8756 5 17.8754 5C16.2736 5.00019 14.7126 5.31033 13.2361 5.92201C11.7595 6.5337 10.4365 7.41814 9.30374 8.55091C7.01397 10.8407 5.75302 13.8852 5.75302 17.1235C5.75302 19.0547 6.21899 20.9739 7.1019 22.6838L5.06409 28.5054C4.92047 28.9161 5.02213 29.3624 5.32997 29.67C5.54531 29.8856 5.82875 30 6.12019 30C6.24512 30 6.37139 29.979 6.4946 29.9359L12.3162 27.8983C14.0261 28.7812 15.9453 29.2472 17.8765 29.2472C21.1148 29.2472 24.1591 27.986 26.4491 25.6963C28.7389 23.4065 30 20.362 30 17.1237C30 13.8852 28.7391 10.8407 26.4491 8.55091V8.55091ZM25.4123 24.6594C23.3994 26.6724 20.723 27.7808 17.8765 27.7808C16.1351 27.7808 14.4051 27.3501 12.8735 26.5349C12.5958 26.3873 12.2676 26.3619 11.9729 26.4651L6.68381 28.3162L8.53508 23.0271C8.63827 22.732 8.61271 22.4038 8.46508 22.1263C7.65007 20.5951 7.2192 18.8651 7.2192 17.1235C7.2192 14.277 8.32775 11.6006 10.3406 9.58775C12.3532 7.57511 15.0292 6.46656 17.8756 6.46618H17.8765C20.7232 6.46618 23.3994 7.57473 25.4123 9.58775C27.4253 11.6006 28.5338 14.2768 28.5338 17.1235C28.5338 19.9702 27.4253 22.6466 25.4123 24.6594V24.6594Z" fill="#424C58"/>
<path d="M22.3819 18.2065C21.8242 17.6488 20.9167 17.6488 20.359 18.2065L19.749 18.8164C18.2344 17.9911 17.0087 16.7655 16.1832 15.2508L16.7932 14.6409C17.3511 14.0832 17.3511 13.1757 16.7932 12.6179L15.1495 10.9742C14.5917 10.4165 13.6842 10.4165 13.1265 10.9742L11.8116 12.2891C11.0584 13.0423 11.0208 14.3372 11.7057 15.9354C12.3004 17.323 13.3888 18.8481 14.7703 20.2296C16.1518 21.6111 17.6769 22.6994 19.0645 23.2941C19.8238 23.6195 20.5144 23.7818 21.1113 23.7818C21.7706 23.7818 22.3154 23.5837 22.7108 23.1883L24.0257 21.8732V21.8734C24.296 21.6031 24.4447 21.2439 24.4447 20.8619C24.4447 20.4797 24.296 20.1205 24.0257 19.8504L22.3819 18.2065ZM21.6739 22.1514C21.459 22.3664 20.7979 22.4417 19.6422 21.9466C18.4219 21.4236 17.0599 20.4455 15.8071 19.1928C14.5544 17.94 13.5765 16.5782 13.0535 15.3578C12.5581 14.2022 12.6335 13.5409 12.8484 13.326L14.1382 12.0362L15.7312 13.6294L14.9677 14.3931C14.6225 14.7383 14.5391 15.2619 14.7605 15.696C15.7644 17.6644 17.3355 19.2355 19.3038 20.2393C19.7381 20.4608 20.2617 20.3776 20.6069 20.0322L21.3705 19.2687L22.9637 20.8619L21.6739 22.1514Z" fill="#424C58"/>
</g>
<defs>
<clipPath id="clip0">
<rect width="25" height="25" fill="white" transform="translate(5 5)"/>
</clipPath>
</defs>
</svg>
